G04 Layer: BottomSolderMaskLayer*
G04 EasyEDA Pro v2.1.51.8c9149c1.e57db4, 2024-03-19 08:48:05*
G04 Gerber Generator version 0.3*
G04 Scale: 100 percent, Rotated: No, Reflected: No*
G04 Dimensions in millimeters*
G04 Leading zeros omitted, absolute positions, 3 integers and 5 decimals*
%FSLAX35Y35*%
%MOMM*%
%ADD10C,0.254*%
G75*


G04 PolygonModel Start*
G36*
G01X27022261Y-2189486D02*
G01X25722263Y-2189486D01*
G02X25522264Y-1989486I0J200000D01*
G01Y-689489D01*
G02X25722263Y-489489I200000J0D01*
G01X27022261D01*
G02X27222260Y-689489I0J-200000D01*
G01Y-1989486D01*
G02X27022261Y-2189486I-200000J0D01*
G37*
G36*
G01X23617131Y-1989486D02*
G01X23617131Y-689489D01*
G02X23817131Y-489489I200000J0D01*
G01X25117128D01*
G02X25317128Y-689489I0J-200000D01*
G01Y-1989486D01*
G02X25117128Y-2189486I-200000J0D01*
G01X23817131D01*
G02X23617131Y-1989486I0J200000D01*
G37*
G36*
G01X21235666Y-8181146D02*
G01X21235666Y-6881129D01*
G02X21435666Y-6681129I200000J0D01*
G01X22735763D01*
G02X22935763Y-6881129I0J-200000D01*
G01Y-8181146D01*
G02X22735763Y-8381146I-200000J0D01*
G01X21435666D01*
G02X21235666Y-8181146I0J200000D01*
G37*
G36*
G01X25541468Y-8358144D02*
G01X25448956Y-8358144D01*
G02X25408956Y-8318144I0J40000D01*
G01Y-7771111D01*
G03X25368956Y-7731111I-40000J0D01*
G01X25366550D01*
G02X25326550Y-7691111I0J40000D01*
G01Y-7191202D01*
G02X25366550Y-7151202I40000J0D01*
G01X25368956D01*
G03X25408956Y-7111202I0J40000D01*
G01Y-6868169D01*
G02X25448956Y-6828169I40000J0D01*
G01X25541468D01*
G03X25581468Y-6788170I0J40000D01*
G01Y-6776093D01*
G02X25621468Y-6736093I40000J0D01*
G01X26171390D01*
G02X26211390Y-6776093I0J-40000D01*
G01Y-6818169D01*
G03X26221390Y-6828169I10000J0D01*
G01X26226513D01*
G03X26236513Y-6818169I0J10000D01*
G01Y-6721129D01*
G02X26276513Y-6681129I40000J0D01*
G01X27896710D01*
G02X27936710Y-6721129I0J-40000D01*
G01Y-6818169D01*
G03X27946710Y-6828169I10000J0D01*
G01X27951633D01*
G03X27961633Y-6818169I0J10000D01*
G01Y-6776093D01*
G02X28001633Y-6736093I40000J0D01*
G01X28551755D01*
G02X28591755Y-6776093I0J-40000D01*
G01Y-6788170D01*
G03X28631755Y-6828169I40000J0D01*
G01X28724267D01*
G02X28764267Y-6868169I0J-40000D01*
G01Y-7111202D01*
G03X28804267Y-7151202I40000J0D01*
G01X28806673D01*
G02X28846673Y-7191202I0J-40000D01*
G01Y-7691111D01*
G02X28806673Y-7731111I-40000J0D01*
G01X28804267D01*
G03X28764267Y-7771111I0J-40000D01*
G01Y-8318144D01*
G02X28724267Y-8358144I-40000J0D01*
G01X28631755D01*
G03X28591755Y-8398144I0J-40000D01*
G01Y-8416261D01*
G02X28551755Y-8456261I-40000J0D01*
G01X28001633D01*
G02X27961633Y-8416261I0J40000D01*
G01Y-8368144D01*
G03X27951633Y-8358144I-10000J0D01*
G01X27946710D01*
G03X27936710Y-8368144I0J-10000D01*
G01Y-8371146D01*
G02X27926710Y-8381146I-10000J0D01*
G01X26246513D01*
G02X26236513Y-8371146I0J10000D01*
G01Y-8368144D01*
G03X26226513Y-8358144I-10000J0D01*
G01X26221390D01*
G03X26211390Y-8368144I0J-10000D01*
G01Y-8416261D01*
G02X26171390Y-8456261I-40000J0D01*
G01X25621468D01*
G02X25581468Y-8416261I0J40000D01*
G01Y-8398144D01*
G03X25541468Y-8358144I-40000J0D01*
G37*
G36*
G01X28962384Y-4547880D02*
G01X28869872Y-4547880D01*
G03X28829872Y-4587880I0J-40000D01*
G01Y-4605997D01*
G02X28789872Y-4645997I-40000J0D01*
G01X28239949D01*
G02X28199949Y-4605997I0J40000D01*
G01Y-4557880D01*
G03X28189949Y-4547880I-10000J0D01*
G01X28184826D01*
G03X28174826Y-4557880I0J-10000D01*
G01Y-4560881D01*
G02X28164826Y-4570881I-10000J0D01*
G01X26484830D01*
G02X26474830Y-4560881I0J10000D01*
G01Y-4557880D01*
G03X26464830Y-4547880I-10000J0D01*
G01X26459707D01*
G03X26449707Y-4557880I0J-10000D01*
G01Y-4605997D01*
G02X26409707Y-4645997I-40000J0D01*
G01X25859584D01*
G02X25819584Y-4605997I0J40000D01*
G01Y-4587880D01*
G03X25779584Y-4547880I-40000J0D01*
G01X25687272D01*
G02X25647272Y-4507880I0J40000D01*
G01Y-3960846D01*
G03X25607272Y-3920846I-40000J0D01*
G01X25604666D01*
G02X25564666Y-3880846I0J40000D01*
G01Y-3380937D01*
G02X25604666Y-3340937I40000J0D01*
G01X25607272D01*
G03X25647272Y-3300938I0J40000D01*
G01Y-3057905D01*
G02X25687272Y-3017905I40000J0D01*
G01X25779584D01*
G03X25819584Y-2977905I0J40000D01*
G01Y-2965828D01*
G02X25859584Y-2925829I40000J0D01*
G01X26409707D01*
G02X26449707Y-2965828I0J-40000D01*
G01Y-3007905D01*
G03X26459707Y-3017905I10000J0D01*
G01X26464830D01*
G03X26474830Y-3007905I0J10000D01*
G01Y-2910865D01*
G02X26514830Y-2870865I40000J0D01*
G01X28134826D01*
G02X28174826Y-2910865I0J-40000D01*
G01Y-3007905D01*
G03X28184826Y-3017905I10000J0D01*
G01X28189949D01*
G03X28199949Y-3007905I0J10000D01*
G01Y-2965828D01*
G02X28239949Y-2925829I40000J0D01*
G01X28789872D01*
G02X28829872Y-2965828I0J-40000D01*
G01Y-2977905D01*
G03X28869872Y-3017905I40000J0D01*
G01X28962384D01*
G02X29002384Y-3057905I0J-40000D01*
G01Y-3300938D01*
G03X29042384Y-3340937I40000J0D01*
G01X29044990D01*
G02X29084990Y-3380937I0J-40000D01*
G01Y-3880846D01*
G02X29044990Y-3920846I-40000J0D01*
G01X29042384D01*
G03X29002384Y-3960846I0J-40000D01*
G01Y-4507880D01*
G02X28962384Y-4547880I-40000J0D01*
G37*
G36*
G01X9876070Y-2189486D02*
G01X8576043Y-2189486D01*
G02X8376043Y-1989486I0J200000D01*
G01Y-689489D01*
G02X8576043Y-489489I200000J0D01*
G01X9876070D01*
G02X10076070Y-689489I0J-200000D01*
G01Y-1989486D01*
G02X9876070Y-2189486I-200000J0D01*
G37*
G36*
G01X11910004Y-6681129D02*
G01X13210102Y-6681129D01*
G02X13410101Y-6881129I0J-200000D01*
G01Y-8181146D01*
G02X13210102Y-8381146I-200000J0D01*
G01X11910004D01*
G02X11710005Y-8181146I0J200000D01*
G01Y-6881129D01*
G02X11910004Y-6681129I200000J0D01*
G37*
G36*
G01X21711999Y-4370882D02*
G01X21711999Y-3070864D01*
G02X21911999Y-2870865I200000J0D01*
G01X23211996D01*
G02X23411996Y-3070864I0J-200000D01*
G01Y-4370882D01*
G02X23211996Y-4570881I-200000J0D01*
G01X21911999D01*
G02X21711999Y-4370882I0J200000D01*
G37*
G36*
G01X20006867Y-2870865D02*
G01X21306864Y-2870865D01*
G02X21506863Y-3070864I0J-200000D01*
G01Y-4370882D01*
G02X21306864Y-4570881I-200000J0D01*
G01X20006867D01*
G02X19806867Y-4370882I0J200000D01*
G01Y-3070864D01*
G02X20006867Y-2870865I200000J0D01*
G37*
G36*
G01X22459430Y-4975997D02*
G01X22459430Y-6276014D01*
G02X22259430Y-6476014I-200000J0D01*
G01X20959433D01*
G02X20759433Y-6276014I0J200000D01*
G01Y-4975997D01*
G02X20959433Y-4775997I200000J0D01*
G01X22259430D01*
G02X22459430Y-4975997I0J-200000D01*
G37*
G36*
G01X22664565Y-6276014D02*
G01X22664565Y-4975997D01*
G02X22864565Y-4775997I200000J0D01*
G01X24164562D01*
G02X24364562Y-4975997I0J-200000D01*
G01Y-6276014D01*
G02X24164562Y-6476014I-200000J0D01*
G01X22864565D01*
G02X22664565Y-6276014I0J200000D01*
G37*
G36*
G01X26069694Y-6476014D02*
G01X24769697Y-6476014D01*
G02X24569697Y-6276014I0J200000D01*
G01Y-4975997D01*
G02X24769697Y-4775997I200000J0D01*
G01X26069694D01*
G02X26269694Y-4975997I0J-200000D01*
G01Y-6276014D01*
G02X26069694Y-6476014I-200000J0D01*
G37*
G36*
G01X8435277Y-10598424D02*
G01X8435277Y-10586368D01*
G02X8475277Y-10546368I40000J0D01*
G01X9025360D01*
G02X9065360Y-10586368I0J-40000D01*
G01Y-10598424D01*
G03X9105359Y-10638424I40000J0D01*
G01X9197922D01*
G02X9237922Y-10678424I0J-40000D01*
G01Y-10921467D01*
G03X9277922Y-10961467I40000J0D01*
G01X12860587D01*
G03X12900587Y-10921467I0J40000D01*
G01Y-10691383D01*
G02X13100587Y-10491384I200000J0D01*
G01X14400784D01*
G02X14600784Y-10691383I0J-200000D01*
G01Y-10921467D01*
G03X14640784Y-10961467I40000J0D01*
G01X18223460D01*
G03X18263460Y-10921467I0J40000D01*
G01Y-10678424D01*
G02X18303459Y-10638424I40000J0D01*
G01X18395972D01*
G03X18435972Y-10598424I0J40000D01*
G01Y-10586368D01*
G02X18475971Y-10546368I40000J0D01*
G01X19026094D01*
G02X19066094Y-10586368I0J-40000D01*
G01Y-10598424D01*
G03X19106094Y-10638424I40000J0D01*
G01X19198606D01*
G02X19238606Y-10678424I0J-40000D01*
G01Y-10921467D01*
G03X19278606Y-10961467I40000J0D01*
G01X19281012D01*
G02X19321012Y-11001466I0J-40000D01*
G01Y-11501365D01*
G02X19281012Y-11541365I-40000J0D01*
G01X19278606D01*
G03X19238606Y-11581365I0J-40000D01*
G01Y-12128412D01*
G02X19198606Y-12168412I-40000J0D01*
G01X19106094D01*
G03X19066094Y-12208412I0J-40000D01*
G01Y-12226537D01*
G02X19026094Y-12266537I-40000J0D01*
G01X18475971D01*
G02X18435972Y-12226537I0J40000D01*
G01Y-12208412D01*
G03X18395972Y-12168412I-40000J0D01*
G01X18303459D01*
G02X18263460Y-12128412I0J40000D01*
G01Y-11761488D01*
G03X18223460Y-11721488I-40000J0D01*
G01X14640784D01*
G03X14600784Y-11761488I0J-40000D01*
G01Y-11991429D01*
G02X14400784Y-12191428I-200000J0D01*
G01X13100587D01*
G02X12900587Y-11991429I0J200000D01*
G01Y-11761488D01*
G03X12860587Y-11721488I-40000J0D01*
G01X9277922D01*
G03X9237922Y-11761488I0J-40000D01*
G01Y-12128412D01*
G02X9197922Y-12168412I-40000J0D01*
G01X9105359D01*
G03X9065360Y-12208412I0J-40000D01*
G01Y-12226537D01*
G02X9025360Y-12266537I-40000J0D01*
G01X8475277D01*
G02X8435277Y-12226537I0J40000D01*
G01Y-12208412D01*
G03X8395277Y-12168412I-40000J0D01*
G01X8302765D01*
G02X8262765Y-12128412I0J40000D01*
G01Y-11581365D01*
G03X8222765Y-11541365I-40000J0D01*
G01X8220350D01*
G02X8180350Y-11501365I0J40000D01*
G01Y-11001466D01*
G02X8220350Y-10961467I40000J0D01*
G01X8222765D01*
G03X8262765Y-10921467I0J40000D01*
G01Y-10678424D01*
G02X8302765Y-10638424I40000J0D01*
G01X8395277D01*
G03X8435277Y-10598424I0J40000D01*
G37*
G36*
G01X28103629Y-9062545D02*
G01X29403726Y-9062545D01*
G02X29603725Y-9262544I0J-200000D01*
G01Y-10562582D01*
G02X29403726Y-10762581I-200000J0D01*
G01X28103629D01*
G02X27903629Y-10562582I0J200000D01*
G01Y-9262544D01*
G02X28103629Y-9062545I200000J0D01*
G37*
G36*
G01X25117128Y-12191428D02*
G01X23817131Y-12191428D01*
G02X23617131Y-11991429I0J200000D01*
G01Y-10691383D01*
G02X23817131Y-10491384I200000J0D01*
G01X25117128D01*
G02X25317128Y-10691383I0J-200000D01*
G01Y-11991429D01*
G02X25117128Y-12191428I-200000J0D01*
G37*
G36*
G01X23211996Y-12191428D02*
G01X21911999Y-12191428D01*
G02X21711999Y-11991429I0J200000D01*
G01Y-10691383D01*
G02X21911999Y-10491384I200000J0D01*
G01X23211996D01*
G02X23411996Y-10691383I0J-200000D01*
G01Y-11991429D01*
G02X23211996Y-12191428I-200000J0D01*
G37*
G36*
G01X31508858Y-11167667D02*
G01X31508858Y-12467711D01*
G02X31308858Y-12667711I-200000J0D01*
G01X30008761D01*
G02X29808761Y-12467711I0J200000D01*
G01Y-11167667D01*
G02X30008761Y-10967667I200000J0D01*
G01X31308858D01*
G02X31508858Y-11167667I0J-200000D01*
G37*
G36*
G01X31985091Y-6881129D02*
G01X31985091Y-8181146D01*
G02X31785091Y-8381146I-200000J0D01*
G01X30485094D01*
G02X30285094Y-8181146I0J200000D01*
G01Y-6881129D01*
G02X30485094Y-6681129I200000J0D01*
G01X31785091D01*
G02X31985091Y-6881129I0J-200000D01*
G37*
G36*
G01X31985091Y-8786261D02*
G01X31985091Y-10086299D01*
G02X31785091Y-10286298I-200000J0D01*
G01X30485094D01*
G02X30285094Y-10086299I0J200000D01*
G01Y-8786261D01*
G02X30485094Y-8586262I200000J0D01*
G01X31785091D01*
G02X31985091Y-8786261I0J-200000D01*
G37*
G36*
G01X12662571Y-10086299D02*
G01X12662571Y-8786261D01*
G02X12862570Y-8586262I200000J0D01*
G01X14162668D01*
G02X14362667Y-8786261I0J-200000D01*
G01Y-10086299D01*
G02X14162668Y-10286298I-200000J0D01*
G01X12862570D01*
G02X12662571Y-10086299I0J200000D01*
G37*
G36*
G01X14767703Y-8586262D02*
G01X16067800Y-8586262D01*
G02X16267800Y-8786261I0J-200000D01*
G01Y-10086299D01*
G02X16067800Y-10286298I-200000J0D01*
G01X14767703D01*
G02X14567703Y-10086299I0J200000D01*
G01Y-8786261D01*
G02X14767703Y-8586262I200000J0D01*
G37*
G36*
G01X23140798Y-8181146D02*
G01X23140798Y-6881129D01*
G02X23340798Y-6681129I200000J0D01*
G01X24640895D01*
G02X24840895Y-6881129I0J-200000D01*
G01Y-8181146D01*
G02X24640895Y-8381146I-200000J0D01*
G01X23340798D01*
G02X23140798Y-8181146I0J200000D01*
G37*
G36*
G01X1946217Y-10276298D02*
G01X1946217Y-10273277D01*
G03X1936217Y-10263277I-10000J0D01*
G01X1931114D01*
G03X1921114Y-10273277I0J-10000D01*
G01Y-10321404D01*
G02X1881114Y-10361403I-40000J0D01*
G01X1331190D01*
G02X1291190Y-10321404I0J40000D01*
G01Y-10303277D01*
G03X1251191Y-10263277I-40000J0D01*
G01X1158649D01*
G02X1118649Y-10223277I0J40000D01*
G01Y-9676233D01*
G03X1078649Y-9636233I-40000J0D01*
G01X1076097D01*
G02X1036097Y-9596233I0J40000D01*
G01Y-9096334D01*
G02X1076097Y-9056334I40000J0D01*
G01X1078649D01*
G03X1118649Y-9016334I0J40000D01*
G01Y-8773302D01*
G02X1158649Y-8733302I40000J0D01*
G01X1251191D01*
G03X1291190Y-8693302I0J40000D01*
G01Y-8681225D01*
G02X1331190Y-8641225I40000J0D01*
G01X1881114D01*
G02X1921114Y-8681225I0J-40000D01*
G01Y-8723302D01*
G03X1931114Y-8733302I10000J0D01*
G01X1936217D01*
G03X1946217Y-8723302I0J10000D01*
G01Y-8626262D01*
G02X1986217Y-8586262I40000J0D01*
G01X3606264D01*
G02X3646263Y-8626262I0J-40000D01*
G01Y-8723302D01*
G03X3656263Y-8733302I10000J0D01*
G01X3661227D01*
G03X3671227Y-8723302I0J10000D01*
G01Y-8681225D01*
G02X3711227Y-8641225I40000J0D01*
G01X4261289D01*
G02X4301289Y-8681225I0J-40000D01*
G01Y-8693302D01*
G03X4341289Y-8733302I40000J0D01*
G01X4433821D01*
G02X4473821Y-8773302I0J-40000D01*
G01Y-9016334D01*
G03X4513821Y-9056334I40000J0D01*
G01X4516377D01*
G02X4556377Y-9096334I0J-40000D01*
G01Y-9596233D01*
G02X4516377Y-9636233I-40000J0D01*
G01X4513821D01*
G03X4473821Y-9676233I0J-40000D01*
G01Y-10223277D01*
G02X4433821Y-10263277I-40000J0D01*
G01X4341289D01*
G03X4301289Y-10303277I0J-40000D01*
G01Y-10321404D01*
G02X4261289Y-10361403I-40000J0D01*
G01X3711227D01*
G02X3671227Y-10321404I0J40000D01*
G01Y-10273277D01*
G03X3661227Y-10263277I-10000J0D01*
G01X3656263D01*
G03X3646263Y-10273277I0J-10000D01*
G01Y-10276298D01*
G02X3636263Y-10286298I-10000J0D01*
G01X1956217D01*
G02X1946217Y-10276298I0J10000D01*
G37*
G36*
G01X16472835Y-10086299D02*
G01X16472835Y-8786261D01*
G02X16672835Y-8586262I200000J0D01*
G01X17972932D01*
G02X18172932Y-8786261I0J-200000D01*
G01Y-10086299D01*
G02X17972932Y-10286298I-200000J0D01*
G01X16672835D01*
G02X16472835Y-10086299I0J200000D01*
G37*
G36*
G01X993652Y-11991429D02*
G01X993652Y-10691383D01*
G02X1193651Y-10491384I200000J0D01*
G01X2493698D01*
G02X2693697Y-10691383I0J-200000D01*
G01Y-11991429D01*
G02X2493698Y-12191428I-200000J0D01*
G01X1193651D01*
G02X993652Y-11991429I0J200000D01*
G37*
G36*
G01X7218371Y-4975997D02*
G01X7218371Y-6276014D01*
G02X7018372Y-6476014I-200000J0D01*
G01X5718344D01*
G02X5518345Y-6276014I0J200000D01*
G01Y-4975997D01*
G02X5718344Y-4775997I200000J0D01*
G01X7018372D01*
G02X7218371Y-4975997I0J-200000D01*
G37*
G36*
G01X5113239Y-6476014D02*
G01X3813212Y-6476014D01*
G02X3613212Y-6276014I0J200000D01*
G01Y-4975997D01*
G02X3813212Y-4775997I200000J0D01*
G01X5113239D01*
G02X5313239Y-4975997I0J-200000D01*
G01Y-6276014D01*
G02X5113239Y-6476014I-200000J0D01*
G37*
G36*
G01X9123504Y-4975997D02*
G01X9123504Y-6276014D01*
G02X8923504Y-6476014I-200000J0D01*
G01X7623477D01*
G02X7423477Y-6276014I0J200000D01*
G01Y-4975997D01*
G02X7623477Y-4775997I200000J0D01*
G01X8923504D01*
G02X9123504Y-4975997I0J-200000D01*
G37*
G36*
G01X7147194Y-8586262D02*
G01X8447221Y-8586262D01*
G02X8647221Y-8786261I0J-200000D01*
G01Y-10086299D01*
G02X8447221Y-10286298I-200000J0D01*
G01X7147194D01*
G02X6947194Y-10086299I0J200000D01*
G01Y-8786261D01*
G02X7147194Y-8586262I200000J0D01*
G37*
G36*
G01X4565779Y-1989486D02*
G01X4565779Y-689489D01*
G02X4765778Y-489489I200000J0D01*
G01X6065806D01*
G02X6265805Y-689489I0J-200000D01*
G01Y-1989486D01*
G02X6065806Y-2189486I-200000J0D01*
G01X4765778D01*
G02X4565779Y-1989486I0J200000D01*
G37*
G36*
G01X23211996Y-2189486D02*
G01X21911999Y-2189486D01*
G02X21711999Y-1989486I0J200000D01*
G01Y-689489D01*
G02X21911999Y-489489I200000J0D01*
G01X23211996D01*
G02X23411996Y-689489I0J-200000D01*
G01Y-1989486D01*
G02X23211996Y-2189486I-200000J0D01*
G37*
G36*
G01X6470911Y-1989486D02*
G01X6470911Y-689489D01*
G02X6670910Y-489489I200000J0D01*
G01X7970938D01*
G02X8170938Y-689489I0J-200000D01*
G01Y-1989486D01*
G02X7970938Y-2189486I-200000J0D01*
G01X6670910D01*
G02X6470911Y-1989486I0J200000D01*
G37*
G36*
G01X15044036Y-1989486D02*
G01X15044036Y-689489D01*
G02X15244036Y-489489I200000J0D01*
G01X16544033D01*
G02X16744033Y-689489I0J-200000D01*
G01Y-1989486D01*
G02X16544033Y-2189486I-200000J0D01*
G01X15244036D01*
G02X15044036Y-1989486I0J200000D01*
G37*
G36*
G01X955509Y-489489D02*
G01X2255561Y-489489D01*
G02X2455561Y-689489I0J-200000D01*
G01Y-1989486D01*
G02X2255561Y-2189486I-200000J0D01*
G01X955509D01*
G02X755509Y-1989486I0J200000D01*
G01Y-689489D01*
G02X955509Y-489489I200000J0D01*
G37*
G36*
G01X2455561Y-3070864D02*
G01X2455561Y-4370882D01*
G02X2255561Y-4570881I-200000J0D01*
G01X955509D01*
G02X755509Y-4370882I0J200000D01*
G01Y-3070864D01*
G02X955509Y-2870865I200000J0D01*
G01X2255561D01*
G02X2455561Y-3070864I0J-200000D01*
G37*
G36*
G01X27151062Y-4775997D02*
G01X28451160Y-4775997D01*
G02X28651159Y-4975997I0J-200000D01*
G01Y-6276014D01*
G02X28451160Y-6476014I-200000J0D01*
G01X27151062D01*
G02X26951063Y-6276014I0J200000D01*
G01Y-4975997D01*
G02X27151062Y-4775997I200000J0D01*
G37*
G36*
G01X31985091Y-689489D02*
G01X31985091Y-1989486D01*
G02X31785091Y-2189486I-200000J0D01*
G01X30485094D01*
G02X30285094Y-1989486I0J200000D01*
G01Y-689489D01*
G02X30485094Y-489489I200000J0D01*
G01X31785091D01*
G02X31985091Y-689489I0J-200000D01*
G37*
G36*
G01X30285094Y-6276014D02*
G01X30285094Y-4975997D01*
G02X30485094Y-4775997I200000J0D01*
G01X31785091D01*
G02X31985091Y-4975997I0J-200000D01*
G01Y-6276014D01*
G02X31785091Y-6476014I-200000J0D01*
G01X30485094D01*
G02X30285094Y-6276014I0J200000D01*
G37*
G36*
G01X31785091Y-4570881D02*
G01X30485094Y-4570881D01*
G02X30285094Y-4370882I0J200000D01*
G01Y-3070864D01*
G02X30485094Y-2870865I200000J0D01*
G01X31785091D01*
G02X31985091Y-3070864I0J-200000D01*
G01Y-4370882D01*
G02X31785091Y-4570881I-200000J0D01*
G37*
G36*
G01X28927393Y-2189486D02*
G01X27627395Y-2189486D01*
G02X27427396Y-1989486I0J200000D01*
G01Y-689489D01*
G02X27627395Y-489489I200000J0D01*
G01X28927393D01*
G02X29127392Y-689489I0J-200000D01*
G01Y-1989486D01*
G02X28927393Y-2189486I-200000J0D01*
G37*
G36*
G01X13815136Y-6681129D02*
G01X15115234Y-6681129D01*
G02X15315234Y-6881129I0J-200000D01*
G01Y-8181146D01*
G02X15115234Y-8381146I-200000J0D01*
G01X13815136D01*
G02X13615137Y-8181146I0J200000D01*
G01Y-6881129D01*
G02X13815136Y-6681129I200000J0D01*
G37*
G36*
G01X15720269Y-6681129D02*
G01X17020366Y-6681129D01*
G02X17220366Y-6881129I0J-200000D01*
G01Y-8181146D01*
G02X17020366Y-8381146I-200000J0D01*
G01X15720269D01*
G02X15520269Y-8181146I0J200000D01*
G01Y-6881129D01*
G02X15720269Y-6681129I200000J0D01*
G37*
G36*
G01X14091470Y-4370882D02*
G01X14091470Y-3070864D01*
G02X14291470Y-2870865I200000J0D01*
G01X15591467D01*
G02X15791467Y-3070864I0J-200000D01*
G01Y-4370882D01*
G02X15591467Y-4570881I-200000J0D01*
G01X14291470D01*
G02X14091470Y-4370882I0J200000D01*
G37*
G36*
G01X10481035Y-489489D02*
G01X11781202Y-489489D01*
G02X11981202Y-689489I0J-200000D01*
G01Y-1989486D01*
G02X11781202Y-2189486I-200000J0D01*
G01X10481035D01*
G02X10281036Y-1989486I0J200000D01*
G01Y-689489D01*
G02X10481035Y-489489I200000J0D01*
G37*
G36*
G01X14638901Y-2189486D02*
G01X13338903Y-2189486D01*
G02X13138904Y-1989486I0J200000D01*
G01Y-689489D01*
G02X13338903Y-489489I200000J0D01*
G01X14638901D01*
G02X14838900Y-689489I0J-200000D01*
G01Y-1989486D01*
G02X14638901Y-2189486I-200000J0D01*
G37*
G36*
G01X20354298Y-2189486D02*
G01X19054300Y-2189486D01*
G02X18854301Y-1989486I0J200000D01*
G01Y-689489D01*
G02X19054300Y-489489I200000J0D01*
G01X20354298D01*
G02X20554297Y-689489I0J-200000D01*
G01Y-1989486D01*
G02X20354298Y-2189486I-200000J0D01*
G37*
G36*
G01X16949168Y-1989486D02*
G01X16949168Y-689489D01*
G02X17149168Y-489489I200000J0D01*
G01X18449165D01*
G02X18649165Y-689489I0J-200000D01*
G01Y-1989486D01*
G02X18449165Y-2189486I-200000J0D01*
G01X17149168D01*
G02X16949168Y-1989486I0J200000D01*
G37*
G36*
G01X9528609Y-4775997D02*
G01X10828636Y-4775997D01*
G02X11028636Y-4975997I0J-200000D01*
G01Y-6276014D01*
G02X10828636Y-6476014I-200000J0D01*
G01X9528609D01*
G02X9328609Y-6276014I0J200000D01*
G01Y-4975997D01*
G02X9528609Y-4775997I200000J0D01*
G37*
G36*
G01X19330534Y-8181146D02*
G01X19330534Y-6881129D01*
G02X19530533Y-6681129I200000J0D01*
G01X20830631D01*
G02X21030630Y-6881129I0J-200000D01*
G01Y-8181146D01*
G02X20830631Y-8381146I-200000J0D01*
G01X19530533D01*
G02X19330534Y-8181146I0J200000D01*
G37*
G36*
G01X18854301Y-6276014D02*
G01X18854301Y-4975997D01*
G02X19054300Y-4775997I200000J0D01*
G01X20354298D01*
G02X20554297Y-4975997I0J-200000D01*
G01Y-6276014D01*
G02X20354298Y-6476014I-200000J0D01*
G01X19054300D01*
G02X18854301Y-6276014I0J200000D01*
G37*
G36*
G01X23617131Y-4370882D02*
G01X23617131Y-3070864D01*
G02X23817131Y-2870865I200000J0D01*
G01X25117128D01*
G02X25317128Y-3070864I0J-200000D01*
G01Y-4370882D01*
G02X25117128Y-4570881I-200000J0D01*
G01X23817131D01*
G02X23617131Y-4370882I0J200000D01*
G37*
G36*
G01X25998497Y-12467711D02*
G01X25998497Y-11167667D01*
G02X26198496Y-10967667I200000J0D01*
G01X27498594D01*
G02X27698593Y-11167667I0J-200000D01*
G01Y-12467711D01*
G02X27498594Y-12667711I-200000J0D01*
G01X26198496D01*
G02X25998497Y-12467711I0J200000D01*
G37*
G36*
G01X27903629Y-12467711D02*
G01X27903629Y-11167667D01*
G02X28103629Y-10967667I200000J0D01*
G01X29403726D01*
G02X29603725Y-11167667I0J-200000D01*
G01Y-12467711D01*
G02X29403726Y-12667711I-200000J0D01*
G01X28103629D01*
G02X27903629Y-12467711I0J200000D01*
G37*
G36*
G01X23888329Y-8786261D02*
G01X23888329Y-10086299D01*
G02X23688329Y-10286298I-200000J0D01*
G01X22388232D01*
G02X22188232Y-10086299I0J200000D01*
G01Y-8786261D01*
G02X22388232Y-8586262I200000J0D01*
G01X23688329D01*
G02X23888329Y-8786261I0J-200000D01*
G37*
G36*
G01X24807814Y-10086299D02*
G01X24807814Y-8786261D01*
G02X25007814Y-8586262I200000J0D01*
G01X26307811D01*
G02X26507811Y-8786261I0J-200000D01*
G01Y-10086299D01*
G02X26307811Y-10286298I-200000J0D01*
G01X25007814D01*
G02X24807814Y-10086299I0J200000D01*
G37*
G36*
G01X8852326Y-10086299D02*
G01X8852326Y-8786261D01*
G02X9052326Y-8586262I200000J0D01*
G01X10352353D01*
G02X10552353Y-8786261I0J-200000D01*
G01Y-10086299D01*
G02X10352353Y-10286298I-200000J0D01*
G01X9052326D01*
G02X8852326Y-10086299I0J200000D01*
G37*
G36*
G01X20283100Y-10086299D02*
G01X20283100Y-8786261D01*
G02X20483099Y-8586262I200000J0D01*
G01X21783197D01*
G02X21983197Y-8786261I0J-200000D01*
G01Y-10086299D01*
G02X21783197Y-10286298I-200000J0D01*
G01X20483099D01*
G02X20283100Y-10086299I0J200000D01*
G37*
G36*
G01X20006867Y-10491384D02*
G01X21306864Y-10491384D01*
G02X21506863Y-10691383I0J-200000D01*
G01Y-11991429D01*
G02X21306864Y-12191428I-200000J0D01*
G01X20006867D01*
G02X19806867Y-11991429I0J200000D01*
G01Y-10691383D01*
G02X20006867Y-10491384I200000J0D01*
G37*
G36*
G01X17425402Y-8181146D02*
G01X17425402Y-6881129D01*
G02X17625401Y-6681129I200000J0D01*
G01X18925498D01*
G02X19125498Y-6881129I0J-200000D01*
G01Y-8181146D01*
G02X18925498Y-8381146I-200000J0D01*
G01X17625401D01*
G02X17425402Y-8181146I0J200000D01*
G37*
G36*
G01X20078064Y-8786261D02*
G01X20078064Y-10086299D01*
G02X19878065Y-10286298I-200000J0D01*
G01X18577967D01*
G02X18377968Y-10086299I0J200000D01*
G01Y-8786261D01*
G02X18577967Y-8586262I200000J0D01*
G01X19878065D01*
G02X20078064Y-8786261I0J-200000D01*
G37*
G36*
G01X3169980Y-6881129D02*
G01X3169980Y-8181146D01*
G02X2969981Y-8381146I-200000J0D01*
G01X1669796D01*
G02X1469797Y-8181146I0J200000D01*
G01Y-6881129D01*
G02X1669796Y-6681129I200000J0D01*
G01X2969981D01*
G02X3169980Y-6881129I0J-200000D01*
G37*
G36*
G01X6194627Y-6681129D02*
G01X7494655Y-6681129D01*
G02X7694654Y-6881129I0J-200000D01*
G01Y-8181146D01*
G02X7494655Y-8381146I-200000J0D01*
G01X6194627D01*
G02X5994628Y-8181146I0J200000D01*
G01Y-6881129D01*
G02X6194627Y-6681129I200000J0D01*
G37*
G36*
G01X4089496Y-8181146D02*
G01X4089496Y-6881129D01*
G02X4289495Y-6681129I200000J0D01*
G01X5589523D01*
G02X5789522Y-6881129I0J-200000D01*
G01Y-8181146D01*
G02X5589523Y-8381146I-200000J0D01*
G01X4289495D01*
G02X4089496Y-8181146I0J200000D01*
G37*
G36*
G01X11504969Y-6881129D02*
G01X11504969Y-8181146D01*
G02X11304970Y-8381146I-200000J0D01*
G01X10004892D01*
G02X9804893Y-8181146I0J200000D01*
G01Y-6881129D01*
G02X10004892Y-6681129I200000J0D01*
G01X11304970D01*
G02X11504969Y-6881129I0J-200000D01*
G37*
G36*
G01X6742088Y-8786261D02*
G01X6742088Y-10086299D01*
G02X6542089Y-10286298I-200000J0D01*
G01X5242061D01*
G02X5042062Y-10086299I0J200000D01*
G01Y-8786261D01*
G02X5242061Y-8586262I200000J0D01*
G01X6542089D01*
G02X6742088Y-8786261I0J-200000D01*
G37*
G36*
G01X5756491Y-11991429D02*
G01X5756491Y-10691383D01*
G02X5956491Y-10491384I200000J0D01*
G01X7256518D01*
G02X7456518Y-10691383I0J-200000D01*
G01Y-11991429D01*
G02X7256518Y-12191428I-200000J0D01*
G01X5956491D01*
G02X5756491Y-11991429I0J200000D01*
G37*
G36*
G01X3574926Y-10491384D02*
G01X4875103Y-10491384D01*
G02X5075103Y-10691383I0J-200000D01*
G01Y-11991429D01*
G02X4875103Y-12191428I-200000J0D01*
G01X3574926D01*
G02X3374926Y-11991429I0J200000D01*
G01Y-10691383D01*
G02X3574926Y-10491384I200000J0D01*
G37*
G36*
G01X12457535Y-8786261D02*
G01X12457535Y-10086299D01*
G02X12257536Y-10286298I-200000J0D01*
G01X10957438D01*
G02X10757438Y-10086299I0J200000D01*
G01Y-8786261D01*
G02X10957438Y-8586262I200000J0D01*
G01X12257536D01*
G02X12457535Y-8786261I0J-200000D01*
G37*
G36*
G01X8099760Y-6681129D02*
G01X9399787Y-6681129D01*
G02X9599787Y-6881129I0J-200000D01*
G01Y-8181146D01*
G02X9399787Y-8381146I-200000J0D01*
G01X8099760D01*
G02X7899760Y-8181146I0J200000D01*
G01Y-6881129D01*
G02X8099760Y-6681129I200000J0D01*
G37*
G36*
G01X1431793Y-4775997D02*
G01X2731844Y-4775997D01*
G02X2931844Y-4975997I0J-200000D01*
G01Y-6276014D01*
G02X2731844Y-6476014I-200000J0D01*
G01X1431793D01*
G02X1231793Y-6276014I0J200000D01*
G01Y-4975997D01*
G02X1431793Y-4775997I200000J0D01*
G37*
G36*
G01X4565779Y-4370882D02*
G01X4565779Y-3070864D01*
G02X4765778Y-2870865I200000J0D01*
G01X6065806D01*
G02X6265805Y-3070864I0J-200000D01*
G01Y-4370882D01*
G02X6065806Y-4570881I-200000J0D01*
G01X4765778D01*
G02X4565779Y-4370882I0J200000D01*
G37*
G36*
G01X2860646Y-2870865D02*
G01X4160673Y-2870865D01*
G02X4360673Y-3070864I0J-200000D01*
G01Y-4370882D01*
G02X4160673Y-4570881I-200000J0D01*
G01X2860646D01*
G02X2660646Y-4370882I0J200000D01*
G01Y-3070864D01*
G02X2860646Y-2870865I200000J0D01*
G37*
G36*
G01X10076070Y-3070864D02*
G01X10076070Y-4370882D01*
G02X9876070Y-4570881I-200000J0D01*
G01X8576043D01*
G02X8376043Y-4370882I0J200000D01*
G01Y-3070864D01*
G02X8576043Y-2870865I200000J0D01*
G01X9876070D01*
G02X10076070Y-3070864I0J-200000D01*
G37*
G36*
G01X8170938Y-3070864D02*
G01X8170938Y-4370882D01*
G02X7970938Y-4570881I-200000J0D01*
G01X6670910D01*
G02X6470911Y-4370882I0J200000D01*
G01Y-3070864D01*
G02X6670910Y-2870865I200000J0D01*
G01X7970938D01*
G02X8170938Y-3070864I0J-200000D01*
G37*
G36*
G01X18101734Y-2870865D02*
G01X19401732Y-2870865D01*
G02X19601731Y-3070864I0J-200000D01*
G01Y-4370882D01*
G02X19401732Y-4570881I-200000J0D01*
G01X18101734D01*
G02X17901735Y-4370882I0J200000D01*
G01Y-3070864D01*
G02X18101734Y-2870865I200000J0D01*
G37*
G36*
G01X17496599Y-4570881D02*
G01X16196602Y-4570881D01*
G02X15996602Y-4370882I0J200000D01*
G01Y-3070864D01*
G02X16196602Y-2870865I200000J0D01*
G01X17496599D01*
G02X17696599Y-3070864I0J-200000D01*
G01Y-4370882D01*
G02X17496599Y-4570881I-200000J0D01*
G37*
G36*
G01X16744033Y-4975997D02*
G01X16744033Y-6276014D01*
G02X16544033Y-6476014I-200000J0D01*
G01X15244036D01*
G02X15044036Y-6276014I0J200000D01*
G01Y-4975997D01*
G02X15244036Y-4775997I200000J0D01*
G01X16544033D01*
G02X16744033Y-4975997I0J-200000D01*
G37*
G36*
G01X18649165Y-4975997D02*
G01X18649165Y-6276014D01*
G02X18449165Y-6476014I-200000J0D01*
G01X17149168D01*
G02X16949168Y-6276014I0J200000D01*
G01Y-4975997D01*
G02X17149168Y-4775997I200000J0D01*
G01X18449165D01*
G02X18649165Y-4975997I0J-200000D01*
G37*
G36*
G01X10481035Y-2870865D02*
G01X11781202Y-2870865D01*
G02X11981202Y-3070864I0J-200000D01*
G01Y-4370882D01*
G02X11781202Y-4570881I-200000J0D01*
G01X10481035D01*
G02X10281036Y-4370882I0J200000D01*
G01Y-3070864D01*
G02X10481035Y-2870865I200000J0D01*
G37*
G36*
G01X12386137Y-2870865D02*
G01X13686335Y-2870865D01*
G02X13886334Y-3070864I0J-200000D01*
G01Y-4370882D01*
G02X13686335Y-4570881I-200000J0D01*
G01X12386137D01*
G02X12186138Y-4370882I0J200000D01*
G01Y-3070864D01*
G02X12386137Y-2870865I200000J0D01*
G37*
G36*
G01X11433771Y-4775997D02*
G01X12733769Y-4775997D01*
G02X12933768Y-4975997I0J-200000D01*
G01Y-6276014D01*
G02X12733769Y-6476014I-200000J0D01*
G01X11433771D01*
G02X11233772Y-6276014I0J200000D01*
G01Y-4975997D01*
G02X11433771Y-4775997I200000J0D01*
G37*
G36*
G01X14638901Y-6476014D02*
G01X13338903Y-6476014D01*
G02X13138904Y-6276014I0J200000D01*
G01Y-4975997D01*
G02X13338903Y-4775997I200000J0D01*
G01X14638901D01*
G02X14838900Y-4975997I0J-200000D01*
G01Y-6276014D01*
G02X14638901Y-6476014I-200000J0D01*
G37*
G04 PolygonModel End*
G54D10*

M02*
