G04 Layer: TopSolderMaskLayer*
G04 EasyEDA Pro v2.1.51.8c9149c1.e57db4, 2024-03-19 08:48:05*
G04 Gerber Generator version 0.3*
G04 Scale: 100 percent, Rotated: No, Reflected: No*
G04 Dimensions in millimeters*
G04 Leading zeros omitted, absolute positions, 3 integers and 5 decimals*
%FSLAX35Y35*%
%MOMM*%
%ADD10C,0.254*%
G75*


G04 PolygonModel Start*
G36*
G01X11438963Y-4776358D02*
G01X12738960Y-4776358D01*
G02X12938960Y-4976358I0J-200000D01*
G01Y-6276376D01*
G02X12738960Y-6476375I-200000J0D01*
G01X11438963D01*
G02X11238963Y-6276376I0J200000D01*
G01Y-4976358D01*
G02X11438963Y-4776358I200000J0D01*
G37*
G36*
G01X9533800Y-4776358D02*
G01X10833828Y-4776358D01*
G02X11033827Y-4976358I0J-200000D01*
G01Y-6276376D01*
G02X10833828Y-6476375I-200000J0D01*
G01X9533800D01*
G02X9333801Y-6276376I0J200000D01*
G01Y-4976358D01*
G02X9533800Y-4776358I200000J0D01*
G37*
G36*
G01X14096661Y-4371243D02*
G01X14096661Y-3071226D01*
G02X14296661Y-2871226I200000J0D01*
G01X15596658D01*
G02X15796658Y-3071226I0J-200000D01*
G01Y-4371243D01*
G02X15596658Y-4571243I-200000J0D01*
G01X14296661D01*
G02X14096661Y-4371243I0J200000D01*
G37*
G36*
G01X15049227Y-1989848D02*
G01X15049227Y-689851D01*
G02X15249227Y-489851I200000J0D01*
G01X16549224D01*
G02X16749224Y-689851I0J-200000D01*
G01Y-1989848D01*
G02X16549224Y-2189848I-200000J0D01*
G01X15249227D01*
G02X15049227Y-1989848I0J200000D01*
G37*
G36*
G01X8176129Y-3071226D02*
G01X8176129Y-4371243D01*
G02X7976129Y-4571243I-200000J0D01*
G01X6676102D01*
G02X6476102Y-4371243I0J200000D01*
G01Y-3071226D01*
G02X6676102Y-2871226I200000J0D01*
G01X7976129D01*
G02X8176129Y-3071226I0J-200000D01*
G37*
G36*
G01X16954360Y-1989848D02*
G01X16954360Y-689851D01*
G02X17154359Y-489851I200000J0D01*
G01X18454357D01*
G02X18654356Y-689851I0J-200000D01*
G01Y-1989848D01*
G02X18454357Y-2189848I-200000J0D01*
G01X17154359D01*
G02X16954360Y-1989848I0J200000D01*
G37*
G36*
G01X4570970Y-4371243D02*
G01X4570970Y-3071226D01*
G02X4770970Y-2871226I200000J0D01*
G01X6070997D01*
G02X6270997Y-3071226I0J-200000D01*
G01Y-4371243D01*
G02X6070997Y-4571243I-200000J0D01*
G01X4770970D01*
G02X4570970Y-4371243I0J200000D01*
G37*
G36*
G01X5118431Y-6476375D02*
G01X3818404Y-6476375D01*
G02X3618404Y-6276376I0J200000D01*
G01Y-4976358D01*
G02X3818404Y-4776358I200000J0D01*
G01X5118431D01*
G02X5318431Y-4976358I0J-200000D01*
G01Y-6276376D01*
G02X5118431Y-6476375I-200000J0D01*
G37*
G36*
G01X14644092Y-6476375D02*
G01X13344095Y-6476375D01*
G02X13144095Y-6276376I0J200000D01*
G01Y-4976358D01*
G02X13344095Y-4776358I200000J0D01*
G01X14644092D01*
G02X14844092Y-4976358I0J-200000D01*
G01Y-6276376D01*
G02X14644092Y-6476375I-200000J0D01*
G37*
G36*
G01X20012058Y-2871226D02*
G01X21312055Y-2871226D01*
G02X21512055Y-3071226I0J-200000D01*
G01Y-4371243D01*
G02X21312055Y-4571243I-200000J0D01*
G01X20012058D01*
G02X19812058Y-4371243I0J200000D01*
G01Y-3071226D01*
G02X20012058Y-2871226I200000J0D01*
G37*
G36*
G01X4094687Y-8181508D02*
G01X4094687Y-6881490D01*
G02X4294687Y-6681491I200000J0D01*
G01X5594714D01*
G02X5794714Y-6881490I0J-200000D01*
G01Y-8181508D01*
G02X5594714Y-8381507I-200000J0D01*
G01X4294687D01*
G02X4094687Y-8181508I0J200000D01*
G37*
G36*
G01X11510160Y-6881490D02*
G01X11510160Y-8181508D01*
G02X11310161Y-8381507I-200000J0D01*
G01X10010083D01*
G02X9810084Y-8181508I0J200000D01*
G01Y-6881490D01*
G02X10010083Y-6681491I200000J0D01*
G01X11310161D01*
G02X11510160Y-6881490I0J-200000D01*
G37*
G36*
G01X31990282Y-689851D02*
G01X31990282Y-1989848D01*
G02X31790283Y-2189848I-200000J0D01*
G01X30490285D01*
G02X30290286Y-1989848I0J200000D01*
G01Y-689851D01*
G02X30490285Y-489851I200000J0D01*
G01X31790283D01*
G02X31990282Y-689851I0J-200000D01*
G37*
G36*
G01X1436984Y-4776358D02*
G01X2737036Y-4776358D01*
G02X2937035Y-4976358I0J-200000D01*
G01Y-6276376D01*
G02X2737036Y-6476375I-200000J0D01*
G01X1436984D01*
G02X1236985Y-6276376I0J200000D01*
G01Y-4976358D01*
G02X1436984Y-4776358I200000J0D01*
G37*
G36*
G01X26003688Y-12468072D02*
G01X26003688Y-11168028D01*
G02X26203687Y-10968028I200000J0D01*
G01X27503785D01*
G02X27703785Y-11168028I0J-200000D01*
G01Y-12468072D01*
G02X27503785Y-12668072I-200000J0D01*
G01X26203687D01*
G02X26003688Y-12468072I0J200000D01*
G37*
G36*
G01X23622323Y-1989848D02*
G01X23622323Y-689851D01*
G02X23822322Y-489851I200000J0D01*
G01X25122320D01*
G02X25322319Y-689851I0J-200000D01*
G01Y-1989848D01*
G02X25122320Y-2189848I-200000J0D01*
G01X23822322D01*
G02X23622323Y-1989848I0J200000D01*
G37*
G36*
G01X23145990Y-8181508D02*
G01X23145990Y-6881490D01*
G02X23345989Y-6681491I200000J0D01*
G01X24646087D01*
G02X24846086Y-6881490I0J-200000D01*
G01Y-8181508D01*
G02X24646087Y-8381507I-200000J0D01*
G01X23345989D01*
G02X23145990Y-8181508I0J200000D01*
G37*
G36*
G01X14772894Y-8586623D02*
G01X16072991Y-8586623D01*
G02X16272991Y-8786623I0J-200000D01*
G01Y-10086660D01*
G02X16072991Y-10286660I-200000J0D01*
G01X14772894D01*
G02X14572894Y-10086660I0J200000D01*
G01Y-8786623D01*
G02X14772894Y-8586623I200000J0D01*
G37*
G36*
G01X23893520Y-8786623D02*
G01X23893520Y-10086660D01*
G02X23693521Y-10286660I-200000J0D01*
G01X22393423D01*
G02X22193423Y-10086660I0J200000D01*
G01Y-8786623D01*
G02X22393423Y-8586623I200000J0D01*
G01X23693521D01*
G02X23893520Y-8786623I0J-200000D01*
G37*
G36*
G01X20288291Y-10086660D02*
G01X20288291Y-8786623D01*
G02X20488291Y-8586623I200000J0D01*
G01X21788388D01*
G02X21988388Y-8786623I0J-200000D01*
G01Y-10086660D01*
G02X21788388Y-10286660I-200000J0D01*
G01X20488291D01*
G02X20288291Y-10086660I0J200000D01*
G37*
G36*
G01X23217188Y-12191790D02*
G01X21917190Y-12191790D01*
G02X21717191Y-11991790I0J200000D01*
G01Y-10691745D01*
G02X21917190Y-10491745I200000J0D01*
G01X23217188D01*
G02X23417187Y-10691745I0J-200000D01*
G01Y-11991790D01*
G02X23217188Y-12191790I-200000J0D01*
G37*
G36*
G01X9881262Y-2189848D02*
G01X8581234Y-2189848D01*
G02X8381235Y-1989848I0J199999D01*
G01X8381234Y-689851D01*
G02X8581234Y-489851I200000J0D01*
G01X9881262D01*
G02X10081261Y-689851I0J-200000D01*
G01Y-1989848D01*
G02X9881262Y-2189848I-200000J0D01*
G37*
G36*
G01X14644092Y-2189848D02*
G01X13344095Y-2189848D01*
G02X13144095Y-1989848I0J200000D01*
G01Y-689851D01*
G02X13344095Y-489851I200000J0D01*
G01X14644092D01*
G02X14844092Y-689851I0J-200000D01*
G01Y-1989848D01*
G02X14644092Y-2189848I-200000J0D01*
G37*
G36*
G01X7223563Y-4976358D02*
G01X7223563Y-6276376D01*
G02X7023563Y-6476375I-200000J0D01*
G01X5723536D01*
G02X5523536Y-6276376I0J200000D01*
G01Y-4976358D01*
G02X5723536Y-4776358I200000J0D01*
G01X7023563D01*
G02X7223563Y-4976358I0J-200000D01*
G37*
G36*
G01X9128695Y-4976358D02*
G01X9128695Y-6276376D01*
G02X8928695Y-6476375I-200000J0D01*
G01X7628668D01*
G02X7428668Y-6276376I0J200000D01*
G01Y-4976358D01*
G02X7628668Y-4776358I200000J0D01*
G01X8928695D01*
G02X9128695Y-4976358I0J-200000D01*
G37*
G36*
G01X31990282Y-8786623D02*
G01X31990282Y-10086660D01*
G02X31790283Y-10286660I-200000J0D01*
G01X30490285D01*
G02X30290286Y-10086660I0J200000D01*
G01Y-8786623D01*
G02X30490285Y-8586623I200000J0D01*
G01X31790283D01*
G02X31990282Y-8786623I0J-200000D01*
G37*
G36*
G01X27908820Y-12468072D02*
G01X27908820Y-11168028D01*
G02X28108820Y-10968028I200000J0D01*
G01X29408917D01*
G02X29608917Y-11168028I0J-200000D01*
G01Y-12468072D01*
G02X29408917Y-12668072I-200000J0D01*
G01X28108820D01*
G02X27908820Y-12468072I0J200000D01*
G37*
G36*
G01X15725460Y-6681491D02*
G01X17025558Y-6681491D01*
G02X17225557Y-6881490I0J-200000D01*
G01Y-8181508D01*
G02X17025558Y-8381507I-200000J0D01*
G01X15725460D01*
G02X15525460Y-8181508I0J200000D01*
G01Y-6881490D01*
G02X15725460Y-6681491I200000J0D01*
G37*
G36*
G01X16478027Y-10086660D02*
G01X16478027Y-8786623D01*
G02X16678026Y-8586623I200000J0D01*
G01X17978124D01*
G02X18178123Y-8786623I0J-200000D01*
G01Y-10086660D01*
G02X17978124Y-10286660I-200000J0D01*
G01X16678026D01*
G02X16478027Y-10086660I0J200000D01*
G37*
G36*
G01X27156254Y-4776358D02*
G01X28456351Y-4776358D01*
G02X28656351Y-4976358I0J-200000D01*
G01Y-6276376D01*
G02X28456351Y-6476375I-200000J0D01*
G01X27156254D01*
G02X26956254Y-6276376I0J200000D01*
G01Y-4976358D01*
G02X27156254Y-4776358I200000J0D01*
G37*
G36*
G01X3175172Y-6881490D02*
G01X3175172Y-8181508D01*
G02X2975172Y-8381507I-200000J0D01*
G01X1674988D01*
G02X1474988Y-8181508I0J200000D01*
G01Y-6881490D01*
G02X1674988Y-6681491I200000J0D01*
G01X2975172D01*
G02X3175172Y-6881490I0J-200000D01*
G37*
G36*
G01X21717191Y-4371243D02*
G01X21717191Y-3071226D01*
G02X21917190Y-2871226I200000J0D01*
G01X23217188D01*
G02X23417187Y-3071226I0J-200000D01*
G01Y-4371243D01*
G02X23217188Y-4571243I-200000J0D01*
G01X21917190D01*
G02X21717191Y-4371243I0J200000D01*
G37*
G36*
G01X24813005Y-10086660D02*
G01X24813005Y-8786623D01*
G02X25013005Y-8586623I200000J0D01*
G01X26313002D01*
G02X26513002Y-8786623I0J-200000D01*
G01Y-10086660D01*
G02X26313002Y-10286660I-200000J0D01*
G01X25013005D01*
G02X24813005Y-10086660I0J200000D01*
G37*
G36*
G01X8440469Y-10598786D02*
G01X8440469Y-10586729D01*
G02X8480469Y-10546729I40000J0D01*
G01X9030551D01*
G02X9070551Y-10586729I0J-40000D01*
G01Y-10598786D01*
G03X9110551Y-10638785I40000J0D01*
G01X9203113D01*
G02X9243113Y-10678785I0J-40000D01*
G01Y-10921828D01*
G03X9283113Y-10961828I40000J0D01*
G01X12865779D01*
G03X12905779Y-10921828I0J40000D01*
G01Y-10691745D01*
G02X13105778Y-10491745I200000J0D01*
G01X14405976D01*
G02X14605975Y-10691745I0J-200000D01*
G01Y-10921828D01*
G03X14645975Y-10961828I40000J0D01*
G01X18228651D01*
G03X18268651Y-10921828I0J40000D01*
G01Y-10678785D01*
G02X18308651Y-10638785I40000J0D01*
G01X18401163D01*
G03X18441163Y-10598786I0J40000D01*
G01Y-10586729D01*
G02X18481163Y-10546729I40000J0D01*
G01X19031285D01*
G02X19071285Y-10586729I0J-40000D01*
G01Y-10598786D01*
G03X19111285Y-10638785I40000J0D01*
G01X19203797D01*
G02X19243797Y-10678785I0J-40000D01*
G01Y-10921828D01*
G03X19283797Y-10961828I40000J0D01*
G01X19286203D01*
G02X19326203Y-11001828I0J-40000D01*
G01Y-11501727D01*
G02X19286203Y-11541727I-40000J0D01*
G01X19283797D01*
G03X19243797Y-11581727I0J-40000D01*
G01Y-12128773D01*
G02X19203797Y-12168773I-40000J0D01*
G01X19111285D01*
G03X19071285Y-12208773I0J-40000D01*
G01Y-12226898D01*
G02X19031285Y-12266898I-40000J0D01*
G01X18481163D01*
G02X18441163Y-12226898I0J40000D01*
G01Y-12208773D01*
G03X18401163Y-12168773I-40000J0D01*
G01X18308651D01*
G02X18268651Y-12128773I0J40000D01*
G01Y-11761849D01*
G03X18228651Y-11721849I-40000J0D01*
G01X14645975D01*
G03X14605975Y-11761849I0J-40000D01*
G01Y-11991790D01*
G02X14405976Y-12191790I-200000J0D01*
G01X13105778D01*
G02X12905779Y-11991790I0J200000D01*
G01Y-11761849D01*
G03X12865779Y-11721849I-40000J0D01*
G01X9283113D01*
G03X9243113Y-11761849I0J-40000D01*
G01Y-12128773D01*
G02X9203113Y-12168773I-40000J0D01*
G01X9110551D01*
G03X9070551Y-12208773I0J-40000D01*
G01Y-12226898D01*
G02X9030551Y-12266898I-40000J0D01*
G01X8480469D01*
G02X8440469Y-12226898I0J40000D01*
G01Y-12208773D01*
G03X8400469Y-12168773I-40000J0D01*
G01X8307957D01*
G02X8267957Y-12128773I0J40000D01*
G01Y-11581727D01*
G03X8227957Y-11541727I-40000J0D01*
G01X8225541D01*
G02X8185541Y-11501727I0J40000D01*
G01Y-11001828D01*
G02X8225541Y-10961828I40000J0D01*
G01X8227957D01*
G03X8267957Y-10921828I0J40000D01*
G01Y-10678785D01*
G02X8307957Y-10638785I40000J0D01*
G01X8400469D01*
G03X8440469Y-10598786I0J40000D01*
G37*
G36*
G01X22669757Y-6276376D02*
G01X22669757Y-4976358D01*
G02X22869756Y-4776358I200000J0D01*
G01X24169754D01*
G02X24369753Y-4976358I0J-200000D01*
G01Y-6276376D01*
G02X24169754Y-6476375I-200000J0D01*
G01X22869756D01*
G02X22669757Y-6276376I0J200000D01*
G37*
G36*
G01X20359489Y-2189848D02*
G01X19059492Y-2189848D01*
G02X18859492Y-1989848I0J200000D01*
G01Y-689851D01*
G02X19059492Y-489851I200000J0D01*
G01X20359489D01*
G02X20559489Y-689851I0J-200000D01*
G01Y-1989848D01*
G02X20359489Y-2189848I-200000J0D01*
G37*
G36*
G01X2865837Y-2871226D02*
G01X4165865Y-2871226D01*
G02X4365864Y-3071226I0J-200000D01*
G01Y-4371243D01*
G02X4165865Y-4571243I-200000J0D01*
G01X2865837D01*
G02X2665838Y-4371243I0J200000D01*
G01Y-3071226D01*
G02X2865837Y-2871226I200000J0D01*
G37*
G36*
G01X22464621Y-4976358D02*
G01X22464621Y-6276376D01*
G02X22264621Y-6476375I-200000J0D01*
G01X20964624D01*
G02X20764624Y-6276376I0J200000D01*
G01Y-4976358D01*
G02X20964624Y-4776358I200000J0D01*
G01X22264621D01*
G02X22464621Y-4976358I0J-200000D01*
G37*
G36*
G01X1951408Y-10276660D02*
G01X1951408Y-10273638D01*
G03X1941408Y-10263638I-10000J0D01*
G01X1936305D01*
G03X1926305Y-10273638I0J-10000D01*
G01Y-10321765D01*
G02X1886305Y-10361765I-40000J0D01*
G01X1336382D01*
G02X1296382Y-10321765I0J40000D01*
G01Y-10303638D01*
G03X1256382Y-10263638I-40000J0D01*
G01X1163841D01*
G02X1123841Y-10223638I0J40000D01*
G01Y-9676594D01*
G03X1083841Y-9636594I-40000J0D01*
G01X1081288D01*
G02X1041288Y-9596594I0J40000D01*
G01Y-9096696D01*
G02X1081288Y-9056696I40000J0D01*
G01X1083841D01*
G03X1123841Y-9016696I0J40000D01*
G01Y-8773663D01*
G02X1163841Y-8733663I40000J0D01*
G01X1256382D01*
G03X1296382Y-8693663I0J40000D01*
G01Y-8681587D01*
G02X1336382Y-8641587I40000J0D01*
G01X1886305D01*
G02X1926305Y-8681587I0J-40000D01*
G01Y-8723663D01*
G03X1936305Y-8733663I10000J0D01*
G01X1941408D01*
G03X1951408Y-8723663I0J10000D01*
G01Y-8626623D01*
G02X1991408Y-8586623I40000J0D01*
G01X3611455D01*
G02X3651455Y-8626623I0J-40000D01*
G01Y-8723663D01*
G03X3661455Y-8733663I10000J0D01*
G01X3666418D01*
G03X3676418Y-8723663I0J10000D01*
G01Y-8681587D01*
G02X3716418Y-8641587I40000J0D01*
G01X4266480D01*
G02X4306480Y-8681587I0J-40000D01*
G01Y-8693663D01*
G03X4346480Y-8733663I40000J0D01*
G01X4439012D01*
G02X4479012Y-8773663I0J-40000D01*
G01Y-9016696D01*
G03X4519012Y-9056696I40000J0D01*
G01X4521568D01*
G02X4561568Y-9096696I0J-40000D01*
G01Y-9596594D01*
G02X4521568Y-9636594I-40000J0D01*
G01X4519012D01*
G03X4479012Y-9676594I0J-40000D01*
G01Y-10223638D01*
G02X4439012Y-10263638I-40000J0D01*
G01X4346480D01*
G03X4306480Y-10303638I0J-40000D01*
G01Y-10321765D01*
G02X4266480Y-10361765I-40000J0D01*
G01X3716418D01*
G02X3676418Y-10321765I0J40000D01*
G01Y-10273638D01*
G03X3666418Y-10263638I-10000J0D01*
G01X3661455D01*
G03X3651455Y-10273638I0J-10000D01*
G01Y-10276660D01*
G02X3641455Y-10286660I-10000J0D01*
G01X1961408D01*
G02X1951408Y-10276660I0J10000D01*
G37*
G36*
G01X25546659Y-8358506D02*
G01X25454147Y-8358506D01*
G02X25414147Y-8318506I0J40000D01*
G01Y-7771472D01*
G03X25374147Y-7731472I-40000J0D01*
G01X25371741D01*
G02X25331741Y-7691472I0J40000D01*
G01Y-7191563D01*
G02X25371741Y-7151563I40000J0D01*
G01X25374147D01*
G03X25414147Y-7111563I0J40000D01*
G01Y-6868531D01*
G02X25454147Y-6828531I40000J0D01*
G01X25546659D01*
G03X25586659Y-6788531I0J40000D01*
G01Y-6776455D01*
G02X25626659Y-6736455I40000J0D01*
G01X26176581D01*
G02X26216581Y-6776455I0J-40000D01*
G01Y-6818531D01*
G03X26226581Y-6828531I10000J0D01*
G01X26231704D01*
G03X26241704Y-6818531I0J10000D01*
G01Y-6721491D01*
G02X26281704Y-6681491I40000J0D01*
G01X27901901D01*
G02X27941901Y-6721491I0J-40000D01*
G01Y-6818531D01*
G03X27951901Y-6828531I10000J0D01*
G01X27956824D01*
G03X27966824Y-6818531I0J10000D01*
G01Y-6776455D01*
G02X28006824Y-6736455I40000J0D01*
G01X28556947D01*
G02X28596947Y-6776455I0J-40000D01*
G01Y-6788531D01*
G03X28636947Y-6828531I40000J0D01*
G01X28729459D01*
G02X28769459Y-6868531I0J-40000D01*
G01Y-7111563D01*
G03X28809459Y-7151563I40000J0D01*
G01X28811864D01*
G02X28851864Y-7191563I0J-40000D01*
G01Y-7691472D01*
G02X28811864Y-7731472I-40000J0D01*
G01X28809459D01*
G03X28769459Y-7771472I0J-40000D01*
G01Y-8318506D01*
G02X28729459Y-8358506I-40000J0D01*
G01X28636947D01*
G03X28596947Y-8398506I0J-40000D01*
G01Y-8416623D01*
G02X28556947Y-8456623I-40000J0D01*
G01X28006824D01*
G02X27966824Y-8416623I0J40000D01*
G01Y-8368506D01*
G03X27956824Y-8358506I-10000J0D01*
G01X27951901D01*
G03X27941901Y-8368506I0J-10000D01*
G01Y-8371507D01*
G02X27931901Y-8381507I-10000J0D01*
G01X26251704D01*
G02X26241704Y-8371507I0J10000D01*
G01Y-8368506D01*
G03X26231704Y-8358506I-10000J0D01*
G01X26226581D01*
G03X26216581Y-8368506I0J-10000D01*
G01Y-8416623D01*
G02X26176581Y-8456623I-40000J0D01*
G01X25626659D01*
G02X25586659Y-8416623I0J40000D01*
G01Y-8398506D01*
G03X25546659Y-8358506I-40000J0D01*
G37*
G36*
G01X28967575Y-4548241D02*
G01X28875063Y-4548241D01*
G03X28835063Y-4588241I0J-40000D01*
G01Y-4606358D01*
G02X28795063Y-4646358I-40000J0D01*
G01X28245141D01*
G02X28205141Y-4606358I0J40000D01*
G01Y-4558241D01*
G03X28195141Y-4548241I-10000J-0D01*
G01X28190018D01*
G03X28180018Y-4558241I-0J-10000D01*
G01Y-4561243D01*
G02X28170018Y-4571243I-10000J0D01*
G01X26490021D01*
G02X26480021Y-4561243I0J10000D01*
G01Y-4558241D01*
G03X26470021Y-4548241I-10000J-0D01*
G01X26464898D01*
G03X26454898Y-4558241I-0J-10000D01*
G01Y-4606358D01*
G02X26414898Y-4646358I-40000J0D01*
G01X25864776D01*
G02X25824776Y-4606358I0J40000D01*
G01Y-4588241D01*
G03X25784776Y-4548241I-40000J0D01*
G01X25692463D01*
G02X25652464Y-4508241I0J40000D01*
G01Y-3961207D01*
G03X25612464Y-3921208I-40000J-0D01*
G01X25609858D01*
G02X25569858Y-3881208I0J40000D01*
G01Y-3381299D01*
G02X25609858Y-3341299I40000J0D01*
G01X25612464D01*
G03X25652464Y-3301299I0J40000D01*
G01Y-3058266D01*
G02X25692463Y-3018267I40000J0D01*
G01X25784776D01*
G03X25824776Y-2978267I0J40000D01*
G01Y-2966190D01*
G02X25864776Y-2926190I40000J0D01*
G01X26414898D01*
G02X26454898Y-2966190I0J-40000D01*
G01Y-3008267D01*
G03X26464898Y-3018267I10000J0D01*
G01X26470021D01*
G03X26480021Y-3008267I0J10000D01*
G01Y-2911226D01*
G02X26520021Y-2871226I40000J0D01*
G01X28140018D01*
G02X28180018Y-2911226I0J-40000D01*
G01Y-3008267D01*
G03X28190018Y-3018267I10000J0D01*
G01X28195141D01*
G03X28205141Y-3008267I0J10000D01*
G01Y-2966190D01*
G02X28245141Y-2926190I40000J0D01*
G01X28795063D01*
G02X28835063Y-2966190I0J-40000D01*
G01Y-2978267D01*
G03X28875063Y-3018267I40000J0D01*
G01X28967575D01*
G02X29007575Y-3058266I0J-40000D01*
G01Y-3301299D01*
G03X29047575Y-3341299I40000J0D01*
G01X29050181D01*
G02X29090181Y-3381299I0J-40000D01*
G01Y-3881208D01*
G02X29050181Y-3921208I-40000J-0D01*
G01X29047575D01*
G03X29007575Y-3961207I-0J-40000D01*
G01Y-4508241D01*
G02X28967575Y-4548241I-40000J-0D01*
G37*
G36*
G01X6476102Y-1989848D02*
G01X6476102Y-689851D01*
G02X6676102Y-489851I200000J0D01*
G01X7976129D01*
G02X8176129Y-689851I0J-200000D01*
G01Y-1989848D01*
G02X7976129Y-2189848I-200000J0D01*
G01X6676102D01*
G02X6476102Y-1989848I0J200000D01*
G37*
G36*
G01X5761683Y-11991790D02*
G01X5761683Y-10691745D01*
G02X5961682Y-10491745I200000J0D01*
G01X7261710D01*
G02X7461709Y-10691745I0J-200000D01*
G01Y-11991790D01*
G02X7261710Y-12191790I-200000J0D01*
G01X5961682D01*
G02X5761683Y-11991790I0J200000D01*
G37*
G36*
G01X23622323Y-4371243D02*
G01X23622323Y-3071226D01*
G02X23822322Y-2871226I200000J0D01*
G01X25122320D01*
G02X25322319Y-3071226I0J-200000D01*
G01Y-4371243D01*
G02X25122320Y-4571243I-200000J0D01*
G01X23822322D01*
G02X23622323Y-4371243I0J200000D01*
G37*
G36*
G01X7152385Y-8586623D02*
G01X8452412Y-8586623D01*
G02X8652412Y-8786623I0J-200000D01*
G01Y-10086660D01*
G02X8452412Y-10286660I-200000J0D01*
G01X7152385D01*
G02X6952385Y-10086660I0J200000D01*
G01Y-8786623D01*
G02X7152385Y-8586623I200000J0D01*
G37*
G36*
G01X12391329Y-2871226D02*
G01X13691526Y-2871226D01*
G02X13891526Y-3071226I0J-200000D01*
G01Y-4371243D01*
G02X13691526Y-4571243I-200000J0D01*
G01X12391329D01*
G02X12191329Y-4371243I0J200000D01*
G01Y-3071226D01*
G02X12391329Y-2871226I200000J0D01*
G37*
G36*
G01X960700Y-489851D02*
G01X2260753Y-489851D01*
G02X2460752Y-689851I-0J-199999D01*
G01Y-1989848D01*
G02X2260753Y-2189848I-200000J0D01*
G01X960700D01*
G02X760701Y-1989848I0J200000D01*
G01Y-689851D01*
G02X960700Y-489851I200000J0D01*
G37*
G36*
G01X31514049Y-11168028D02*
G01X31514049Y-12468072D01*
G02X31314050Y-12668072I-199999J-0D01*
G01X30013952D01*
G02X29813953Y-12468072I0J200000D01*
G01Y-11168028D01*
G02X30013952Y-10968028I200000J0D01*
G01X31314050D01*
G02X31514049Y-11168028I0J-200000D01*
G37*
G36*
G01X4570970Y-1989848D02*
G01X4570970Y-689851D01*
G02X4770970Y-489851I200000J0D01*
G01X6070997D01*
G02X6270997Y-689851I0J-200000D01*
G01Y-1989848D01*
G02X6070997Y-2189848I-200000J0D01*
G01X4770970D01*
G02X4570970Y-1989848I0J200000D01*
G37*
G36*
G01X18654356Y-4976358D02*
G01X18654356Y-6276376D01*
G02X18454357Y-6476375I-200000J0D01*
G01X17154359D01*
G02X16954360Y-6276376I0J200000D01*
G01Y-4976358D01*
G02X17154359Y-4776358I200000J0D01*
G01X18454357D01*
G02X18654356Y-4976358I0J-200000D01*
G37*
G36*
G01X17430593Y-8181508D02*
G01X17430593Y-6881490D01*
G02X17630592Y-6681491I200000J0D01*
G01X18930690D01*
G02X19130689Y-6881490I0J-200000D01*
G01Y-8181508D01*
G02X18930690Y-8381507I-200000J0D01*
G01X17630592D01*
G02X17430593Y-8181508I0J200000D01*
G37*
G36*
G01X12667762Y-10086660D02*
G01X12667762Y-8786623D01*
G02X12867762Y-8586623I200000J0D01*
G01X14167859D01*
G02X14367859Y-8786623I0J-200000D01*
G01Y-10086660D01*
G02X14167859Y-10286660I-200000J0D01*
G01X12867762D01*
G02X12667762Y-10086660I0J200000D01*
G37*
G36*
G01X21240857Y-8181508D02*
G01X21240857Y-6881490D01*
G02X21440857Y-6681491I200000J-0D01*
G01X22740954D01*
G02X22940954Y-6881490I0J-200000D01*
G01Y-8181508D01*
G02X22740954Y-8381507I-200000J0D01*
G01X21440857D01*
G02X21240857Y-8181508I0J200000D01*
G37*
G36*
G01X8104951Y-6681491D02*
G01X9404978Y-6681491D01*
G02X9604978Y-6881490I0J-200000D01*
G01Y-8181508D01*
G02X9404978Y-8381507I-200000J0D01*
G01X8104951D01*
G02X7904951Y-8181508I0J200000D01*
G01Y-6881490D01*
G02X8104951Y-6681491I200000J0D01*
G37*
G36*
G01X11915196Y-6681491D02*
G01X13215293Y-6681491D01*
G02X13415293Y-6881490I0J-200000D01*
G01Y-8181508D01*
G02X13215293Y-8381507I-200000J0D01*
G01X11915196D01*
G02X11715196Y-8181508I0J200000D01*
G01Y-6881490D01*
G02X11915196Y-6681491I200000J0D01*
G37*
G36*
G01X31990282Y-6881490D02*
G01X31990282Y-8181508D01*
G02X31790283Y-8381507I-200000J0D01*
G01X30490285D01*
G02X30290286Y-8181508I0J200000D01*
G01Y-6881490D01*
G02X30490285Y-6681491I200000J0D01*
G01X31790283D01*
G02X31990282Y-6881490I0J-200000D01*
G37*
G36*
G01X10081261Y-3071226D02*
G01X10081261Y-4371243D01*
G02X9881262Y-4571243I-200000J0D01*
G01X8581234D01*
G02X8381235Y-4371243I0J199999D01*
G01X8381234Y-3071226D01*
G02X8581234Y-2871226I200000J0D01*
G01X9881262D01*
G02X10081261Y-3071226I0J-200000D01*
G37*
G36*
G01X6199819Y-6681491D02*
G01X7499846Y-6681491D01*
G02X7699846Y-6881490I0J-200000D01*
G01Y-8181508D01*
G02X7499846Y-8381507I-200000J0D01*
G01X6199819D01*
G02X5999819Y-8181508I0J200000D01*
G01Y-6881490D01*
G02X6199819Y-6681491I200000J0D01*
G37*
G36*
G01X28932584Y-2189848D02*
G01X27632587Y-2189848D01*
G02X27432587Y-1989848I0J200000D01*
G01Y-689851D01*
G02X27632587Y-489851I200000J0D01*
G01X28932584D01*
G02X29132584Y-689851I0J-200000D01*
G01Y-1989848D01*
G02X28932584Y-2189848I-200000J0D01*
G37*
G36*
G01X20083255Y-8786623D02*
G01X20083255Y-10086660D01*
G02X19883256Y-10286660I-200000J0D01*
G01X18583158D01*
G02X18383159Y-10086660I0J199999D01*
G01Y-8786623D01*
G02X18583158Y-8586623I200000J0D01*
G01X19883256D01*
G02X20083255Y-8786623I0J-200000D01*
G37*
G36*
G01X20012058Y-10491745D02*
G01X21312055Y-10491745D01*
G02X21512055Y-10691745I0J-200000D01*
G01Y-11991790D01*
G02X21312055Y-12191790I-200000J0D01*
G01X20012058D01*
G02X19812058Y-11991790I0J200000D01*
G01Y-10691745D01*
G02X20012058Y-10491745I200000J0D01*
G37*
G36*
G01X25122320Y-12191790D02*
G01X23822322Y-12191790D01*
G02X23622323Y-11991790I0J200000D01*
G01Y-10691745D01*
G02X23822322Y-10491745I200000J0D01*
G01X25122320D01*
G02X25322319Y-10691745I0J-200000D01*
G01Y-11991790D01*
G02X25122320Y-12191790I-200000J0D01*
G37*
G36*
G01X17501790Y-4571243D02*
G01X16201793Y-4571243D01*
G02X16001793Y-4371243I0J200000D01*
G01Y-3071226D01*
G02X16201793Y-2871226I200000J0D01*
G01X17501790D01*
G02X17701790Y-3071226I0J-200000D01*
G01Y-4371243D01*
G02X17501790Y-4571243I-200000J0D01*
G37*
G36*
G01X26074886Y-6476375D02*
G01X24774888Y-6476375D01*
G02X24574889Y-6276376I0J200000D01*
G01Y-4976358D01*
G02X24774888Y-4776358I200000J0D01*
G01X26074886D01*
G02X26274885Y-4976358I0J-200000D01*
G01Y-6276376D01*
G02X26074886Y-6476375I-200000J0D01*
G37*
G36*
G01X30290286Y-6276376D02*
G01X30290286Y-4976358D01*
G02X30490285Y-4776358I200000J0D01*
G01X31790283D01*
G02X31990282Y-4976358I0J-200000D01*
G01Y-6276376D01*
G02X31790283Y-6476375I-200000J0D01*
G01X30490285D01*
G02X30290286Y-6276376I0J200000D01*
G37*
G36*
G01X23217188Y-2189848D02*
G01X21917190Y-2189848D01*
G02X21717191Y-1989848I0J200000D01*
G01Y-689851D01*
G02X21917190Y-489851I200000J0D01*
G01X23217188D01*
G02X23417187Y-689851I0J-200000D01*
G01Y-1989848D01*
G02X23217188Y-2189848I-200000J0D01*
G37*
G36*
G01X18859492Y-6276376D02*
G01X18859492Y-4976358D01*
G02X19059492Y-4776358I200000J-0D01*
G01X20359489D01*
G02X20559489Y-4976358I0J-200000D01*
G01Y-6276376D01*
G02X20359489Y-6476375I-200000J0D01*
G01X19059492D01*
G02X18859492Y-6276376I0J200000D01*
G37*
G36*
G01X6747280Y-8786623D02*
G01X6747280Y-10086660D01*
G02X6547280Y-10286660I-200000J0D01*
G01X5247253D01*
G02X5047253Y-10086660I0J200000D01*
G01Y-8786623D01*
G02X5247253Y-8586623I200000J0D01*
G01X6547280D01*
G02X6747280Y-8786623I0J-200000D01*
G37*
G36*
G01X2460752Y-3071226D02*
G01X2460752Y-4371243D01*
G02X2260753Y-4571243I-200000J0D01*
G01X960700D01*
G02X760701Y-4371243I0J200000D01*
G01Y-3071226D01*
G02X960700Y-2871226I200000J0D01*
G01X2260753D01*
G02X2460752Y-3071226I-0J-199999D01*
G37*
G36*
G01X19335725Y-8181508D02*
G01X19335725Y-6881490D01*
G02X19535725Y-6681491I200000J0D01*
G01X20835822D01*
G02X21035822Y-6881490I0J-200000D01*
G01Y-8181508D01*
G02X20835822Y-8381507I-199999J-0D01*
G01X19535725D01*
G02X19335725Y-8181508I0J200000D01*
G37*
G36*
G01X13820328Y-6681491D02*
G01X15120425Y-6681491D01*
G02X15320425Y-6881490I0J-200000D01*
G01Y-8181508D01*
G02X15120425Y-8381507I-200000J0D01*
G01X13820328D01*
G02X13620328Y-8181508I0J200000D01*
G01Y-6881490D01*
G02X13820328Y-6681491I200000J0D01*
G37*
G36*
G01X3580117Y-10491745D02*
G01X4880294Y-10491745D01*
G02X5080294Y-10691745I0J-200000D01*
G01Y-11991790D01*
G02X4880294Y-12191790I-200000J0D01*
G01X3580117D01*
G02X3380117Y-11991790I0J200000D01*
G01Y-10691745D01*
G02X3580117Y-10491745I200000J0D01*
G37*
G36*
G01X12462726Y-8786623D02*
G01X12462726Y-10086660D01*
G02X12262727Y-10286660I-200000J0D01*
G01X10962630D01*
G02X10762630Y-10086660I0J200000D01*
G01Y-8786623D01*
G02X10962630Y-8586623I200000J0D01*
G01X12262727D01*
G02X12462726Y-8786623I0J-200000D01*
G37*
G36*
G01X28108820Y-9062906D02*
G01X29408917Y-9062906D01*
G02X29608917Y-9262906I0J-200000D01*
G01Y-10562943D01*
G02X29408917Y-10762943I-200000J0D01*
G01X28108820D01*
G02X27908820Y-10562943I0J200000D01*
G01Y-9262906D01*
G02X28108820Y-9062906I200000J0D01*
G37*
G36*
G01X8857518Y-10086660D02*
G01X8857518Y-8786623D01*
G02X9057517Y-8586623I200000J0D01*
G01X10357545D01*
G02X10557544Y-8786623I0J-200000D01*
G01Y-10086660D01*
G02X10357545Y-10286660I-200000J0D01*
G01X9057517D01*
G02X8857518Y-10086660I0J200000D01*
G37*
G36*
G01X998843Y-11991790D02*
G01X998843Y-10691745D01*
G02X1198843Y-10491745I200000J0D01*
G01X2498889D01*
G02X2698889Y-10691745I0J-200000D01*
G01Y-11991790D01*
G02X2498889Y-12191790I-200000J0D01*
G01X1198843D01*
G02X998843Y-11991790I0J200000D01*
G37*
G36*
G01X31790283Y-4571243D02*
G01X30490285Y-4571243D01*
G02X30290286Y-4371243I0J200000D01*
G01Y-3071226D01*
G02X30490285Y-2871226I200000J0D01*
G01X31790283D01*
G02X31990282Y-3071226I0J-200000D01*
G01Y-4371243D01*
G02X31790283Y-4571243I-200000J0D01*
G37*
G36*
G01X27027452Y-2189848D02*
G01X25727455Y-2189848D01*
G02X25527455Y-1989848I0J200000D01*
G01Y-689851D01*
G02X25727455Y-489851I200000J0D01*
G01X27027452D01*
G02X27227452Y-689851I0J-200000D01*
G01Y-1989848D01*
G02X27027452Y-2189848I-200000J0D01*
G37*
G36*
G01X16749224Y-4976358D02*
G01X16749224Y-6276376D01*
G02X16549224Y-6476375I-200000J0D01*
G01X15249227D01*
G02X15049227Y-6276376I0J200000D01*
G01Y-4976358D01*
G02X15249227Y-4776358I200000J0D01*
G01X16549224D01*
G02X16749224Y-4976358I0J-200000D01*
G37*
G36*
G01X18106925Y-2871226D02*
G01X19406923Y-2871226D01*
G02X19606922Y-3071226I0J-200000D01*
G01Y-4371243D01*
G02X19406923Y-4571243I-200000J0D01*
G01X18106925D01*
G02X17906926Y-4371243I0J200000D01*
G01Y-3071226D01*
G02X18106925Y-2871226I200000J0D01*
G37*
G36*
G01X10486226Y-489851D02*
G01X11786394Y-489851D01*
G02X11986393Y-689851I0J-200000D01*
G01Y-1989848D01*
G02X11786394Y-2189848I-200000J0D01*
G01X10486226D01*
G02X10286227Y-1989848I0J200000D01*
G01Y-689851D01*
G02X10486226Y-489851I200000J0D01*
G37*
G36*
G01X10486226Y-2871226D02*
G01X11786394Y-2871226D01*
G02X11986393Y-3071226I0J-200000D01*
G01Y-4371243D01*
G02X11786394Y-4571243I-200000J0D01*
G01X10486226D01*
G02X10286227Y-4371243I0J200000D01*
G01Y-3071226D01*
G02X10486226Y-2871226I200000J0D01*
G37*
G04 PolygonModel End*
G54D10*

M02*
