G04 Layer: BottomLayer*
G04 EasyEDA Pro v2.1.51.8c9149c1.e57db4, 2024-03-19 08:48:05*
G04 Gerber Generator version 0.3*
G04 Scale: 100 percent, Rotated: No, Reflected: No*
G04 Dimensions in millimeters*
G04 Leading zeros omitted, absolute positions, 3 integers and 5 decimals*
%FSLAX35Y35*%
%MOMM*%
%ADD8191C,0.2032*%
G75*


G04 Copper Start*
G36*
G01X158227Y-13384869D02*
G02X44041Y-13270684I0J114186D01*
G01Y-261100D01*
G01Y-261099D01*
G02X258227Y-46914I214186J-0D01*
G01X32492899D01*
G02X32707085Y-261099I0J-214185D01*
G01Y-13270684D01*
G02X32592899Y-13384869I-114186J0D01*
G01X158227D01*
G37*
%LPC*%
G36*
G01X18555349Y-12116898D02*
G03X18591163Y-12152712I35814J0D01*
G01X18921285D01*
G01X18921286D01*
G03X18957100Y-12116898I0J35814D01*
G01Y-12054588D01*
G01X19093797D01*
G03X19129611Y-12018774I0J35814D01*
G01Y-11427541D01*
G01X19176203D01*
G03X19212017Y-11391727I0J35814D01*
G01Y-11111828D01*
G03X19176203Y-11076014I-35814J0D01*
G01X19129611D01*
G01Y-10788785D01*
G03X19093797Y-10752971I-35814J0D01*
G01X18957100D01*
G01Y-10696729D01*
G03X18921286Y-10660915I-35814J0D01*
G01X18921285D01*
G01X18591163D01*
G03X18555349Y-10696729I0J-35814D01*
G01Y-10752971D01*
G01X18418651D01*
G03X18382837Y-10788785I0J-35814D01*
G01Y-11076014D01*
G01X14491790D01*
G01Y-10641745D01*
G03X14455976Y-10605931I-35814J0D01*
G01X13055778D01*
G03X13019964Y-10641745I0J-35814D01*
G01Y-11076014D01*
G01X9128927D01*
G01Y-10788785D01*
G03X9093113Y-10752971I-35814J0D01*
G01X8956365D01*
G01Y-10696729D01*
G03X8920551Y-10660915I-35814J0D01*
G01X8590468D01*
G03X8554654Y-10696729I0J-35814D01*
G01Y-10752971D01*
G01X8417956D01*
G03X8382142Y-10788785I0J-35814D01*
G01Y-11076014D01*
G01X8335541D01*
G03X8299727Y-11111828I0J-35814D01*
G01Y-11391727D01*
G03X8335541Y-11427541I35814J0D01*
G01X8382142D01*
G01Y-12018774D01*
G03X8417956Y-12054588I35814J0D01*
G01X8554654D01*
G01Y-12116898D01*
G03X8590468Y-12152712I35814J0D01*
G01X8920551D01*
G03X8956365Y-12116898I0J35814D01*
G01Y-12054588D01*
G01X9093113D01*
G03X9128927Y-12018774I0J35814D01*
G01Y-11607664D01*
G01X13019964D01*
G01Y-12041790D01*
G03X13055778Y-12077604I35814J0D01*
G01X14455976D01*
G03X14491790Y-12041790I0J35814D01*
G01Y-11607664D01*
G01X18382837D01*
G01Y-12018774D01*
G03X18418651Y-12054588I35814J0D01*
G01X18555349D01*
G01Y-12116898D01*
G37*
G36*
G01X25938961Y-4496358D02*
G03X25974775Y-4532172I35814J0D01*
G01X26304898D01*
G03X26340712Y-4496358I0J35814D01*
G01Y-4434055D01*
G01X26477410D01*
G03X26513224Y-4398241I0J35814D01*
G01Y-3987124D01*
G01X26594207D01*
G01Y-4421243D01*
G03X26630021Y-4457057I35814J0D01*
G01X28030018D01*
G03X28065832Y-4421243I0J35814D01*
G01Y-3987124D01*
G01X28146815D01*
G01Y-4398241D01*
G03X28182629Y-4434055I35814J0D01*
G01X28319327D01*
G01Y-4496358D01*
G03X28355141Y-4532172I35814J0D01*
G01X28685063D01*
G03X28720877Y-4496358I0J35814D01*
G01Y-4434055D01*
G01X28857576D01*
G03X28893390Y-4398241I0J35814D01*
G01Y-3807022D01*
G01X28940181D01*
G03X28975995Y-3771208I0J35814D01*
G01Y-3491299D01*
G03X28940181Y-3455485I-35814J0D01*
G01X28893390D01*
G01Y-3168266D01*
G03X28857576Y-3132452I-35814J0D01*
G01X28720877D01*
G01Y-3076190D01*
G03X28685063Y-3040376I-35814J0D01*
G01X28355141D01*
G03X28319327Y-3076190I0J-35814D01*
G01Y-3132452D01*
G01X28182629D01*
G03X28146815Y-3168266I0J-35814D01*
G01Y-3455485D01*
G01X28065832D01*
G01Y-3021226D01*
G03X28030018Y-2985412I-35814J0D01*
G01X26630021D01*
G03X26594207Y-3021226I0J-35814D01*
G01Y-3455485D01*
G01X26513224D01*
G01Y-3168266D01*
G03X26477410Y-3132452I-35814J0D01*
G01X26340712D01*
G01Y-3076190D01*
G03X26304898Y-3040376I-35814J0D01*
G01X25974775D01*
G03X25938961Y-3076190I0J-35814D01*
G01Y-3132452D01*
G01X25802463D01*
G03X25766649Y-3168266I0J-35814D01*
G01Y-3455485D01*
G01X25719858D01*
G03X25684044Y-3491299I0J-35814D01*
G01Y-3771208D01*
G03X25719858Y-3807022I35814J0D01*
G01X25766649D01*
G01Y-4398241D01*
G03X25802463Y-4434055I35814J0D01*
G01X25938961D01*
G01Y-4496358D01*
G37*
G36*
G01X1410567Y-10211765D02*
G03X1446381Y-10247579I35814J0D01*
G01X1776305D01*
G03X1812119Y-10211765I0J35814D01*
G01Y-10149452D01*
G01X1948847D01*
G03X1984661Y-10113638I0J35814D01*
G01Y-9702531D01*
G01X2065594D01*
G01Y-10136660D01*
G03X2101408Y-10172474I35814J0D01*
G01X3501455D01*
G03X3537269Y-10136660I0J35814D01*
G01Y-9702531D01*
G01X3618202D01*
G01Y-10113638D01*
G03X3654016Y-10149452I35814J0D01*
G01X3790604D01*
G01Y-10211765D01*
G03X3826418Y-10247579I35814J0D01*
G01X4156481D01*
G03X4192295Y-10211765I0J35814D01*
G01Y-10149452D01*
G01X4329012D01*
G03X4364826Y-10113638I0J35814D01*
G01Y-9522409D01*
G01X4411568D01*
G03X4447382Y-9486595I0J35814D01*
G01Y-9206695D01*
G03X4411568Y-9170881I-35814J0D01*
G01X4364826D01*
G01Y-8883663D01*
G03X4329012Y-8847849I-35814J0D01*
G01X4192295D01*
G01Y-8791586D01*
G03X4156481Y-8755772I-35814J0D01*
G01X3826418D01*
G03X3790604Y-8791586I0J-35814D01*
G01Y-8847849D01*
G01X3654016D01*
G03X3618202Y-8883663I0J-35814D01*
G01Y-9170881D01*
G01X3537269D01*
G01Y-8736623D01*
G03X3501455Y-8700809I-35814J0D01*
G01X2101408D01*
G03X2065594Y-8736623I0J-35814D01*
G01Y-9170881D01*
G01X1984661D01*
G01Y-8883663D01*
G03X1948847Y-8847849I-35814J0D01*
G01X1812119D01*
G01Y-8791586D01*
G03X1776305Y-8755772I-35814J0D01*
G01X1446381D01*
G03X1410567Y-8791586I0J-35814D01*
G01Y-8847849D01*
G01X1273840D01*
G03X1238026Y-8883663I0J-35814D01*
G01Y-9170881D01*
G01X1191288D01*
G03X1155474Y-9206695I0J-35814D01*
G01Y-9486595D01*
G03X1191288Y-9522409I35814J0D01*
G01X1238026D01*
G01Y-10113638D01*
G03X1273840Y-10149452I35814J0D01*
G01X1410567D01*
G01Y-10211765D01*
G37*
G36*
G01X25700845Y-8306623D02*
G03X25736659Y-8342437I35814J0D01*
G01X26066582D01*
G03X26102396Y-8306623I0J35814D01*
G01Y-8244320D01*
G01X26239294D01*
G03X26275108Y-8208506I0J35814D01*
G01Y-7797389D01*
G01X26355890D01*
G01Y-8231508D01*
G03X26391704Y-8267322I35814J0D01*
G01X27791901D01*
G03X27827715Y-8231508I0J35814D01*
G01Y-7797389D01*
G01X27908498D01*
G01Y-8208506D01*
G03X27944312Y-8244320I35814J0D01*
G01X28081010D01*
G01Y-8306623D01*
G03X28116824Y-8342437I35814J0D01*
G01X28446947D01*
G03X28482761Y-8306623I0J35814D01*
G01Y-8244320D01*
G01X28619459D01*
G03X28655273Y-8208506I0J35814D01*
G01Y-7617287D01*
G01X28701865D01*
G03X28737679Y-7581473I0J35814D01*
G01Y-7301563D01*
G03X28701865Y-7265749I-35814J0D01*
G01X28655273D01*
G01Y-6978531D01*
G03X28619459Y-6942717I-35814J0D01*
G01X28482761D01*
G01Y-6886454D01*
G03X28446947Y-6850640I-35814J0D01*
G01X28116824D01*
G03X28081010Y-6886454I0J-35814D01*
G01Y-6942717D01*
G01X27944312D01*
G03X27908498Y-6978531I0J-35814D01*
G01Y-7265749D01*
G01X27827715D01*
G01Y-6831491D01*
G03X27791901Y-6795677I-35814J0D01*
G01X26391704D01*
G03X26355890Y-6831491I0J-35814D01*
G01Y-7265749D01*
G01X26275108D01*
G01Y-6978531D01*
G03X26239294Y-6942717I-35814J0D01*
G01X26102396D01*
G01Y-6886454D01*
G03X26066582Y-6850640I-35814J0D01*
G01X25736659D01*
G03X25700845Y-6886454I0J-35814D01*
G01Y-6942717D01*
G01X25564147D01*
G03X25528333Y-6978531I0J-35814D01*
G01Y-7265749D01*
G01X25481741D01*
G03X25445927Y-7301563I0J-35814D01*
G01Y-7581473D01*
G03X25481741Y-7617287I35814J0D01*
G01X25528333D01*
G01Y-8208506D01*
G03X25564147Y-8244320I35814J0D01*
G01X25700845D01*
G01Y-8306623D01*
G37*
G36*
G01X3494303Y-12041790D02*
G03X3530117Y-12077604I35814J0D01*
G01X4930294D01*
G03X4966108Y-12041790I0J35814D01*
G01Y-10641745D01*
G03X4930294Y-10605931I-35814J0D01*
G01X3530117D01*
G03X3494303Y-10641745I0J-35814D01*
G01Y-12041790D01*
G37*
G36*
G01X12305515Y-4421243D02*
G03X12341329Y-4457057I35814J0D01*
G01X13741526D01*
G03X13777340Y-4421243I0J35814D01*
G01Y-3021226D01*
G03X13741526Y-2985412I-35814J0D01*
G01X12341329D01*
G03X12305515Y-3021226I0J-35814D01*
G01Y-4421243D01*
G37*
G36*
G01X3025172Y-8267322D02*
G03X3060986Y-8231508I0J35814D01*
G01Y-6831491D01*
G03X3025172Y-6795677I-35814J0D01*
G01X1624988D01*
G03X1589174Y-6831491I0J-35814D01*
G01Y-8231508D01*
G03X1624988Y-8267322I35814J0D01*
G01X3025172D01*
G37*
G36*
G01X11836394Y-4457057D02*
G03X11872208Y-4421243I0J35814D01*
G01Y-3021226D01*
G03X11836394Y-2985412I-35814J0D01*
G01X10436227D01*
G03X10400413Y-3021226I0J-35814D01*
G01Y-4421243D01*
G03X10436227Y-4457057I35814J0D01*
G01X11836394D01*
G37*
G36*
G01X10400413Y-2039848D02*
G03X10436227Y-2075662I35814J0D01*
G01X11836394D01*
G03X11872208Y-2039848I0J35814D01*
G01Y-639851D01*
G03X11836394Y-604037I-35814J0D01*
G01X10436227D01*
G03X10400413Y-639851I0J-35814D01*
G01Y-2039848D01*
G37*
G36*
G01X26117874Y-12518072D02*
G03X26153688Y-12553886I35814J0D01*
G01X27553785D01*
G03X27589599Y-12518072I0J35814D01*
G01Y-11118028D01*
G03X27553785Y-11082214I-35814J0D01*
G01X26153688D01*
G03X26117874Y-11118028I0J-35814D01*
G01Y-12518072D01*
G37*
G36*
G01X28023006Y-12518072D02*
G03X28058820Y-12553886I35814J0D01*
G01X29458917D01*
G03X29494731Y-12518072I0J35814D01*
G01Y-11118028D01*
G03X29458917Y-11082214I-35814J0D01*
G01X28058820D01*
G03X28023006Y-11118028I0J-35814D01*
G01Y-12518072D01*
G37*
G36*
G01X29928138Y-12518072D02*
G03X29963952Y-12553886I35814J0D01*
G01X31364049D01*
G03X31399863Y-12518072I0J35814D01*
G01Y-11118028D01*
G03X31364049Y-11082214I-35814J0D01*
G01X29963952D01*
G03X29928138Y-11118028I0J-35814D01*
G01Y-12518072D01*
G37*
G36*
G01X12781948Y-10136660D02*
G03X12817762Y-10172474I35814J0D01*
G01X14217859D01*
G03X14253673Y-10136660I0J35814D01*
G01Y-8736623D01*
G03X14217859Y-8700809I-35814J0D01*
G01X12817762D01*
G03X12781948Y-8736623I0J-35814D01*
G01Y-10136660D01*
G37*
G36*
G01X22307609Y-10136660D02*
G03X22343423Y-10172474I35814J0D01*
G01X23743520D01*
G03X23779334Y-10136660I0J35814D01*
G01Y-8736623D01*
G03X23743520Y-8700809I-35814J0D01*
G01X22343423D01*
G03X22307609Y-8736623I0J-35814D01*
G01Y-10136660D01*
G37*
G36*
G01X16122991Y-10172474D02*
G03X16158805Y-10136660I0J35814D01*
G01Y-8736623D01*
G03X16122991Y-8700809I-35814J0D01*
G01X14722894D01*
G03X14687080Y-8736623I0J-35814D01*
G01Y-10136660D01*
G03X14722894Y-10172474I35814J0D01*
G01X16122991D01*
G37*
G36*
G01X18028124Y-10172474D02*
G03X18063938Y-10136660I0J35814D01*
G01Y-8736623D01*
G03X18028124Y-8700809I-35814J0D01*
G01X16628026D01*
G03X16592212Y-8736623I0J-35814D01*
G01Y-10136660D01*
G03X16628026Y-10172474I35814J0D01*
G01X18028124D01*
G37*
G36*
G01X18497345Y-10136660D02*
G03X18533159Y-10172474I35814J0D01*
G01X19933256D01*
G03X19969070Y-10136660I0J35814D01*
G01Y-8736623D01*
G03X19933256Y-8700809I-35814J0D01*
G01X18533159D01*
G03X18497345Y-8736623I0J-35814D01*
G01Y-10136660D01*
G37*
G36*
G01X21838388Y-10172474D02*
G03X21874202Y-10136660I0J35814D01*
G01Y-8736623D01*
G03X21838388Y-8700809I-35814J0D01*
G01X20438291D01*
G03X20402477Y-8736623I0J-35814D01*
G01Y-10136660D01*
G03X20438291Y-10172474I35814J0D01*
G01X21838388D01*
G37*
G36*
G01X10876816Y-10136660D02*
G03X10912630Y-10172474I35814J0D01*
G01X12312727D01*
G03X12348541Y-10136660I0J35814D01*
G01Y-8736623D01*
G03X12312727Y-8700809I-35814J0D01*
G01X10912630D01*
G03X10876816Y-8736623I0J-35814D01*
G01Y-10136660D01*
G37*
G36*
G01X29458917Y-10648757D02*
G03X29494731Y-10612943I0J35814D01*
G01Y-9212906D01*
G03X29458917Y-9177092I-35814J0D01*
G01X28058820D01*
G03X28023006Y-9212906I0J-35814D01*
G01Y-10612943D01*
G03X28058820Y-10648757I35814J0D01*
G01X29458917D01*
G37*
G36*
G01X27070440Y-6326375D02*
G03X27106254Y-6362189I35814J0D01*
G01X28506351D01*
G03X28542165Y-6326375I0J35814D01*
G01Y-4926358D01*
G03X28506351Y-4890544I-35814J0D01*
G01X27106254D01*
G03X27070440Y-4926358I0J-35814D01*
G01Y-6326375D01*
G37*
G36*
G01X24696086Y-8267322D02*
G03X24731900Y-8231508I0J35814D01*
G01Y-6831491D01*
G03X24696086Y-6795677I-35814J0D01*
G01X23295989D01*
G03X23260175Y-6831491I0J-35814D01*
G01Y-8231508D01*
G03X23295989Y-8267322I35814J0D01*
G01X24696086D01*
G37*
G36*
G01X19449911Y-8231508D02*
G03X19485725Y-8267322I35814J0D01*
G01X20885822D01*
G03X20921636Y-8231508I0J35814D01*
G01Y-6831491D01*
G03X20885822Y-6795677I-35814J0D01*
G01X19485725D01*
G03X19449911Y-6831491I0J-35814D01*
G01Y-8231508D01*
G37*
G36*
G01X11829382Y-8231508D02*
G03X11865196Y-8267322I35814J0D01*
G01X13265293D01*
G03X13301107Y-8231508I0J35814D01*
G01Y-6831491D01*
G03X13265293Y-6795677I-35814J0D01*
G01X11865196D01*
G03X11829382Y-6831491I0J-35814D01*
G01Y-8231508D01*
G37*
G36*
G01X21355043Y-8231508D02*
G03X21390857Y-8267322I35814J0D01*
G01X22790954D01*
G03X22826768Y-8231508I0J35814D01*
G01Y-6831491D01*
G03X22790954Y-6795677I-35814J0D01*
G01X21390857D01*
G03X21355043Y-6831491I0J-35814D01*
G01Y-8231508D01*
G37*
G36*
G01X17544778Y-8231508D02*
G03X17580592Y-8267322I35814J0D01*
G01X18980690D01*
G03X19016504Y-8231508I0J35814D01*
G01Y-6831491D01*
G03X18980690Y-6795677I-35814J0D01*
G01X17580592D01*
G03X17544778Y-6831491I0J-35814D01*
G01Y-8231508D01*
G37*
G36*
G01X15639646Y-8231508D02*
G03X15675460Y-8267322I35814J0D01*
G01X17075557D01*
G03X17111371Y-8231508I0J35814D01*
G01Y-6831491D01*
G03X17075557Y-6795677I-35814J0D01*
G01X15675460D01*
G03X15639646Y-6831491I0J-35814D01*
G01Y-8231508D01*
G37*
G36*
G01X13734514Y-8231508D02*
G03X13770328Y-8267322I35814J0D01*
G01X15170425D01*
G03X15206239Y-8231508I0J35814D01*
G01Y-6831491D01*
G03X15170425Y-6795677I-35814J0D01*
G01X13770328D01*
G03X13734514Y-6831491I0J-35814D01*
G01Y-8231508D01*
G37*
G36*
G01X9924269Y-8231508D02*
G03X9960083Y-8267322I35814J0D01*
G01X11360161D01*
G03X11395975Y-8231508I0J35814D01*
G01Y-6831491D01*
G03X11360161Y-6795677I-35814J0D01*
G01X9960083D01*
G03X9924269Y-6831491I0J-35814D01*
G01Y-8231508D01*
G37*
G36*
G01X2548889Y-12077604D02*
G03X2584703Y-12041790I0J35814D01*
G01Y-10641745D01*
G03X2548889Y-10605931I-35814J0D01*
G01X1148843D01*
G03X1113029Y-10641745I0J-35814D01*
G01Y-12041790D01*
G03X1148843Y-12077604I35814J0D01*
G01X2548889D01*
G37*
G36*
G01X5875868Y-12041790D02*
G03X5911682Y-12077604I35814J0D01*
G01X7311710D01*
G03X7347524Y-12041790I0J35814D01*
G01Y-10641745D01*
G03X7311710Y-10605931I-35814J0D01*
G01X5911682D01*
G03X5875868Y-10641745I0J-35814D01*
G01Y-12041790D01*
G37*
G36*
G01X874886Y-4421243D02*
G03X910700Y-4457057I35814J0D01*
G01X2310753D01*
G03X2346567Y-4421243I0J35814D01*
G01Y-3021226D01*
G03X2310753Y-2985412I-35814J0D01*
G01X910700D01*
G03X874886Y-3021226I0J-35814D01*
G01Y-4421243D01*
G37*
G36*
G01X1351170Y-6326375D02*
G03X1386984Y-6362189I35814J0D01*
G01X2787036D01*
G03X2822850Y-6326375I0J35814D01*
G01Y-4926358D01*
G03X2787036Y-4890544I-35814J0D01*
G01X1386984D01*
G03X1351170Y-4926358I0J-35814D01*
G01Y-6326375D01*
G37*
G36*
G01X7066571Y-10136660D02*
G03X7102385Y-10172474I35814J0D01*
G01X8502412D01*
G03X8538226Y-10136660I0J35814D01*
G01Y-8736623D01*
G03X8502412Y-8700809I-35814J0D01*
G01X7102385D01*
G03X7066571Y-8736623I0J-35814D01*
G01Y-10136660D01*
G37*
G36*
G01X5161439Y-10136660D02*
G03X5197253Y-10172474I35814J0D01*
G01X6597280D01*
G03X6633094Y-10136660I0J35814D01*
G01Y-8736623D01*
G03X6597280Y-8700809I-35814J0D01*
G01X5197253D01*
G03X5161439Y-8736623I0J-35814D01*
G01Y-10136660D01*
G37*
G36*
G01X8971703Y-10136660D02*
G03X9007517Y-10172474I35814J0D01*
G01X10407545D01*
G03X10443359Y-10136660I0J35814D01*
G01Y-8736623D01*
G03X10407545Y-8700809I-35814J0D01*
G01X9007517D01*
G03X8971703Y-8736623I0J-35814D01*
G01Y-10136660D01*
G37*
G36*
G01X874886Y-2039848D02*
G03X910700Y-2075662I35814J0D01*
G01X2310753D01*
G03X2346567Y-2039848I0J35814D01*
G01Y-639851D01*
G03X2310753Y-604037I-35814J0D01*
G01X910700D01*
G03X874886Y-639851I0J-35814D01*
G01Y-2039848D01*
G37*
G36*
G01X9931262Y-4457057D02*
G03X9967076Y-4421243I0J35814D01*
G01Y-3021226D01*
G03X9931262Y-2985412I-35814J0D01*
G01X8531234D01*
G03X8495420Y-3021226I0J-35814D01*
G01Y-4421243D01*
G03X8531234Y-4457057I35814J0D01*
G01X9931262D01*
G37*
G36*
G01X7542854Y-6326375D02*
G03X7578668Y-6362189I35814J0D01*
G01X8978695D01*
G03X9014509Y-6326375I0J35814D01*
G01Y-4926358D01*
G03X8978695Y-4890544I-35814J0D01*
G01X7578668D01*
G03X7542854Y-4926358I0J-35814D01*
G01Y-6326375D01*
G37*
G36*
G01X9447986Y-6326375D02*
G03X9483800Y-6362189I35814J0D01*
G01X10883828D01*
G03X10919642Y-6326375I0J35814D01*
G01Y-4926358D01*
G03X10883828Y-4890544I-35814J0D01*
G01X9483800D01*
G03X9447986Y-4926358I0J-35814D01*
G01Y-6326375D01*
G37*
G36*
G01X3732590Y-6326375D02*
G03X3768404Y-6362189I35814J0D01*
G01X5168431D01*
G03X5204245Y-6326375I0J35814D01*
G01Y-4926358D01*
G03X5168431Y-4890544I-35814J0D01*
G01X3768404D01*
G03X3732590Y-4926358I0J-35814D01*
G01Y-6326375D01*
G37*
G36*
G01X5637722Y-6326375D02*
G03X5673536Y-6362189I35814J0D01*
G01X7073563D01*
G03X7109377Y-6326375I0J35814D01*
G01Y-4926358D01*
G03X7073563Y-4890544I-35814J0D01*
G01X5673536D01*
G03X5637722Y-4926358I0J-35814D01*
G01Y-6326375D01*
G37*
G36*
G01X8026129Y-4457057D02*
G03X8061943Y-4421243I0J35814D01*
G01Y-3021226D01*
G03X8026129Y-2985412I-35814J0D01*
G01X6626102D01*
G03X6590288Y-3021226I0J-35814D01*
G01Y-4421243D01*
G03X6626102Y-4457057I35814J0D01*
G01X8026129D01*
G37*
G36*
G01X4685156Y-4421243D02*
G03X4720970Y-4457057I35814J0D01*
G01X6120997D01*
G03X6156811Y-4421243I0J35814D01*
G01Y-3021226D01*
G03X6120997Y-2985412I-35814J0D01*
G01X4720970D01*
G03X4685156Y-3021226I0J-35814D01*
G01Y-4421243D01*
G37*
G36*
G01X2780023Y-4421243D02*
G03X2815837Y-4457057I35814J0D01*
G01X4215865D01*
G03X4251679Y-4421243I0J35814D01*
G01Y-3021226D01*
G03X4215865Y-2985412I-35814J0D01*
G01X2815837D01*
G03X2780023Y-3021226I0J-35814D01*
G01Y-4421243D01*
G37*
G36*
G01X9454978Y-8267322D02*
G03X9490792Y-8231508I0J35814D01*
G01Y-6831491D01*
G03X9454978Y-6795677I-35814J0D01*
G01X8054951D01*
G03X8019137Y-6831491I0J-35814D01*
G01Y-8231508D01*
G03X8054951Y-8267322I35814J0D01*
G01X9454978D01*
G37*
G36*
G01X6114005Y-8231508D02*
G03X6149819Y-8267322I35814J0D01*
G01X7549846D01*
G03X7585660Y-8231508I0J35814D01*
G01Y-6831491D01*
G03X7549846Y-6795677I-35814J0D01*
G01X6149819D01*
G03X6114005Y-6831491I0J-35814D01*
G01Y-8231508D01*
G37*
G36*
G01X4208873Y-8231508D02*
G03X4244687Y-8267322I35814J0D01*
G01X5644714D01*
G03X5680528Y-8231508I0J35814D01*
G01Y-6831491D01*
G03X5644714Y-6795677I-35814J0D01*
G01X4244687D01*
G03X4208873Y-6831491I0J-35814D01*
G01Y-8231508D01*
G37*
G36*
G01X21362055Y-12077604D02*
G03X21397869Y-12041790I0J35814D01*
G01Y-10641745D01*
G03X21362055Y-10605931I-35814J0D01*
G01X19962058D01*
G03X19926244Y-10641745I0J-35814D01*
G01Y-12041790D01*
G03X19962058Y-12077604I35814J0D01*
G01X21362055D01*
G37*
G36*
G01X23267187Y-12077604D02*
G03X23303001Y-12041790I0J35814D01*
G01Y-10641745D01*
G03X23267187Y-10605931I-35814J0D01*
G01X21867190D01*
G03X21831376Y-10641745I0J-35814D01*
G01Y-12041790D01*
G03X21867190Y-12077604I35814J0D01*
G01X23267187D01*
G37*
G36*
G01X23736508Y-12041790D02*
G03X23772322Y-12077604I35814J0D01*
G01X25172319D01*
G03X25208133Y-12041790I0J35814D01*
G01Y-10641745D01*
G03X25172319Y-10605931I-35814J0D01*
G01X23772322D01*
G03X23736508Y-10641745I0J-35814D01*
G01Y-12041790D01*
G37*
G36*
G01X30404471Y-10136660D02*
G03X30440285Y-10172474I35814J0D01*
G01X31840283D01*
G03X31876097Y-10136660I0J35814D01*
G01Y-8736623D01*
G03X31840283Y-8700809I-35814J0D01*
G01X30440285D01*
G03X30404471Y-8736623I0J-35814D01*
G01Y-10136660D01*
G37*
G36*
G01X24927191Y-10136660D02*
G03X24963005Y-10172474I35814J0D01*
G01X26363002D01*
G03X26398816Y-10136660I0J35814D01*
G01Y-8736623D01*
G03X26363002Y-8700809I-35814J0D01*
G01X24963005D01*
G03X24927191Y-8736623I0J-35814D01*
G01Y-10136660D01*
G37*
G36*
G01X8495420Y-2039848D02*
G03X8531234Y-2075662I35814J0D01*
G01X9931262D01*
G03X9967076Y-2039848I0J35814D01*
G01Y-639851D01*
G03X9931262Y-604037I-35814J0D01*
G01X8531234D01*
G03X8495420Y-639851I0J-35814D01*
G01Y-2039848D01*
G37*
G36*
G01X6590288Y-2039848D02*
G03X6626102Y-2075662I35814J0D01*
G01X8026129D01*
G03X8061943Y-2039848I0J35814D01*
G01Y-639851D01*
G03X8026129Y-604037I-35814J0D01*
G01X6626102D01*
G03X6590288Y-639851I0J-35814D01*
G01Y-2039848D01*
G37*
G36*
G01X4685156Y-2039848D02*
G03X4720970Y-2075662I35814J0D01*
G01X6120997D01*
G03X6156811Y-2039848I0J35814D01*
G01Y-639851D01*
G03X6120997Y-604037I-35814J0D01*
G01X4720970D01*
G03X4685156Y-639851I0J-35814D01*
G01Y-2039848D01*
G37*
G36*
G01X30404471Y-6326375D02*
G03X30440285Y-6362189I35814J0D01*
G01X31840283D01*
G03X31876097Y-6326375I0J35814D01*
G01Y-4926358D01*
G03X31840283Y-4890544I-35814J0D01*
G01X30440285D01*
G03X30404471Y-4926358I0J-35814D01*
G01Y-6326375D01*
G37*
G36*
G01X11353149Y-6326375D02*
G03X11388963Y-6362189I35814J0D01*
G01X12788960D01*
G03X12824774Y-6326375I0J35814D01*
G01Y-4926358D01*
G03X12788960Y-4890544I-35814J0D01*
G01X11388963D01*
G03X11353149Y-4926358I0J-35814D01*
G01Y-6326375D01*
G37*
G36*
G01X24689075Y-6326375D02*
G03X24724889Y-6362189I35814J0D01*
G01X26124886D01*
G03X26160700Y-6326375I0J35814D01*
G01Y-4926358D01*
G03X26124886Y-4890544I-35814J0D01*
G01X24724889D01*
G03X24689075Y-4926358I0J-35814D01*
G01Y-6326375D01*
G37*
G36*
G01X30404471Y-4421243D02*
G03X30440285Y-4457057I35814J0D01*
G01X31840283D01*
G03X31876097Y-4421243I0J35814D01*
G01Y-3021226D01*
G03X31840283Y-2985412I-35814J0D01*
G01X30440285D01*
G03X30404471Y-3021226I0J-35814D01*
G01Y-4421243D01*
G37*
G36*
G01X20878810Y-6326375D02*
G03X20914624Y-6362189I35814J0D01*
G01X22314621D01*
G03X22350435Y-6326375I0J35814D01*
G01Y-4926358D01*
G03X22314621Y-4890544I-35814J0D01*
G01X20914624D01*
G03X20878810Y-4926358I0J-35814D01*
G01Y-6326375D01*
G37*
G36*
G01X15163413Y-6326375D02*
G03X15199227Y-6362189I35814J0D01*
G01X16599224D01*
G03X16635038Y-6326375I0J35814D01*
G01Y-4926358D01*
G03X16599224Y-4890544I-35814J0D01*
G01X15199227D01*
G03X15163413Y-4926358I0J-35814D01*
G01Y-6326375D01*
G37*
G36*
G01X13258281Y-6326375D02*
G03X13294095Y-6362189I35814J0D01*
G01X14694092D01*
G03X14729906Y-6326375I0J35814D01*
G01Y-4926358D01*
G03X14694092Y-4890544I-35814J0D01*
G01X13294095D01*
G03X13258281Y-4926358I0J-35814D01*
G01Y-6326375D01*
G37*
G36*
G01X17068545Y-6326375D02*
G03X17104359Y-6362189I35814J0D01*
G01X18504357D01*
G03X18540171Y-6326375I0J35814D01*
G01Y-4926358D01*
G03X18504357Y-4890544I-35814J0D01*
G01X17104359D01*
G03X17068545Y-4926358I0J-35814D01*
G01Y-6326375D01*
G37*
G36*
G01X19926244Y-4421243D02*
G03X19962058Y-4457057I35814J0D01*
G01X21362055D01*
G03X21397869Y-4421243I0J35814D01*
G01Y-3021226D01*
G03X21362055Y-2985412I-35814J0D01*
G01X19962058D01*
G03X19926244Y-3021226I0J-35814D01*
G01Y-4421243D01*
G37*
G36*
G01X16115979Y-4421243D02*
G03X16151793Y-4457057I35814J0D01*
G01X17551790D01*
G03X17587604Y-4421243I0J35814D01*
G01Y-3021226D01*
G03X17551790Y-2985412I-35814J0D01*
G01X16151793D01*
G03X16115979Y-3021226I0J-35814D01*
G01Y-4421243D01*
G37*
G36*
G01X14210847Y-4421243D02*
G03X14246661Y-4457057I35814J0D01*
G01X15646658D01*
G03X15682472Y-4421243I0J35814D01*
G01Y-3021226D01*
G03X15646658Y-2985412I-35814J0D01*
G01X14246661D01*
G03X14210847Y-3021226I0J-35814D01*
G01Y-4421243D01*
G37*
G36*
G01X21831376Y-4421243D02*
G03X21867190Y-4457057I35814J0D01*
G01X23267187D01*
G03X23303001Y-4421243I0J35814D01*
G01Y-3021226D01*
G03X23267187Y-2985412I-35814J0D01*
G01X21867190D01*
G03X21831376Y-3021226I0J-35814D01*
G01Y-4421243D01*
G37*
G36*
G01X18973678Y-6326375D02*
G03X19009492Y-6362189I35814J0D01*
G01X20409489D01*
G03X20445303Y-6326375I0J35814D01*
G01Y-4926358D01*
G03X20409489Y-4890544I-35814J0D01*
G01X19009492D01*
G03X18973678Y-4926358I0J-35814D01*
G01Y-6326375D01*
G37*
G36*
G01X22783942Y-6326375D02*
G03X22819756Y-6362189I35814J0D01*
G01X24219753D01*
G03X24255567Y-6326375I0J35814D01*
G01Y-4926358D01*
G03X24219753Y-4890544I-35814J0D01*
G01X22819756D01*
G03X22783942Y-4926358I0J-35814D01*
G01Y-6326375D01*
G37*
G36*
G01X18021112Y-4421243D02*
G03X18056926Y-4457057I35814J0D01*
G01X19456923D01*
G03X19492737Y-4421243I0J35814D01*
G01Y-3021226D01*
G03X19456923Y-2985412I-35814J0D01*
G01X18056926D01*
G03X18021112Y-3021226I0J-35814D01*
G01Y-4421243D01*
G37*
G36*
G01X23736508Y-4421243D02*
G03X23772322Y-4457057I35814J0D01*
G01X25172319D01*
G03X25208133Y-4421243I0J35814D01*
G01Y-3021226D01*
G03X25172319Y-2985412I-35814J0D01*
G01X23772322D01*
G03X23736508Y-3021226I0J-35814D01*
G01Y-4421243D01*
G37*
G36*
G01X30404471Y-8231508D02*
G03X30440285Y-8267322I35814J0D01*
G01X31840283D01*
G03X31876097Y-8231508I0J35814D01*
G01Y-6831491D01*
G03X31840283Y-6795677I-35814J0D01*
G01X30440285D01*
G03X30404471Y-6831491I0J-35814D01*
G01Y-8231508D01*
G37*
G36*
G01X30404471Y-2039848D02*
G03X30440285Y-2075662I35814J0D01*
G01X31840283D01*
G03X31876097Y-2039848I0J35814D01*
G01Y-639851D01*
G03X31840283Y-604037I-35814J0D01*
G01X30440285D01*
G03X30404471Y-639851I0J-35814D01*
G01Y-2039848D01*
G37*
G36*
G01X27077452Y-2075662D02*
G03X27113266Y-2039848I0J35814D01*
G01Y-639851D01*
G03X27077452Y-604037I-35814J0D01*
G01X25677455D01*
G03X25641641Y-639851I0J-35814D01*
G01Y-2039848D01*
G03X25677455Y-2075662I35814J0D01*
G01X27077452D01*
G37*
G36*
G01X27546773Y-2039848D02*
G03X27582587Y-2075662I35814J0D01*
G01X28982584D01*
G03X29018398Y-2039848I0J35814D01*
G01Y-639851D01*
G03X28982584Y-604037I-35814J0D01*
G01X27582587D01*
G03X27546773Y-639851I0J-35814D01*
G01Y-2039848D01*
G37*
G36*
G01X17068545Y-2039848D02*
G03X17104359Y-2075662I35814J0D01*
G01X18504357D01*
G03X18540171Y-2039848I0J35814D01*
G01Y-639851D01*
G03X18504357Y-604037I-35814J0D01*
G01X17104359D01*
G03X17068545Y-639851I0J-35814D01*
G01Y-2039848D01*
G37*
G36*
G01X13258281Y-2039848D02*
G03X13294095Y-2075662I35814J0D01*
G01X14694092D01*
G03X14729906Y-2039848I0J35814D01*
G01Y-639851D01*
G03X14694092Y-604037I-35814J0D01*
G01X13294095D01*
G03X13258281Y-639851I0J-35814D01*
G01Y-2039848D01*
G37*
G36*
G01X21831376Y-2039848D02*
G03X21867190Y-2075662I35814J0D01*
G01X23267187D01*
G03X23303001Y-2039848I0J35814D01*
G01Y-639851D01*
G03X23267187Y-604037I-35814J0D01*
G01X21867190D01*
G03X21831376Y-639851I0J-35814D01*
G01Y-2039848D01*
G37*
G36*
G01X15163413Y-2039848D02*
G03X15199227Y-2075662I35814J0D01*
G01X16599224D01*
G03X16635038Y-2039848I0J35814D01*
G01Y-639851D01*
G03X16599224Y-604037I-35814J0D01*
G01X15199227D01*
G03X15163413Y-639851I0J-35814D01*
G01Y-2039848D01*
G37*
G36*
G01X18973678Y-2039848D02*
G03X19009492Y-2075662I35814J0D01*
G01X20409489D01*
G03X20445303Y-2039848I0J35814D01*
G01Y-639851D01*
G03X20409489Y-604037I-35814J0D01*
G01X19009492D01*
G03X18973678Y-639851I0J-35814D01*
G01Y-2039848D01*
G37*
G36*
G01X23736508Y-2039848D02*
G03X23772322Y-2075662I35814J0D01*
G01X25172319D01*
G03X25208133Y-2039848I0J35814D01*
G01Y-639851D01*
G03X25172319Y-604037I-35814J0D01*
G01X23772322D01*
G03X23736508Y-639851I0J-35814D01*
G01Y-2039848D01*
G37*
G36*
G01X194380Y-3038737D02*
G03X330194Y-3174551I135814J0D01*
G03X466008Y-3038737I0J135814D01*
G03X330194Y-2902923I-135814J0D01*
G03X194380Y-3038737I0J-135814D01*
G37*
G36*
G01X5535172Y-13101708D02*
G03X5670986Y-13237522I135814J0D01*
G03X5806800Y-13101708I0J135814D01*
G03X5670986Y-12965894I-135814J0D01*
G03X5535172Y-13101708I0J-135814D01*
G37*
G36*
G01X194380Y-13098717D02*
G03X330194Y-13234531I135814J0D01*
G03X466008Y-13098717I0J135814D01*
G03X330194Y-12962903I-135814J0D01*
G03X194380Y-13098717I0J-135814D01*
G37*
G36*
G01X330194Y-8204541D02*
G03X466008Y-8068727I0J135814D01*
G03X330194Y-7932913I-135814J0D01*
G03X194380Y-8068727I0J-135814D01*
G03X330194Y-8204541I135814J0D01*
G37*
G36*
G01X32420932Y-3177542D02*
G03X32556746Y-3041728I0J135814D01*
G03X32420932Y-2905914I-135814J0D01*
G03X32285119Y-3041728I0J-135814D01*
G03X32420932Y-3177542I135814J0D01*
G37*
G36*
G01X11020975Y-13237522D02*
G03X11156789Y-13101708I0J135814D01*
G03X11020975Y-12965894I-135814J0D01*
G03X10885161Y-13101708I0J-135814D01*
G03X11020975Y-13237522I135814J0D01*
G37*
G36*
G01X32420932Y-8207532D02*
G03X32556746Y-8071718I0J135814D01*
G03X32420932Y-7935904I-135814J0D01*
G03X32285119Y-8071718I0J-135814D01*
G03X32420932Y-8207532I135814J0D01*
G37*
G36*
G01X16370964Y-13237522D02*
G03X16506778Y-13101708I0J135814D01*
G03X16370964Y-12965894I-135814J0D01*
G03X16235151Y-13101708I0J-135814D01*
G03X16370964Y-13237522I135814J0D01*
G37*
G36*
G01X21720954Y-13237522D02*
G03X21856768Y-13101708I0J135814D01*
G03X21720954Y-12965894I-135814J0D01*
G03X21585140Y-13101708I0J-135814D01*
G03X21720954Y-13237522I135814J0D01*
G37*
G36*
G01X27070943Y-13237522D02*
G03X27206757Y-13101708I0J135814D01*
G03X27070943Y-12965894I-135814J0D01*
G03X26935129Y-13101708I0J-135814D01*
G03X27070943Y-13237522I135814J0D01*
G37*
G36*
G01X32420932Y-13237522D02*
G03X32556746Y-13101708I0J135814D01*
G03X32420932Y-12965894I-135814J0D01*
G03X32285119Y-13101708I0J-135814D01*
G03X32420932Y-13237522I135814J0D01*
G37*
%LPD*%
G54D8191*
G01X158227Y-13384869D02*
G02X44041Y-13270684I0J114186D01*
G01Y-261100D01*
G01Y-261099D01*
G02X258227Y-46914I214186J-0D01*
G01X32492899D01*
G02X32707085Y-261099I0J-214185D01*
G01Y-13270684D01*
G02X32592899Y-13384869I-114186J0D01*
G01X158227D01*
G01X18555349Y-12116898D02*
G03X18591163Y-12152712I35814J0D01*
G01X18921285D01*
G01X18921286D01*
G03X18957100Y-12116898I0J35814D01*
G01Y-12054588D01*
G01X19093797D01*
G03X19129611Y-12018774I0J35814D01*
G01Y-11427541D01*
G01X19176203D01*
G03X19212017Y-11391727I0J35814D01*
G01Y-11111828D01*
G03X19176203Y-11076014I-35814J0D01*
G01X19129611D01*
G01Y-10788785D01*
G03X19093797Y-10752971I-35814J0D01*
G01X18957100D01*
G01Y-10696729D01*
G03X18921286Y-10660915I-35814J0D01*
G01X18921285D01*
G01X18591163D01*
G03X18555349Y-10696729I0J-35814D01*
G01Y-10752971D01*
G01X18418651D01*
G03X18382837Y-10788785I0J-35814D01*
G01Y-11076014D01*
G01X14491790D01*
G01Y-10641745D01*
G03X14455976Y-10605931I-35814J0D01*
G01X13055778D01*
G03X13019964Y-10641745I0J-35814D01*
G01Y-11076014D01*
G01X9128927D01*
G01Y-10788785D01*
G03X9093113Y-10752971I-35814J0D01*
G01X8956365D01*
G01Y-10696729D01*
G03X8920551Y-10660915I-35814J0D01*
G01X8590468D01*
G03X8554654Y-10696729I0J-35814D01*
G01Y-10752971D01*
G01X8417956D01*
G03X8382142Y-10788785I0J-35814D01*
G01Y-11076014D01*
G01X8335541D01*
G03X8299727Y-11111828I0J-35814D01*
G01Y-11391727D01*
G03X8335541Y-11427541I35814J0D01*
G01X8382142D01*
G01Y-12018774D01*
G03X8417956Y-12054588I35814J0D01*
G01X8554654D01*
G01Y-12116898D01*
G03X8590468Y-12152712I35814J0D01*
G01X8920551D01*
G03X8956365Y-12116898I0J35814D01*
G01Y-12054588D01*
G01X9093113D01*
G03X9128927Y-12018774I0J35814D01*
G01Y-11607664D01*
G01X13019964D01*
G01Y-12041790D01*
G03X13055778Y-12077604I35814J0D01*
G01X14455976D01*
G03X14491790Y-12041790I0J35814D01*
G01Y-11607664D01*
G01X18382837D01*
G01Y-12018774D01*
G03X18418651Y-12054588I35814J0D01*
G01X18555349D01*
G01Y-12116898D01*
G01X25938961Y-4496358D02*
G03X25974775Y-4532172I35814J0D01*
G01X26304898D01*
G03X26340712Y-4496358I0J35814D01*
G01Y-4434055D01*
G01X26477410D01*
G03X26513224Y-4398241I0J35814D01*
G01Y-3987124D01*
G01X26594207D01*
G01Y-4421243D01*
G03X26630021Y-4457057I35814J0D01*
G01X28030018D01*
G03X28065832Y-4421243I0J35814D01*
G01Y-3987124D01*
G01X28146815D01*
G01Y-4398241D01*
G03X28182629Y-4434055I35814J0D01*
G01X28319327D01*
G01Y-4496358D01*
G03X28355141Y-4532172I35814J0D01*
G01X28685063D01*
G03X28720877Y-4496358I0J35814D01*
G01Y-4434055D01*
G01X28857576D01*
G03X28893390Y-4398241I0J35814D01*
G01Y-3807022D01*
G01X28940181D01*
G03X28975995Y-3771208I0J35814D01*
G01Y-3491299D01*
G03X28940181Y-3455485I-35814J0D01*
G01X28893390D01*
G01Y-3168266D01*
G03X28857576Y-3132452I-35814J0D01*
G01X28720877D01*
G01Y-3076190D01*
G03X28685063Y-3040376I-35814J0D01*
G01X28355141D01*
G03X28319327Y-3076190I0J-35814D01*
G01Y-3132452D01*
G01X28182629D01*
G03X28146815Y-3168266I0J-35814D01*
G01Y-3455485D01*
G01X28065832D01*
G01Y-3021226D01*
G03X28030018Y-2985412I-35814J0D01*
G01X26630021D01*
G03X26594207Y-3021226I0J-35814D01*
G01Y-3455485D01*
G01X26513224D01*
G01Y-3168266D01*
G03X26477410Y-3132452I-35814J0D01*
G01X26340712D01*
G01Y-3076190D01*
G03X26304898Y-3040376I-35814J0D01*
G01X25974775D01*
G03X25938961Y-3076190I0J-35814D01*
G01Y-3132452D01*
G01X25802463D01*
G03X25766649Y-3168266I0J-35814D01*
G01Y-3455485D01*
G01X25719858D01*
G03X25684044Y-3491299I0J-35814D01*
G01Y-3771208D01*
G03X25719858Y-3807022I35814J0D01*
G01X25766649D01*
G01Y-4398241D01*
G03X25802463Y-4434055I35814J0D01*
G01X25938961D01*
G01Y-4496358D01*
G01X1410567Y-10211765D02*
G03X1446381Y-10247579I35814J0D01*
G01X1776305D01*
G03X1812119Y-10211765I0J35814D01*
G01Y-10149452D01*
G01X1948847D01*
G03X1984661Y-10113638I0J35814D01*
G01Y-9702531D01*
G01X2065594D01*
G01Y-10136660D01*
G03X2101408Y-10172474I35814J0D01*
G01X3501455D01*
G03X3537269Y-10136660I0J35814D01*
G01Y-9702531D01*
G01X3618202D01*
G01Y-10113638D01*
G03X3654016Y-10149452I35814J0D01*
G01X3790604D01*
G01Y-10211765D01*
G03X3826418Y-10247579I35814J0D01*
G01X4156481D01*
G03X4192295Y-10211765I0J35814D01*
G01Y-10149452D01*
G01X4329012D01*
G03X4364826Y-10113638I0J35814D01*
G01Y-9522409D01*
G01X4411568D01*
G03X4447382Y-9486595I0J35814D01*
G01Y-9206695D01*
G03X4411568Y-9170881I-35814J0D01*
G01X4364826D01*
G01Y-8883663D01*
G03X4329012Y-8847849I-35814J0D01*
G01X4192295D01*
G01Y-8791586D01*
G03X4156481Y-8755772I-35814J0D01*
G01X3826418D01*
G03X3790604Y-8791586I0J-35814D01*
G01Y-8847849D01*
G01X3654016D01*
G03X3618202Y-8883663I0J-35814D01*
G01Y-9170881D01*
G01X3537269D01*
G01Y-8736623D01*
G03X3501455Y-8700809I-35814J0D01*
G01X2101408D01*
G03X2065594Y-8736623I0J-35814D01*
G01Y-9170881D01*
G01X1984661D01*
G01Y-8883663D01*
G03X1948847Y-8847849I-35814J0D01*
G01X1812119D01*
G01Y-8791586D01*
G03X1776305Y-8755772I-35814J0D01*
G01X1446381D01*
G03X1410567Y-8791586I0J-35814D01*
G01Y-8847849D01*
G01X1273840D01*
G03X1238026Y-8883663I0J-35814D01*
G01Y-9170881D01*
G01X1191288D01*
G03X1155474Y-9206695I0J-35814D01*
G01Y-9486595D01*
G03X1191288Y-9522409I35814J0D01*
G01X1238026D01*
G01Y-10113638D01*
G03X1273840Y-10149452I35814J0D01*
G01X1410567D01*
G01Y-10211765D01*
G01X25700845Y-8306623D02*
G03X25736659Y-8342437I35814J0D01*
G01X26066582D01*
G03X26102396Y-8306623I0J35814D01*
G01Y-8244320D01*
G01X26239294D01*
G03X26275108Y-8208506I0J35814D01*
G01Y-7797389D01*
G01X26355890D01*
G01Y-8231508D01*
G03X26391704Y-8267322I35814J0D01*
G01X27791901D01*
G03X27827715Y-8231508I0J35814D01*
G01Y-7797389D01*
G01X27908498D01*
G01Y-8208506D01*
G03X27944312Y-8244320I35814J0D01*
G01X28081010D01*
G01Y-8306623D01*
G03X28116824Y-8342437I35814J0D01*
G01X28446947D01*
G03X28482761Y-8306623I0J35814D01*
G01Y-8244320D01*
G01X28619459D01*
G03X28655273Y-8208506I0J35814D01*
G01Y-7617287D01*
G01X28701865D01*
G03X28737679Y-7581473I0J35814D01*
G01Y-7301563D01*
G03X28701865Y-7265749I-35814J0D01*
G01X28655273D01*
G01Y-6978531D01*
G03X28619459Y-6942717I-35814J0D01*
G01X28482761D01*
G01Y-6886454D01*
G03X28446947Y-6850640I-35814J0D01*
G01X28116824D01*
G03X28081010Y-6886454I0J-35814D01*
G01Y-6942717D01*
G01X27944312D01*
G03X27908498Y-6978531I0J-35814D01*
G01Y-7265749D01*
G01X27827715D01*
G01Y-6831491D01*
G03X27791901Y-6795677I-35814J0D01*
G01X26391704D01*
G03X26355890Y-6831491I0J-35814D01*
G01Y-7265749D01*
G01X26275108D01*
G01Y-6978531D01*
G03X26239294Y-6942717I-35814J0D01*
G01X26102396D01*
G01Y-6886454D01*
G03X26066582Y-6850640I-35814J0D01*
G01X25736659D01*
G03X25700845Y-6886454I0J-35814D01*
G01Y-6942717D01*
G01X25564147D01*
G03X25528333Y-6978531I0J-35814D01*
G01Y-7265749D01*
G01X25481741D01*
G03X25445927Y-7301563I0J-35814D01*
G01Y-7581473D01*
G03X25481741Y-7617287I35814J0D01*
G01X25528333D01*
G01Y-8208506D01*
G03X25564147Y-8244320I35814J0D01*
G01X25700845D01*
G01Y-8306623D01*
G01X3494303Y-12041790D02*
G03X3530117Y-12077604I35814J0D01*
G01X4930294D01*
G03X4966108Y-12041790I0J35814D01*
G01Y-10641745D01*
G03X4930294Y-10605931I-35814J0D01*
G01X3530117D01*
G03X3494303Y-10641745I0J-35814D01*
G01Y-12041790D01*
G01X12305515Y-4421243D02*
G03X12341329Y-4457057I35814J0D01*
G01X13741526D01*
G03X13777340Y-4421243I0J35814D01*
G01Y-3021226D01*
G03X13741526Y-2985412I-35814J0D01*
G01X12341329D01*
G03X12305515Y-3021226I0J-35814D01*
G01Y-4421243D01*
G01X3025172Y-8267322D02*
G03X3060986Y-8231508I0J35814D01*
G01Y-6831491D01*
G03X3025172Y-6795677I-35814J0D01*
G01X1624988D01*
G03X1589174Y-6831491I0J-35814D01*
G01Y-8231508D01*
G03X1624988Y-8267322I35814J0D01*
G01X3025172D01*
G01X11836394Y-4457057D02*
G03X11872208Y-4421243I0J35814D01*
G01Y-3021226D01*
G03X11836394Y-2985412I-35814J0D01*
G01X10436227D01*
G03X10400413Y-3021226I0J-35814D01*
G01Y-4421243D01*
G03X10436227Y-4457057I35814J0D01*
G01X11836394D01*
G01X10400413Y-2039848D02*
G03X10436227Y-2075662I35814J0D01*
G01X11836394D01*
G03X11872208Y-2039848I0J35814D01*
G01Y-639851D01*
G03X11836394Y-604037I-35814J0D01*
G01X10436227D01*
G03X10400413Y-639851I0J-35814D01*
G01Y-2039848D01*
G01X26117874Y-12518072D02*
G03X26153688Y-12553886I35814J0D01*
G01X27553785D01*
G03X27589599Y-12518072I0J35814D01*
G01Y-11118028D01*
G03X27553785Y-11082214I-35814J0D01*
G01X26153688D01*
G03X26117874Y-11118028I0J-35814D01*
G01Y-12518072D01*
G01X28023006Y-12518072D02*
G03X28058820Y-12553886I35814J0D01*
G01X29458917D01*
G03X29494731Y-12518072I0J35814D01*
G01Y-11118028D01*
G03X29458917Y-11082214I-35814J0D01*
G01X28058820D01*
G03X28023006Y-11118028I0J-35814D01*
G01Y-12518072D01*
G01X29928138Y-12518072D02*
G03X29963952Y-12553886I35814J0D01*
G01X31364049D01*
G03X31399863Y-12518072I0J35814D01*
G01Y-11118028D01*
G03X31364049Y-11082214I-35814J0D01*
G01X29963952D01*
G03X29928138Y-11118028I0J-35814D01*
G01Y-12518072D01*
G01X12781948Y-10136660D02*
G03X12817762Y-10172474I35814J0D01*
G01X14217859D01*
G03X14253673Y-10136660I0J35814D01*
G01Y-8736623D01*
G03X14217859Y-8700809I-35814J0D01*
G01X12817762D01*
G03X12781948Y-8736623I0J-35814D01*
G01Y-10136660D01*
G01X22307609Y-10136660D02*
G03X22343423Y-10172474I35814J0D01*
G01X23743520D01*
G03X23779334Y-10136660I0J35814D01*
G01Y-8736623D01*
G03X23743520Y-8700809I-35814J0D01*
G01X22343423D01*
G03X22307609Y-8736623I0J-35814D01*
G01Y-10136660D01*
G01X16122991Y-10172474D02*
G03X16158805Y-10136660I0J35814D01*
G01Y-8736623D01*
G03X16122991Y-8700809I-35814J0D01*
G01X14722894D01*
G03X14687080Y-8736623I0J-35814D01*
G01Y-10136660D01*
G03X14722894Y-10172474I35814J0D01*
G01X16122991D01*
G01X18028124Y-10172474D02*
G03X18063938Y-10136660I0J35814D01*
G01Y-8736623D01*
G03X18028124Y-8700809I-35814J0D01*
G01X16628026D01*
G03X16592212Y-8736623I0J-35814D01*
G01Y-10136660D01*
G03X16628026Y-10172474I35814J0D01*
G01X18028124D01*
G01X18497345Y-10136660D02*
G03X18533159Y-10172474I35814J0D01*
G01X19933256D01*
G03X19969070Y-10136660I0J35814D01*
G01Y-8736623D01*
G03X19933256Y-8700809I-35814J0D01*
G01X18533159D01*
G03X18497345Y-8736623I0J-35814D01*
G01Y-10136660D01*
G01X21838388Y-10172474D02*
G03X21874202Y-10136660I0J35814D01*
G01Y-8736623D01*
G03X21838388Y-8700809I-35814J0D01*
G01X20438291D01*
G03X20402477Y-8736623I0J-35814D01*
G01Y-10136660D01*
G03X20438291Y-10172474I35814J0D01*
G01X21838388D01*
G01X10876816Y-10136660D02*
G03X10912630Y-10172474I35814J0D01*
G01X12312727D01*
G03X12348541Y-10136660I0J35814D01*
G01Y-8736623D01*
G03X12312727Y-8700809I-35814J0D01*
G01X10912630D01*
G03X10876816Y-8736623I0J-35814D01*
G01Y-10136660D01*
G01X29458917Y-10648757D02*
G03X29494731Y-10612943I0J35814D01*
G01Y-9212906D01*
G03X29458917Y-9177092I-35814J0D01*
G01X28058820D01*
G03X28023006Y-9212906I0J-35814D01*
G01Y-10612943D01*
G03X28058820Y-10648757I35814J0D01*
G01X29458917D01*
G01X27070440Y-6326375D02*
G03X27106254Y-6362189I35814J0D01*
G01X28506351D01*
G03X28542165Y-6326375I0J35814D01*
G01Y-4926358D01*
G03X28506351Y-4890544I-35814J0D01*
G01X27106254D01*
G03X27070440Y-4926358I0J-35814D01*
G01Y-6326375D01*
G01X24696086Y-8267322D02*
G03X24731900Y-8231508I0J35814D01*
G01Y-6831491D01*
G03X24696086Y-6795677I-35814J0D01*
G01X23295989D01*
G03X23260175Y-6831491I0J-35814D01*
G01Y-8231508D01*
G03X23295989Y-8267322I35814J0D01*
G01X24696086D01*
G01X19449911Y-8231508D02*
G03X19485725Y-8267322I35814J0D01*
G01X20885822D01*
G03X20921636Y-8231508I0J35814D01*
G01Y-6831491D01*
G03X20885822Y-6795677I-35814J0D01*
G01X19485725D01*
G03X19449911Y-6831491I0J-35814D01*
G01Y-8231508D01*
G01X11829382Y-8231508D02*
G03X11865196Y-8267322I35814J0D01*
G01X13265293D01*
G03X13301107Y-8231508I0J35814D01*
G01Y-6831491D01*
G03X13265293Y-6795677I-35814J0D01*
G01X11865196D01*
G03X11829382Y-6831491I0J-35814D01*
G01Y-8231508D01*
G01X21355043Y-8231508D02*
G03X21390857Y-8267322I35814J0D01*
G01X22790954D01*
G03X22826768Y-8231508I0J35814D01*
G01Y-6831491D01*
G03X22790954Y-6795677I-35814J0D01*
G01X21390857D01*
G03X21355043Y-6831491I0J-35814D01*
G01Y-8231508D01*
G01X17544778Y-8231508D02*
G03X17580592Y-8267322I35814J0D01*
G01X18980690D01*
G03X19016504Y-8231508I0J35814D01*
G01Y-6831491D01*
G03X18980690Y-6795677I-35814J0D01*
G01X17580592D01*
G03X17544778Y-6831491I0J-35814D01*
G01Y-8231508D01*
G01X15639646Y-8231508D02*
G03X15675460Y-8267322I35814J0D01*
G01X17075557D01*
G03X17111371Y-8231508I0J35814D01*
G01Y-6831491D01*
G03X17075557Y-6795677I-35814J0D01*
G01X15675460D01*
G03X15639646Y-6831491I0J-35814D01*
G01Y-8231508D01*
G01X13734514Y-8231508D02*
G03X13770328Y-8267322I35814J0D01*
G01X15170425D01*
G03X15206239Y-8231508I0J35814D01*
G01Y-6831491D01*
G03X15170425Y-6795677I-35814J0D01*
G01X13770328D01*
G03X13734514Y-6831491I0J-35814D01*
G01Y-8231508D01*
G01X9924269Y-8231508D02*
G03X9960083Y-8267322I35814J0D01*
G01X11360161D01*
G03X11395975Y-8231508I0J35814D01*
G01Y-6831491D01*
G03X11360161Y-6795677I-35814J0D01*
G01X9960083D01*
G03X9924269Y-6831491I0J-35814D01*
G01Y-8231508D01*
G01X2548889Y-12077604D02*
G03X2584703Y-12041790I0J35814D01*
G01Y-10641745D01*
G03X2548889Y-10605931I-35814J0D01*
G01X1148843D01*
G03X1113029Y-10641745I0J-35814D01*
G01Y-12041790D01*
G03X1148843Y-12077604I35814J0D01*
G01X2548889D01*
G01X5875868Y-12041790D02*
G03X5911682Y-12077604I35814J0D01*
G01X7311710D01*
G03X7347524Y-12041790I0J35814D01*
G01Y-10641745D01*
G03X7311710Y-10605931I-35814J0D01*
G01X5911682D01*
G03X5875868Y-10641745I0J-35814D01*
G01Y-12041790D01*
G01X874886Y-4421243D02*
G03X910700Y-4457057I35814J0D01*
G01X2310753D01*
G03X2346567Y-4421243I0J35814D01*
G01Y-3021226D01*
G03X2310753Y-2985412I-35814J0D01*
G01X910700D01*
G03X874886Y-3021226I0J-35814D01*
G01Y-4421243D01*
G01X1351170Y-6326375D02*
G03X1386984Y-6362189I35814J0D01*
G01X2787036D01*
G03X2822850Y-6326375I0J35814D01*
G01Y-4926358D01*
G03X2787036Y-4890544I-35814J0D01*
G01X1386984D01*
G03X1351170Y-4926358I0J-35814D01*
G01Y-6326375D01*
G01X7066571Y-10136660D02*
G03X7102385Y-10172474I35814J0D01*
G01X8502412D01*
G03X8538226Y-10136660I0J35814D01*
G01Y-8736623D01*
G03X8502412Y-8700809I-35814J0D01*
G01X7102385D01*
G03X7066571Y-8736623I0J-35814D01*
G01Y-10136660D01*
G01X5161439Y-10136660D02*
G03X5197253Y-10172474I35814J0D01*
G01X6597280D01*
G03X6633094Y-10136660I0J35814D01*
G01Y-8736623D01*
G03X6597280Y-8700809I-35814J0D01*
G01X5197253D01*
G03X5161439Y-8736623I0J-35814D01*
G01Y-10136660D01*
G01X8971703Y-10136660D02*
G03X9007517Y-10172474I35814J0D01*
G01X10407545D01*
G03X10443359Y-10136660I0J35814D01*
G01Y-8736623D01*
G03X10407545Y-8700809I-35814J0D01*
G01X9007517D01*
G03X8971703Y-8736623I0J-35814D01*
G01Y-10136660D01*
G01X874886Y-2039848D02*
G03X910700Y-2075662I35814J0D01*
G01X2310753D01*
G03X2346567Y-2039848I0J35814D01*
G01Y-639851D01*
G03X2310753Y-604037I-35814J0D01*
G01X910700D01*
G03X874886Y-639851I0J-35814D01*
G01Y-2039848D01*
G01X9931262Y-4457057D02*
G03X9967076Y-4421243I0J35814D01*
G01Y-3021226D01*
G03X9931262Y-2985412I-35814J0D01*
G01X8531234D01*
G03X8495420Y-3021226I0J-35814D01*
G01Y-4421243D01*
G03X8531234Y-4457057I35814J0D01*
G01X9931262D01*
G01X7542854Y-6326375D02*
G03X7578668Y-6362189I35814J0D01*
G01X8978695D01*
G03X9014509Y-6326375I0J35814D01*
G01Y-4926358D01*
G03X8978695Y-4890544I-35814J0D01*
G01X7578668D01*
G03X7542854Y-4926358I0J-35814D01*
G01Y-6326375D01*
G01X9447986Y-6326375D02*
G03X9483800Y-6362189I35814J0D01*
G01X10883828D01*
G03X10919642Y-6326375I0J35814D01*
G01Y-4926358D01*
G03X10883828Y-4890544I-35814J0D01*
G01X9483800D01*
G03X9447986Y-4926358I0J-35814D01*
G01Y-6326375D01*
G01X3732590Y-6326375D02*
G03X3768404Y-6362189I35814J0D01*
G01X5168431D01*
G03X5204245Y-6326375I0J35814D01*
G01Y-4926358D01*
G03X5168431Y-4890544I-35814J0D01*
G01X3768404D01*
G03X3732590Y-4926358I0J-35814D01*
G01Y-6326375D01*
G01X5637722Y-6326375D02*
G03X5673536Y-6362189I35814J0D01*
G01X7073563D01*
G03X7109377Y-6326375I0J35814D01*
G01Y-4926358D01*
G03X7073563Y-4890544I-35814J0D01*
G01X5673536D01*
G03X5637722Y-4926358I0J-35814D01*
G01Y-6326375D01*
G01X8026129Y-4457057D02*
G03X8061943Y-4421243I0J35814D01*
G01Y-3021226D01*
G03X8026129Y-2985412I-35814J0D01*
G01X6626102D01*
G03X6590288Y-3021226I0J-35814D01*
G01Y-4421243D01*
G03X6626102Y-4457057I35814J0D01*
G01X8026129D01*
G01X4685156Y-4421243D02*
G03X4720970Y-4457057I35814J0D01*
G01X6120997D01*
G03X6156811Y-4421243I0J35814D01*
G01Y-3021226D01*
G03X6120997Y-2985412I-35814J0D01*
G01X4720970D01*
G03X4685156Y-3021226I0J-35814D01*
G01Y-4421243D01*
G01X2780023Y-4421243D02*
G03X2815837Y-4457057I35814J0D01*
G01X4215865D01*
G03X4251679Y-4421243I0J35814D01*
G01Y-3021226D01*
G03X4215865Y-2985412I-35814J0D01*
G01X2815837D01*
G03X2780023Y-3021226I0J-35814D01*
G01Y-4421243D01*
G01X9454978Y-8267322D02*
G03X9490792Y-8231508I0J35814D01*
G01Y-6831491D01*
G03X9454978Y-6795677I-35814J0D01*
G01X8054951D01*
G03X8019137Y-6831491I0J-35814D01*
G01Y-8231508D01*
G03X8054951Y-8267322I35814J0D01*
G01X9454978D01*
G01X6114005Y-8231508D02*
G03X6149819Y-8267322I35814J0D01*
G01X7549846D01*
G03X7585660Y-8231508I0J35814D01*
G01Y-6831491D01*
G03X7549846Y-6795677I-35814J0D01*
G01X6149819D01*
G03X6114005Y-6831491I0J-35814D01*
G01Y-8231508D01*
G01X4208873Y-8231508D02*
G03X4244687Y-8267322I35814J0D01*
G01X5644714D01*
G03X5680528Y-8231508I0J35814D01*
G01Y-6831491D01*
G03X5644714Y-6795677I-35814J0D01*
G01X4244687D01*
G03X4208873Y-6831491I0J-35814D01*
G01Y-8231508D01*
G01X21362055Y-12077604D02*
G03X21397869Y-12041790I0J35814D01*
G01Y-10641745D01*
G03X21362055Y-10605931I-35814J0D01*
G01X19962058D01*
G03X19926244Y-10641745I0J-35814D01*
G01Y-12041790D01*
G03X19962058Y-12077604I35814J0D01*
G01X21362055D01*
G01X23267187Y-12077604D02*
G03X23303001Y-12041790I0J35814D01*
G01Y-10641745D01*
G03X23267187Y-10605931I-35814J0D01*
G01X21867190D01*
G03X21831376Y-10641745I0J-35814D01*
G01Y-12041790D01*
G03X21867190Y-12077604I35814J0D01*
G01X23267187D01*
G01X23736508Y-12041790D02*
G03X23772322Y-12077604I35814J0D01*
G01X25172319D01*
G03X25208133Y-12041790I0J35814D01*
G01Y-10641745D01*
G03X25172319Y-10605931I-35814J0D01*
G01X23772322D01*
G03X23736508Y-10641745I0J-35814D01*
G01Y-12041790D01*
G01X30404471Y-10136660D02*
G03X30440285Y-10172474I35814J0D01*
G01X31840283D01*
G03X31876097Y-10136660I0J35814D01*
G01Y-8736623D01*
G03X31840283Y-8700809I-35814J0D01*
G01X30440285D01*
G03X30404471Y-8736623I0J-35814D01*
G01Y-10136660D01*
G01X24927191Y-10136660D02*
G03X24963005Y-10172474I35814J0D01*
G01X26363002D01*
G03X26398816Y-10136660I0J35814D01*
G01Y-8736623D01*
G03X26363002Y-8700809I-35814J0D01*
G01X24963005D01*
G03X24927191Y-8736623I0J-35814D01*
G01Y-10136660D01*
G01X8495420Y-2039848D02*
G03X8531234Y-2075662I35814J0D01*
G01X9931262D01*
G03X9967076Y-2039848I0J35814D01*
G01Y-639851D01*
G03X9931262Y-604037I-35814J0D01*
G01X8531234D01*
G03X8495420Y-639851I0J-35814D01*
G01Y-2039848D01*
G01X6590288Y-2039848D02*
G03X6626102Y-2075662I35814J0D01*
G01X8026129D01*
G03X8061943Y-2039848I0J35814D01*
G01Y-639851D01*
G03X8026129Y-604037I-35814J0D01*
G01X6626102D01*
G03X6590288Y-639851I0J-35814D01*
G01Y-2039848D01*
G01X4685156Y-2039848D02*
G03X4720970Y-2075662I35814J0D01*
G01X6120997D01*
G03X6156811Y-2039848I0J35814D01*
G01Y-639851D01*
G03X6120997Y-604037I-35814J0D01*
G01X4720970D01*
G03X4685156Y-639851I0J-35814D01*
G01Y-2039848D01*
G01X30404471Y-6326375D02*
G03X30440285Y-6362189I35814J0D01*
G01X31840283D01*
G03X31876097Y-6326375I0J35814D01*
G01Y-4926358D01*
G03X31840283Y-4890544I-35814J0D01*
G01X30440285D01*
G03X30404471Y-4926358I0J-35814D01*
G01Y-6326375D01*
G01X11353149Y-6326375D02*
G03X11388963Y-6362189I35814J0D01*
G01X12788960D01*
G03X12824774Y-6326375I0J35814D01*
G01Y-4926358D01*
G03X12788960Y-4890544I-35814J0D01*
G01X11388963D01*
G03X11353149Y-4926358I0J-35814D01*
G01Y-6326375D01*
G01X24689075Y-6326375D02*
G03X24724889Y-6362189I35814J0D01*
G01X26124886D01*
G03X26160700Y-6326375I0J35814D01*
G01Y-4926358D01*
G03X26124886Y-4890544I-35814J0D01*
G01X24724889D01*
G03X24689075Y-4926358I0J-35814D01*
G01Y-6326375D01*
G01X30404471Y-4421243D02*
G03X30440285Y-4457057I35814J0D01*
G01X31840283D01*
G03X31876097Y-4421243I0J35814D01*
G01Y-3021226D01*
G03X31840283Y-2985412I-35814J0D01*
G01X30440285D01*
G03X30404471Y-3021226I0J-35814D01*
G01Y-4421243D01*
G01X20878810Y-6326375D02*
G03X20914624Y-6362189I35814J0D01*
G01X22314621D01*
G03X22350435Y-6326375I0J35814D01*
G01Y-4926358D01*
G03X22314621Y-4890544I-35814J0D01*
G01X20914624D01*
G03X20878810Y-4926358I0J-35814D01*
G01Y-6326375D01*
G01X15163413Y-6326375D02*
G03X15199227Y-6362189I35814J0D01*
G01X16599224D01*
G03X16635038Y-6326375I0J35814D01*
G01Y-4926358D01*
G03X16599224Y-4890544I-35814J0D01*
G01X15199227D01*
G03X15163413Y-4926358I0J-35814D01*
G01Y-6326375D01*
G01X13258281Y-6326375D02*
G03X13294095Y-6362189I35814J0D01*
G01X14694092D01*
G03X14729906Y-6326375I0J35814D01*
G01Y-4926358D01*
G03X14694092Y-4890544I-35814J0D01*
G01X13294095D01*
G03X13258281Y-4926358I0J-35814D01*
G01Y-6326375D01*
G01X17068545Y-6326375D02*
G03X17104359Y-6362189I35814J0D01*
G01X18504357D01*
G03X18540171Y-6326375I0J35814D01*
G01Y-4926358D01*
G03X18504357Y-4890544I-35814J0D01*
G01X17104359D01*
G03X17068545Y-4926358I0J-35814D01*
G01Y-6326375D01*
G01X19926244Y-4421243D02*
G03X19962058Y-4457057I35814J0D01*
G01X21362055D01*
G03X21397869Y-4421243I0J35814D01*
G01Y-3021226D01*
G03X21362055Y-2985412I-35814J0D01*
G01X19962058D01*
G03X19926244Y-3021226I0J-35814D01*
G01Y-4421243D01*
G01X16115979Y-4421243D02*
G03X16151793Y-4457057I35814J0D01*
G01X17551790D01*
G03X17587604Y-4421243I0J35814D01*
G01Y-3021226D01*
G03X17551790Y-2985412I-35814J0D01*
G01X16151793D01*
G03X16115979Y-3021226I0J-35814D01*
G01Y-4421243D01*
G01X14210847Y-4421243D02*
G03X14246661Y-4457057I35814J0D01*
G01X15646658D01*
G03X15682472Y-4421243I0J35814D01*
G01Y-3021226D01*
G03X15646658Y-2985412I-35814J0D01*
G01X14246661D01*
G03X14210847Y-3021226I0J-35814D01*
G01Y-4421243D01*
G01X21831376Y-4421243D02*
G03X21867190Y-4457057I35814J0D01*
G01X23267187D01*
G03X23303001Y-4421243I0J35814D01*
G01Y-3021226D01*
G03X23267187Y-2985412I-35814J0D01*
G01X21867190D01*
G03X21831376Y-3021226I0J-35814D01*
G01Y-4421243D01*
G01X18973678Y-6326375D02*
G03X19009492Y-6362189I35814J0D01*
G01X20409489D01*
G03X20445303Y-6326375I0J35814D01*
G01Y-4926358D01*
G03X20409489Y-4890544I-35814J0D01*
G01X19009492D01*
G03X18973678Y-4926358I0J-35814D01*
G01Y-6326375D01*
G01X22783942Y-6326375D02*
G03X22819756Y-6362189I35814J0D01*
G01X24219753D01*
G03X24255567Y-6326375I0J35814D01*
G01Y-4926358D01*
G03X24219753Y-4890544I-35814J0D01*
G01X22819756D01*
G03X22783942Y-4926358I0J-35814D01*
G01Y-6326375D01*
G01X18021112Y-4421243D02*
G03X18056926Y-4457057I35814J0D01*
G01X19456923D01*
G03X19492737Y-4421243I0J35814D01*
G01Y-3021226D01*
G03X19456923Y-2985412I-35814J0D01*
G01X18056926D01*
G03X18021112Y-3021226I0J-35814D01*
G01Y-4421243D01*
G01X23736508Y-4421243D02*
G03X23772322Y-4457057I35814J0D01*
G01X25172319D01*
G03X25208133Y-4421243I0J35814D01*
G01Y-3021226D01*
G03X25172319Y-2985412I-35814J0D01*
G01X23772322D01*
G03X23736508Y-3021226I0J-35814D01*
G01Y-4421243D01*
G01X30404471Y-8231508D02*
G03X30440285Y-8267322I35814J0D01*
G01X31840283D01*
G03X31876097Y-8231508I0J35814D01*
G01Y-6831491D01*
G03X31840283Y-6795677I-35814J0D01*
G01X30440285D01*
G03X30404471Y-6831491I0J-35814D01*
G01Y-8231508D01*
G01X30404471Y-2039848D02*
G03X30440285Y-2075662I35814J0D01*
G01X31840283D01*
G03X31876097Y-2039848I0J35814D01*
G01Y-639851D01*
G03X31840283Y-604037I-35814J0D01*
G01X30440285D01*
G03X30404471Y-639851I0J-35814D01*
G01Y-2039848D01*
G01X27077452Y-2075662D02*
G03X27113266Y-2039848I0J35814D01*
G01Y-639851D01*
G03X27077452Y-604037I-35814J0D01*
G01X25677455D01*
G03X25641641Y-639851I0J-35814D01*
G01Y-2039848D01*
G03X25677455Y-2075662I35814J0D01*
G01X27077452D01*
G01X27546773Y-2039848D02*
G03X27582587Y-2075662I35814J0D01*
G01X28982584D01*
G03X29018398Y-2039848I0J35814D01*
G01Y-639851D01*
G03X28982584Y-604037I-35814J0D01*
G01X27582587D01*
G03X27546773Y-639851I0J-35814D01*
G01Y-2039848D01*
G01X17068545Y-2039848D02*
G03X17104359Y-2075662I35814J0D01*
G01X18504357D01*
G03X18540171Y-2039848I0J35814D01*
G01Y-639851D01*
G03X18504357Y-604037I-35814J0D01*
G01X17104359D01*
G03X17068545Y-639851I0J-35814D01*
G01Y-2039848D01*
G01X13258281Y-2039848D02*
G03X13294095Y-2075662I35814J0D01*
G01X14694092D01*
G03X14729906Y-2039848I0J35814D01*
G01Y-639851D01*
G03X14694092Y-604037I-35814J0D01*
G01X13294095D01*
G03X13258281Y-639851I0J-35814D01*
G01Y-2039848D01*
G01X21831376Y-2039848D02*
G03X21867190Y-2075662I35814J0D01*
G01X23267187D01*
G03X23303001Y-2039848I0J35814D01*
G01Y-639851D01*
G03X23267187Y-604037I-35814J0D01*
G01X21867190D01*
G03X21831376Y-639851I0J-35814D01*
G01Y-2039848D01*
G01X15163413Y-2039848D02*
G03X15199227Y-2075662I35814J0D01*
G01X16599224D01*
G03X16635038Y-2039848I0J35814D01*
G01Y-639851D01*
G03X16599224Y-604037I-35814J0D01*
G01X15199227D01*
G03X15163413Y-639851I0J-35814D01*
G01Y-2039848D01*
G01X18973678Y-2039848D02*
G03X19009492Y-2075662I35814J0D01*
G01X20409489D01*
G03X20445303Y-2039848I0J35814D01*
G01Y-639851D01*
G03X20409489Y-604037I-35814J0D01*
G01X19009492D01*
G03X18973678Y-639851I0J-35814D01*
G01Y-2039848D01*
G01X23736508Y-2039848D02*
G03X23772322Y-2075662I35814J0D01*
G01X25172319D01*
G03X25208133Y-2039848I0J35814D01*
G01Y-639851D01*
G03X25172319Y-604037I-35814J0D01*
G01X23772322D01*
G03X23736508Y-639851I0J-35814D01*
G01Y-2039848D01*
G01X194380Y-3038737D02*
G03X330194Y-3174551I135814J0D01*
G03X466008Y-3038737I0J135814D01*
G03X330194Y-2902923I-135814J0D01*
G03X194380Y-3038737I0J-135814D01*
G01X5535172Y-13101708D02*
G03X5670986Y-13237522I135814J0D01*
G03X5806800Y-13101708I0J135814D01*
G03X5670986Y-12965894I-135814J0D01*
G03X5535172Y-13101708I0J-135814D01*
G01X194380Y-13098717D02*
G03X330194Y-13234531I135814J0D01*
G03X466008Y-13098717I0J135814D01*
G03X330194Y-12962903I-135814J0D01*
G03X194380Y-13098717I0J-135814D01*
G01X330194Y-8204541D02*
G03X466008Y-8068727I0J135814D01*
G03X330194Y-7932913I-135814J0D01*
G03X194380Y-8068727I0J-135814D01*
G03X330194Y-8204541I135814J0D01*
G01X32420932Y-3177542D02*
G03X32556746Y-3041728I0J135814D01*
G03X32420932Y-2905914I-135814J0D01*
G03X32285119Y-3041728I0J-135814D01*
G03X32420932Y-3177542I135814J0D01*
G01X11020975Y-13237522D02*
G03X11156789Y-13101708I0J135814D01*
G03X11020975Y-12965894I-135814J0D01*
G03X10885161Y-13101708I0J-135814D01*
G03X11020975Y-13237522I135814J0D01*
G01X32420932Y-8207532D02*
G03X32556746Y-8071718I0J135814D01*
G03X32420932Y-7935904I-135814J0D01*
G03X32285119Y-8071718I0J-135814D01*
G03X32420932Y-8207532I135814J0D01*
G01X16370964Y-13237522D02*
G03X16506778Y-13101708I0J135814D01*
G03X16370964Y-12965894I-135814J0D01*
G03X16235151Y-13101708I0J-135814D01*
G03X16370964Y-13237522I135814J0D01*
G01X21720954Y-13237522D02*
G03X21856768Y-13101708I0J135814D01*
G03X21720954Y-12965894I-135814J0D01*
G03X21585140Y-13101708I0J-135814D01*
G03X21720954Y-13237522I135814J0D01*
G01X27070943Y-13237522D02*
G03X27206757Y-13101708I0J135814D01*
G03X27070943Y-12965894I-135814J0D01*
G03X26935129Y-13101708I0J-135814D01*
G03X27070943Y-13237522I135814J0D01*
G01X32420932Y-13237522D02*
G03X32556746Y-13101708I0J135814D01*
G03X32420932Y-12965894I-135814J0D01*
G03X32285119Y-13101708I0J-135814D01*
G03X32420932Y-13237522I135814J0D01*
G04 Copper End*

M02*
