G04 Layer: BoardOutlineLayer*
G04 EasyEDA Pro v2.1.51.8c9149c1.e57db4, 2024-03-19 08:48:05*
G04 Gerber Generator version 0.3*
G04 Scale: 100 percent, Rotated: No, Reflected: No*
G04 Dimensions in millimeters*
G04 Leading zeros omitted, absolute positions, 3 integers and 5 decimals*
%FSLAX35Y35*%
%MOMM*%
%ADD10C,0.1*%
%ADD11C,0.0254*%
G75*


G04 PolygonModel Start*
G54D10*
G01X258227Y-11100D02*
G03X8227Y-261099I-0J-250000D01*
G01Y-13270684D01*
G03X158227Y-13420683I150000J0D01*
G01X32592899D01*
G03X32742899Y-13270684I0J150000D01*
G01Y-261099D01*
G03X32492899Y-11100I-249999J0D01*
G01X258227D01*
G54D11*
G01X6597280Y-8736623D02*
G01X6597280Y-10136660D01*
G01X5197253D01*
G01Y-8736623D01*
G01X6597280D01*
G01X15170425Y-8231508D02*
G01X13770328Y-8231508D01*
G01Y-6831491D01*
G01X15170425D01*
G01Y-8231508D01*
G01X9454978Y-8231508D02*
G01X8054951Y-8231508D01*
G01Y-6831491D01*
G01X9454978D01*
G01Y-8231508D01*
G01X19933256Y-8736623D02*
G01X19933256Y-10136660D01*
G01X18533159D01*
G01Y-8736623D01*
G01X19933256D01*
G01X3025172Y-8231508D02*
G01X1624988Y-8231508D01*
G01Y-6831491D01*
G01X3025172D01*
G01Y-8231508D01*
G01X12312727Y-8736623D02*
G01X12312727Y-10136660D01*
G01X10912630D01*
G01Y-8736623D01*
G01X12312727D01*
G01X18028124Y-8736623D02*
G01X18028124Y-10136660D01*
G01X16628026D01*
G01Y-8736623D01*
G01X18028124D01*
G01X24963005Y-10136660D02*
G01X24963005Y-8736623D01*
G01X26363002D01*
G01Y-10136660D01*
G01X24963005D01*
G01X31840283Y-8736623D02*
G01X31840283Y-10136660D01*
G01X30440285D01*
G01Y-8736623D01*
G01X31840283D01*
G01X16122991Y-10136660D02*
G01X14722894Y-10136660D01*
G01Y-8736623D01*
G01X16122991D01*
G01Y-10136660D01*
G01X3501455Y-8736623D02*
G01X3501455Y-9206695D01*
G01X3654016D01*
G01Y-8883663D01*
G01X3826418D01*
G01Y-8791586D01*
G01X4156481D01*
G01Y-8883663D01*
G01X4329012D01*
G01Y-9206695D01*
G01X4411568D01*
G01Y-9486595D01*
G01X4329012D01*
G01Y-10113638D01*
G01X4156481D01*
G01Y-10211765D01*
G01X3826418D01*
G01Y-10113638D01*
G01X3654016D01*
G01Y-9666717D01*
G01X3501455D01*
G01Y-10136660D01*
G01X2101408D01*
G01Y-9666717D01*
G01X1948847D01*
G01Y-10113638D01*
G01X1776305D01*
G01Y-10211765D01*
G01X1446381D01*
G01Y-10113638D01*
G01X1273840D01*
G01Y-9486595D01*
G01X1191288D01*
G01Y-9206695D01*
G01X1273840D01*
G01Y-8883663D01*
G01X1446381D01*
G01Y-8791586D01*
G01X1776305D01*
G01Y-8883663D01*
G01X1948847D01*
G01Y-9206695D01*
G01X2101408D01*
G01Y-8736623D01*
G01X3501455D01*
G01X10407545Y-8736623D02*
G01X10407545Y-10136660D01*
G01X9007517D01*
G01Y-8736623D01*
G01X10407545D01*
G01X12817762Y-8736623D02*
G01X14217859Y-8736623D01*
G01Y-10136660D01*
G01X12817762D01*
G01Y-8736623D01*
G01X20409489Y-4926358D02*
G01X20409489Y-6326375D01*
G01X19009492D01*
G01Y-4926358D01*
G01X20409489D01*
G01X18504357Y-6326375D02*
G01X17104359Y-6326375D01*
G01Y-4926358D01*
G01X18504357D01*
G01Y-6326375D01*
G01X1386984Y-6326375D02*
G01X1386984Y-4926358D01*
G01X2787036D01*
G01Y-6326375D01*
G01X1386984D01*
G01X14694092Y-6326375D02*
G01X13294095Y-6326375D01*
G01Y-4926358D01*
G01X14694092D01*
G01Y-6326375D01*
G01X21390857Y-6831491D02*
G01X22790954Y-6831491D01*
G01Y-8231508D01*
G01X21390857D01*
G01Y-6831491D01*
G01X27944312Y-7761575D02*
G01X27791901Y-7761575D01*
G01Y-8231508D01*
G01X26391704D01*
G01Y-7761575D01*
G01X26239294D01*
G01Y-8208506D01*
G01X26066582D01*
G01Y-8306623D01*
G01X25736659D01*
G01Y-8208506D01*
G01X25564147D01*
G01Y-7581473D01*
G01X25481741D01*
G01Y-7301563D01*
G01X25564147D01*
G01Y-6978531D01*
G01X25736659D01*
G01Y-6886454D01*
G01X26066582D01*
G01Y-6978531D01*
G01X26239294D01*
G01Y-7301563D01*
G01X26391704D01*
G01Y-6831491D01*
G01X27791901D01*
G01Y-7301563D01*
G01X27944312D01*
G01Y-6978531D01*
G01X28116824D01*
G01Y-6886454D01*
G01X28446947D01*
G01Y-6978531D01*
G01X28619459D01*
G01Y-7301563D01*
G01X28701865D01*
G01Y-7581473D01*
G01X28619459D01*
G01Y-8208506D01*
G01X28446947D01*
G01Y-8306623D01*
G01X28116824D01*
G01Y-8208506D01*
G01X27944312D01*
G01Y-7761575D01*
G01X31840283Y-6831491D02*
G01X31840283Y-8231508D01*
G01X30440285D01*
G01Y-6831491D01*
G01X31840283D01*
G01X9960083Y-8231508D02*
G01X9960083Y-6831491D01*
G01X11360161D01*
G01Y-8231508D01*
G01X9960083D01*
G01X23295989Y-8231508D02*
G01X23295989Y-6831491D01*
G01X24696086D01*
G01Y-8231508D01*
G01X23295989D01*
G01X12788960Y-6326375D02*
G01X11388963Y-6326375D01*
G01Y-4926358D01*
G01X12788960D01*
G01Y-6326375D01*
G01X10883828Y-4926358D02*
G01X10883828Y-6326375D01*
G01X9483800D01*
G01Y-4926358D01*
G01X10883828D01*
G01X15199227Y-4926358D02*
G01X16599224Y-4926358D01*
G01Y-6326375D01*
G01X15199227D01*
G01Y-4926358D01*
G01X7073563Y-6326375D02*
G01X5673536Y-6326375D01*
G01Y-4926358D01*
G01X7073563D01*
G01Y-6326375D01*
G01X7578668Y-4926358D02*
G01X8978695Y-4926358D01*
G01Y-6326375D01*
G01X7578668D01*
G01Y-4926358D01*
G01X15675460Y-6831491D02*
G01X17075557Y-6831491D01*
G01Y-8231508D01*
G01X15675460D01*
G01Y-6831491D01*
G01X19485725Y-6831491D02*
G01X20885822Y-6831491D01*
G01Y-8231508D01*
G01X19485725D01*
G01Y-6831491D01*
G01X18980690Y-6831491D02*
G01X18980690Y-8231508D01*
G01X17580592D01*
G01Y-6831491D01*
G01X18980690D01*
G01X5168431Y-4926358D02*
G01X5168431Y-6326375D01*
G01X3768404D01*
G01Y-4926358D01*
G01X5168431D01*
G01X27106254Y-4926358D02*
G01X28506351Y-4926358D01*
G01Y-6326375D01*
G01X27106254D01*
G01Y-4926358D01*
G01X24724889Y-4926358D02*
G01X26124886Y-4926358D01*
G01Y-6326375D01*
G01X24724889D01*
G01Y-4926358D01*
G01X30440285Y-6326375D02*
G01X30440285Y-4926358D01*
G01X31840283D01*
G01Y-6326375D01*
G01X30440285D01*
G01X22819756Y-4926358D02*
G01X24219753Y-4926358D01*
G01Y-6326375D01*
G01X22819756D01*
G01Y-4926358D01*
G01X20914624Y-4926358D02*
G01X22314621Y-4926358D01*
G01Y-6326375D01*
G01X20914624D01*
G01Y-4926358D01*
G01X6626102Y-4421243D02*
G01X6626102Y-3021226D01*
G01X8026129D01*
G01Y-4421243D01*
G01X6626102D01*
G01X28940181Y-3491299D02*
G01X28940181Y-3771208D01*
G01X28857576D01*
G01Y-4398241D01*
G01X28685063D01*
G01Y-4496358D01*
G01X28355141D01*
G01Y-4398241D01*
G01X28182629D01*
G01Y-3951310D01*
G01X28030018D01*
G01Y-4421243D01*
G01X26630021D01*
G01Y-3951310D01*
G01X26477410D01*
G01Y-4398241D01*
G01X26304898D01*
G01Y-4496358D01*
G01X25974775D01*
G01Y-4398241D01*
G01X25802463D01*
G01Y-3771208D01*
G01X25719858D01*
G01Y-3491299D01*
G01X25802463D01*
G01Y-3168266D01*
G01X25974775D01*
G01Y-3076190D01*
G01X26304898D01*
G01Y-3168266D01*
G01X26477410D01*
G01Y-3491299D01*
G01X26630021D01*
G01Y-3021226D01*
G01X28030018D01*
G01Y-3491299D01*
G01X28182629D01*
G01Y-3168266D01*
G01X28355141D01*
G01Y-3076190D01*
G01X28685063D01*
G01Y-3168266D01*
G01X28857576D01*
G01Y-3491299D01*
G01X28940181D01*
G01X2815837Y-3021226D02*
G01X4215865Y-3021226D01*
G01Y-4421243D01*
G01X2815837D01*
G01Y-3021226D01*
G01X12341329Y-3021226D02*
G01X13741526Y-3021226D01*
G01Y-4421243D01*
G01X12341329D01*
G01Y-3021226D01*
G01X4720970Y-3021226D02*
G01X6120997Y-3021226D01*
G01Y-4421243D01*
G01X4720970D01*
G01Y-3021226D01*
G01X19456923Y-3021226D02*
G01X19456923Y-4421243D01*
G01X18056926D01*
G01Y-3021226D01*
G01X19456923D01*
G01X31840283Y-4421243D02*
G01X30440285Y-4421243D01*
G01Y-3021226D01*
G01X31840283D01*
G01Y-4421243D01*
G01X2310753Y-2039848D02*
G01X910700Y-2039848D01*
G01Y-639851D01*
G01X2310753D01*
G01Y-2039848D01*
G01X8531234Y-3021226D02*
G01X9931262Y-3021226D01*
G01Y-4421243D01*
G01X8531234D01*
G01Y-3021226D01*
G01X21867190Y-4421243D02*
G01X21867190Y-3021226D01*
G01X23267187D01*
G01Y-4421243D01*
G01X21867190D01*
G01X23772322Y-4421243D02*
G01X23772322Y-3021226D01*
G01X25172319D01*
G01Y-4421243D01*
G01X23772322D01*
G01X21362055Y-3021226D02*
G01X21362055Y-4421243D01*
G01X19962058D01*
G01Y-3021226D01*
G01X21362055D01*
G01X15646658Y-3021226D02*
G01X15646658Y-4421243D01*
G01X14246661D01*
G01Y-3021226D01*
G01X15646658D01*
G01X2310753Y-4421243D02*
G01X910700Y-4421243D01*
G01Y-3021226D01*
G01X2310753D01*
G01Y-4421243D01*
G01X4720970Y-2039848D02*
G01X4720970Y-639851D01*
G01X6120997D01*
G01Y-2039848D01*
G01X4720970D01*
G01X11836394Y-4421243D02*
G01X10436227Y-4421243D01*
G01Y-3021226D01*
G01X11836394D01*
G01Y-4421243D01*
G01X17551790Y-3021226D02*
G01X17551790Y-4421243D01*
G01X16151793D01*
G01Y-3021226D01*
G01X17551790D01*
G01X19009492Y-2039848D02*
G01X19009492Y-639851D01*
G01X20409489D01*
G01Y-2039848D01*
G01X19009492D01*
G01X23267187Y-2039848D02*
G01X21867190Y-2039848D01*
G01Y-639851D01*
G01X23267187D01*
G01Y-2039848D01*
G01X10436227Y-639851D02*
G01X11836394Y-639851D01*
G01Y-2039848D01*
G01X10436227D01*
G01Y-639851D01*
G01X17104359Y-2039848D02*
G01X17104359Y-639851D01*
G01X18504357D01*
G01Y-2039848D01*
G01X17104359D01*
G01X27582587Y-639851D02*
G01X28982584Y-639851D01*
G01Y-2039848D01*
G01X27582587D01*
G01Y-639851D01*
G01X25677455Y-639851D02*
G01X27077452Y-639851D01*
G01Y-2039848D01*
G01X25677455D01*
G01Y-639851D01*
G01X8531234Y-2039848D02*
G01X8531234Y-639851D01*
G01X9931262D01*
G01Y-2039848D01*
G01X8531234D01*
G01X14694092Y-639851D02*
G01X14694092Y-2039848D01*
G01X13294095D01*
G01Y-639851D01*
G01X14694092D01*
G01X30440285Y-639851D02*
G01X31840283Y-639851D01*
G01Y-2039848D01*
G01X30440285D01*
G01Y-639851D01*
G01X25172319Y-639851D02*
G01X25172319Y-2039848D01*
G01X23772322D01*
G01Y-639851D01*
G01X25172319D01*
G01X15199227Y-639851D02*
G01X16599224Y-639851D01*
G01Y-2039848D01*
G01X15199227D01*
G01Y-639851D01*
G01X6626102Y-639851D02*
G01X8026129Y-639851D01*
G01Y-2039848D01*
G01X6626102D01*
G01Y-639851D01*
G01X23743520Y-8736623D02*
G01X23743520Y-10136660D01*
G01X22343423D01*
G01Y-8736623D01*
G01X23743520D01*
G01X20438291Y-8736623D02*
G01X21838388Y-8736623D01*
G01Y-10136660D01*
G01X20438291D01*
G01Y-8736623D01*
G01X23772322Y-12041790D02*
G01X23772322Y-10641745D01*
G01X25172319D01*
G01Y-12041790D01*
G01X23772322D01*
G01X26153688Y-11118028D02*
G01X27553785Y-11118028D01*
G01Y-12518072D01*
G01X26153688D01*
G01Y-11118028D01*
G01X18591163Y-12116898D02*
G01X18591163Y-12018774D01*
G01X18418651D01*
G01Y-11571850D01*
G01X14455976D01*
G01Y-12041790D01*
G01X13055778D01*
G01Y-11571850D01*
G01X9093113D01*
G01Y-12018774D01*
G01X8920551D01*
G01Y-12116898D01*
G01X8590468D01*
G01Y-12018774D01*
G01X8417956D01*
G01Y-11391727D01*
G01X8335541D01*
G01Y-11111828D01*
G01X8417956D01*
G01Y-10788785D01*
G01X8590468D01*
G01Y-10696729D01*
G01X8920551D01*
G01Y-10788785D01*
G01X9093113D01*
G01Y-11111828D01*
G01X13055778D01*
G01Y-10641745D01*
G01X14455976D01*
G01Y-11111828D01*
G01X18418651D01*
G01Y-10788785D01*
G01X18591163D01*
G01Y-10696729D01*
G01X18921286D01*
G01Y-10788785D01*
G01X19093797D01*
G01Y-11111828D01*
G01X19176203D01*
G01Y-11391727D01*
G01X19093797D01*
G01Y-12018774D01*
G01X18921286D01*
G01Y-12116898D01*
G01X18591163D01*
G01X29963952Y-11118028D02*
G01X31364049Y-11118028D01*
G01Y-12518072D01*
G01X29963952D01*
G01Y-11118028D01*
G01X28058820Y-11118028D02*
G01X29458917Y-11118028D01*
G01Y-12518072D01*
G01X28058820D01*
G01Y-11118028D01*
G01X19962058Y-12041790D02*
G01X19962058Y-10641745D01*
G01X21362055D01*
G01Y-12041790D01*
G01X19962058D01*
G01X8502412Y-8736623D02*
G01X8502412Y-10136660D01*
G01X7102385D01*
G01Y-8736623D01*
G01X8502412D01*
G01X23267187Y-10641745D02*
G01X23267187Y-12041790D01*
G01X21867190D01*
G01Y-10641745D01*
G01X23267187D01*
G01X5911682Y-12041790D02*
G01X5911682Y-10641745D01*
G01X7311710D01*
G01Y-12041790D01*
G01X5911682D01*
G01X3530117Y-10641745D02*
G01X4930294Y-10641745D01*
G01Y-12041790D01*
G01X3530117D01*
G01Y-10641745D01*
G01X29458917Y-9212906D02*
G01X29458917Y-10612943D01*
G01X28058820D01*
G01Y-9212906D01*
G01X29458917D01*
G01X2548889Y-10641745D02*
G01X2548889Y-12041790D01*
G01X1148843D01*
G01Y-10641745D01*
G01X2548889D01*
G01X7549846Y-6831491D02*
G01X7549846Y-8231508D01*
G01X6149819D01*
G01Y-6831491D01*
G01X7549846D01*
G01X13265293Y-6831491D02*
G01X13265293Y-8231508D01*
G01X11865196D01*
G01Y-6831491D01*
G01X13265293D01*
G01X4244687Y-8231508D02*
G01X4244687Y-6831491D01*
G01X5644714D01*
G01Y-8231508D01*
G01X4244687D01*
G04 PolygonModel End*

M02*
