;TYPE=NON_PLATED
;Layer: NPTH_Through
;EasyEDA Pro v2.1.51.8c9149c1.e57db4, 2024-03-19 08:44:48
;Gerber Generator version 0.3
M48
METRIC,LZ,000.00000
;Hole size 1 = 0.75001 METRIC
T01C0.75001
;Hole size 2 = 1.70180 METRIC
T02C1.70180
;Hole size 3 = 3.04800 METRIC
T03C3.04800
;Hole size 4 = 3.98780 METRIC
T04C3.98780
%
G05
G90
T01
X01928292Y14001834
X01348308Y14001834
T02
X19494500Y09055100
X20510500Y09055100
X02349500Y09055100
X03365500Y09055100
X04254500Y09055100
X05270500Y09055100
X06159500Y09055100
X07175500Y09055100
X08064500Y09055100
X09080500Y09055100
X09969500Y09055100
X10985500Y09055100
X11874500Y09055100
X12890500Y09055100
X13779500Y09055100
X14795500Y09055100
X15684500Y09055100
X16700500Y09055100
X17589500Y09055100
X18605500Y09055100
X00443998Y11430977
X01459998Y11430977
X04254500Y11430000
X05270500Y11430000
X08064500Y11430000
X09080500Y11430000
X06159500Y11430000
X07175500Y11430000
X14732000Y11430000
X15748000Y11430000
X16637000Y11430000
X17653000Y11430000
X12827000Y11430000
X13843000Y11430000
X09969500Y11430000
X10985500Y11430000
X21399500Y11430000
X22415500Y11430000
X23304500Y11430000
X24320500Y11430000
X27114500Y11430000
X28130500Y11430000
X25209500Y11430000
X26225500Y11430000
X18542000Y11430000
X19558000Y11430000
X21399500Y09055100
X22415500Y09055100
X23304500Y09055100
X24320500Y09055100
X00444500Y09055100
X01460500Y09055100
X00920997Y07149986
X01936997Y07149986
X03302000Y07150100
X04318000Y07150100
X07112000Y07150100
X08128000Y07150100
X05207000Y07150100
X06223000Y07150100
X12827000Y07150100
X13843000Y07150100
X14732000Y07150100
X15748000Y07150100
X10922000Y07150100
X11938000Y07150100
X09017000Y07150100
X10033000Y07150100
X18542000Y07150100
X19558000Y07150100
X20447000Y07150100
X21463000Y07150100
X24257000Y07150100
X25273000Y07150100
X22352000Y07150100
X23368000Y07150100
X16637000Y07150100
X17653000Y07150100
X26637946Y07148986
X27653946Y07148986
X26162000Y09055100
X27178000Y09055100
X29972000Y05245100
X30988000Y05245100
X29972000Y03340100
X30988000Y03340100
X18072100Y03340100
X19088100Y03340100
X24511000Y03340100
X25527000Y03340100
X27590944Y02857994
X28606944Y02857994
X21882100Y03340100
X22898100Y03340100
X19977100Y03340100
X20993100Y03340100
X10452100Y03340100
X11468100Y03340100
X12357100Y03340100
X13373100Y03340100
X16167100Y03340100
X17183100Y03340100
X14262100Y03340100
X15278100Y03340100
X06642100Y03340100
X07658100Y03340100
X08547100Y03340100
X09563100Y03340100
X04737100Y03340100
X05753100Y03340100
X01634996Y03339993
X02650996Y03339993
X01159997Y05244990
X02175997Y05244990
X03784600Y05245100
X04800600Y05245100
X07594600Y05245100
X08610600Y05245100
X05689600Y05245100
X06705600Y05245100
X13309600Y05245100
X14325600Y05245100
X15214600Y05245100
X16230600Y05245100
X11404600Y05245100
X12420600Y05245100
X09499600Y05245100
X10515600Y05245100
X19024600Y05245100
X20040600Y05245100
X20929600Y05245100
X21945600Y05245100
X25929947Y05243990
X26945947Y05243990
X22834600Y05245100
X23850600Y05245100
X17119600Y05245100
X18135600Y05245100
X00686998Y01434598
X01702998Y01434598
X03062993Y01434997
X04078993Y01434997
X12588974Y01434997
X13604974Y01434997
X05449988Y01434997
X06465988Y01434997
X21399500Y01435100
X22415500Y01435100
X23304500Y01435100
X24320500Y01435100
X19494500Y01435100
X20510500Y01435100
X29972000Y11430000
X30988000Y11430000
X27590944Y00952998
X28606944Y00952998
X25685948Y00952998
X26701948Y00952998
X29495940Y00952998
X30511940Y00952998
X29972000Y07150100
X30988000Y07150100
X29972000Y09055100
X30988000Y09055100
T03
X00952500Y04054348
X03327400Y04054348
X08102600Y02149348
X18091964Y02150245
X27622500Y05959348
X25488900Y09769348
X27851100Y09769348
X25247600Y05959348
T04
X20002500Y09055100
X02857500Y09055100
X04762500Y09055100
X06667500Y09055100
X08572500Y09055100
X10477500Y09055100
X12382500Y09055100
X14287500Y09055100
X16192500Y09055100
X18097500Y09055100
X00952500Y02665222
X03327400Y02665222
X08102600Y00760222
X18091964Y00761119
X27622500Y04570222
X25488900Y08380222
X27851100Y08380222
X25247600Y04570222
X00951998Y11430977
X04762500Y11430000
X08572500Y11430000
X06667500Y11430000
X15240000Y11430000
X17145000Y11430000
X13335000Y11430000
X10477500Y11430000
X21907500Y11430000
X23812500Y11430000
X27622500Y11430000
X25717500Y11430000
X19050000Y11430000
X21907500Y09055100
X23812500Y09055100
X00952500Y09055100
X01428997Y07149986
X03810000Y07150100
X07620000Y07150100
X05715000Y07150100
X13335000Y07150100
X15240000Y07150100
X11430000Y07150100
X09525000Y07150100
X19050000Y07150100
X20955000Y07150100
X24765000Y07150100
X22860000Y07150100
X17145000Y07150100
X27145946Y07148986
X26670000Y09055100
X30480000Y05245100
X30480000Y03340100
X18580100Y03340100
X25019000Y03340100
X28098944Y02857994
X22390100Y03340100
X20485100Y03340100
X10960100Y03340100
X12865100Y03340100
X16675100Y03340100
X14770100Y03340100
X07150100Y03340100
X09055100Y03340100
X05245100Y03340100
X02142996Y03339993
X01667997Y05244990
X04292600Y05245100
X08102600Y05245100
X06197600Y05245100
X13817600Y05245100
X15722600Y05245100
X11912600Y05245100
X10007600Y05245100
X19532600Y05245100
X21437600Y05245100
X26437947Y05243990
X23342600Y05245100
X17627600Y05245100
X01194998Y01434598
X03570993Y01434997
X13096974Y01434997
X05957988Y01434997
X21907500Y01435100
X23812500Y01435100
X20002500Y01435100
X30480000Y11430000
X28098944Y00952998
X26193948Y00952998
X30003940Y00952998
X30480000Y07150100
X30480000Y09055100
M30