;TYPE=PLATED
;Layer: PTH_Through
;EasyEDA Pro v2.1.51.8c9149c1.e57db4, 2024-03-19 08:44:48
;Gerber Generator version 0.3
M48
METRIC,LZ,000.00000
;Hole size 1 = 0.30000 METRIC
T01C0.30000
;Hole size 2 = 0.80000 METRIC
T02C0.80000
;Hole size 3 = 0.90002 METRIC
T03C0.90002
;Hole size 4 = 1.10000 METRIC
T04C1.10000
;Hole size 5 = 1.49860 METRIC
T05C1.49860
%
G05
G90
T01
X03987800Y13779500
X04076700Y13716000
X04089400Y13347700
X30441900Y13728700
X03708400Y14300200
X04470843Y13932343
X04330700Y13944600
X05283200Y13806627
X03233994Y13093974
X06210300Y13843000
X06134100Y13500100
X06604000Y12877800
X05689600Y12369800
X05334000Y12014200
X05562600Y11518900
X03556000Y11137900
X03238500Y10820400
X04584700Y11023600
X06642100Y12611100
X05910988Y11231978
X09271000Y14147800
X09232900Y13703300
X08420100Y13512800
X08293100Y12598400
X07924800Y12547600
X07835900Y13665200
X07912100Y13627100
X08166100Y13589000
X07759700Y12560300
X05448300Y11823700
X03492500Y06781800
X02692400Y06362700
X04127500Y07239000
X08585200Y12509500
X09207500Y13868400
X08280400Y13601700
X07924800Y12547600
X07175500Y12280900
X04673600Y07277100
X08458200Y12369800
X04127500Y07239000
X08585200Y12509500
X04673600Y07277100
X06400800Y04368800
X10998200Y13169900
X08559800Y12623800
X09639300Y12446000
X07442200Y06629400
X12204700Y14147800
X11620500Y12560300
X11506200Y12560300
X10071100Y10020300
X09847267Y13290553
X09296400Y13106400
X07364073Y05867743
X12776200Y13995400
X12204700Y13982700
X10210800Y06515100
X09969500Y13995400
X09918700Y13665200
X08826500Y04279900
X12319000Y13373100
X10845800Y09994900
X11315700Y13449300
X10210800Y06515100
X14401800Y13423900
X14198600Y14097000
X14478000Y13474700
X13804900Y12979400
X12522200Y06591300
X14732000Y12115800
X14884400Y11963400
X14281916Y12786333
X13246100Y13474700
X07035800Y10642600
X08509000Y10426700
X11518900Y10604500
X12611100Y09245600
X12522200Y06591300
X13131800Y03022600
X16141700Y12700000
X15961892Y12486032
X14782800Y10198100
X16217900Y12928600
X16205200Y13208000
X16332200Y12915900
X14782800Y10198100
X15709900Y13881100
X16141700Y12700000
X16052800Y12103100
X18059400Y13601700
X16840200Y13119100
X15189200Y09779000
X16706803Y13856187
X16666296Y14250432
X17208500Y13614400
X17868900Y10477500
X17983200Y10439400
X17551400Y07950200
X17179966Y06429987
X19050000Y12814300
X17868900Y10477500
X18249900Y06426200
X19681298Y13195936
X19748500Y12560300
X18300700Y12293600
X18897600Y11963400
X18249900Y06426200
X22603433Y11861555
X19304000Y06362700
X21501100Y14109700
X21653500Y13423900
X21412200Y13182600
X21234400Y12788900
X21018500Y12484100
X21314957Y11062978
X18193865Y12909834
X20027900Y13931900
X19723100Y13525500
X20802600Y12484100
X21463000Y11226800
X19431000Y02590800
X14401800Y13423900
X14363700Y12814300
X13398500Y10579100
X15900400Y08128000
X15989300Y06565900
X20370800Y04876800
X13792200Y02489200
X21297900Y12522200
X21424900Y13665200
X21272500Y13627100
X20904200Y12547600
X20878800Y12357100
X20777200Y10934700
X20955000Y10337800
X20497800Y08204200
X19812000Y07226300
X19342100Y13931900
X19354800Y12827000
X19431000Y12357100
X20485100Y12839700
X20104100Y12827000
X20078700Y12357100
X21399500Y11125200
X20193000Y10617200
X20561300Y09804400
X20383500Y09245600
X20193000Y08813800
X20548600Y06400800
X15506700Y12573000
X16535400Y12217400
X20027900Y09436100
X22656800Y13665200
X22453600Y12928600
X22085300Y12814300
X21678900Y10668000
X21577300Y10274300
X21564600Y09702800
X21780500Y09347200
X21742400Y08216900
X22034500Y13284200
X22072600Y12280900
X21831300Y11950700
X21488400Y10871200
X20955000Y10236200
X22682200Y12255500
X22161500Y11137900
X22072600Y10909300
X21678900Y10312400
X21678900Y09804400
X22047200Y13119100
X22364700Y10858500
X22415500Y10312400
X22567900Y09842500
X22656800Y09677400
X23190200Y06604000
X17424400Y13576300
X17310100Y12306300
X20929600Y10096500
X23202900Y10858500
X23253700Y09677400
X02171700Y07061200
X01549400Y12280900
X01752600Y12293600
X01866900Y14198600
X03035300Y13944600
X04183992Y13615973
X01955800Y14147800
X02336800Y14084300
X04279900Y13538200
X26352500Y08534400
X16662400Y08674100
X15608300Y08674100
X11760200Y08877300
X11214100Y09423400
X07289800Y10083800
X06511987Y10217980
X05486400Y10337800
X05207000Y12230100
X05321300Y12433300
X05854700Y12814300
X05461000Y13360400
X05499100Y14008100
X05354989Y14154972
X05143500Y13957300
X12573000Y12115800
X11645900Y12979400
X10388600Y12992100
X09954980Y12966974
X07988300Y13309600
X07226300Y13614400
X07035800Y13614400
X06502400Y13601700
X05130800Y13728700
X05143500Y13881100
X05003990Y13941972
X04749800Y13881100
X00647700Y11925300
X00444411Y08784400
X00114300Y08280400
X00444411Y05037900
X00114300Y04533900
X00444500Y04013200
X00139700Y01193800
X00254000Y00812800
X08305800Y12255500
X08178800Y12827000
X07708900Y12852400
X07455985Y12589975
X05181600Y12509500
X04876800Y12992100
X04774553Y13077101
X04787900Y13436600
X04457700Y13373100
X07035800Y10642600
X06489700Y10655300
X05575300Y11176000
X04826000Y12090400
X05029200Y12458700
X04711700Y12649200
X08509000Y10426700
X08140700Y10274300
X07416800Y10274300
X06400800Y10541000
X05778500Y10795000
X04902200Y12179300
X04965700Y12407900
X04597400Y12674600
X07353300Y10198100
X06426200Y10337800
X04356100Y11125200
X04432300Y12077700
X04406900Y12242800
X04521200Y12598400
X07480300Y10363200
X06413500Y10769600
X04711700Y11785600
X04699000Y11899900
X04508500Y11925300
X04343400Y12014200
X04203700Y12115800
X04457700Y12649200
X02489200Y13728700
X02197100Y13893800
X02044700Y13779500
X02095500Y13487400
X02184400Y13398500
X02171700Y11391900
X04584700Y11023600
X04787900Y11938000
X05207000Y12369800
X03263900Y14376400
X03136900Y14173200
X06121400Y08597900
X04127500Y09728200
X03517900Y09893300
X03086100Y11353800
X03379216Y12317400
X06985000Y09867900
X06413500Y10147300
X03187700Y10045700
X02921000Y11404600
X03302000Y12319000
X03517900Y09588500
X02679700Y11315700
X03224606Y12319914
X04241800Y11849100
X03198114Y11989257
X03153918Y12318644
X03263900Y12522200
X04080185Y12852400
X00630923Y12563031
X00622300Y13474700
X02335720Y14331325
X03937000Y13004800
X03738993Y12921974
X03670300Y12903200
X03670300Y13017500
X03543300Y12801600
X04902200Y13804900
X04470843Y13932343
X02628900Y13385800
X02337664Y13728700
X04508500Y13436600
X02602636Y14338300
X05114392Y13398500
X03987800Y13779500
X04143992Y13415973
X03289300Y13258800
X03543300Y13004800
X03975100Y12852400
X04483100Y13131800
X05050485Y13225602
X03844992Y12852974
X03770992Y13715973
X03606800Y13893800
X03855060Y13802741
X03937000Y13881100
X03937000Y13538200
X02152996Y14226972
X02155996Y14146972
X02209800Y14414500
X01130300Y12814300
X00812800Y12992100
X20508022Y05718604
X21126450Y05276609
X23089723Y13923986
X03423924Y05740743
X03981450Y05267239
X04738376Y09473917
X04897126Y07402226
X06452879Y09564974
X08593922Y13650302
X07087849Y05867743
X08510249Y07582246
X11722100Y13652500
X13825057Y13106403
X12517139Y07402226
X16017293Y03003092
X15571360Y13834452
X14707849Y05867743
X17407344Y08325568
X16903700Y13182600
X16192500Y07404100
X19051255Y08711393
X16352424Y11441640
X17878173Y08184304
X09079135Y14211300
X12112086Y14201190
X18618200Y14211300
X12580515Y13856187
X16595193Y13106403
X17097714Y14027153
X18935700Y14020800
X06924191Y14150704
X08170867Y14150704
X15198191Y13482657
X20853400Y13970000
X23207701Y14061144
X06992116Y14021312
X07965591Y13452941
X14213991Y13393124
X22959669Y13862223
X23241000Y13855700
X07538547Y13637091
X08305800Y13512800
X09025981Y13504419
X12090400Y14389100
X13817600Y13322300
X18435283Y14348806
X20149973Y13684294
X20878800Y13220700
X24053800Y13233400
X25209500Y14387936
X07538547Y13254019
X06310369Y13508694
X11115159Y13268791
X09899585Y12905362
X16378067Y13474703
X16685253Y12934293
X22140867Y13868444
X24704195Y14179907
X00453999Y07417985
X00834803Y05740688
X01320800Y03594100
X04483100Y13131800
X12580515Y14212528
X21741856Y13797919
X20866100Y13817600
X24968200Y13462000
X12661900Y13919200
X12742867Y13318323
X13600169Y13462551
X13600169Y13679807
X15361083Y14123344
X29667200Y07315200
X21656112Y09603423
X22265714Y05806459
X25019000Y12471400
X16662400Y12344400
X15560092Y12335881
X05122178Y12679937
X04774553Y13336818
X26532928Y08122042
X23507700Y07632700
X27142530Y05806459
X30213300Y12039600
X30412419Y12366165
X30174525Y11900701
X21259800Y06908800
X03009900Y13144500
X03806992Y12997974
X04076700Y12966700
X00208695Y12090400
X02238553Y07209171
X21633906Y14206246
X22851461Y13870773
X14450993Y14150478
X20863270Y14379146
X14028279Y12921909
X00906539Y05607764
X17399000Y01193800
X21220355Y00567226
X25463500Y00457200
X03477123Y05184803
X00200048Y01447800
X00723900Y00571500
X01539245Y12500015
X13780288Y01334771
X31005984Y08462134
X07429500Y12471400
X03772992Y09752980
X06731000Y13271500
X06604000Y13601700
X06451600Y13919200
X07835900Y13665200
X07150100Y12915900
X07150100Y12611100
X07340600Y12598400
X07175500Y12280900
X04127500Y07239000
X03200400Y04229100
X27000200Y12268200
X25501600Y12674600
X24434800Y12903200
X25590500Y12941300
X25996900Y12560300
X26924000Y08216900
X26885900Y06959600
X25958800Y13652500
X24726900Y13957300
X23469600Y14058900
X28714700Y12293600
X27650945Y12543975
X20599400Y13233400
X20599400Y13385800
X30391100Y08318500
X29756100Y08597900
X29235400Y08597900
X27393900Y10985500
X18008600Y12293600
X27457400Y09918700
X26682700Y12179300
X26276300Y12585700
X30975389Y11776901
X31305500Y08788400
X31115000Y05346700
X31305500Y05041900
X30975389Y04537901
X31318200Y01701800
X30797500Y00406400
X29641800Y00114300
X29137801Y00457111
X24955500Y00457200
X28168600Y08940800
X28409900Y12344400
X29819600Y03035300
X29404941Y05706989
X28384500Y08813800
X28562300Y12344400
X28333700Y13843000
X27978100Y05689600
X26402947Y13723973
X27934944Y12229976
X25857200Y06604000
X23812500Y13487400
X27482800Y08229600
X27305000Y09677400
X26733500Y12331700
X26504900Y12585700
X26327100Y13284200
X02730500Y13665200
X03674993Y13614973
X25488900Y12484100
X23876000Y12649200
X23774400Y13741400
X24104600Y06553200
X24650700Y09664700
X24104600Y10744200
X25285700Y12788900
X23863300Y12788900
X25228628Y12841434
X23933989Y12841434
X25806400Y13208000
X26035000Y12623800
X25996900Y10198100
X25908000Y12928600
X26162000Y12560300
X26809700Y10604500
X25019000Y08826500
X24142700Y14033500
X24803100Y13347700
X24879300Y13182600
X24765000Y12954000
X24053800Y10134600
X23571200Y08801100
X23660100Y06426200
X23799800Y12560300
X21297900Y12522200
X03233994Y13093974
X04711700Y12433300
X04927600Y12611100
X25459500Y00127089
X20688300Y00444500
X21179600Y00114389
X16751300Y00444500
X17242600Y00114389
X12598400Y00444500
X13102400Y00114389
X08585200Y00431800
X09089200Y00114389
X04292600Y00431800
X04796600Y00101689
X00254000Y00419100
X03298993Y13071974
X03187700Y12611100
X04635500Y12331700
X05130800Y12446000
X05270500Y12560300
X03378993Y13078974
X03175000Y12471400
X04267200Y12560300
X04914900Y12801600
X05334000Y12852400
X05295900Y13487400
X03387993Y13012974
X03302000Y12687300
X04267200Y12687300
X04864100Y13157200
X05054600Y13487400
X05143500Y14058900
X03441700Y12928600
X03784600Y12534900
X04114800Y12560300
X04686300Y13169900
X04699000Y13436600
X04635500Y13652500
X02601773Y14008100
X02730500Y14376400
X04150992Y14342971
X04875990Y13602973
X02781300Y14211300
X03619500Y14198600
X03708400Y14300200
X05257800Y14427200
X05424856Y14390903
X05575300Y14389100
X05575300Y14033500
X05753100Y13995400
X03632200Y13195300
X02006600Y12420600
X04305300Y12992100
X03987800Y13271500
X04102100Y12268200
X04241800Y12001500
X20286538Y13298786
X25488900Y12788900
X25488900Y12903200
X12357084Y13919184
X25115149Y05422900
X17778469Y14221816
X01612900Y13982700
X01714500Y13982700
X10007600Y13652500
X04279900Y13538200
X04508500Y13436600
X04203700Y14173200
X04393757Y13855257
X04127500Y14097000
X04559300Y14020800
X05143500Y13957300
X05359400Y12928600
X04927600Y12611100
X05270500Y12560300
X05334000Y12852400
X06578617Y12801600
X07429500Y03568700
X07239000Y13106400
X06400800Y04368800
X09296400Y13106400
X05207000Y12230100
X04370680Y14069898
X04330700Y13944600
X10769600Y14325600
X10515600Y14135100
X07505700Y03429000
X09639300Y12446000
X09918700Y13665200
X08947104Y11682126
X07429500Y03568700
X05994400Y13500100
X05130800Y13728700
X03263900Y14376400
X03670300Y06388100
X04318000Y05588000
X05689600Y02603500
X03492500Y06781800
X04432300Y12077700
X04787900Y11938000
X07505700Y03429000
X04711700Y14084300
X04076700Y12966700
X04485247Y13707100
X03987800Y13271500
X03987800Y12141200
X03670300Y11328400
X03379216Y12317400
X04102100Y12268200
X03492500Y08636000
X04165600Y04940300
X05664200Y02463800
X05689600Y02603500
X07429500Y03568700
X04747285Y14234973
X06743700Y14084300
X05372100Y14325600
X04559300Y14020800
X07150100Y13779500
X07239000Y12256989
X04673600Y07277100
X08458200Y12369800
X07340600Y12598400
X07175500Y12280900
X08585200Y12509500
X05638800Y08407400
X07581900Y03632200
X06578617Y12801600
X05664200Y02463800
X07505700Y03429000
X04673600Y07277100
X04127500Y07239000
X05257800Y14427200
X02336800Y14084300
X03606800Y13893800
X02335720Y14331325
X02336800Y14084300
X02197100Y13893800
X03606800Y13893800
X07811087Y06840012
X03670300Y11328400
X05638800Y08407400
X07581900Y03632200
X07429500Y03568700
X06400800Y04368800
X05689600Y02603500
X07429500Y03568700
X03770992Y13715973
X04216400Y13474700
X05049990Y14134972
X03987800Y12141200
X04343400Y13284200
X04584700Y13144500
X03873500Y12128500
X04114800Y12560300
X04711700Y14084300
X02171700Y11391900
X03098800Y11087100
X03403600Y08496300
X02451100Y07327900
X02832100Y07023100
X03492500Y08636000
X03492500Y08636000
X05524500Y04381500
X05664200Y02463800
X07505700Y03429000
X11291460Y14215947
X09944100Y02946400
X01605746Y05564761
X20535900Y13665200
X03378200Y12395200
X03670300Y14135100
X03606800Y14300200
X04533900Y14249400
X01122495Y13437997
X00863600Y10845800
X03162300Y10871200
X03517900Y10642600
X06350000Y10947400
X06578600Y10858500
X07924800Y12547600
X04127500Y07239000
X04152900Y10934700
X04279900Y11087100
X07404100Y10858500
X16916400Y10680700
X17056100Y10858500
X12573000Y12115800
X08305800Y12255500
X08585200Y12509500
X05638800Y08407400
X18097500Y10452100
X18275300Y10985500
X20929600Y10096500
X16535400Y12217400
X18963005Y10859300
X19265900Y10782300
X18897600Y11963400
X27393900Y10985500
X21971000Y10744200
X22517100Y10858500
X26733500Y12331700
X27535505Y10859300
X29451300Y10972800
X18338800Y08737600
X18186400Y08585200
X17297400Y08572500
X16903700Y08559800
X16751300Y08559800
X16281400Y08585200
X16662400Y08674100
X14376400Y08585200
X06121400Y08597900
X06083300Y08458200
X04851400Y08585200
X03111500Y08407400
X02946400Y08585200
X01689100Y08686800
X01041400Y08585200
X03517900Y06667500
X03721100Y06578600
X04432300Y04978400
X04584700Y11023600
X04152900Y10934700
X04356100Y11125200
X04711700Y11785600
X07175500Y12280900
X04673600Y07277100
X07239000Y12256989
X08458200Y12369800
X06870700Y10960100
X07404100Y10960100
X17056100Y10718800
X17056100Y10960100
X18808700Y10553700
X18961100Y10960100
X18008600Y12293600
X19265900Y10782300
X21994495Y10859300
X22479000Y10922000
X27813000Y10934700
X29400500Y11061700
X26835100Y08737600
X26758900Y08483600
X26352500Y08534400
X18465800Y08585200
X18186400Y08483600
X16662400Y08674100
X15913100Y08483600
X14566900Y08483600
X06057900Y08343900
X04851400Y08483600
X06083300Y08458200
X03022600Y08318500
X02946400Y08483600
X01003300Y06781800
X01333500Y06680200
X03492500Y08636000
X05628005Y06579400
X05943600Y06540500
X15989300Y06565900
X20370800Y04876800
X03556000Y06731000
X03721100Y06680200
X01605746Y05564761
X08089900Y06642100
X08445500Y06210300
X26873200Y04889500
X26530300Y04775200
X30213300Y04483100
X26530300Y04673600
X24396700Y04724400
X24396700Y05334000
X17983200Y04800600
X18059400Y04889500
X17716500Y04673600
X13093700Y04851400
X03162300Y04495800
X03175000Y04826000
X02768600Y04584700
X07861300Y02768600
X08763000Y02806700
X09372600Y02908300
X10871200Y02870200
X22834600Y02768600
X23190200Y02895600
X27063700Y02387600
X27508200Y02387600
X28179395Y02286800
X29476700Y02806700
X04546600Y02921000
X05156200Y02768600
X08013700Y02692400
X08877300Y02692400
X09652000Y02819400
X10871200Y02768600
X09372600Y02908300
X12954000Y02692400
X22948900Y02692400
X23406100Y02692400
X26543000Y02159000
X27482800Y02159000
X20612832Y01181100
X04796600Y01132372
X00444411Y08784400
X01122495Y13437997
X03378200Y12395200
X04305300Y10845800
X04533900Y10845800
X06642100Y12611100
X02171700Y11391900
X06756400Y10960100
X06426200Y10337800
X07924800Y12547600
X04127500Y07239000
X08585200Y12509500
X06350000Y10947369
X08458200Y12369800
X05638800Y08407400
X07454900Y11049000
X15976600Y10960100
X16598900Y10934700
X08305800Y12255500
X18059400Y10960100
X18288000Y11099800
X18796000Y10909300
X19138900Y10960100
X08458200Y12369800
X27393900Y10985500
X27457400Y11049000
X27711400Y10960100
X30975300Y12268200
X00863600Y08483600
X02209800Y06731000
X02238553Y07209171
X01509395Y06679400
X02882900Y07696200
X05321300Y07797800
X04673600Y08483600
X09169400Y08026400
X09684884Y08541884
X10630051Y08318651
X11071922Y08760522
X14922500Y08407400
X29400500Y11163300
X27774900Y06997700
X26583005Y08484400
X30568900Y06680200
X19051255Y08711393
X26352500Y08534400
X18008600Y08483600
X14998700Y06756400
X16052800Y08267700
X04165600Y04940300
X04432300Y04978400
X29756100Y03124200
X19405497Y02480849
X18996163Y02890183
X09944100Y02946400
X18996163Y02890183
X09944100Y02946400
X13398500Y02527300
X13258800Y02857500
X19443700Y04673600
X18364200Y03924300
X13131800Y03022600
X13792200Y02489200
X02768600Y04584700
X02578100Y04660900
X07670800Y02933700
X08826500Y04279900
X00508000Y00508000
X00508000Y01016000
X00508000Y01524000
X00508000Y04064000
X00508000Y06604000
X00508000Y07112000
X00508000Y08128000
X00508000Y08636000
X00508000Y09652000
X00508000Y10160000
X00508000Y10668000
X00508000Y11176000
X00508000Y12192000
X00508000Y12700000
X01016000Y00508000
X01016000Y02032000
X01016000Y03048000
X01016000Y03556000
X01016000Y04572000
X01016000Y05080000
X01016000Y05588000
X01016000Y06096000
X01016000Y06604000
X01016000Y07620000
X01016000Y08128000
X01016000Y09652000
X01016000Y10160000
X01016000Y10668000
X01016000Y11176000
X01016000Y12700000
X01016000Y13716000
X01524000Y00508000
X01524000Y01016000
X01524000Y01524000
X01524000Y02540000
X01524000Y03048000
X01524000Y04572000
X01524000Y06096000
X01524000Y09652000
X01524000Y10160000
X01524000Y10668000
X01524000Y11176000
X01524000Y11684000
X01524000Y12700000
X01524000Y13716000
X02032000Y00508000
X02032000Y01016000
X02032000Y01524000
X02032000Y02032000
X02032000Y02540000
X02032000Y03048000
X02032000Y03556000
X02032000Y04064000
X02032000Y04572000
X02032000Y05080000
X02032000Y06096000
X02032000Y06604000
X02032000Y08128000
X02032000Y09144000
X02032000Y10160000
X02032000Y10668000
X02032000Y11176000
X02032000Y11684000
X02032000Y12192000
X02032000Y12700000
X02540000Y00508000
X02540000Y01016000
X02540000Y01524000
X02540000Y02032000
X02540000Y02540000
X02540000Y03556000
X02540000Y04064000
X02540000Y04572000
X02540000Y05080000
X02540000Y05588000
X02540000Y06604000
X02540000Y08128000
X02540000Y09144000
X02540000Y09652000
X02540000Y10668000
X02540000Y11176000
X02540000Y11684000
X02540000Y12192000
X02540000Y12700000
X03048000Y00508000
X03048000Y01016000
X03048000Y06096000
X03048000Y06604000
X03048000Y07112000
X03048000Y07620000
X03048000Y08636000
X03048000Y11176000
X03048000Y12192000
X03048000Y14224000
X03556000Y00508000
X03556000Y02032000
X03556000Y02540000
X03619500Y03556000
X03606800Y05080000
X03556000Y06096000
X03556000Y07112000
X03556000Y07620000
X03556000Y08128000
X03556000Y10160000
X03556000Y11684000
X03556000Y12192000
X04064000Y00508000
X04064000Y01016000
X04064000Y02032000
X04064000Y02540000
X04064000Y03556000
X04064000Y04064000
X04064000Y06096000
X04064000Y07112000
X04064000Y08128000
X04064000Y08636000
X04064000Y09144000
X04064000Y09652000
X04064000Y11684000
X04572000Y00508000
X04572000Y01016000
X04572000Y01524000
X04572000Y02032000
X04572000Y02540000
X04572000Y03048000
X04572000Y04064000
X04572000Y05588000
X04572000Y08636000
X04572000Y09652000
X04572000Y10160000
X04572000Y12192000
X05080000Y00508000
X05080000Y01016000
X05080000Y01524000
X05080000Y02032000
X05080000Y02540000
X05080000Y03556000
X05080000Y04064000
X05080000Y05080000
X05080000Y05588000
X05080000Y06096000
X05080000Y07112000
X05080000Y07620000
X05080000Y09144000
X05080000Y10160000
X05588000Y00508000
X05588000Y01016000
X05588000Y01524000
X05588000Y02032000
X05588000Y03556000
X05588000Y04064000
X05588000Y05080000
X05588000Y05588000
X05588000Y06096000
X05588000Y07620000
X05588000Y08128000
X05588000Y09652000
X05588000Y10668000
X05588000Y12192000
X06096000Y00508000
X06096000Y02540000
X06096000Y03048000
X06096000Y05588000
X06096000Y08128000
X06096000Y09652000
X06096000Y10668000
X06096000Y13208000
X06604000Y00508000
X06604000Y01016000
X06604000Y01524000
X06604000Y02032000
X06604000Y02540000
X06604000Y03048000
X06604000Y05080000
X06604000Y05588000
X06604000Y06096000
X06604000Y07620000
X06604000Y08128000
X06604000Y11176000
X06604000Y11684000
X07112000Y00508000
X07112000Y01016000
X07112000Y01524000
X07112000Y02032000
X07112000Y02540000
X07112000Y03048000
X07112000Y04064000
X07112000Y05080000
X07112000Y05588000
X07112000Y06096000
X07112000Y07620000
X07112000Y08128000
X07112000Y09652000
X07112000Y10160000
X07112000Y11176000
X07112000Y11684000
X07620000Y00508000
X07620000Y01016000
X07620000Y01524000
X07620000Y02032000
X07620000Y02540000
X07620000Y03048000
X07620000Y04064000
X07620000Y05080000
X07620000Y06096000
X07620000Y11176000
X07620000Y11684000
X07620000Y12192000
X08128000Y00508000
X08128000Y01524000
X08128000Y02540000
X08128000Y03556000
X08128000Y04064000
X08128000Y05588000
X08128000Y06096000
X08128000Y08128000
X08128000Y09652000
X08128000Y11176000
X08128000Y12192000
X08636000Y01524000
X08636000Y02032000
X08636000Y04572000
X08636000Y05080000
X08636000Y05588000
X08636000Y07112000
X08636000Y08128000
X08636000Y11176000
X08636000Y11684000
X09144000Y01524000
X09144000Y02540000
X09144000Y04064000
X09144000Y04572000
X09144000Y05080000
X09144000Y05588000
X09144000Y07620000
X09144000Y08128000
X09144000Y08636000
X09144000Y09652000
X09144000Y11176000
X09652000Y00508000
X09652000Y02032000
X09652000Y02540000
X09652000Y06096000
X09652000Y08128000
X09652000Y09652000
X09652000Y11176000
X10160000Y00508000
X10160000Y01524000
X10160000Y02032000
X10160000Y02540000
X10160000Y03048000
X10160000Y03556000
X10160000Y04064000
X10160000Y04572000
X10160000Y05588000
X10160000Y06096000
X10160000Y07112000
X10160000Y07620000
X10160000Y13208000
X10160000Y13716000
X10668000Y00508000
X10668000Y01524000
X10668000Y02032000
X10668000Y02540000
X10668000Y03048000
X10668000Y04064000
X10668000Y04572000
X10668000Y05588000
X10668000Y06096000
X10668000Y06604000
X10668000Y07112000
X10668000Y07620000
X10668000Y08128000
X10668000Y11176000
X10668000Y11684000
X10668000Y13208000
X10668000Y13716000
X11176000Y00508000
X11176000Y02032000
X11176000Y02540000
X11176000Y03048000
X11176000Y03556000
X11176000Y05080000
X11176000Y05588000
X11176000Y06096000
X11176000Y07112000
X11176000Y07620000
X11176000Y08128000
X11176000Y09144000
X11176000Y10160000
X11176000Y13716000
X11684000Y00508000
X11684000Y02032000
X11684000Y02540000
X11684000Y03048000
X11684000Y03556000
X11684000Y04064000
X11684000Y04572000
X11684000Y07112000
X11684000Y09144000
X11684000Y09652000
X11684000Y11176000
X11684000Y11684000
X12192000Y00508000
X12192000Y01016000
X12192000Y01524000
X12192000Y02032000
X12192000Y02540000
X12192000Y03048000
X12192000Y03556000
X12192000Y04064000
X12192000Y04572000
X12192000Y05080000
X12192000Y05588000
X12192000Y06096000
X12192000Y07112000
X12192000Y07620000
X12192000Y08128000
X12192000Y10160000
X12192000Y11176000
X12192000Y11684000
X12700000Y01016000
X12700000Y01524000
X12700000Y02032000
X12700000Y02540000
X12700000Y03048000
X12700000Y03556000
X12700000Y04064000
X12700000Y04572000
X12700000Y05080000
X12700000Y05588000
X12700000Y06096000
X12700000Y06604000
X12700000Y07112000
X12700000Y07620000
X12700000Y08128000
X12700000Y09144000
X12700000Y10160000
X12700000Y11176000
X12700000Y11684000
X13208000Y04064000
X13208000Y05080000
X13208000Y05588000
X13208000Y06096000
X13208000Y07620000
X13208000Y08128000
X13208000Y09144000
X13208000Y11176000
X13208000Y13716000
X13716000Y00508000
X13716000Y01524000
X13716000Y02032000
X13716000Y03048000
X13716000Y04064000
X13716000Y04572000
X13716000Y05588000
X13716000Y06096000
X13716000Y07112000
X13716000Y08128000
X13716000Y09652000
X13716000Y11176000
X13716000Y12700000
X13716000Y13716000
X14224000Y00508000
X14224000Y02540000
X14224000Y03048000
X14224000Y04064000
X14224000Y04572000
X14224000Y05080000
X14224000Y05588000
X14224000Y08128000
X14224000Y09652000
X14224000Y10160000
X14224000Y11176000
X14224000Y11684000
X14224000Y12700000
X14224000Y14224000
X14732000Y00508000
X14732000Y02540000
X14732000Y04064000
X14732000Y04572000
X14732000Y05080000
X14732000Y05588000
X14732000Y06096000
X14732000Y08128000
X14732000Y12700000
X14732000Y13716000
X15240000Y00508000
X15240000Y01524000
X15240000Y02540000
X15240000Y03556000
X15240000Y04064000
X15240000Y04572000
X15240000Y05080000
X15240000Y06096000
X15240000Y07620000
X15240000Y09652000
X15240000Y11684000
X15240000Y12700000
X15240000Y13716000
X15748000Y00508000
X15748000Y01524000
X15748000Y02032000
X15748000Y02540000
X15748000Y03556000
X15748000Y04064000
X15748000Y04572000
X15748000Y05588000
X15748000Y06096000
X15748000Y07620000
X15748000Y08128000
X15748000Y09652000
X15748000Y10160000
X15748000Y11684000
X15748000Y12700000
X16256000Y00508000
X16256000Y01524000
X16256000Y02032000
X16256000Y02540000
X16256000Y04064000
X16256000Y04572000
X16256000Y05080000
X16256000Y05588000
X16256000Y06096000
X16256000Y07112000
X16256000Y07620000
X16256000Y08128000
X16256000Y09652000
X16256000Y10160000
X16256000Y12700000
X16256000Y13716000
X16256000Y14224000
X16764000Y01524000
X16764000Y02032000
X16764000Y02540000
X16764000Y06096000
X16764000Y06604000
X16764000Y07112000
X16764000Y07620000
X16764000Y08128000
X16764000Y09652000
X16764000Y11176000
X16764000Y12700000
X16764000Y13208000
X16764000Y13716000
X17272000Y01524000
X17272000Y02032000
X17272000Y02540000
X17272000Y04572000
X17272000Y05080000
X17272000Y06096000
X17272000Y08128000
X17272000Y08636000
X17272000Y09144000
X17272000Y09652000
X17272000Y10160000
X17272000Y11176000
X17780000Y00508000
X17780000Y01524000
X17780000Y02032000
X17780000Y02540000
X17780000Y04064000
X17780000Y05588000
X17780000Y06096000
X17780000Y07112000
X17780000Y07620000
X17780000Y08128000
X17780000Y09652000
X17780000Y10160000
X17780000Y11176000
X17780000Y11684000
X17780000Y12192000
X17780000Y12700000
X17780000Y13208000
X17780000Y13716000
X18288000Y00508000
X18288000Y01524000
X18288000Y02032000
X18288000Y02540000
X18288000Y05588000
X18288000Y08128000
X18288000Y10160000
X18288000Y11176000
X18288000Y11684000
X18288000Y12192000
X18288000Y12700000
X18796000Y00508000
X18796000Y01016000
X18796000Y01524000
X18796000Y02032000
X18796000Y02540000
X18796000Y04572000
X18796000Y05080000
X18796000Y05588000
X18796000Y06096000
X18796000Y07112000
X18796000Y08128000
X18796000Y08636000
X18796000Y09144000
X18796000Y09652000
X18796000Y10160000
X18796000Y11176000
X18796000Y12192000
X18796000Y12700000
X18796000Y13208000
X18796000Y13716000
X18796000Y14224000
X19304000Y00508000
X19304000Y01016000
X19304000Y01524000
X19304000Y02032000
X19304000Y04572000
X19304000Y09144000
X19304000Y11684000
X19304000Y12700000
X19812000Y00508000
X19812000Y01016000
X19812000Y02032000
X19812000Y02540000
X19812000Y04064000
X19812000Y05080000
X19812000Y05588000
X19812000Y07620000
X19812000Y08128000
X19812000Y09652000
X19812000Y10160000
X19812000Y11176000
X19812000Y11684000
X19812000Y12192000
X19812000Y12700000
X19812000Y13716000
X19812000Y14224000
X20320000Y00508000
X20320000Y01524000
X20320000Y02540000
X20320000Y05080000
X20320000Y06096000
X20320000Y07112000
X20320000Y07620000
X20320000Y10160000
X20320000Y11176000
X20320000Y11684000
X20320000Y12192000
X20320000Y12700000
X20828000Y00508000
X20828000Y01524000
X20828000Y02032000
X20828000Y02540000
X20828000Y03556000
X20828000Y04064000
X20828000Y04572000
X20828000Y05080000
X20828000Y07620000
X20828000Y08128000
X20828000Y09144000
X20828000Y09652000
X20828000Y10668000
X20828000Y11176000
X20828000Y13716000
X20828000Y14224000
X21336000Y02032000
X21336000Y02540000
X21336000Y03556000
X21336000Y05588000
X21336000Y07112000
X21336000Y10160000
X21336000Y12192000
X21336000Y13716000
X21844000Y00508000
X21844000Y02032000
X21844000Y02540000
X21844000Y04064000
X21844000Y04572000
X21844000Y05080000
X21844000Y05588000
X21844000Y06096000
X21844000Y07112000
X21844000Y07620000
X21844000Y08128000
X21844000Y09652000
X21844000Y10160000
X21844000Y10668000
X21844000Y11176000
X21844000Y11684000
X21844000Y14224000
X22352000Y00508000
X22352000Y02032000
X22352000Y02540000
X22352000Y04064000
X22352000Y04572000
X22352000Y05080000
X22352000Y05588000
X22352000Y06096000
X22352000Y07620000
X22352000Y08128000
X22352000Y09652000
X22352000Y10160000
X22352000Y10668000
X22860000Y00508000
X22860000Y01524000
X22860000Y02032000
X22860000Y02540000
X22860000Y03048000
X22860000Y03556000
X22860000Y04064000
X22860000Y04572000
X22860000Y06096000
X22860000Y06604000
X22860000Y09652000
X22860000Y10160000
X22860000Y10668000
X22860000Y11176000
X22860000Y11684000
X22860000Y12192000
X22860000Y13208000
X22860000Y13716000
X22860000Y14224000
X23368000Y00508000
X23368000Y02032000
X23368000Y02540000
X23368000Y03048000
X23368000Y03556000
X23368000Y04064000
X23368000Y05588000
X23368000Y06096000
X23368000Y06604000
X23368000Y07620000
X23368000Y08128000
X23368000Y09652000
X23368000Y10160000
X23368000Y10668000
X23368000Y11176000
X23368000Y12192000
X23876000Y00508000
X23876000Y02032000
X23876000Y02540000
X23876000Y03048000
X23876000Y03556000
X23876000Y04572000
X23876000Y05080000
X23876000Y05588000
X23876000Y06604000
X23876000Y07112000
X23876000Y08128000
X23876000Y09652000
X23876000Y10160000
X23876000Y10668000
X23876000Y11176000
X23876000Y11684000
X23876000Y12192000
X23876000Y14224000
X24384000Y00508000
X24384000Y01016000
X24384000Y02032000
X24384000Y02540000
X24384000Y03048000
X24384000Y03556000
X24384000Y04064000
X24384000Y04572000
X24384000Y06604000
X24384000Y07112000
X24384000Y07620000
X24384000Y08128000
X24384000Y09652000
X24384000Y10160000
X24384000Y10668000
X24384000Y11176000
X24384000Y11684000
X24384000Y12192000
X24892000Y01016000
X24892000Y01524000
X24892000Y02032000
X24892000Y02540000
X24892000Y03048000
X24892000Y03556000
X24892000Y04064000
X24892000Y04572000
X24892000Y05080000
X24892000Y05588000
X24892000Y06096000
X24892000Y08128000
X24892000Y09144000
X24892000Y09652000
X24892000Y10160000
X24892000Y10668000
X24892000Y11176000
X24892000Y11684000
X24892000Y12192000
X24892000Y13716000
X24892000Y14224000
X25400000Y01016000
X25400000Y01524000
X25400000Y02032000
X25400000Y02540000
X25400000Y03048000
X25400000Y03556000
X25400000Y04064000
X25400000Y05080000
X25400000Y05588000
X25400000Y06096000
X25400000Y07112000
X25400000Y07620000
X25400000Y10160000
X25400000Y10668000
X25400000Y11176000
X25400000Y13208000
X25908000Y00508000
X25908000Y01016000
X25908000Y01524000
X25908000Y02032000
X25908000Y02540000
X25908000Y03048000
X25908000Y03556000
X25908000Y04064000
X25908000Y04572000
X25908000Y05080000
X25908000Y05588000
X25908000Y14224000
X26416000Y00508000
X26416000Y02032000
X26416000Y02540000
X26416000Y03048000
X26416000Y03556000
X26416000Y04064000
X26416000Y04572000
X26416000Y05588000
X26416000Y06096000
X26416000Y06604000
X26416000Y07112000
X26416000Y07620000
X26416000Y08128000
X26416000Y09144000
X26416000Y09652000
X26416000Y10668000
X26416000Y11176000
X26416000Y11684000
X26924000Y00508000
X26924000Y01016000
X26924000Y01524000
X26924000Y03048000
X26924000Y03556000
X26924000Y04064000
X26924000Y04572000
X26924000Y05080000
X26924000Y05588000
X26924000Y06604000
X26924000Y10160000
X26924000Y10668000
X26924000Y11176000
X26924000Y12700000
X26924000Y13716000
X26924000Y14224000
X27432000Y00508000
X27432000Y01016000
X27432000Y01524000
X27432000Y02032000
X27432000Y03048000
X27432000Y03556000
X27432000Y04064000
X27432000Y05080000
X27432000Y05588000
X27432000Y06096000
X27432000Y07112000
X27432000Y09144000
X27432000Y10160000
X27432000Y11684000
X27432000Y12192000
X27432000Y13208000
X27432000Y13716000
X27940000Y02032000
X27940000Y02540000
X27940000Y03556000
X27940000Y04064000
X27940000Y04572000
X27940000Y05080000
X27940000Y05588000
X27940000Y11684000
X27940000Y12700000
X27940000Y13208000
X27940000Y13716000
X27940000Y14224000
X28448000Y00508000
X28448000Y01016000
X28448000Y02032000
X28448000Y02540000
X28448000Y03556000
X28448000Y04064000
X28448000Y04572000
X28448000Y05080000
X28448000Y05588000
X28448000Y06096000
X28448000Y07112000
X28448000Y07620000
X28448000Y08128000
X28448000Y08636000
X28448000Y09144000
X28956000Y01016000
X28956000Y01524000
X28956000Y02032000
X28956000Y02540000
X28956000Y03048000
X28956000Y04064000
X28956000Y04572000
X28956000Y05080000
X28956000Y05588000
X28930600Y06083300
X28956000Y08636000
X28956000Y09144000
X28956000Y09652000
X28956000Y10160000
X28956000Y10668000
X28956000Y11176000
X28956000Y11684000
X28956000Y12700000
X28956000Y13208000
X28956000Y13716000
X29464000Y01524000
X29464000Y02032000
X29464000Y02540000
X29464000Y03048000
X29464000Y03556000
X29464000Y04572000
X29464000Y05080000
X29425900Y05575300
X29464000Y06096000
X29464000Y07620000
X29464000Y08128000
X29464000Y09144000
X29464000Y09652000
X29464000Y10160000
X29464000Y10668000
X29464000Y11684000
X29464000Y12700000
X29464000Y13208000
X29464000Y13716000
X29972000Y01524000
X29972000Y02032000
X29972000Y02540000
X29972000Y03048000
X29972000Y04064000
X29972000Y04572000
X29972000Y05080000
X29972000Y06096000
X29972000Y07620000
X29972000Y09652000
X29972000Y10160000
X29972000Y10668000
X29972000Y11176000
X29972000Y12700000
X29972000Y13208000
X29972000Y13716000
X30480000Y00508000
X30480000Y03048000
X30480000Y05588000
X30480000Y06096000
X30480000Y07620000
X30480000Y08128000
X30391100Y08483600
X30480000Y09652000
X30480000Y10160000
X30480000Y10668000
X30480000Y11176000
X30480000Y11684000
X30480000Y13208000
X30480000Y14224000
X30988000Y00508000
X30988000Y01524000
X30988000Y02032000
X30988000Y02540000
X30988000Y03048000
X30988000Y03556000
X30988000Y05588000
X30988000Y06096000
X30988000Y06604000
X30988000Y08636000
X30988000Y09652000
X30988000Y10160000
X30988000Y10668000
X30988000Y11176000
X30988000Y12700000
X07035800Y06756400
X07835900Y06718300
X12001500Y04673600
X30391100Y04673600
X30391100Y04064000
X23368000Y00254000
X22353010Y00254000
X30175200Y00609600
X00673100Y07289800
X26403947Y13389973
X03403600Y13728700
X05600700Y13868400
X05575300Y13665200
X05778500Y13665200
X05829300Y13512800
X10160000Y13436600
X10406906Y13504127
X21820505Y08484400
X05003800Y10960100
X04025900Y06654800
X11176000Y02870200
X15240000Y02870200
X17272000Y02870200
X10947400Y12420600
T02
X01205804Y14339821G85X01205804Y14399821
X01205789Y13911823G85X01205789Y13991820
X02070811Y13911820G85X02070811Y13991822
X02070796Y14339821G85X02070796Y14399821
X06493299Y14211305
X05673301Y14211305
X07534699Y13474705
X06714701Y13474705
X09617499Y14211305
X08797501Y14211305
X10658899Y13474705
X09838901Y13474705
X12741699Y14211305
X11921701Y14211305
X13783099Y13474705
X12963101Y13474705
X15865899Y14211305
X15045901Y14211305
X16907299Y13474705
X16087301Y13474705
X19015499Y14211305
X18195501Y14211305
X20031499Y13474705
X19211501Y13474705
X21301499Y13106405
X20481501Y13106405
X23396999Y13843005
X22577001Y13843005
X24425699Y13106405
X23605701Y13106405
X06721899Y13843005
X05901901Y13843005
X07763299Y13106405
X06943301Y13106405
X09846099Y13843005
X09026101Y13843005
X10887499Y13106405
X10067501Y13106405
X12970299Y13843005
X12150301Y13843005
X14011699Y13106405
X13191701Y13106405
X16094499Y13843005
X15274501Y13843005
X17135899Y13106405
X16315901Y13106405
X19231399Y13843005
X18411401Y13843005
X20260099Y13106405
X19440101Y13106405
X22139699Y14211305
X21319701Y14211305
X23155699Y13474705
X22335701Y13474705
X25263899Y14211305
X24443901Y14211305
X26521199Y13843005
X25701201Y13843005
X06493299Y13474705
X05673301Y13474705
X08576099Y14211305
X07756101Y14211305
X09617499Y13474705
X08797501Y13474705
X11700299Y14211305
X10880301Y14211305
X12741699Y13474705
X11921701Y13474705
X14824499Y14211305
X14004501Y14211305
X15865899Y13474705
X15045901Y13474705
X17974099Y14211305
X17154101Y14211305
X18990099Y13474705
X18170101Y13474705
X21098299Y14211305
X20278301Y14211305
X22355599Y13843005
X21535601Y13843005
X23384299Y13106405
X22564301Y13106405
X25479799Y13843005
X24659801Y13843005
X26279899Y13474705
X25459901Y13474705
X06721899Y13106405
X05901901Y13106405
X08804699Y13843005
X07984701Y13843005
X09846099Y13106405
X09026101Y13106405
X11928899Y13843005
X11108901Y13843005
X12970299Y13106405
X12150301Y13106405
X15053099Y13843005
X14233101Y13843005
X16094499Y13106405
X15274501Y13106405
X18177299Y13843005
X17357301Y13843005
X19218699Y13106405
X18398701Y13106405
X21314199Y13843005
X20494201Y13843005
X22114299Y13474705
X21294301Y13474705
X24222499Y14211305
X23402501Y14211305
X25238499Y13474705
X24418501Y13474705
X26508499Y13106405
X25688501Y13106405
X07534699Y14211305
X06714701Y14211305
X08576099Y13474705
X07756101Y13474705
X10658899Y14211305
X09838901Y14211305
X11700299Y13474705
X10880301Y13474705
X13783099Y14211305
X12963101Y14211305
X14824499Y13474705
X14004501Y13474705
X16907299Y14211305
X16087301Y14211305
X17948699Y13474705
X17128701Y13474705
X20056899Y14211305
X19236901Y14211305
X21072899Y13474705
X20252901Y13474705
X22342899Y13106405
X21522901Y13106405
X24438399Y13843005
X23618401Y13843005
X25467099Y13106405
X24647101Y13106405
X27346699Y14211305
X26526701Y14211305
X07763299Y13843005
X06943301Y13843005
X08804699Y13106405
X07984701Y13106405
X10887499Y13843005
X10067501Y13843005
X11928899Y13106405
X11108901Y13106405
X14011699Y13843005
X13191701Y13843005
X15053099Y13106405
X14233101Y13106405
X17135899Y13843005
X16315901Y13843005
X23181099Y14211305
X22361101Y14211305
X24197099Y13474705
X23377101Y13474705
X26305299Y14211305
X25485301Y14211305
X27562599Y13843005
X26742601Y13843005
X18177299Y13106405
X17357301Y13106405
X20272799Y13843005
X19452801Y13843005
X27588002Y13106405
X26768003Y13106405
X27359399Y13474705
X26539401Y13474705
T03
X02616200Y07386599
X02616200Y07186600
X02616200Y06986600
X02616200Y06786601
X31076900Y13327101
X31076900Y13527100
X31076900Y13727100
X31076900Y13927099
X12857201Y02286000
X13057200Y02286000
X13257200Y02286000
X13457199Y02286000
X29362400Y06710401
X29362400Y06910400
X29362400Y07110400
X29362400Y07310399
T04
X11087100Y01536700
X11087100Y01282700
X11341100Y01536700
X11341100Y01282700
X11595100Y01536700
X11595100Y01282700
X11849100Y01536700
X11849100Y01282700
X14960600Y01358900
X14960600Y01612900
X14706600Y01358900
X14706600Y01612900
X14452600Y01358900
X14452600Y01612900
X14198600Y01358900
X14198600Y01612900
T05
X19621500Y09309100
X20256500Y09563100
X02476500Y09309100
X03111500Y09563100
X04381500Y09309100
X05016500Y09563100
X06286500Y09309100
X06921500Y09563100
X08191500Y09309100
X08826500Y09563100
X10096500Y09309100
X10731500Y09563100
X12001500Y09309100
X12636500Y09563100
X13906500Y09309100
X14541500Y09563100
X15811500Y09309100
X16446500Y09563100
X17716500Y09309100
X18351500Y09563100
X00570998Y11684977
X01205998Y11938977
X04381500Y11684000
X05016500Y11938000
X08191500Y11684000
X08826500Y11938000
X06286500Y11684000
X06921500Y11938000
X14859000Y11684000
X15494000Y11938000
X16764000Y11684000
X17399000Y11938000
X12954000Y11684000
X13589000Y11938000
X10096500Y11684000
X10731500Y11938000
X21526500Y11684000
X22161500Y11938000
X23431500Y11684000
X24066500Y11938000
X27241500Y11684000
X27876500Y11938000
X25336500Y11684000
X25971500Y11938000
X18669000Y11684000
X19304000Y11938000
X21526500Y09309100
X22161500Y09563100
X23431500Y09309100
X24066500Y09563100
X00571500Y09309100
X01206500Y09563100
X01047997Y07403986
X01682997Y07657986
X03429000Y07404100
X04064000Y07658100
X07239000Y07404100
X07874000Y07658100
X05334000Y07404100
X05969000Y07658100
X12954000Y07404100
X13589000Y07658100
X14859000Y07404100
X15494000Y07658100
X11049000Y07404100
X11684000Y07658100
X09144000Y07404100
X09779000Y07658100
X18669000Y07404100
X19304000Y07658100
X20574000Y07404100
X21209000Y07658100
X24384000Y07404100
X25019000Y07658100
X22479000Y07404100
X23114000Y07658100
X16764000Y07404100
X17399000Y07658100
X26764946Y07402986
X27399946Y07656986
X26289000Y09309100
X26924000Y09563100
X30099000Y05499100
X30734000Y05753100
X30099000Y03594100
X30734000Y03848100
X18199100Y03594100
X18834100Y03848100
X24638000Y03594100
X25273000Y03848100
X27717944Y03111994
X28352944Y03365994
X22009100Y03594100
X22644100Y03848100
X20104100Y03594100
X20739100Y03848100
X10579100Y03594100
X11214100Y03848100
X12484100Y03594100
X13119100Y03848100
X16294100Y03594100
X16929100Y03848100
X14389100Y03594100
X15024100Y03848100
X06769100Y03594100
X07404100Y03848100
X08674100Y03594100
X09309100Y03848100
X04864100Y03594100
X05499100Y03848100
X01761996Y03593993
X02396996Y03847993
X01286997Y05498990
X01921997Y05752990
X03911600Y05499100
X04546600Y05753100
X07721600Y05499100
X08356600Y05753100
X05816600Y05499100
X06451600Y05753100
X13436600Y05499100
X14071600Y05753100
X15341600Y05499100
X15976600Y05753100
X11531600Y05499100
X12166600Y05753100
X09626600Y05499100
X10261600Y05753100
X19151600Y05499100
X19786600Y05753100
X21056600Y05499100
X21691600Y05753100
X26056947Y05497990
X26691947Y05751990
X22961600Y05499100
X23596600Y05753100
X17246600Y05499100
X17881600Y05753100
X00813998Y01688598
X01448998Y01942598
X03189993Y01688997
X03824993Y01942997
X12715974Y01688997
X13350974Y01942997
X05576988Y01688997
X06211988Y01942997
X21526500Y01689100
X22161500Y01943100
X23431500Y01689100
X24066500Y01943100
X19621500Y01689100
X20256500Y01943100
X30099000Y11684000
X30734000Y11938000
X27717944Y01206998
X28352944Y01460998
X25812948Y01206998
X26447948Y01460998
X29622940Y01206998
X30257940Y01460998
X30099000Y07404100
X30734000Y07658100
X30099000Y09309100
X30734000Y09563100
M30