G04 Layer: TopSolderMaskLayer*
G04 EasyEDA Pro v2.1.51.8c9149c1.e57db4, 2024-03-19 08:44:46*
G04 Gerber Generator version 0.3*
G04 Scale: 100 percent, Rotated: No, Reflected: No*
G04 Dimensions in millimeters*
G04 Leading zeros omitted, absolute positions, 3 integers and 5 decimals*
%FSLAX35Y35*%
%MOMM*%
%AMRoundRect*1,1,$1,$2,$3*1,1,$1,$4,$5*1,1,$1,0-$2,0-$3*1,1,$1,0-$4,0-$5*20,1,$1,$2,$3,$4,$5,0*20,1,$1,$4,$5,0-$2,0-$3,0*20,1,$1,0-$2,0-$3,0-$4,0-$5,0*20,1,$1,0-$4,0-$5,$2,$3,0*4,1,4,$2,$3,$4,$5,0-$2,0-$3,0-$4,0-$5,$2,$3,0*%
%AMOval*1,1,$1,$2,$3*1,1,$1,$4,$5*20,1,$1,$2,$3,$4,$5,0*%
%ADD10RoundRect,0.08771X0.27695X0.40199X0.27695X-0.40199*%
%ADD11C,2.4892*%
%ADD12RoundRect,0.07502X-0.4773X-0.3182X0.3182X0.4773*%
%ADD13RoundRect,0.07502X0.3182X-0.4773X-0.4773X0.3182*%
%ADD14RoundRect,0.07502X0.4773X0.3182X-0.3182X-0.4773*%
%ADD15RoundRect,0.0801X-0.3182X0.4773X0.4773X-0.3182*%
%ADD16RoundRect,0.07502X-0.3182X0.4773X0.4773X-0.3182*%
%ADD17RoundRect,0.09699X-2.19417X0.0X0.0X2.19417*%
%ADD18RoundRect,0.09368X-1.25396X0.55396X1.25396X0.55396*%
%ADD19RoundRect,0.09754X-1.17203X1.80203X1.17203X1.80203*%
%ADD20RoundRect,0.08109X0.16026X-0.66026X-0.16026X-0.66026*%
%ADD21Oval,1.3016X0.0X-0.3X0.0X0.3*%
%ADD22Oval,1.3016X0.0X-0.4X0.0X0.4*%
%ADD23RoundRect,0.08771X-0.27695X-0.40199X-0.27695X0.40199*%
%ADD24RoundRect,0.08771X-0.48008X-0.08842X0.08842X0.48008*%
%ADD25RoundRect,0.08771X0.08842X-0.48008X-0.48008X0.08842*%
%ADD26RoundRect,0.08771X0.48008X0.08842X-0.08842X-0.48008*%
%ADD27RoundRect,0.08771X0.40199X-0.27695X-0.40199X-0.27695*%
%ADD28RoundRect,0.08771X-0.08842X0.48008X0.48008X-0.08842*%
%ADD29RoundRect,0.08771X-0.40199X0.27695X0.40199X0.27695*%
%ADD30O,2.35161X0.7316*%
%ADD31RoundRect,0.09138X-0.40835X0.43712X0.40835X0.43712*%
%ADD32RoundRect,0.0944X-0.6186X0.6836X0.6186X0.6836*%
%ADD33RoundRect,0.09424X-0.70368X0.60368X0.70368X0.60368*%
%ADD34RoundRect,0.09138X0.40835X-0.43712X-0.40835X-0.43712*%
%ADD35C,1.7016*%
%ADD36RoundRect,0.09138X-0.43712X-0.40835X-0.43712X0.40835*%
%ADD37RoundRect,0.09138X0.43712X0.40835X0.43712X-0.40835*%
%ADD38C,1.5016*%
%ADD39RoundRect,0.09516X-0.70322X-0.76522X-0.70322X0.76522*%
%ADD40RoundRect,0.09516X0.70322X0.76522X0.70322X-0.76522*%
%ADD41RoundRect,0.09516X0.76522X-0.70322X-0.76522X-0.70322*%
%ADD42RoundRect,0.09618X-0.85271X0.85271X0.85271X0.85271*%
%ADD43C,1.8016*%
%ADD44RoundRect,0.09618X0.85271X-0.85271X-0.85271X-0.85271*%
%ADD45RoundRect,0.08875X-0.43143X0.30643X0.43143X0.30643*%
%ADD46RoundRect,0.08875X0.43143X-0.30643X-0.43143X-0.30643*%
%ADD47C,0.5*%
G75*


G04 Pad Start*
G54D10*
G01X762000Y11074400D03*
G01X762000Y10960100D03*
G54D11*
G01X19621500Y9309100D03*
G01X20256500Y9563100D03*
G01X2476500Y9309100D03*
G01X3111500Y9563100D03*
G01X4381500Y9309100D03*
G01X5016500Y9563100D03*
G01X6286500Y9309100D03*
G01X6921500Y9563100D03*
G01X8191500Y9309100D03*
G01X8826500Y9563100D03*
G01X10096500Y9309100D03*
G01X10731500Y9563100D03*
G01X12001500Y9309100D03*
G01X12636500Y9563100D03*
G01X13906500Y9309100D03*
G01X14541500Y9563100D03*
G01X15811500Y9309100D03*
G01X16446500Y9563100D03*
G01X17716500Y9309100D03*
G01X18351500Y9563100D03*
G54D12*
G01X3502122Y13471010D03*
G01X3530410Y13442722D03*
G01X3558698Y13414434D03*
G01X3586985Y13386146D03*
G01X3615255Y13357877D03*
G01X3643543Y13329589D03*
G01X3671831Y13301301D03*
G01X3700119Y13273013D03*
G01X3728407Y13244725D03*
G01X3756676Y13216455D03*
G01X3784964Y13188168D03*
G01X3813252Y13159880D03*
G01X3841540Y13131592D03*
G01X3869828Y13103304D03*
G54D13*
G01X4004190Y13103322D03*
G01X4032460Y13131592D03*
G01X4060748Y13159880D03*
G01X4089036Y13188168D03*
G01X4117323Y13216455D03*
G01X4145611Y13244743D03*
G01X4173881Y13273013D03*
G01X4202169Y13301301D03*
G01X4230457Y13329589D03*
G01X4258745Y13357877D03*
G01X4287032Y13386164D03*
G01X4315302Y13414434D03*
G01X4343590Y13442722D03*
G01X4371878Y13471010D03*
G54D14*
G01X4371896Y13605372D03*
G01X4343608Y13633660D03*
G01X4315320Y13661948D03*
G01X4287032Y13690236D03*
G01X4258745Y13718524D03*
G01X4230475Y13746793D03*
G01X4202187Y13775081D03*
G01X4173899Y13803369D03*
G01X4145611Y13831657D03*
G01X4117323Y13859945D03*
G01X4089054Y13888215D03*
G01X4060766Y13916502D03*
G01X4032478Y13944790D03*
G01X4004190Y13973078D03*
G54D16*
G01X3869828Y13973060D03*
G01X3841540Y13944772D03*
G01X3813252Y13916484D03*
G01X3784982Y13888215D03*
G01X3756694Y13859927D03*
G01X3728407Y13831639D03*
G01X3700119Y13803351D03*
G01X3671831Y13775063D03*
G01X3643561Y13746793D03*
G01X3615273Y13718506D03*
G01X3586985Y13690218D03*
G01X3558698Y13661930D03*
G01X3530410Y13633642D03*
G01X3502140Y13605372D03*
G54D17*
G01X3937000Y13538200D03*
G54D18*
G01X1122495Y12978003D03*
G01X1122495Y13208000D03*
G01X1122495Y13437997D03*
G54D19*
G01X528503Y13208000D03*
G54D20*
G01X1813306Y13874986D03*
G01X1763293Y13874986D03*
G01X1713306Y13874986D03*
G01X1663294Y13874986D03*
G01X1613306Y13874986D03*
G01X1563294Y13874986D03*
G01X1513332Y13874986D03*
G01X1463294Y13874986D03*
G01X1973301Y13874986D03*
G01X1943303Y13874986D03*
G01X1893291Y13874986D03*
G01X1863293Y13874986D03*
G01X1413307Y13874986D03*
G01X1383284Y13874986D03*
G01X1333297Y13874986D03*
G01X1303299Y13874986D03*
G54D21*
G01X1205789Y14369811D03*
G54D22*
G01X1205789Y13951821D03*
G01X2070811Y13951821D03*
G54D21*
G01X2070811Y14369811D03*
G54D23*
G01X1397000Y13266217D03*
G01X1397000Y13157200D03*
G01X1562100Y13266217D03*
G01X1562100Y13157200D03*
G54D24*
G01X3365500Y13335000D03*
G01X3288414Y13257914D03*
G01X3619500Y13081000D03*
G01X3542414Y13003914D03*
G54D25*
G01X4406457Y13208443D03*
G01X4483543Y13131357D03*
G54D26*
G01X4393757Y13855257D03*
G01X4470843Y13932343D03*
G01X4127500Y14097000D03*
G01X4204586Y14174086D03*
G54D27*
G01X3857092Y12852400D03*
G01X3966108Y12852400D03*
G54D25*
G01X3416300Y14287500D03*
G01X3493386Y14210414D03*
G54D28*
G01X3416743Y14134657D03*
G01X3339657Y14211743D03*
G54D29*
G01X3953408Y14211300D03*
G01X3844392Y14211300D03*
G54D27*
G01X3844392Y14325600D03*
G01X3953408Y14325600D03*
G54D30*
G01X2626309Y13004800D03*
G01X2626309Y13131800D03*
G01X2626309Y13258800D03*
G01X2626309Y13385800D03*
G01X1920291Y13004800D03*
G01X1920291Y13131800D03*
G01X1920291Y13258800D03*
G01X1920291Y13385800D03*
G54D27*
G01X1571092Y12941300D03*
G01X1680108Y12941300D03*
G54D31*
G01X3110636Y12915900D03*
G01X2959964Y12915900D03*
G01X5155336Y14249400D03*
G01X5004664Y14249400D03*
G54D32*
G01X124409Y13690600D03*
G01X561391Y13690600D03*
G54D33*
G01X5050485Y13055600D03*
G01X5270500Y13055600D03*
G01X5270500Y13225602D03*
G01X5050485Y13225602D03*
G54D27*
G01X5114392Y12877800D03*
G01X5223408Y12877800D03*
G01X5114392Y13398500D03*
G01X5223408Y13398500D03*
G54D34*
G01X4561027Y13550900D03*
G01X4711700Y13550900D03*
G01X2948127Y13690600D03*
G01X3098800Y13690600D03*
G01X2947264Y13843000D03*
G01X3097936Y13843000D03*
G54D31*
G01X2602636Y14338300D03*
G01X2451964Y14338300D03*
G54D32*
G01X124409Y14224000D03*
G01X561391Y14224000D03*
G54D11*
G01X570998Y11684977D03*
G01X1205998Y11938977D03*
G01X4381500Y11684000D03*
G01X5016500Y11938000D03*
G01X8191500Y11684000D03*
G01X8826500Y11938000D03*
G01X6286500Y11684000D03*
G01X6921500Y11938000D03*
G01X14859000Y11684000D03*
G01X15494000Y11938000D03*
G01X16764000Y11684000D03*
G01X17399000Y11938000D03*
G01X12954000Y11684000D03*
G01X13589000Y11938000D03*
G01X10096500Y11684000D03*
G01X10731500Y11938000D03*
G01X21526500Y11684000D03*
G01X22161500Y11938000D03*
G01X23431500Y11684000D03*
G01X24066500Y11938000D03*
G01X27241500Y11684000D03*
G01X27876500Y11938000D03*
G01X25336500Y11684000D03*
G01X25971500Y11938000D03*
G01X18669000Y11684000D03*
G01X19304000Y11938000D03*
G01X21526500Y9309100D03*
G01X22161500Y9563100D03*
G01X23431500Y9309100D03*
G01X24066500Y9563100D03*
G01X571500Y9309100D03*
G01X1206500Y9563100D03*
G01X1047997Y7403986D03*
G01X1682997Y7657986D03*
G01X3429000Y7404100D03*
G01X4064000Y7658100D03*
G01X7239000Y7404100D03*
G01X7874000Y7658100D03*
G01X5334000Y7404100D03*
G01X5969000Y7658100D03*
G01X12954000Y7404100D03*
G01X13589000Y7658100D03*
G01X14859000Y7404100D03*
G01X15494000Y7658100D03*
G01X11049000Y7404100D03*
G01X11684000Y7658100D03*
G01X9144000Y7404100D03*
G01X9779000Y7658100D03*
G01X18669000Y7404100D03*
G01X19304000Y7658100D03*
G01X20574000Y7404100D03*
G01X21209000Y7658100D03*
G01X24384000Y7404100D03*
G01X25019000Y7658100D03*
G01X22479000Y7404100D03*
G01X23114000Y7658100D03*
G01X16764000Y7404100D03*
G01X17399000Y7658100D03*
G01X26764946Y7402986D03*
G01X27399946Y7656986D03*
G01X26289000Y9309100D03*
G01X26924000Y9563100D03*
G01X30099000Y5499100D03*
G01X30734000Y5753100D03*
G01X30099000Y3594100D03*
G01X30734000Y3848100D03*
G01X18199100Y3594100D03*
G01X18834100Y3848100D03*
G01X24638000Y3594100D03*
G01X25273000Y3848100D03*
G01X27717944Y3111994D03*
G01X28352944Y3365994D03*
G01X22009100Y3594100D03*
G01X22644100Y3848100D03*
G01X20104100Y3594100D03*
G01X20739100Y3848100D03*
G01X10579100Y3594100D03*
G01X11214100Y3848100D03*
G01X12484100Y3594100D03*
G01X13119100Y3848100D03*
G01X16294100Y3594100D03*
G01X16929100Y3848100D03*
G01X14389100Y3594100D03*
G01X15024100Y3848100D03*
G01X6769100Y3594100D03*
G01X7404100Y3848100D03*
G01X8674100Y3594100D03*
G01X9309100Y3848100D03*
G01X4864100Y3594100D03*
G01X5499100Y3848100D03*
G01X1761996Y3593993D03*
G01X2396996Y3847993D03*
G01X1286997Y5498990D03*
G01X1921997Y5752990D03*
G01X3911600Y5499100D03*
G01X4546600Y5753100D03*
G01X7721600Y5499100D03*
G01X8356600Y5753100D03*
G01X5816600Y5499100D03*
G01X6451600Y5753100D03*
G01X13436600Y5499100D03*
G01X14071600Y5753100D03*
G01X15341600Y5499100D03*
G01X15976600Y5753100D03*
G01X11531600Y5499100D03*
G01X12166600Y5753100D03*
G01X9626600Y5499100D03*
G01X10261600Y5753100D03*
G01X19151600Y5499100D03*
G01X19786600Y5753100D03*
G01X21056600Y5499100D03*
G01X21691600Y5753100D03*
G01X26056947Y5497990D03*
G01X26691947Y5751990D03*
G01X22961600Y5499100D03*
G01X23596600Y5753100D03*
G01X17246600Y5499100D03*
G01X17881600Y5753100D03*
G01X813998Y1688598D03*
G01X1448998Y1942598D03*
G01X3189993Y1688997D03*
G01X3824993Y1942997D03*
G01X12715974Y1688997D03*
G01X13350974Y1942997D03*
G01X5576988Y1688997D03*
G01X6211988Y1942997D03*
G01X21526500Y1689100D03*
G01X22161500Y1943100D03*
G01X23431500Y1689100D03*
G01X24066500Y1943100D03*
G01X19621500Y1689100D03*
G01X20256500Y1943100D03*
G01X30099000Y11684000D03*
G01X30734000Y11938000D03*
G01X27717944Y1206998D03*
G01X28352944Y1460998D03*
G01X25812948Y1206998D03*
G01X26447948Y1460998D03*
G01X29622940Y1206998D03*
G01X30257940Y1460998D03*
G54D35*
G01X6493304Y14211303D03*
G01X5673291Y14211303D03*
G01X7534704Y13474703D03*
G01X6714691Y13474703D03*
G01X9617504Y14211303D03*
G01X8797491Y14211303D03*
G01X10658904Y13474703D03*
G01X9838891Y13474703D03*
G01X12741704Y14211303D03*
G01X11921691Y14211303D03*
G01X13783104Y13474703D03*
G01X12963091Y13474703D03*
G01X15865904Y14211303D03*
G01X15045891Y14211303D03*
G01X16907304Y13474703D03*
G01X16087291Y13474703D03*
G01X19015504Y14211303D03*
G01X18195491Y14211303D03*
G01X20031504Y13474703D03*
G01X19211491Y13474703D03*
G01X21301504Y13106403D03*
G01X20481491Y13106403D03*
G01X23397004Y13843003D03*
G01X22576991Y13843003D03*
G01X24425704Y13106403D03*
G01X23605691Y13106403D03*
G01X6721904Y13843003D03*
G01X5901891Y13843003D03*
G01X7763304Y13106403D03*
G01X6943291Y13106403D03*
G01X9846104Y13843003D03*
G01X9026091Y13843003D03*
G01X10887504Y13106403D03*
G01X10067491Y13106403D03*
G01X12970304Y13843003D03*
G01X12150291Y13843003D03*
G01X14011704Y13106403D03*
G01X13191691Y13106403D03*
G01X16094504Y13843003D03*
G01X15274491Y13843003D03*
G01X17135904Y13106403D03*
G01X16315891Y13106403D03*
G01X19231404Y13843003D03*
G01X18411391Y13843003D03*
G01X20260104Y13106403D03*
G01X19440091Y13106403D03*
G01X22139704Y14211303D03*
G01X21319691Y14211303D03*
G01X23155704Y13474703D03*
G01X22335691Y13474703D03*
G01X25263904Y14211303D03*
G01X24443891Y14211303D03*
G01X26521204Y13843003D03*
G01X25701191Y13843003D03*
G01X6493304Y13474703D03*
G01X5673291Y13474703D03*
G01X8576104Y14211303D03*
G01X7756091Y14211303D03*
G01X9617504Y13474703D03*
G01X8797491Y13474703D03*
G01X11700304Y14211303D03*
G01X10880291Y14211303D03*
G01X12741704Y13474703D03*
G01X11921691Y13474703D03*
G01X14824504Y14211303D03*
G01X14004491Y14211303D03*
G01X15865904Y13474703D03*
G01X15045891Y13474703D03*
G01X17974104Y14211303D03*
G01X17154091Y14211303D03*
G01X18990104Y13474703D03*
G01X18170091Y13474703D03*
G01X21098304Y14211303D03*
G01X20278291Y14211303D03*
G01X22355604Y13843003D03*
G01X21535591Y13843003D03*
G01X23384304Y13106403D03*
G01X22564291Y13106403D03*
G01X25479804Y13843003D03*
G01X24659791Y13843003D03*
G01X26279904Y13474703D03*
G01X25459891Y13474703D03*
G01X6721904Y13106403D03*
G01X5901891Y13106403D03*
G01X8804704Y13843003D03*
G01X7984691Y13843003D03*
G01X9846104Y13106403D03*
G01X9026091Y13106403D03*
G01X11928904Y13843003D03*
G01X11108891Y13843003D03*
G01X12970304Y13106403D03*
G01X12150291Y13106403D03*
G01X15053104Y13843003D03*
G01X14233091Y13843003D03*
G01X16094504Y13106403D03*
G01X15274491Y13106403D03*
G01X18177304Y13843003D03*
G01X17357291Y13843003D03*
G01X19218704Y13106403D03*
G01X18398691Y13106403D03*
G01X21314204Y13843003D03*
G01X20494191Y13843003D03*
G01X22114304Y13474703D03*
G01X21294291Y13474703D03*
G01X24222504Y14211303D03*
G01X23402491Y14211303D03*
G01X25238504Y13474703D03*
G01X24418491Y13474703D03*
G01X26508504Y13106403D03*
G01X25688491Y13106403D03*
G01X7534704Y14211303D03*
G01X6714691Y14211303D03*
G01X8576104Y13474703D03*
G01X7756091Y13474703D03*
G01X10658904Y14211303D03*
G01X9838891Y14211303D03*
G01X11700304Y13474703D03*
G01X10880291Y13474703D03*
G01X13783104Y14211303D03*
G01X12963091Y14211303D03*
G01X14824504Y13474703D03*
G01X14004491Y13474703D03*
G01X16907304Y14211303D03*
G01X16087291Y14211303D03*
G01X17948704Y13474703D03*
G01X17128691Y13474703D03*
G01X20056904Y14211303D03*
G01X19236891Y14211303D03*
G01X21072904Y13474703D03*
G01X20252891Y13474703D03*
G01X22342904Y13106403D03*
G01X21522891Y13106403D03*
G01X24438404Y13843003D03*
G01X23618391Y13843003D03*
G01X25467104Y13106403D03*
G01X24647091Y13106403D03*
G01X27346704Y14211303D03*
G01X26526691Y14211303D03*
G01X7763304Y13843003D03*
G01X6943291Y13843003D03*
G01X8804704Y13106403D03*
G01X7984691Y13106403D03*
G01X10887504Y13843003D03*
G01X10067491Y13843003D03*
G01X11928904Y13106403D03*
G01X11108891Y13106403D03*
G01X14011704Y13843003D03*
G01X13191691Y13843003D03*
G01X15053104Y13106403D03*
G01X14233091Y13106403D03*
G01X17135904Y13843003D03*
G01X16315891Y13843003D03*
G01X23181104Y14211303D03*
G01X22361091Y14211303D03*
G01X24197104Y13474703D03*
G01X23377091Y13474703D03*
G01X26305304Y14211303D03*
G01X25485291Y14211303D03*
G01X27562604Y13843003D03*
G01X26742591Y13843003D03*
G54D11*
G01X30099000Y7404100D03*
G01X30734000Y7658100D03*
G54D35*
G01X18177304Y13106403D03*
G01X17357291Y13106403D03*
G54D11*
G01X30099000Y9309100D03*
G01X30734000Y9563100D03*
G54D35*
G01X20272804Y13843003D03*
G01X19452791Y13843003D03*
G54D36*
G01X5283200Y13957300D03*
G01X5283200Y13806627D03*
G54D31*
G01X2602636Y14173200D03*
G01X2451964Y14173200D03*
G01X2601773Y14008100D03*
G01X2451100Y14008100D03*
G01X2488336Y13728700D03*
G01X2337664Y13728700D03*
G54D37*
G01X2908300Y14085164D03*
G01X2908300Y14235836D03*
G54D36*
G01X4902200Y13957300D03*
G01X4902200Y13806627D03*
G54D38*
G01X2616200Y7386599D03*
G01X2616200Y7186600D03*
G01X2616200Y6986600D03*
G54D39*
G01X2616200Y6786601D03*
G54D38*
G01X31076900Y13327101D03*
G01X31076900Y13527100D03*
G01X31076900Y13727100D03*
G54D40*
G01X31076900Y13927099D03*
G54D38*
G01X12857201Y2286000D03*
G01X13057200Y2286000D03*
G01X13257200Y2286000D03*
G54D41*
G01X13457199Y2286000D03*
G54D38*
G01X29362400Y6710401D03*
G01X29362400Y6910400D03*
G01X29362400Y7110400D03*
G54D40*
G01X29362400Y7310399D03*
G54D42*
G01X11087100Y1536700D03*
G54D43*
G01X11087100Y1282700D03*
G01X11341100Y1536700D03*
G01X11341100Y1282700D03*
G01X11595100Y1536700D03*
G01X11595100Y1282700D03*
G01X11849100Y1536700D03*
G01X11849100Y1282700D03*
G54D44*
G01X14960600Y1358900D03*
G54D43*
G01X14960600Y1612900D03*
G01X14706600Y1358900D03*
G01X14706600Y1612900D03*
G01X14452600Y1358900D03*
G01X14452600Y1612900D03*
G01X14198600Y1358900D03*
G01X14198600Y1612900D03*
G54D45*
G01X865505Y10946600D03*
G01X865505Y10846600D03*
G01X1039495Y10846600D03*
G01X1039495Y10946600D03*
G01X4675505Y10959300D03*
G01X4675505Y10859300D03*
G01X4849495Y10859300D03*
G01X4849495Y10959300D03*
G01X6580505Y10959300D03*
G01X6580505Y10859300D03*
G01X6754495Y10859300D03*
G01X6754495Y10959300D03*
G01X8485505Y10959300D03*
G01X8485505Y10859300D03*
G01X8659495Y10859300D03*
G01X8659495Y10959300D03*
G01X10390505Y10959300D03*
G01X10390505Y10859300D03*
G01X10564495Y10859300D03*
G01X10564495Y10959300D03*
G01X13248005Y10959300D03*
G01X13248005Y10859300D03*
G01X13421995Y10859300D03*
G01X13421995Y10959300D03*
G01X15153005Y10959300D03*
G01X15153005Y10859300D03*
G01X15326995Y10859300D03*
G01X15326995Y10959300D03*
G01X17058005Y10959300D03*
G01X17058005Y10859300D03*
G01X17231995Y10859300D03*
G01X17231995Y10959300D03*
G01X18963005Y10959300D03*
G01X18963005Y10859300D03*
G01X19136995Y10859300D03*
G01X19136995Y10959300D03*
G01X21820505Y10959300D03*
G01X21820505Y10859300D03*
G01X21994495Y10859300D03*
G01X21994495Y10959300D03*
G01X23725505Y10959300D03*
G01X23725505Y10859300D03*
G01X23899495Y10859300D03*
G01X23899495Y10959300D03*
G01X25630505Y10959300D03*
G01X25630505Y10859300D03*
G01X25804495Y10859300D03*
G01X25804495Y10959300D03*
G01X27535505Y10959300D03*
G01X27535505Y10859300D03*
G01X27709495Y10859300D03*
G01X27709495Y10959300D03*
G01X30393005Y10959300D03*
G01X30393005Y10859300D03*
G01X30566995Y10859300D03*
G01X30566995Y10959300D03*
G54D46*
G01X30566995Y8484400D03*
G01X30566995Y8584400D03*
G01X30393005Y8584400D03*
G01X30393005Y8484400D03*
G01X26756995Y8484400D03*
G01X26756995Y8584400D03*
G01X26583005Y8584400D03*
G01X26583005Y8484400D03*
G01X23899495Y8484400D03*
G01X23899495Y8584400D03*
G01X23725505Y8584400D03*
G01X23725505Y8484400D03*
G01X21994495Y8484400D03*
G01X21994495Y8584400D03*
G01X21820505Y8584400D03*
G01X21820505Y8484400D03*
G01X20089495Y8484400D03*
G01X20089495Y8584400D03*
G01X19915505Y8584400D03*
G01X19915505Y8484400D03*
G01X18184495Y8484400D03*
G01X18184495Y8584400D03*
G01X18010505Y8584400D03*
G01X18010505Y8484400D03*
G01X16279495Y8484400D03*
G01X16279495Y8584400D03*
G01X16105505Y8584400D03*
G01X16105505Y8484400D03*
G01X14374495Y8484400D03*
G01X14374495Y8584400D03*
G01X14200505Y8584400D03*
G01X14200505Y8484400D03*
G01X12469495Y8484400D03*
G01X12469495Y8584400D03*
G01X12295505Y8584400D03*
G01X12295505Y8484400D03*
G01X10564495Y8484400D03*
G01X10564495Y8584400D03*
G01X10390505Y8584400D03*
G01X10390505Y8484400D03*
G01X8659495Y8484400D03*
G01X8659495Y8584400D03*
G01X8485505Y8584400D03*
G01X8485505Y8484400D03*
G01X6754495Y8484400D03*
G01X6754495Y8584400D03*
G01X6580505Y8584400D03*
G01X6580505Y8484400D03*
G01X4849495Y8484400D03*
G01X4849495Y8584400D03*
G01X4675505Y8584400D03*
G01X4675505Y8484400D03*
G01X2944495Y8484400D03*
G01X2944495Y8584400D03*
G01X2770505Y8584400D03*
G01X2770505Y8484400D03*
G01X1039495Y8484400D03*
G01X1039495Y8584400D03*
G01X865505Y8584400D03*
G01X865505Y8484400D03*
G54D45*
G01X1335405Y6679400D03*
G01X1335405Y6579400D03*
G01X1509395Y6579400D03*
G01X1509395Y6679400D03*
G54D46*
G01X15809595Y4674400D03*
G01X15809595Y4774400D03*
G01X15635605Y4774400D03*
G01X15635605Y4674400D03*
G01X13904595Y4674400D03*
G01X13904595Y4774400D03*
G01X13730605Y4774400D03*
G01X13730605Y4674400D03*
G01X11999595Y4674400D03*
G01X11999595Y4774400D03*
G01X11825605Y4774400D03*
G01X11825605Y4674400D03*
G01X10094595Y4674400D03*
G01X10094595Y4774400D03*
G01X9920605Y4774400D03*
G01X9920605Y4674400D03*
G01X8189595Y4674400D03*
G01X8189595Y4774400D03*
G01X8015605Y4774400D03*
G01X8015605Y4674400D03*
G01X6284595Y4674400D03*
G01X6284595Y4774400D03*
G01X6110605Y4774400D03*
G01X6110605Y4674400D03*
G01X4379595Y4674400D03*
G01X4379595Y4774400D03*
G01X4205605Y4774400D03*
G01X4205605Y4674400D03*
G01X1750695Y4674400D03*
G01X1750695Y4774400D03*
G01X1576705Y4774400D03*
G01X1576705Y4674400D03*
G54D45*
G01X2059305Y2869400D03*
G01X2059305Y2769400D03*
G01X2233295Y2769400D03*
G01X2233295Y2869400D03*
G01X5158105Y2869400D03*
G01X5158105Y2769400D03*
G01X5332095Y2769400D03*
G01X5332095Y2869400D03*
G01X22773005Y6679400D03*
G01X22773005Y6579400D03*
G01X22946995Y6579400D03*
G01X22946995Y6679400D03*
G01X24678005Y6679400D03*
G01X24678005Y6579400D03*
G01X24851995Y6579400D03*
G01X24851995Y6679400D03*
G01X27052905Y6679400D03*
G01X27052905Y6579400D03*
G01X27226895Y6579400D03*
G01X27226895Y6679400D03*
G01X30393005Y6679400D03*
G01X30393005Y6579400D03*
G01X30566995Y6579400D03*
G01X30566995Y6679400D03*
G54D46*
G01X30566995Y4674400D03*
G01X30566995Y4774400D03*
G01X30393005Y4774400D03*
G01X30393005Y4674400D03*
G01X26528395Y4674400D03*
G01X26528395Y4774400D03*
G01X26354405Y4774400D03*
G01X26354405Y4674400D03*
G01X23429595Y4674400D03*
G01X23429595Y4774400D03*
G01X23255605Y4774400D03*
G01X23255605Y4674400D03*
G01X21524595Y4674400D03*
G01X21524595Y4774400D03*
G01X21350605Y4774400D03*
G01X21350605Y4674400D03*
G01X19619595Y4674400D03*
G01X19619595Y4774400D03*
G01X19445605Y4774400D03*
G01X19445605Y4674400D03*
G01X17714595Y4674400D03*
G01X17714595Y4774400D03*
G01X17540605Y4774400D03*
G01X17540605Y4674400D03*
G54D45*
G01X3723005Y6679400D03*
G01X3723005Y6579400D03*
G01X3896995Y6579400D03*
G01X3896995Y6679400D03*
G01X5628005Y6679400D03*
G01X5628005Y6579400D03*
G01X5801995Y6579400D03*
G01X5801995Y6679400D03*
G01X7533005Y6679400D03*
G01X7533005Y6579400D03*
G01X7706995Y6579400D03*
G01X7706995Y6679400D03*
G01X9438005Y6679400D03*
G01X9438005Y6579400D03*
G01X9611995Y6579400D03*
G01X9611995Y6679400D03*
G01X11343005Y6679400D03*
G01X11343005Y6579400D03*
G01X11516995Y6579400D03*
G01X11516995Y6679400D03*
G01X13248005Y6679400D03*
G01X13248005Y6579400D03*
G01X13421995Y6579400D03*
G01X13421995Y6679400D03*
G01X15153005Y6679400D03*
G01X15153005Y6579400D03*
G01X15326995Y6579400D03*
G01X15326995Y6679400D03*
G01X17058005Y6679400D03*
G01X17058005Y6579400D03*
G01X17231995Y6579400D03*
G01X17231995Y6679400D03*
G01X18963005Y6679400D03*
G01X18963005Y6579400D03*
G01X19136995Y6579400D03*
G01X19136995Y6679400D03*
G01X20868005Y6679400D03*
G01X20868005Y6579400D03*
G01X21041995Y6579400D03*
G01X21041995Y6679400D03*
G01X28005405Y2386800D03*
G01X28005405Y2286800D03*
G01X28179395Y2286800D03*
G01X28179395Y2386800D03*
G01X30393005Y2869400D03*
G01X30393005Y2769400D03*
G01X30566995Y2769400D03*
G01X30566995Y2869400D03*
G54D46*
G01X30090935Y384599D03*
G01X30090935Y484599D03*
G01X29916945Y484599D03*
G01X29916945Y384599D03*
G01X28192095Y381800D03*
G01X28192095Y481800D03*
G01X28018105Y481800D03*
G01X28018105Y381800D03*
G01X26287095Y381800D03*
G01X26287095Y481800D03*
G01X26113105Y481800D03*
G01X26113105Y381800D03*
G01X23899495Y864400D03*
G01X23899495Y964400D03*
G01X23725505Y964400D03*
G01X23725505Y864400D03*
G01X21994495Y864400D03*
G01X21994495Y964400D03*
G01X21820505Y964400D03*
G01X21820505Y864400D03*
G01X20089495Y864400D03*
G01X20089495Y964400D03*
G01X19915505Y964400D03*
G01X19915505Y864400D03*
G01X13193395Y864400D03*
G01X13193395Y964400D03*
G01X13019405Y964400D03*
G01X13019405Y864400D03*
G01X6043295Y864400D03*
G01X6043295Y964400D03*
G01X5869305Y964400D03*
G01X5869305Y864400D03*
G54D45*
G01X7063105Y2869400D03*
G01X7063105Y2769400D03*
G01X7237095Y2769400D03*
G01X7237095Y2869400D03*
G01X8968105Y2869400D03*
G01X8968105Y2769400D03*
G01X9142095Y2769400D03*
G01X9142095Y2869400D03*
G01X10873105Y2869400D03*
G01X10873105Y2769400D03*
G01X11047095Y2769400D03*
G01X11047095Y2869400D03*
G01X12778105Y2869400D03*
G01X12778105Y2769400D03*
G01X12952095Y2769400D03*
G01X12952095Y2869400D03*
G01X14683105Y2869400D03*
G01X14683105Y2769400D03*
G01X14857095Y2769400D03*
G01X14857095Y2869400D03*
G01X16588105Y2869400D03*
G01X16588105Y2769400D03*
G01X16762095Y2769400D03*
G01X16762095Y2869400D03*
G01X18493105Y2869400D03*
G01X18493105Y2769400D03*
G01X18667095Y2769400D03*
G01X18667095Y2869400D03*
G01X20398105Y2869400D03*
G01X20398105Y2769400D03*
G01X20572095Y2769400D03*
G01X20572095Y2869400D03*
G01X22303105Y2869400D03*
G01X22303105Y2769400D03*
G01X22477095Y2769400D03*
G01X22477095Y2869400D03*
G01X24932005Y2869400D03*
G01X24932005Y2769400D03*
G01X25105995Y2769400D03*
G01X25105995Y2869400D03*
G54D46*
G01X3655695Y864400D03*
G01X3655695Y964400D03*
G01X3481705Y964400D03*
G01X3481705Y864400D03*
G01X1280795Y864400D03*
G01X1280795Y964400D03*
G01X1106805Y964400D03*
G01X1106805Y864400D03*
G54D35*
G01X27588007Y13106403D03*
G01X26767993Y13106403D03*
G01X27359404Y13474703D03*
G01X26539391Y13474703D03*
G04 Pad End*

G04 Via Start*
G54D47*
G01X630923Y12563031D03*
G01X20508022Y5718604D03*
G01X21126450Y5276609D03*
G01X23089723Y13923986D03*
G01X3423924Y5740743D03*
G01X3981450Y5267239D03*
G01X4738376Y9473917D03*
G01X4897126Y7402226D03*
G01X6452879Y9564974D03*
G01X8593922Y13650302D03*
G01X7087849Y5867743D03*
G01X8510249Y7582246D03*
G01X11722100Y13652500D03*
G01X13825057Y13106403D03*
G01X12517139Y7402226D03*
G01X16017293Y3003092D03*
G01X15571360Y13834452D03*
G01X14707849Y5867743D03*
G01X17407344Y8325568D03*
G01X16903700Y13182600D03*
G01X16192500Y7404100D03*
G01X19051255Y8711393D03*
G01X16352424Y11441640D03*
G01X17878173Y8184304D03*
G01X9079135Y14211300D03*
G01X12112086Y14201190D03*
G01X18618200Y14211300D03*
G01X12580515Y13856187D03*
G01X16595193Y13106403D03*
G01X17097714Y14027153D03*
G01X18935700Y14020800D03*
G01X6924191Y14150704D03*
G01X8170867Y14150704D03*
G01X15198191Y13482657D03*
G01X20853400Y13970000D03*
G01X23207701Y14061144D03*
G01X6992116Y14021312D03*
G01X7965591Y13452941D03*
G01X14213991Y13393124D03*
G01X22959669Y13862223D03*
G01X23241000Y13855700D03*
G01X7538547Y13637091D03*
G01X8305800Y13512800D03*
G01X9025981Y13504419D03*
G01X12090400Y14389100D03*
G01X13817600Y13322300D03*
G01X18435283Y14348806D03*
G01X20149973Y13684294D03*
G01X20878800Y13220700D03*
G01X24053800Y13233400D03*
G01X25209500Y14387936D03*
G01X7538547Y13254019D03*
G01X6310369Y13508694D03*
G01X11115159Y13268791D03*
G01X9899585Y12905362D03*
G01X16378067Y13474703D03*
G01X16685253Y12934293D03*
G01X22140867Y13868444D03*
G01X24704195Y14179907D03*
G01X453999Y7417985D03*
G01X834803Y5740688D03*
G01X1320800Y3594100D03*
G01X4483100Y13131800D03*
G01X12580515Y14212528D03*
G01X21741856Y13797919D03*
G01X20866100Y13817600D03*
G01X24968200Y13462000D03*
G01X12661900Y13919200D03*
G01X12742867Y13318323D03*
G01X13600169Y13462551D03*
G01X13600169Y13679807D03*
G01X15361083Y14123344D03*
G01X29667200Y7315200D03*
G01X21656112Y9603423D03*
G01X22265714Y5806459D03*
G01X25019000Y12471400D03*
G01X16662400Y12344400D03*
G01X15560092Y12335881D03*
G01X5122178Y12679937D03*
G01X4774553Y13336818D03*
G01X26532928Y8122042D03*
G01X23507700Y7632700D03*
G01X27142530Y5806459D03*
G01X30213300Y12039600D03*
G01X30412419Y12366165D03*
G01X30174525Y11900701D03*
G01X21259800Y6908800D03*
G01X3009900Y13144500D03*
G01X3806992Y12997974D03*
G01X4076700Y12966700D03*
G01X208695Y12090400D03*
G01X2238553Y7209171D03*
G01X21633906Y14206246D03*
G01X22851461Y13870773D03*
G01X14450993Y14150478D03*
G01X20863270Y14379146D03*
G01X14028279Y12921909D03*
G01X906539Y5607764D03*
G01X17399000Y1193800D03*
G01X21220355Y567226D03*
G01X25463500Y457200D03*
G01X3477123Y5184803D03*
G01X200048Y1447800D03*
G01X723900Y571500D03*
G01X1539245Y12500015D03*
G01X13780288Y1334771D03*
G01X31005984Y8462134D03*
G01X11291460Y14215947D03*
G01X1605746Y5564761D03*
G04 Via End*

M02*
