G04 Layer: BottomPasteMaskLayer*
G04 EasyEDA Pro v2.1.51.8c9149c1.e57db4, 2024-03-19 08:44:46*
G04 Gerber Generator version 0.3*
G04 Scale: 100 percent, Rotated: No, Reflected: No*
G04 Dimensions in millimeters*
G04 Leading zeros omitted, absolute positions, 3 integers and 5 decimals*
%FSLAX35Y35*%
%MOMM*%
%ADD10R,1.5X1.0*%
%ADD11R,1.5X1.0*%
%ADD12R,1.0X1.5*%
%ADD13R,1.0X1.5*%
G75*


G04 Pad Start*
G54D10*
G01X17242600Y444411D03*
G01X17242600Y114389D03*
G01X16742601Y114389D03*
G01X16742601Y444411D03*
G01X21179600Y444411D03*
G01X21179600Y114389D03*
G01X20679601Y114389D03*
G01X20679601Y444411D03*
G01X25459500Y457111D03*
G01X25459500Y127089D03*
G01X24959501Y127089D03*
G01X24959501Y457111D03*
G54D11*
G01X29137801Y127089D03*
G01X29137801Y457111D03*
G01X29637800Y457111D03*
G01X29637800Y127089D03*
G54D12*
G01X31318111Y1197801D03*
G01X30988089Y1197801D03*
G01X30988089Y1697800D03*
G01X31318111Y1697800D03*
G01X31305411Y4537901D03*
G01X30975389Y4537901D03*
G01X30975389Y5037900D03*
G01X31305411Y5037900D03*
G01X31305411Y8284401D03*
G01X30975389Y8284401D03*
G01X30975389Y8784400D03*
G01X31305411Y8784400D03*
G01X31305411Y11776901D03*
G01X30975389Y11776901D03*
G01X30975389Y12276900D03*
G01X31305411Y12276900D03*
G54D11*
G01X143701Y11925389D03*
G01X143701Y12255411D03*
G01X643700Y12255411D03*
G01X643700Y11925389D03*
G54D13*
G01X114389Y8784400D03*
G01X444411Y8784400D03*
G01X444411Y8284401D03*
G01X114389Y8284401D03*
G01X114389Y5037900D03*
G01X444411Y5037900D03*
G01X444411Y4537901D03*
G01X114389Y4537901D03*
G01X139789Y1697800D03*
G01X469811Y1697800D03*
G01X469811Y1197801D03*
G01X139789Y1197801D03*
G54D10*
G01X758000Y419011D03*
G01X758000Y88989D03*
G01X258001Y88989D03*
G01X258001Y419011D03*
G01X4796600Y431711D03*
G01X4796600Y101689D03*
G01X4296601Y101689D03*
G01X4296601Y431711D03*
G01X9089200Y444411D03*
G01X9089200Y114389D03*
G01X8589201Y114389D03*
G01X8589201Y444411D03*
G01X13102400Y444411D03*
G01X13102400Y114389D03*
G01X12602401Y114389D03*
G01X12602401Y444411D03*
G04 Pad End*

M02*
