G04 Layer: BottomSolderMaskLayer*
G04 EasyEDA Pro v2.1.51.8c9149c1.e57db4, 2024-03-19 08:44:46*
G04 Gerber Generator version 0.3*
G04 Scale: 100 percent, Rotated: No, Reflected: No*
G04 Dimensions in millimeters*
G04 Leading zeros omitted, absolute positions, 3 integers and 5 decimals*
%FSLAX35Y35*%
%MOMM*%
%AMOval*1,1,$1,$2,$3*1,1,$1,$4,$5*20,1,$1,$2,$3,$4,$5,0*%
%AMRoundRect*1,1,$1,$2,$3*1,1,$1,$4,$5*1,1,$1,0-$2,0-$3*1,1,$1,0-$4,0-$5*20,1,$1,$2,$3,$4,$5,0*20,1,$1,$4,$5,0-$2,0-$3,0*20,1,$1,0-$2,0-$3,0-$4,0-$5,0*20,1,$1,0-$4,0-$5,$2,$3,0*4,1,4,$2,$3,$4,$5,0-$2,0-$3,0-$4,0-$5,$2,$3,0*%
%ADD10C,2.4892*%
%ADD11Oval,1.3016X0.0X-0.3X0.0X0.3*%
%ADD12Oval,1.3016X0.0X-0.4X0.0X0.4*%
%ADD13RoundRect,0.09302X0.75429X-0.50429X-0.75429X-0.50429*%
%ADD14RoundRect,0.09302X-0.75429X0.50429X0.75429X0.50429*%
%ADD15RoundRect,0.09302X-0.50429X-0.75429X-0.50429X0.75429*%
%ADD16RoundRect,0.09302X0.50429X0.75429X0.50429X-0.75429*%
%ADD17C,1.7016*%
%ADD18C,1.5073*%
%ADD19C,1.5016*%
%ADD20RoundRect,0.09516X-0.70322X-0.76522X-0.70322X0.76522*%
%ADD21RoundRect,0.09516X0.70322X0.76522X0.70322X-0.76522*%
%ADD22RoundRect,0.09516X0.76522X-0.70322X-0.76522X-0.70322*%
%ADD23RoundRect,0.09618X-0.85271X0.85271X0.85271X0.85271*%
%ADD24C,1.8016*%
%ADD25RoundRect,0.09618X0.85271X-0.85271X-0.85271X-0.85271*%
%ADD26C,0.5*%
G75*


G04 Pad Start*
G54D10*
G01X19621500Y9309100D03*
G01X20256500Y9563100D03*
G01X2476500Y9309100D03*
G01X3111500Y9563100D03*
G01X4381500Y9309100D03*
G01X5016500Y9563100D03*
G01X6286500Y9309100D03*
G01X6921500Y9563100D03*
G01X8191500Y9309100D03*
G01X8826500Y9563100D03*
G01X10096500Y9309100D03*
G01X10731500Y9563100D03*
G01X12001500Y9309100D03*
G01X12636500Y9563100D03*
G01X13906500Y9309100D03*
G01X14541500Y9563100D03*
G01X15811500Y9309100D03*
G01X16446500Y9563100D03*
G01X17716500Y9309100D03*
G01X18351500Y9563100D03*
G54D11*
G01X1205789Y14369811D03*
G54D12*
G01X1205789Y13951821D03*
G01X2070811Y13951821D03*
G54D11*
G01X2070811Y14369811D03*
G54D13*
G01X17242600Y444411D03*
G01X17242600Y114389D03*
G01X16742601Y114389D03*
G01X16742601Y444411D03*
G01X21179600Y444411D03*
G01X21179600Y114389D03*
G01X20679601Y114389D03*
G01X20679601Y444411D03*
G01X25459500Y457111D03*
G01X25459500Y127089D03*
G01X24959501Y127089D03*
G01X24959501Y457111D03*
G54D14*
G01X29137801Y127089D03*
G01X29137801Y457111D03*
G01X29637800Y457111D03*
G01X29637800Y127089D03*
G54D15*
G01X31318111Y1197801D03*
G01X30988089Y1197801D03*
G01X30988089Y1697800D03*
G01X31318111Y1697800D03*
G01X31305411Y4537901D03*
G01X30975389Y4537901D03*
G01X30975389Y5037900D03*
G01X31305411Y5037900D03*
G01X31305411Y8284401D03*
G01X30975389Y8284401D03*
G01X30975389Y8784400D03*
G01X31305411Y8784400D03*
G01X31305411Y11776901D03*
G01X30975389Y11776901D03*
G01X30975389Y12276900D03*
G01X31305411Y12276900D03*
G54D14*
G01X143701Y11925389D03*
G01X143701Y12255411D03*
G01X643700Y12255411D03*
G01X643700Y11925389D03*
G54D16*
G01X114389Y8784400D03*
G01X444411Y8784400D03*
G01X444411Y8284401D03*
G01X114389Y8284401D03*
G01X114389Y5037900D03*
G01X444411Y5037900D03*
G01X444411Y4537901D03*
G01X114389Y4537901D03*
G01X139789Y1697800D03*
G01X469811Y1697800D03*
G01X469811Y1197801D03*
G01X139789Y1197801D03*
G54D13*
G01X758000Y419011D03*
G01X758000Y88989D03*
G01X258001Y88989D03*
G01X258001Y419011D03*
G01X4796600Y431711D03*
G01X4796600Y101689D03*
G01X4296601Y101689D03*
G01X4296601Y431711D03*
G01X9089200Y444411D03*
G01X9089200Y114389D03*
G01X8589201Y114389D03*
G01X8589201Y444411D03*
G01X13102400Y444411D03*
G01X13102400Y114389D03*
G01X12602401Y114389D03*
G01X12602401Y444411D03*
G54D10*
G01X570998Y11684977D03*
G01X1205998Y11938977D03*
G01X4381500Y11684000D03*
G01X5016500Y11938000D03*
G01X8191500Y11684000D03*
G01X8826500Y11938000D03*
G01X6286500Y11684000D03*
G01X6921500Y11938000D03*
G01X14859000Y11684000D03*
G01X15494000Y11938000D03*
G01X16764000Y11684000D03*
G01X17399000Y11938000D03*
G01X12954000Y11684000D03*
G01X13589000Y11938000D03*
G01X10096500Y11684000D03*
G01X10731500Y11938000D03*
G01X21526500Y11684000D03*
G01X22161500Y11938000D03*
G01X23431500Y11684000D03*
G01X24066500Y11938000D03*
G01X27241500Y11684000D03*
G01X27876500Y11938000D03*
G01X25336500Y11684000D03*
G01X25971500Y11938000D03*
G01X18669000Y11684000D03*
G01X19304000Y11938000D03*
G01X21526500Y9309100D03*
G01X22161500Y9563100D03*
G01X23431500Y9309100D03*
G01X24066500Y9563100D03*
G01X571500Y9309100D03*
G01X1206500Y9563100D03*
G01X1047997Y7403986D03*
G01X1682997Y7657986D03*
G01X3429000Y7404100D03*
G01X4064000Y7658100D03*
G01X7239000Y7404100D03*
G01X7874000Y7658100D03*
G01X5334000Y7404100D03*
G01X5969000Y7658100D03*
G01X12954000Y7404100D03*
G01X13589000Y7658100D03*
G01X14859000Y7404100D03*
G01X15494000Y7658100D03*
G01X11049000Y7404100D03*
G01X11684000Y7658100D03*
G01X9144000Y7404100D03*
G01X9779000Y7658100D03*
G01X18669000Y7404100D03*
G01X19304000Y7658100D03*
G01X20574000Y7404100D03*
G01X21209000Y7658100D03*
G01X24384000Y7404100D03*
G01X25019000Y7658100D03*
G01X22479000Y7404100D03*
G01X23114000Y7658100D03*
G01X16764000Y7404100D03*
G01X17399000Y7658100D03*
G01X26764946Y7402986D03*
G01X27399946Y7656986D03*
G01X26289000Y9309100D03*
G01X26924000Y9563100D03*
G01X30099000Y5499100D03*
G01X30734000Y5753100D03*
G01X30099000Y3594100D03*
G01X30734000Y3848100D03*
G01X18199100Y3594100D03*
G01X18834100Y3848100D03*
G01X24638000Y3594100D03*
G01X25273000Y3848100D03*
G01X27717944Y3111994D03*
G01X28352944Y3365994D03*
G01X22009100Y3594100D03*
G01X22644100Y3848100D03*
G01X20104100Y3594100D03*
G01X20739100Y3848100D03*
G01X10579100Y3594100D03*
G01X11214100Y3848100D03*
G01X12484100Y3594100D03*
G01X13119100Y3848100D03*
G01X16294100Y3594100D03*
G01X16929100Y3848100D03*
G01X14389100Y3594100D03*
G01X15024100Y3848100D03*
G01X6769100Y3594100D03*
G01X7404100Y3848100D03*
G01X8674100Y3594100D03*
G01X9309100Y3848100D03*
G01X4864100Y3594100D03*
G01X5499100Y3848100D03*
G01X1761996Y3593993D03*
G01X2396996Y3847993D03*
G01X1286997Y5498990D03*
G01X1921997Y5752990D03*
G01X3911600Y5499100D03*
G01X4546600Y5753100D03*
G01X7721600Y5499100D03*
G01X8356600Y5753100D03*
G01X5816600Y5499100D03*
G01X6451600Y5753100D03*
G01X13436600Y5499100D03*
G01X14071600Y5753100D03*
G01X15341600Y5499100D03*
G01X15976600Y5753100D03*
G01X11531600Y5499100D03*
G01X12166600Y5753100D03*
G01X9626600Y5499100D03*
G01X10261600Y5753100D03*
G01X19151600Y5499100D03*
G01X19786600Y5753100D03*
G01X21056600Y5499100D03*
G01X21691600Y5753100D03*
G01X26056947Y5497990D03*
G01X26691947Y5751990D03*
G01X22961600Y5499100D03*
G01X23596600Y5753100D03*
G01X17246600Y5499100D03*
G01X17881600Y5753100D03*
G01X813998Y1688598D03*
G01X1448998Y1942598D03*
G01X3189993Y1688997D03*
G01X3824993Y1942997D03*
G01X12715974Y1688997D03*
G01X13350974Y1942997D03*
G01X5576988Y1688997D03*
G01X6211988Y1942997D03*
G01X21526500Y1689100D03*
G01X22161500Y1943100D03*
G01X23431500Y1689100D03*
G01X24066500Y1943100D03*
G01X19621500Y1689100D03*
G01X20256500Y1943100D03*
G01X30099000Y11684000D03*
G01X30734000Y11938000D03*
G01X27717944Y1206998D03*
G01X28352944Y1460998D03*
G01X25812948Y1206998D03*
G01X26447948Y1460998D03*
G01X29622940Y1206998D03*
G01X30257940Y1460998D03*
G54D17*
G01X6493304Y14211303D03*
G01X5673291Y14211303D03*
G01X7534704Y13474703D03*
G01X6714691Y13474703D03*
G01X9617504Y14211303D03*
G01X8797491Y14211303D03*
G01X10658904Y13474703D03*
G01X9838891Y13474703D03*
G01X12741704Y14211303D03*
G01X11921691Y14211303D03*
G01X13783104Y13474703D03*
G01X12963091Y13474703D03*
G01X15865904Y14211303D03*
G01X15045891Y14211303D03*
G01X16907304Y13474703D03*
G01X16087291Y13474703D03*
G01X19015504Y14211303D03*
G01X18195491Y14211303D03*
G01X20031504Y13474703D03*
G01X19211491Y13474703D03*
G01X21301504Y13106403D03*
G01X20481491Y13106403D03*
G01X23397004Y13843003D03*
G01X22576991Y13843003D03*
G01X24425704Y13106403D03*
G01X23605691Y13106403D03*
G01X6721904Y13843003D03*
G01X5901891Y13843003D03*
G01X7763304Y13106403D03*
G01X6943291Y13106403D03*
G01X9846104Y13843003D03*
G01X9026091Y13843003D03*
G01X10887504Y13106403D03*
G01X10067491Y13106403D03*
G01X12970304Y13843003D03*
G01X12150291Y13843003D03*
G01X14011704Y13106403D03*
G01X13191691Y13106403D03*
G01X16094504Y13843003D03*
G01X15274491Y13843003D03*
G01X17135904Y13106403D03*
G01X16315891Y13106403D03*
G01X19231404Y13843003D03*
G01X18411391Y13843003D03*
G01X20260104Y13106403D03*
G01X19440091Y13106403D03*
G01X22139704Y14211303D03*
G01X21319691Y14211303D03*
G01X23155704Y13474703D03*
G01X22335691Y13474703D03*
G01X25263904Y14211303D03*
G01X24443891Y14211303D03*
G01X26521204Y13843003D03*
G01X25701191Y13843003D03*
G01X6493304Y13474703D03*
G01X5673291Y13474703D03*
G01X8576104Y14211303D03*
G01X7756091Y14211303D03*
G01X9617504Y13474703D03*
G01X8797491Y13474703D03*
G01X11700304Y14211303D03*
G01X10880291Y14211303D03*
G01X12741704Y13474703D03*
G01X11921691Y13474703D03*
G01X14824504Y14211303D03*
G01X14004491Y14211303D03*
G01X15865904Y13474703D03*
G01X15045891Y13474703D03*
G01X17974104Y14211303D03*
G01X17154091Y14211303D03*
G01X18990104Y13474703D03*
G01X18170091Y13474703D03*
G01X21098304Y14211303D03*
G01X20278291Y14211303D03*
G01X22355604Y13843003D03*
G01X21535591Y13843003D03*
G01X23384304Y13106403D03*
G01X22564291Y13106403D03*
G01X25479804Y13843003D03*
G01X24659791Y13843003D03*
G01X26279904Y13474703D03*
G01X25459891Y13474703D03*
G01X6721904Y13106403D03*
G01X5901891Y13106403D03*
G01X8804704Y13843003D03*
G01X7984691Y13843003D03*
G01X9846104Y13106403D03*
G01X9026091Y13106403D03*
G01X11928904Y13843003D03*
G01X11108891Y13843003D03*
G01X12970304Y13106403D03*
G01X12150291Y13106403D03*
G01X15053104Y13843003D03*
G01X14233091Y13843003D03*
G01X16094504Y13106403D03*
G01X15274491Y13106403D03*
G01X18177304Y13843003D03*
G01X17357291Y13843003D03*
G01X19218704Y13106403D03*
G01X18398691Y13106403D03*
G01X21314204Y13843003D03*
G01X20494191Y13843003D03*
G01X22114304Y13474703D03*
G01X21294291Y13474703D03*
G01X24222504Y14211303D03*
G01X23402491Y14211303D03*
G01X25238504Y13474703D03*
G01X24418491Y13474703D03*
G01X26508504Y13106403D03*
G01X25688491Y13106403D03*
G01X7534704Y14211303D03*
G01X6714691Y14211303D03*
G01X8576104Y13474703D03*
G01X7756091Y13474703D03*
G01X10658904Y14211303D03*
G01X9838891Y14211303D03*
G01X11700304Y13474703D03*
G01X10880291Y13474703D03*
G01X13783104Y14211303D03*
G01X12963091Y14211303D03*
G01X14824504Y13474703D03*
G01X14004491Y13474703D03*
G01X16907304Y14211303D03*
G01X16087291Y14211303D03*
G01X17948704Y13474703D03*
G01X17128691Y13474703D03*
G01X20056904Y14211303D03*
G01X19236891Y14211303D03*
G01X21072904Y13474703D03*
G01X20252891Y13474703D03*
G01X22342904Y13106403D03*
G01X21522891Y13106403D03*
G01X24438404Y13843003D03*
G01X23618391Y13843003D03*
G01X25467104Y13106403D03*
G01X24647091Y13106403D03*
G01X27346704Y14211303D03*
G01X26526691Y14211303D03*
G01X7763304Y13843003D03*
G01X6943291Y13843003D03*
G01X8804704Y13106403D03*
G01X7984691Y13106403D03*
G01X10887504Y13843003D03*
G01X10067491Y13843003D03*
G01X11928904Y13106403D03*
G01X11108891Y13106403D03*
G01X14011704Y13843003D03*
G01X13191691Y13843003D03*
G01X15053104Y13106403D03*
G01X14233091Y13106403D03*
G01X17135904Y13843003D03*
G01X16315891Y13843003D03*
G01X23181104Y14211303D03*
G01X22361091Y14211303D03*
G01X24197104Y13474703D03*
G01X23377091Y13474703D03*
G01X26305304Y14211303D03*
G01X25485291Y14211303D03*
G01X27562604Y13843003D03*
G01X26742591Y13843003D03*
G54D10*
G01X30099000Y7404100D03*
G01X30734000Y7658100D03*
G54D17*
G01X18177304Y13106403D03*
G01X17357291Y13106403D03*
G54D10*
G01X30099000Y9309100D03*
G01X30734000Y9563100D03*
G54D17*
G01X20272804Y13843003D03*
G01X19452791Y13843003D03*
G54D19*
G01X2616200Y7386599D03*
G01X2616200Y7186600D03*
G01X2616200Y6986600D03*
G54D20*
G01X2616200Y6786601D03*
G54D19*
G01X31076900Y13327101D03*
G01X31076900Y13527100D03*
G01X31076900Y13727100D03*
G54D21*
G01X31076900Y13927099D03*
G54D19*
G01X12857201Y2286000D03*
G01X13057200Y2286000D03*
G01X13257200Y2286000D03*
G54D22*
G01X13457199Y2286000D03*
G54D19*
G01X29362400Y6710401D03*
G01X29362400Y6910400D03*
G01X29362400Y7110400D03*
G54D21*
G01X29362400Y7310399D03*
G54D23*
G01X11087100Y1536700D03*
G54D24*
G01X11087100Y1282700D03*
G01X11341100Y1536700D03*
G01X11341100Y1282700D03*
G01X11595100Y1536700D03*
G01X11595100Y1282700D03*
G01X11849100Y1536700D03*
G01X11849100Y1282700D03*
G54D25*
G01X14960600Y1358900D03*
G54D24*
G01X14960600Y1612900D03*
G01X14706600Y1358900D03*
G01X14706600Y1612900D03*
G01X14452600Y1358900D03*
G01X14452600Y1612900D03*
G01X14198600Y1358900D03*
G01X14198600Y1612900D03*
G54D17*
G01X27588007Y13106403D03*
G01X26767993Y13106403D03*
G01X27359404Y13474703D03*
G01X26539391Y13474703D03*
G04 Pad End*

G04 Via Start*
G54D26*
G01X630923Y12563031D03*
G01X20508022Y5718604D03*
G01X21126450Y5276609D03*
G01X23089723Y13923986D03*
G01X3423924Y5740743D03*
G01X3981450Y5267239D03*
G01X4738376Y9473917D03*
G01X4897126Y7402226D03*
G01X6452879Y9564974D03*
G01X8593922Y13650302D03*
G01X7087849Y5867743D03*
G01X8510249Y7582246D03*
G01X11722100Y13652500D03*
G01X13825057Y13106403D03*
G01X12517139Y7402226D03*
G01X16017293Y3003092D03*
G01X15571360Y13834452D03*
G01X14707849Y5867743D03*
G01X17407344Y8325568D03*
G01X16903700Y13182600D03*
G01X16192500Y7404100D03*
G01X19051255Y8711393D03*
G01X16352424Y11441640D03*
G01X17878173Y8184304D03*
G01X9079135Y14211300D03*
G01X12112086Y14201190D03*
G01X18618200Y14211300D03*
G01X12580515Y13856187D03*
G01X16595193Y13106403D03*
G01X17097714Y14027153D03*
G01X18935700Y14020800D03*
G01X6924191Y14150704D03*
G01X8170867Y14150704D03*
G01X15198191Y13482657D03*
G01X20853400Y13970000D03*
G01X23207701Y14061144D03*
G01X6992116Y14021312D03*
G01X7965591Y13452941D03*
G01X14213991Y13393124D03*
G01X22959669Y13862223D03*
G01X23241000Y13855700D03*
G01X7538547Y13637091D03*
G01X8305800Y13512800D03*
G01X9025981Y13504419D03*
G01X12090400Y14389100D03*
G01X13817600Y13322300D03*
G01X18435283Y14348806D03*
G01X20149973Y13684294D03*
G01X20878800Y13220700D03*
G01X24053800Y13233400D03*
G01X25209500Y14387936D03*
G01X7538547Y13254019D03*
G01X6310369Y13508694D03*
G01X11115159Y13268791D03*
G01X9899585Y12905362D03*
G01X16378067Y13474703D03*
G01X16685253Y12934293D03*
G01X22140867Y13868444D03*
G01X24704195Y14179907D03*
G01X453999Y7417985D03*
G01X834803Y5740688D03*
G01X1320800Y3594100D03*
G01X4483100Y13131800D03*
G01X12580515Y14212528D03*
G01X21741856Y13797919D03*
G01X20866100Y13817600D03*
G01X24968200Y13462000D03*
G01X12661900Y13919200D03*
G01X12742867Y13318323D03*
G01X13600169Y13462551D03*
G01X13600169Y13679807D03*
G01X15361083Y14123344D03*
G01X29667200Y7315200D03*
G01X21656112Y9603423D03*
G01X22265714Y5806459D03*
G01X25019000Y12471400D03*
G01X16662400Y12344400D03*
G01X15560092Y12335881D03*
G01X5122178Y12679937D03*
G01X4774553Y13336818D03*
G01X26532928Y8122042D03*
G01X23507700Y7632700D03*
G01X27142530Y5806459D03*
G01X30213300Y12039600D03*
G01X30412419Y12366165D03*
G01X30174525Y11900701D03*
G01X21259800Y6908800D03*
G01X3009900Y13144500D03*
G01X3806992Y12997974D03*
G01X4076700Y12966700D03*
G01X208695Y12090400D03*
G01X2238553Y7209171D03*
G01X21633906Y14206246D03*
G01X22851461Y13870773D03*
G01X14450993Y14150478D03*
G01X20863270Y14379146D03*
G01X14028279Y12921909D03*
G01X906539Y5607764D03*
G01X17399000Y1193800D03*
G01X21220355Y567226D03*
G01X25463500Y457200D03*
G01X3477123Y5184803D03*
G01X200048Y1447800D03*
G01X723900Y571500D03*
G01X1539245Y12500015D03*
G01X13780288Y1334771D03*
G01X31005984Y8462134D03*
G01X11291460Y14215947D03*
G01X1605746Y5564761D03*
G04 Via End*

M02*
