;TYPE=NON_PLATED
;Layer: NPTH_Through
;EasyEDA Pro v2.2.36.7, 2025-02-27 19:51:26
;Gerber Generator version 0.3
M48
METRIC,LZ,0000.00000
;Hole size 1 = 0.64999 METRIC
T01C0.64999
;Hole size 2 = 1.70180 METRIC
T02C1.70180
;Hole size 3 = 2.00000 METRIC
T03C2.00000
;Hole size 4 = 2.00000 METRIC
T04C2.00000
;Hole size 5 = 2.99999 METRIC
T05C2.99999
;Hole size 6 = 3.05000 METRIC
T06C3.05000
;Hole size 7 = 3.99999 METRIC
T07C3.99999
;Hole size 8 = 4.00000 METRIC
T08C4.00000
%
G05
G90
T01
X14.38201Y146.92887
X20.17194Y146.92887
T02
X194.945Y90.551
X205.105Y90.551
X23.495Y90.551
X33.655Y90.551
X42.545Y90.551
X52.705Y90.551
X61.595Y90.551
X71.755Y90.551
X80.645Y90.551
X90.805Y90.551
X99.695Y90.551
X109.855Y90.551
X118.745Y90.551
X128.905Y90.551
X137.795Y90.551
X147.955Y90.551
X156.845Y90.551
X167.005Y90.551
X175.895Y90.551
X186.055Y90.551
X4.43998Y114.30977
X14.59998Y114.30977
X42.545Y114.3
X52.705Y114.3
X80.645Y114.3
X90.805Y114.3
X61.595Y114.3
X71.755Y114.3
X147.32Y114.3
X157.48Y114.3
X166.37Y114.3
X176.53Y114.3
X128.27Y114.3
X138.43Y114.3
X99.695Y114.3
X109.855Y114.3
X213.995Y114.3
X224.155Y114.3
X233.045Y114.3
X243.205Y114.3
X271.145Y114.3
X281.305Y114.3
X252.095Y114.3
X262.255Y114.3
X185.42Y114.3
X195.58Y114.3
X213.995Y90.551
X224.155Y90.551
X233.045Y90.551
X243.205Y90.551
X4.445Y90.551
X14.605Y90.551
X9.20997Y71.49986
X19.36997Y71.49986
X33.02Y71.501
X43.18Y71.501
X71.12Y71.501
X81.28Y71.501
X52.07Y71.501
X62.23Y71.501
X128.27Y71.501
X138.43Y71.501
X147.32Y71.501
X157.48Y71.501
X109.22Y71.501
X119.38Y71.501
X90.17Y71.501
X100.33Y71.501
X185.42Y71.501
X195.58Y71.501
X204.47Y71.501
X214.63Y71.501
X242.57Y71.501
X252.73Y71.501
X223.52Y71.501
X233.68Y71.501
X166.37Y71.501
X176.53Y71.501
X266.37946Y71.48986
X276.53946Y71.48986
X261.62Y90.551
X271.78Y90.551
X299.72Y52.451
X309.88Y52.451
X299.72Y33.401
X309.88Y33.401
X180.721Y33.401
X190.881Y33.401
X245.11Y33.401
X255.27Y33.401
X275.90944Y28.57994
X286.06944Y28.57994
X218.821Y33.401
X228.981Y33.401
X199.771Y33.401
X209.931Y33.401
X104.521Y33.401
X114.681Y33.401
X123.571Y33.401
X133.731Y33.401
X161.671Y33.401
X171.831Y33.401
X142.621Y33.401
X152.781Y33.401
X66.421Y33.401
X76.581Y33.401
X85.471Y33.401
X95.631Y33.401
X47.371Y33.401
X57.531Y33.401
X16.34996Y33.39993
X26.50996Y33.39993
X11.59997Y52.4499
X21.75997Y52.4499
X37.846Y52.451
X48.006Y52.451
X75.946Y52.451
X86.106Y52.451
X56.896Y52.451
X67.056Y52.451
X133.096Y52.451
X143.256Y52.451
X152.146Y52.451
X162.306Y52.451
X114.046Y52.451
X124.206Y52.451
X94.996Y52.451
X105.156Y52.451
X190.246Y52.451
X200.406Y52.451
X209.296Y52.451
X219.456Y52.451
X259.29947Y52.4399
X269.45947Y52.4399
X228.346Y52.451
X238.506Y52.451
X171.196Y52.451
X181.356Y52.451
X6.86998Y14.34598
X17.02998Y14.34598
X30.62993Y14.34997
X40.78993Y14.34997
X125.88974Y14.34997
X136.04974Y14.34997
X54.49988Y14.34997
X64.65988Y14.34997
X213.995Y14.351
X224.155Y14.351
X233.045Y14.351
X243.205Y14.351
X194.945Y14.351
X205.105Y14.351
X299.72Y114.3
X309.88Y114.3
X275.90944Y9.52998
X286.06944Y9.52998
X256.85948Y9.52998
X267.01948Y9.52998
X294.9594Y9.52998
X305.1194Y9.52998
X299.72Y71.501
X309.88Y71.501
X299.72Y90.551
X309.88Y90.551
T03
X-3.188Y47.70973
X-3.188Y-2.59017
X50.22Y-2.62008
X103.72Y-2.62008
X157.22Y-2.62008
X210.72Y-2.62008
X264.219Y-2.62008
X317.719Y-2.62008
X317.719Y47.67982
X317.719Y97.97972
T04
X-1.39219Y155.28341
X315.94945Y155.28341
X3.60781Y-8.80729
X310.94945Y-8.80729
X-3.188Y149.06629
X-3.188Y98.00963
X317.719Y149.06629
X317.719Y131.06629
X-3.188Y131.06629
T05
X43.82008Y116.84
X50.17008Y119.38
X5.72008Y116.84
X12.07008Y119.38
X62.87008Y116.84
X69.22008Y119.38
X81.92008Y116.84
X88.27008Y119.38
X100.97008Y116.84
X107.32008Y119.38
X129.54508Y116.84
X135.89508Y119.38
X148.59508Y116.84
X154.94508Y119.38
X167.64508Y116.84
X173.99508Y119.38
X186.69508Y116.84
X193.04508Y119.38
X215.27008Y116.84
X221.62008Y119.38
X234.32008Y116.84
X240.67008Y119.38
X253.37008Y116.84
X259.72008Y119.38
X272.42008Y116.84
X278.77008Y119.38
X5.72008Y93.091
X12.07008Y95.631
X24.77008Y93.091
X31.12008Y95.631
X43.82008Y93.091
X50.17008Y95.631
X62.87008Y93.091
X69.22008Y95.631
X81.92008Y93.091
X88.27008Y95.631
X100.97008Y93.091
X107.32008Y95.631
X120.02008Y93.091
X126.37008Y95.631
X139.07008Y93.091
X145.42008Y95.631
X158.12008Y93.091
X164.47008Y95.631
X177.17008Y93.091
X183.52008Y95.631
X196.22008Y93.091
X202.57008Y95.631
X215.27008Y93.091
X221.62008Y95.631
X234.32008Y93.091
X240.67008Y95.631
X262.89508Y93.091
X269.24508Y95.631
X10.48008Y74.041
X16.83008Y76.581
X34.29508Y74.041
X40.64508Y76.581
X53.34508Y74.041
X59.69508Y76.581
X72.39508Y74.041
X78.74508Y76.581
X91.44508Y74.041
X97.79508Y76.581
X110.49508Y74.041
X116.84508Y76.581
X129.54508Y74.041
X135.89508Y76.581
X148.59508Y74.041
X154.94508Y76.581
X167.64508Y74.041
X173.99508Y76.581
X186.69508Y74.041
X193.04508Y76.581
X205.74508Y74.041
X212.09508Y76.581
X224.79508Y74.041
X231.14508Y76.581
X243.84508Y74.041
X250.19508Y76.581
X267.65008Y74.03
X274.00008Y76.57
X12.87008Y54.991
X19.22008Y57.531
X39.12108Y54.991
X45.47108Y57.531
X58.17108Y54.991
X64.52108Y57.531
X77.22108Y54.991
X83.57108Y57.531
X96.27108Y54.991
X102.62108Y57.531
X115.32108Y54.991
X121.67108Y57.531
X134.37108Y54.991
X140.72108Y57.531
X153.42108Y54.991
X159.77108Y57.531
X172.47108Y54.991
X178.82108Y57.531
X191.52108Y54.991
X197.87108Y57.531
X210.57108Y54.991
X216.92108Y57.531
X229.62108Y54.991
X235.97108Y57.531
X260.57173Y54.97233
X266.92173Y57.51233
X300.99508Y54.991
X307.34508Y57.531
X17.62417Y35.941
X23.97417Y38.481
X48.64608Y35.941
X54.99608Y38.481
X67.69608Y35.941
X74.04608Y38.481
X86.74608Y35.941
X93.09608Y38.481
X105.79608Y35.941
X112.14608Y38.481
X124.84608Y35.941
X131.19608Y38.481
X143.89608Y35.941
X150.24608Y38.481
X162.94608Y35.941
X169.29608Y38.481
X181.99608Y35.941
X188.34608Y38.481
X201.04608Y35.941
X207.39608Y38.481
X220.09608Y35.941
X226.44608Y38.481
X246.38508Y35.941
X252.73508Y38.481
X277.18418Y31.115
X283.53418Y33.655
X300.99508Y35.941
X307.34508Y38.481
X8.13308Y16.891
X14.48308Y19.431
X31.88208Y16.891
X38.23208Y19.431
X55.75808Y16.891
X62.10808Y19.431
X127.16246Y16.891
X133.51246Y19.431
X196.22008Y16.891
X202.57008Y19.431
X215.27008Y16.891
X221.62008Y19.431
X234.32008Y16.891
X240.67008Y19.431
X300.99508Y74.041
X307.34508Y76.581
X300.99508Y93.091
X307.34508Y95.631
X300.99508Y116.84
X307.34508Y119.38
X258.12767Y12.065
X264.47767Y14.605
X277.17984Y12.065
X283.52984Y14.605
X296.22767Y12.065
X302.57767Y14.605
T06
X80.889Y21.305
X180.889Y21.37545
X252.451Y59.46648
X276.25Y59.46648
X254.889Y97.56648
X278.638Y97.56648
X33.274Y40.41648
X9.525Y40.41648
T07
X47.63008Y114.3
X9.53008Y114.3
X66.68008Y114.3
X85.73008Y114.3
X104.78008Y114.3
X133.35508Y114.3
X152.40508Y114.3
X171.45508Y114.3
X190.50508Y114.3
X219.08008Y114.3
X238.13008Y114.3
X257.18008Y114.3
X276.23008Y114.3
X9.53008Y90.551
X28.58008Y90.551
X47.63008Y90.551
X66.68008Y90.551
X85.73008Y90.551
X104.78008Y90.551
X123.83008Y90.551
X142.88008Y90.551
X161.93008Y90.551
X180.98008Y90.551
X200.03008Y90.551
X219.08008Y90.551
X238.13008Y90.551
X266.70508Y90.551
X14.29008Y71.501
X38.10508Y71.501
X57.15508Y71.501
X76.20508Y71.501
X95.25508Y71.501
X114.30508Y71.501
X133.35508Y71.501
X152.40508Y71.501
X171.45508Y71.501
X190.50508Y71.501
X209.55508Y71.501
X228.60508Y71.501
X247.65508Y71.501
X271.46008Y71.49
X16.68008Y52.451
X42.93108Y52.451
X61.98108Y52.451
X81.03108Y52.451
X100.08108Y52.451
X119.13108Y52.451
X138.18108Y52.451
X157.23108Y52.451
X176.28108Y52.451
X195.33108Y52.451
X214.38108Y52.451
X233.43108Y52.451
X264.38173Y52.43233
X304.80508Y52.451
X21.43417Y33.401
X52.45608Y33.401
X71.50608Y33.401
X90.55608Y33.401
X109.60608Y33.401
X128.65608Y33.401
X147.70608Y33.401
X166.75608Y33.401
X185.80608Y33.401
X204.85608Y33.401
X223.90608Y33.401
X250.19508Y33.401
X280.99418Y28.575
X304.80508Y33.401
X11.94308Y14.351
X35.69208Y14.351
X59.56808Y14.351
X130.97246Y14.351
X200.03008Y14.351
X219.08008Y14.351
X238.13008Y14.351
X304.80508Y71.501
X304.80508Y90.551
X304.80508Y114.3
X261.93767Y9.525
X280.98984Y9.525
X300.03767Y9.525
T08
X80.889Y6.065
X180.889Y6.13545
X252.451Y44.22648
X276.251Y44.22648
X254.89Y82.32648
X278.639Y82.32648
X33.274Y25.17648
X9.525Y25.17648
M30