;TYPE=PLATED
;Layer: PTH_Through_Via
;EasyEDA Pro v2.2.36.7, 2025-02-27 19:51:26
;Gerber Generator version 0.3
M48
METRIC,LZ,0000.00000
;Hole size 1 = 0.30000 METRIC
T01C0.30000
;Hole size 2 = 0.30500 METRIC
T02C0.30500
%
G05
G90
T01
X93.599Y138.914
X113.411Y140.819
X147.828Y135.485
X167.894Y143.74
X200.787Y140.184
X80.645Y135.866
X94.107Y136.12
X111.506Y136.755
X145.161Y134.723
X149.352Y141.2
X166.751Y140.311
X173.863Y140.311
X209.931Y143.359
X233.172Y136.755
X75.184Y134.85
X85.598Y141.2
X105.918Y134.723
X108.458Y136.882
X111.125Y139.549
X114.173Y141.581
X117.094Y141.454
X121.539Y138.533
X164.211Y135.866
X190.246Y134.977
X197.358Y138.533
X208.407Y139.676
X220.345Y139.676
X223.774Y139.676
X250.571Y140.819
X217.17Y144.375
X176.403Y135.739
X130.81Y133.834
X105.537Y132.945
X104.521Y137.009
X100.584Y139.549
X75.184Y135.866
X73.152Y142.089
X73.152Y139.93
X75.311Y139.93
X89.154Y143.105
X106.807Y141.327
X157.099Y137.39
X166.243Y135.231
X186.944Y142.851
X186.944Y139.549
X193.294Y136.882
X210.566Y144.248
X216.027Y143.486
X243.332Y143.74
X50.927Y139.168
X55.245Y141.2
X54.356Y138.66
X55.9737Y142.65661
X10.0Y30.0
X10.0Y60.0
X10.0Y70.0
X10.0Y80.0
X10.0Y100.0
X20.0Y20.0
X20.0Y30.0
X20.0Y60.0
X20.0Y70.0
X30.0Y20.0
X30.0Y30.0
X30.0Y40.0
X30.0Y50.0
X30.0Y60.0
X30.0Y70.0
X30.0Y80.0
X30.0Y100.0
X30.0Y120.0
X30.0Y143.659
X40.0Y30.0
X40.0Y40.0
X40.0Y50.0
X40.0Y60.0
X40.0Y80.0
X40.0Y90.0
X40.0Y100.0
X40.0Y120.0
X40.0Y133.659
X50.0Y20.0
X50.0Y30.0
X50.0Y40.0
X50.0Y50.0
X50.0Y80.0
X50.0Y100.0
X60.0Y20.0
X60.0Y30.0
X60.0Y50.0
X60.0Y60.0
X60.0Y70.0
X60.0Y80.0
X70.0Y20.0
X70.0Y30.0
X70.0Y40.0
X70.0Y50.0
X70.0Y60.0
X70.0Y70.0
X70.0Y80.0
X70.0Y90.0
X70.0Y100.0
X80.0Y30.0
X80.0Y40.0
X80.0Y50.0
X80.0Y60.0
X80.0Y70.0
X80.0Y80.0
X80.0Y100.0
X90.0Y20.0
X90.0Y30.0
X90.0Y40.0
X90.0Y70.0
X90.0Y80.0
X90.0Y100.0
X100.0Y20.0
X100.0Y30.0
X100.0Y40.0
X100.0Y60.0
X100.0Y70.0
X100.0Y100.0
X100.0Y120.0
X110.0Y20.0
X110.0Y30.0
X110.0Y40.0
X110.0Y70.0
X110.0Y80.0
X120.0Y20.0
X120.0Y30.0
X120.0Y40.0
X120.0Y60.0
X120.0Y70.0
X120.0Y100.0
X130.0Y20.0
X130.0Y30.0
X130.0Y50.0
X130.0Y60.0
X130.0Y70.0
X130.0Y80.0
X130.0Y120.0
X140.0Y20.0
X140.0Y30.0
X140.0Y40.0
X140.0Y50.0
X140.0Y60.0
X140.0Y70.0
X140.0Y90.0
X140.0Y100.0
X150.0Y20.0
X150.0Y30.0
X150.0Y50.0
X150.0Y60.0
X150.0Y70.0
X150.0Y80.0
X150.0Y90.0
X150.0Y120.0
X160.00001Y20.0
X160.00001Y30.0
X160.00001Y40.0
X160.00001Y50.0
X160.00001Y60.0
X160.00001Y100.0
X170.00001Y20.0
X170.00001Y30.0
X170.00001Y50.0
X170.00001Y60.0
X170.00001Y80.0
X170.00001Y90.0
X170.00001Y100.0
X170.00001Y120.0
X180.00001Y30.0
X180.00001Y40.0
X180.00001Y50.0
X180.00001Y60.0
X180.00001Y70.0
X180.00001Y80.0
X180.00001Y100.0
X190.00001Y20.0
X190.00001Y30.0
X190.00001Y40.0
X190.00001Y50.0
X190.00001Y60.0
X190.00001Y80.0
X190.00001Y90.0
X190.00001Y100.0
X190.00001Y120.0
X200.00001Y20.0
X200.00001Y40.0
X200.00001Y50.0
X200.00001Y60.0
X200.00001Y70.0
X200.00001Y80.0
X200.00001Y100.0
X200.00001Y120.0
X210.00001Y30.0
X210.00001Y50.0
X210.00001Y60.0
X210.00001Y80.0
X220.00001Y30.0
X220.00001Y40.0
X220.00001Y50.0
X220.00001Y70.0
X220.00001Y80.0
X220.00001Y100.0
X220.00001Y110.0
X230.00001Y20.0
X230.00001Y30.0
X230.00001Y50.0
X230.00001Y60.0
X230.00001Y80.0
X230.00001Y100.0
X240.00001Y30.0
X240.00001Y40.0
X240.00001Y50.0
X240.00001Y60.0
X240.00001Y70.0
X240.00001Y110.0
X250.00001Y20.0
X250.00001Y30.0
X250.00001Y40.0
X250.00001Y50.0
X250.00001Y60.0
X250.00001Y70.0
X250.00001Y90.0
X250.00001Y100.0
X250.00001Y120.0
X260.00001Y20.0
X260.00001Y30.0
X260.00001Y40.0
X260.00001Y50.0
X260.00001Y60.0
X260.00001Y70.0
X260.00001Y100.0
X270.00001Y10.0
X270.00001Y20.0
X270.00001Y30.0
X270.00001Y40.0
X270.00001Y50.0
X270.00001Y60.0
X270.00001Y90.0
X270.00001Y100.0
X270.00001Y120.0
X280.00001Y20.0
X280.00001Y40.0
X280.00001Y50.0
X280.00001Y60.0
X280.00001Y70.0
X280.00001Y80.0
X280.00001Y90.0
X280.00001Y100.0
X290.00001Y10.0
X290.00001Y20.0
X290.00001Y30.0
X290.00001Y40.0
X290.00001Y50.0
X290.00001Y60.0
X290.00001Y70.0
X290.00001Y80.0
X290.00001Y100.0
X300.00001Y20.0
X300.00001Y30.0
X300.00001Y40.0
X300.00001Y50.0
X300.00001Y60.0
X300.00001Y70.0
X300.00001Y100.0
X310.00001Y10.0
X310.00001Y20.0
X310.00001Y30.0
X310.00001Y50.0
X310.00001Y60.0
X310.00001Y70.0
X310.00001Y80.0
X310.00001Y100.0
X310.00001Y110.0
X24.638Y127.484
X25.781Y128.119
X285.369Y120.396
X270.383Y137.644
X283.21Y122.555
T02
X269.113Y116.713
X2.54Y116.713
X40.5255Y116.84
X21.463Y92.964
X30.988Y74.041
X59.563Y116.84
X47.244Y98.425
X40.513Y93.091
X50.038Y74.041
X78.613Y116.84
X59.563Y93.091
X97.663Y116.84
X126.238Y116.84
X97.663Y93.091
X145.288Y116.84
X124.079Y121.031
X164.338Y116.84
X144.399Y119.253
X183.388Y116.84
X163.195Y120.015
X211.963Y116.84
X179.959Y124.69
X173.86503Y93.091
X184.785Y87.884
X231.013Y116.84
X205.994Y126.214
X204.343Y88.646
X192.913Y93.091
X250.063Y116.84
X226.187Y126.341
X239.268Y35.814
X243.078Y35.814
X244.983Y29.337
X259.588Y93.091
X264.287Y74.041
X287.528Y61.468
X297.688Y54.991
X292.989Y12.065
X265.684Y96.647
X255.016Y93.218
X231.013Y93.091
X240.03Y79.502
X240.538Y74.041
X250.952Y54.864
X257.302Y54.864
X263.271Y35.941
X263.271Y37.719
X233.934Y129.77
X297.688Y116.713
X189.23Y129.77
X295.402Y118.872
X297.561Y101.346
X297.561Y93.091
X297.69003Y74.041
X164.338Y130.151
X29.083Y106.10471
X73.60606Y107.13406
X112.522Y114.046
X111.633Y107.061
X264.414Y116.22587
X264.414Y100.31296
X269.113Y110.87086
X269.113Y103.8424
X259.588Y80.39916
X44.03224Y80.04676
X25.146Y80.264
X297.69003Y21.49713
X30.099Y129.389
X8.255Y120.015
X19.67207Y140.946
X11.176Y138.025
X9.652Y117.602
X10.16Y110.744
X14.732Y10.541
X2.41503Y76.51974
X4.953Y74.041
X7.874Y106.82732
X12.319Y87.11995
X17.145Y63.96982
X19.558Y49.11429
X18.4167Y26.0367
X8.255Y50.165
X281.432Y6.477
X304.419Y6.477
X304.45371Y49.11429
X303.36482Y63.96982
X303.657Y106.807
X307.848Y115.824
X304.165Y123.42
X308.356Y44.45
X296.164Y45.212
X289.052Y91.059
X289.052Y104.394
X270.383Y140.565
X294.259Y63.96982
X28.1869Y63.96982
X42.672Y143.74
X50.673Y130.405
X43.688Y143.994
X49.149Y131.04
X309.245Y139.168
X303.149Y82.296
X307.975Y82.296
X303.149Y81.153
X307.975Y81.153
X313.055Y132.437
X24.638Y110.744
X18.288Y97.79
X17.145Y88.9
X18.161Y80.137
X25.781Y110.744
X19.177Y96.774
X18.161Y89.789
X19.177Y81.026
X43.942Y137.009
X11.176Y144.121
X9.525Y142.343
X7.493Y138.152
X17.145Y132.564
X15.367Y136.628
X45.085Y137.898
X22.987Y133.707
X30.353Y135.739
X34.925Y131.167
X44.069Y135.485
X34.925Y143.359
X41.275Y144.629
X39.37Y139.041
X33.274Y138.787
X28.067Y138.66
X36.576Y129.389
X47.244Y143.994
X109.728Y7.493
X14.732Y7.112
X37.846Y7.366
X245.491Y8.255
X241.554Y7.366
X107.95Y3.302
X121.031Y3.302
X133.096Y3.302
X213.741Y3.302
X223.139Y3.302
X233.934Y3.302
X62.103Y7.239
X220.726Y7.239
X88.773Y7.62
X155.829Y7.366
X202.184Y7.62
X132.842Y7.62
X187.76317Y7.62
X6.985Y11.43
X6.731Y44.831
X53.086Y51.308
X72.898Y51.562
X205.90494Y51.562
X239.141Y65.405
X68.199Y68.707
X183.515Y99.822
X53.594Y115.697
X9.525Y139.803
X245.07103Y65.532
X46.355Y131.421
X52.48899Y146.15301
X52.48899Y144.75601
X14.732Y139.041
X16.637Y140.057
X22.29736Y140.692
X304.165Y141.605
X51.09693Y134.70903
X51.054Y136.779
X57.15Y132.588
X53.29707Y132.95897
M30