G04 Layer: DrillDrawingLayer*
G04 EasyEDA Pro v2.2.36.7, 2025-02-27 19:51:26*
G04 Gerber Generator version 0.3*
G04 Scale: 100 percent, Rotated: No, Reflected: No*
G04 Dimensions in millimeters*
G04 Leading zeros omitted, absolute positions, 4 integers and 5 decimals*
G04 Panelize: V-CUT, Column: 1, Row: 1, Board Size: 327.343mm x 158.09mm, Panelized Board Size: 327.343mm x 170.091mm, Panelized Method: Only Board Outline*
%FSLAX45Y45*%
%MOMM*%
%AMIconRect*4,1,4,0.2,-0.2,-0.2,-0.2,-0.2,0.2,0.2,0.2,0.2,-0.2,0*4,0,4,0.166667,-0.166667,0.166667,0.166667,-0.166667,0.166667,-0.166667,-0.166667,0.166667,-0.166667,0*%
%AMIconTriangle*4,1,3,-0.242567,0.171767,0.242567,0.171767,0,-0.2706,-0.242567,0.171767,0*4,0,3,-0.189767,0.1386,0,-0.1953,0.190167,0.1386,-0.189767,0.1386,0*%
%AMIconStar6*4,1,12,0.0862,0.1492,0.213233,0.123367,0.172367,0,0.213233,-0.1229,0.0862,-0.148733,0,-0.245767,-0.085767,-0.148733,-0.213267,-0.1229,-0.171933,0,-0.213267,0.1229,-0.085767,0.1492,0,0.245767,0.0862,0.1492,0*4,0,12,-0.000333,0.195333,-0.064333,0.122667,-0.169667,0.097667,-0.138333,-0.005333,-0.169667,-0.098,-0.064333,-0.122667,-0.000333,-0.195667,0.064333,-0.122667,0.169667,-0.098,0.138667,0.005,0.169667,0.098,0.064333,0.122333,-0.000333,0.195333,0*%
%AMIconStar4*4,1,8,-0.222667,0.222667,0,0.144667,0.222667,0.222667,0.144667,0,0.222667,-0.222667,0,-0.144667,-0.217433,-0.222667,-0.144667,0,-0.222667,0.222667,0*4,0,8,0.166667,-0.166667,0.108,0,0.166667,0.166667,0,0.108,-0.166667,0.166667,-0.108,0,-0.166667,-0.166667,0,-0.108,0.166667,-0.166667,0*%
%AMIconPlus*4,1,12,0.124,-0.2,-0.124,-0.2,-0.124,-0.124,-0.2,-0.124,-0.2,0.124,-0.124,0.124,-0.124,0.2,0.124,0.2,0.124,0.124,0.2,0.124,0.2,-0.124,0.124,-0.124,0.124,-0.2,0*4,0,12,0.090667,-0.166667,0.090667,-0.090667,0.166667,-0.090667,0.166667,0.090667,0.090667,0.090667,0.090667,0.166667,-0.090667,0.166667,-0.090667,0.090667,-0.166667,0.090667,-0.166667,-0.090667,-0.090667,-0.090667,-0.090667,-0.166667,0.090667,-0.166667,0*%
%AMIconX*4,1,16,0.2,-0.2,0.054533,-0.2,0,-0.145467,-0.054533,-0.2,-0.2,-0.2,-0.2,-0.054533,-0.145467,0,-0.2,0.054533,-0.2,0.2,-0.054533,0.2,0,0.145467,0.054533,0.2,0.2,0.2,0.2,0.054533,0.145467,0,0.2,-0.054533,0.2,-0.2,0*4,0,16,0.1668,-0.1664,0.1668,-0.068467,0.097933,0.000067,0.1668,0.068467,0.1668,0.1665,0.068467,0.1665,0,0.097933,-0.068467,0.1665,-0.1668,0.1665,-0.1668,0.068467,-0.097933,0.000067,-0.1668,-0.068467,-0.1668,-0.1664,-0.068467,-0.1664,0,-0.097933,0.068467,-0.1664,0.1668,-0.1664,0*%
%AMIconDiamond*4,1,4,0,-0.26,-0.26,0,0,0.26,0.26,0,0,-0.26,0*4,0,4,0,-0.203433,0.203433,0,0,0.2036,-0.203433,0,0,-0.203433,0*%
%AMIconRect2*4,1,6,0.2,-0.2,-0.2,-0.2,-0.2,0.2,-0.1668,0.1665,-0.166667,-0.166667,0.1668,-0.166667,0.2,-0.2,0*4,1,6,0.2,-0.2,0.1668,-0.166667,0.1668,0.1665,-0.1668,0.1665,-0.2,0.2,0.2,0.2,0.2,-0.2,0*4,1,6,0.133467,-0.133333,-0.133333,-0.133333,-0.133333,0.133467,-0.1,0.100133,-0.1,-0.1,0.100133,-0.1,0.133467,-0.133333,0*4,1,6,0.133467,-0.133333,0.100133,-0.1,0.100133,0.100133,-0.1,0.100133,-0.133333,0.133467,0.133467,0.133467,0.133467,-0.133333,0*%
%AMCharA*4,1,8,-0.122067,-0.1864,-0.1532,-0.174533,-0.015133,0.1864,0.016,0.1864,0.1532,-0.174533,0.122067,-0.1864,0.0764,-0.0662,-0.076133,-0.0662,-0.122067,-0.1864,0*4,0,3,-0.063333,-0.032867,0.063667,-0.032867,0.000333,0.1338,-0.063333,-0.032867,0*%
%AMCharB*4,1,17,-0.131133,-0.1894,-0.131133,0.1894,0.033533,0.1894,0.088067,0.172467,0.1114,0.151733,0.131133,0.114133,0.131,0.066467,0.114333,0.0338,0.094733,0.0128,0.086467,0.0084,0.094733,0.003867,0.114333,-0.017133,0.131,-0.0498,0.131133,-0.114133,0.1114,-0.151733,0.088067,-0.1726,0.033533,-0.1894,-0.131133,-0.1894,0*4,0,10,-0.0978,-0.156067,0.030867,-0.156067,0.073867,-0.142,0.085867,-0.130133,0.099533,-0.1028,0.099533,-0.0614,0.085867,-0.034533,0.073867,-0.0226,0.030867,-0.008667,-0.0978,-0.008667,-0.0978,-0.156067,0*4,0,10,-0.0978,0.024667,0.0308,0.024667,0.073867,0.039267,0.085867,0.051267,0.099533,0.078067,0.099533,0.102667,0.085867,0.130133,0.073867,0.142,0.030867,0.156067,-0.0978,0.156067,-0.0978,0.024667,0*%
%AMCharC*4,1,36,-0.027533,-0.1894,-0.071933,-0.1684,-0.1084,-0.130667,-0.125333,-0.096,-0.1428,-0.041333,-0.1428,0.041333,-0.1244,0.098,-0.105267,0.135067,-0.067533,0.171667,-0.027533,0.1894,0.038533,0.1894,0.083067,0.1684,0.119467,0.130667,0.1428,0.083,0.112867,0.0684,0.090867,0.113467,0.0614,0.142933,0.034733,0.156067,-0.0236,0.156067,-0.050333,0.142933,-0.079733,0.113467,-0.094067,0.084333,-0.109467,0.0386,-0.109467,-0.0386,-0.094067,-0.084333,-0.079733,-0.113467,-0.050333,-0.142867,-0.0236,-0.156067,0.034733,-0.156067,0.0614,-0.142867,0.090867,-0.113467,0.112867,-0.0684,0.1428,-0.083,0.119467,-0.130667,0.083067,-0.1684,0.038533,-0.1894,-0.027533,-0.1894,0*%
%ADD10IconRect*%
%ADD11C,0.44X0.373333*%
%ADD12IconTriangle*%
%ADD13IconStar6*%
%ADD14IconStar4*%
%ADD15IconPlus*%
%ADD16IconX*%
%ADD17IconDiamond*%
%ADD18IconRect2*%
%ADD19CharA*%
%ADD20CharB*%
%ADD21CharC*%
G75*


G04 Drill Drawing Start*
G54D10*
G01X1295199Y14642899D03*
G01X2159206Y14642899D03*
G54D11*
G01X1295199Y15060907D03*
G01X2159206Y15060907D03*
G54D12*
G01X1438201Y14692887D03*
G01X2017194Y14692887D03*
G54D13*
G01X952500Y4041648D03*
G01X3327400Y4041648D03*
G01X8088900Y2130500D03*
G01X18088900Y2137545D03*
G01X25245100Y5946648D03*
G01X25488900Y9756648D03*
G01X27625000Y5946648D03*
G01X27863800Y9756648D03*
G54D14*
G01X2590800Y6870700D03*
G01X2590800Y7124700D03*
G01X2590800Y7378700D03*
G01X2590800Y7632700D03*
G01X29146500Y6870700D03*
G01X29146500Y7124700D03*
G01X29146500Y7378700D03*
G01X29146500Y7632700D03*
G01X31203900Y13650100D03*
G01X31203900Y13904100D03*
G01X31203900Y14158100D03*
G01X31203900Y14412100D03*
G54D15*
G01X-318800Y-259017D03*
G01X-318800Y4770973D03*
G01X-318800Y9800963D03*
G01X-318800Y13106629D03*
G01X-318800Y14906629D03*
G01X5022000Y-262008D03*
G01X10372000Y-262008D03*
G01X15722000Y-262008D03*
G01X21072000Y-262008D03*
G01X26421900Y-262008D03*
G01X31771900Y-262008D03*
G01X31771900Y4767982D03*
G01X31771900Y9797972D03*
G01X31771900Y13106629D03*
G01X31771900Y14906629D03*
G54D16*
G01X952500Y2517648D03*
G01X953008Y9055100D03*
G01X953008Y11430000D03*
G01X1194308Y1435100D03*
G01X1429008Y7150100D03*
G01X1668008Y5245100D03*
G01X2143417Y3340100D03*
G01X2858008Y9055100D03*
G01X3327400Y2517648D03*
G01X3569208Y1435100D03*
G01X3810508Y7150100D03*
G01X4293108Y5245100D03*
G01X4763008Y9055100D03*
G01X4763008Y11430000D03*
G01X5245608Y3340100D03*
G01X5715508Y7150100D03*
G01X5956808Y1435100D03*
G01X6198108Y5245100D03*
G01X6668008Y9055100D03*
G01X6668008Y11430000D03*
G01X7150608Y3340100D03*
G01X7620508Y7150100D03*
G01X8088900Y606500D03*
G01X8103108Y5245100D03*
G01X8573008Y9055100D03*
G01X8573008Y11430000D03*
G01X9055608Y3340100D03*
G01X9525508Y7150100D03*
G01X10008108Y5245100D03*
G01X10478008Y9055100D03*
G01X10478008Y11430000D03*
G01X10960608Y3340100D03*
G01X11430508Y7150100D03*
G01X11913108Y5245100D03*
G01X12383008Y9055100D03*
G01X12865608Y3340100D03*
G01X13097246Y1435100D03*
G01X13335508Y7150100D03*
G01X13335508Y11430000D03*
G01X13818108Y5245100D03*
G01X14288008Y9055100D03*
G01X14770608Y3340100D03*
G01X15240508Y7150100D03*
G01X15240508Y11430000D03*
G01X15723108Y5245100D03*
G01X16193008Y9055100D03*
G01X16675608Y3340100D03*
G01X17145508Y7150100D03*
G01X17145508Y11430000D03*
G01X17628108Y5245100D03*
G01X18088900Y613545D03*
G01X18098008Y9055100D03*
G01X18580608Y3340100D03*
G01X19050508Y7150100D03*
G01X19050508Y11430000D03*
G01X19533108Y5245100D03*
G01X20003008Y1435100D03*
G01X20003008Y9055100D03*
G01X20485608Y3340100D03*
G01X20955508Y7150100D03*
G01X21438108Y5245100D03*
G01X21908008Y1435100D03*
G01X21908008Y9055100D03*
G01X21908008Y11430000D03*
G01X22390608Y3340100D03*
G01X22860508Y7150100D03*
G01X23343108Y5245100D03*
G01X23813008Y1435100D03*
G01X23813008Y9055100D03*
G01X23813008Y11430000D03*
G01X24765508Y7150100D03*
G01X25019508Y3340100D03*
G01X25245100Y4422648D03*
G01X25489000Y8232648D03*
G01X25718008Y11430000D03*
G01X26193767Y952500D03*
G01X26438173Y5243233D03*
G01X26670508Y9055100D03*
G01X27146008Y7149000D03*
G01X27623008Y11430000D03*
G01X27625100Y4422648D03*
G01X27863900Y8232648D03*
G01X28098984Y952500D03*
G01X28099418Y2857500D03*
G01X30003767Y952500D03*
G01X30480508Y3340100D03*
G01X30480508Y5245100D03*
G01X30480508Y7150100D03*
G01X30480508Y9055100D03*
G01X30480508Y11430000D03*
G54D17*
G01X572008Y9309100D03*
G01X572008Y11684000D03*
G01X813308Y1689100D03*
G01X1048008Y7404100D03*
G01X1207008Y9563100D03*
G01X1207008Y11938000D03*
G01X1287008Y5499100D03*
G01X1448308Y1943100D03*
G01X1683008Y7658100D03*
G01X1762417Y3594100D03*
G01X1922008Y5753100D03*
G01X2397417Y3848100D03*
G01X2477008Y9309100D03*
G01X3112008Y9563100D03*
G01X3188208Y1689100D03*
G01X3429508Y7404100D03*
G01X3823208Y1943100D03*
G01X3912108Y5499100D03*
G01X4064508Y7658100D03*
G01X4382008Y9309100D03*
G01X4382008Y11684000D03*
G01X4547108Y5753100D03*
G01X4864608Y3594100D03*
G01X5017008Y9563100D03*
G01X5017008Y11938000D03*
G01X5334508Y7404100D03*
G01X5499608Y3848100D03*
G01X5575808Y1689100D03*
G01X5817108Y5499100D03*
G01X5969508Y7658100D03*
G01X6210808Y1943100D03*
G01X6287008Y9309100D03*
G01X6287008Y11684000D03*
G01X6452108Y5753100D03*
G01X6769608Y3594100D03*
G01X6922008Y9563100D03*
G01X6922008Y11938000D03*
G01X7239508Y7404100D03*
G01X7404608Y3848100D03*
G01X7722108Y5499100D03*
G01X7874508Y7658100D03*
G01X8192008Y9309100D03*
G01X8192008Y11684000D03*
G01X8357108Y5753100D03*
G01X8674608Y3594100D03*
G01X8827008Y9563100D03*
G01X8827008Y11938000D03*
G01X9144508Y7404100D03*
G01X9309608Y3848100D03*
G01X9627108Y5499100D03*
G01X9779508Y7658100D03*
G01X10097008Y9309100D03*
G01X10097008Y11684000D03*
G01X10262108Y5753100D03*
G01X10579608Y3594100D03*
G01X10732008Y9563100D03*
G01X10732008Y11938000D03*
G01X11049508Y7404100D03*
G01X11214608Y3848100D03*
G01X11532108Y5499100D03*
G01X11684508Y7658100D03*
G01X12002008Y9309100D03*
G01X12167108Y5753100D03*
G01X12484608Y3594100D03*
G01X12637008Y9563100D03*
G01X12716246Y1689100D03*
G01X12954508Y7404100D03*
G01X12954508Y11684000D03*
G01X13119608Y3848100D03*
G01X13351246Y1943100D03*
G01X13437108Y5499100D03*
G01X13589508Y7658100D03*
G01X13589508Y11938000D03*
G01X13907008Y9309100D03*
G01X14072108Y5753100D03*
G01X14389608Y3594100D03*
G01X14542008Y9563100D03*
G01X14859508Y7404100D03*
G01X14859508Y11684000D03*
G01X15024608Y3848100D03*
G01X15342108Y5499100D03*
G01X15494508Y7658100D03*
G01X15494508Y11938000D03*
G01X15812008Y9309100D03*
G01X15977108Y5753100D03*
G01X16294608Y3594100D03*
G01X16447008Y9563100D03*
G01X16764508Y7404100D03*
G01X16764508Y11684000D03*
G01X16929608Y3848100D03*
G01X17247108Y5499100D03*
G01X17399508Y7658100D03*
G01X17399508Y11938000D03*
G01X17717008Y9309100D03*
G01X17882108Y5753100D03*
G01X18199608Y3594100D03*
G01X18352008Y9563100D03*
G01X18669508Y7404100D03*
G01X18669508Y11684000D03*
G01X18834608Y3848100D03*
G01X19152108Y5499100D03*
G01X19304508Y7658100D03*
G01X19304508Y11938000D03*
G01X19622008Y1689100D03*
G01X19622008Y9309100D03*
G01X19787108Y5753100D03*
G01X20104608Y3594100D03*
G01X20257008Y1943100D03*
G01X20257008Y9563100D03*
G01X20574508Y7404100D03*
G01X20739608Y3848100D03*
G01X21057108Y5499100D03*
G01X21209508Y7658100D03*
G01X21527008Y1689100D03*
G01X21527008Y9309100D03*
G01X21527008Y11684000D03*
G01X21692108Y5753100D03*
G01X22009608Y3594100D03*
G01X22162008Y1943100D03*
G01X22162008Y9563100D03*
G01X22162008Y11938000D03*
G01X22479508Y7404100D03*
G01X22644608Y3848100D03*
G01X22962108Y5499100D03*
G01X23114508Y7658100D03*
G01X23432008Y1689100D03*
G01X23432008Y9309100D03*
G01X23432008Y11684000D03*
G01X23597108Y5753100D03*
G01X24067008Y1943100D03*
G01X24067008Y9563100D03*
G01X24067008Y11938000D03*
G01X24384508Y7404100D03*
G01X24638508Y3594100D03*
G01X25019508Y7658100D03*
G01X25273508Y3848100D03*
G01X25337008Y11684000D03*
G01X25812767Y1206500D03*
G01X25972008Y11938000D03*
G01X26057173Y5497233D03*
G01X26289508Y9309100D03*
G01X26447767Y1460500D03*
G01X26692173Y5751233D03*
G01X26765008Y7403000D03*
G01X26924508Y9563100D03*
G01X27242008Y11684000D03*
G01X27400008Y7657000D03*
G01X27717984Y1206500D03*
G01X27718418Y3111500D03*
G01X27877008Y11938000D03*
G01X28352984Y1460500D03*
G01X28353418Y3365500D03*
G01X29622767Y1206500D03*
G01X30099508Y3594100D03*
G01X30099508Y5499100D03*
G01X30099508Y7404100D03*
G01X30099508Y9309100D03*
G01X30099508Y11684000D03*
G01X30257767Y1460500D03*
G01X30734508Y3848100D03*
G01X30734508Y5753100D03*
G01X30734508Y7658100D03*
G01X30734508Y9563100D03*
G01X30734508Y11938000D03*
G54D18*
G01X443998Y11430977D03*
G01X444500Y9055100D03*
G01X686998Y1434598D03*
G01X920997Y7149986D03*
G01X1159997Y5244990D03*
G01X1459998Y11430977D03*
G01X1460500Y9055100D03*
G01X1634996Y3339993D03*
G01X1702998Y1434598D03*
G01X1936997Y7149986D03*
G01X2175997Y5244990D03*
G01X2349500Y9055100D03*
G01X2650996Y3339993D03*
G01X3062993Y1434997D03*
G01X3302000Y7150100D03*
G01X3365500Y9055100D03*
G01X3784600Y5245100D03*
G01X4078993Y1434997D03*
G01X4254500Y9055100D03*
G01X4254500Y11430000D03*
G01X4318000Y7150100D03*
G01X4737100Y3340100D03*
G01X4800600Y5245100D03*
G01X5207000Y7150100D03*
G01X5270500Y9055100D03*
G01X5270500Y11430000D03*
G01X5449988Y1434997D03*
G01X5689600Y5245100D03*
G01X5753100Y3340100D03*
G01X6159500Y9055100D03*
G01X6159500Y11430000D03*
G01X6223000Y7150100D03*
G01X6465988Y1434997D03*
G01X6642100Y3340100D03*
G01X6705600Y5245100D03*
G01X7112000Y7150100D03*
G01X7175500Y9055100D03*
G01X7175500Y11430000D03*
G01X7594600Y5245100D03*
G01X7658100Y3340100D03*
G01X8064500Y9055100D03*
G01X8064500Y11430000D03*
G01X8128000Y7150100D03*
G01X8547100Y3340100D03*
G01X8610600Y5245100D03*
G01X9017000Y7150100D03*
G01X9080500Y9055100D03*
G01X9080500Y11430000D03*
G01X9499600Y5245100D03*
G01X9563100Y3340100D03*
G01X9969500Y9055100D03*
G01X9969500Y11430000D03*
G01X10033000Y7150100D03*
G01X10452100Y3340100D03*
G01X10515600Y5245100D03*
G01X10922000Y7150100D03*
G01X10985500Y9055100D03*
G01X10985500Y11430000D03*
G01X11404600Y5245100D03*
G01X11468100Y3340100D03*
G01X11874500Y9055100D03*
G01X11938000Y7150100D03*
G01X12357100Y3340100D03*
G01X12420600Y5245100D03*
G01X12588974Y1434997D03*
G01X12827000Y7150100D03*
G01X12827000Y11430000D03*
G01X12890500Y9055100D03*
G01X13309600Y5245100D03*
G01X13373100Y3340100D03*
G01X13604974Y1434997D03*
G01X13779500Y9055100D03*
G01X13843000Y7150100D03*
G01X13843000Y11430000D03*
G01X14262100Y3340100D03*
G01X14325600Y5245100D03*
G01X14732000Y7150100D03*
G01X14732000Y11430000D03*
G01X14795500Y9055100D03*
G01X15214600Y5245100D03*
G01X15278100Y3340100D03*
G01X15684500Y9055100D03*
G01X15748000Y7150100D03*
G01X15748000Y11430000D03*
G01X16167100Y3340100D03*
G01X16230600Y5245100D03*
G01X16637000Y7150100D03*
G01X16637000Y11430000D03*
G01X16700500Y9055100D03*
G01X17119600Y5245100D03*
G01X17183100Y3340100D03*
G01X17589500Y9055100D03*
G01X17653000Y7150100D03*
G01X17653000Y11430000D03*
G01X18072100Y3340100D03*
G01X18135600Y5245100D03*
G01X18542000Y7150100D03*
G01X18542000Y11430000D03*
G01X18605500Y9055100D03*
G01X19024600Y5245100D03*
G01X19088100Y3340100D03*
G01X19494500Y1435100D03*
G01X19494500Y9055100D03*
G01X19558000Y7150100D03*
G01X19558000Y11430000D03*
G01X19977100Y3340100D03*
G01X20040600Y5245100D03*
G01X20447000Y7150100D03*
G01X20510500Y1435100D03*
G01X20510500Y9055100D03*
G01X20929600Y5245100D03*
G01X20993100Y3340100D03*
G01X21399500Y1435100D03*
G01X21399500Y9055100D03*
G01X21399500Y11430000D03*
G01X21463000Y7150100D03*
G01X21882100Y3340100D03*
G01X21945600Y5245100D03*
G01X22352000Y7150100D03*
G01X22415500Y1435100D03*
G01X22415500Y9055100D03*
G01X22415500Y11430000D03*
G01X22834600Y5245100D03*
G01X22898100Y3340100D03*
G01X23304500Y1435100D03*
G01X23304500Y9055100D03*
G01X23304500Y11430000D03*
G01X23368000Y7150100D03*
G01X23850600Y5245100D03*
G01X24257000Y7150100D03*
G01X24320500Y1435100D03*
G01X24320500Y9055100D03*
G01X24320500Y11430000D03*
G01X24511000Y3340100D03*
G01X25209500Y11430000D03*
G01X25273000Y7150100D03*
G01X25527000Y3340100D03*
G01X25685948Y952998D03*
G01X25929947Y5243990D03*
G01X26162000Y9055100D03*
G01X26225500Y11430000D03*
G01X26637946Y7148986D03*
G01X26701948Y952998D03*
G01X26945947Y5243990D03*
G01X27114500Y11430000D03*
G01X27178000Y9055100D03*
G01X27590944Y952998D03*
G01X27590944Y2857994D03*
G01X27653946Y7148986D03*
G01X28130500Y11430000D03*
G01X28606944Y952998D03*
G01X28606944Y2857994D03*
G01X29495940Y952998D03*
G01X29972000Y3340100D03*
G01X29972000Y5245100D03*
G01X29972000Y7150100D03*
G01X29972000Y9055100D03*
G01X29972000Y11430000D03*
G01X30511940Y952998D03*
G01X30988000Y3340100D03*
G01X30988000Y5245100D03*
G01X30988000Y7150100D03*
G01X30988000Y9055100D03*
G01X30988000Y11430000D03*
G54D19*
G01X5673301Y13840605D03*
G01X5673301Y14577205D03*
G01X5901901Y13472305D03*
G01X5901901Y14208905D03*
G01X6493299Y13840605D03*
G01X6493299Y14577205D03*
G01X6714701Y13840605D03*
G01X6714701Y14577205D03*
G01X6721899Y13472305D03*
G01X6721899Y14208905D03*
G01X6943301Y13472305D03*
G01X6943301Y14208905D03*
G01X7534699Y13840605D03*
G01X7534699Y14577205D03*
G01X7756101Y13840605D03*
G01X7756101Y14577205D03*
G01X7763299Y13472305D03*
G01X7763299Y14208905D03*
G01X7984701Y13472305D03*
G01X7984701Y14208905D03*
G01X8576099Y13840605D03*
G01X8576099Y14577205D03*
G01X8797501Y13840605D03*
G01X8797501Y14577205D03*
G01X8804699Y13472305D03*
G01X8804699Y14208905D03*
G01X9026101Y13472305D03*
G01X9026101Y14208905D03*
G01X9617499Y13840605D03*
G01X9617499Y14577205D03*
G01X9838901Y13840605D03*
G01X9838901Y14577205D03*
G01X9846099Y13472305D03*
G01X9846099Y14208905D03*
G01X10067501Y13472305D03*
G01X10067501Y14208905D03*
G01X10658899Y13840605D03*
G01X10658899Y14577205D03*
G01X10880301Y13840605D03*
G01X10880301Y14577205D03*
G01X10887499Y13472305D03*
G01X10887499Y14208905D03*
G01X11108901Y13472305D03*
G01X11108901Y14208905D03*
G01X11700299Y13840605D03*
G01X11700299Y14577205D03*
G01X11921701Y13840605D03*
G01X11921701Y14577205D03*
G01X11928899Y13472305D03*
G01X11928899Y14208905D03*
G01X12150301Y13472305D03*
G01X12150301Y14208905D03*
G01X12741699Y13840605D03*
G01X12741699Y14577205D03*
G01X12963101Y13840605D03*
G01X12963101Y14577205D03*
G01X12970299Y13472305D03*
G01X12970299Y14208905D03*
G01X13191701Y13472305D03*
G01X13191701Y14208905D03*
G01X13783099Y13840605D03*
G01X13783099Y14577205D03*
G01X14004501Y13840605D03*
G01X14004501Y14577205D03*
G01X14011699Y13472305D03*
G01X14011699Y14208905D03*
G01X14233101Y13472305D03*
G01X14233101Y14208905D03*
G01X14824499Y13840605D03*
G01X14824499Y14577205D03*
G01X15045901Y13840605D03*
G01X15045901Y14577205D03*
G01X15053099Y13472305D03*
G01X15053099Y14208905D03*
G01X15274501Y13472305D03*
G01X15274501Y14208905D03*
G01X15865899Y13840605D03*
G01X15865899Y14577205D03*
G01X16087301Y13840605D03*
G01X16087301Y14577205D03*
G01X16094499Y13472305D03*
G01X16094499Y14208905D03*
G01X16315901Y13472305D03*
G01X16315901Y14208905D03*
G01X16907299Y13840605D03*
G01X16907299Y14577205D03*
G01X17128701Y13840605D03*
G01X17135899Y13472305D03*
G01X17135899Y14208905D03*
G01X17154101Y14577205D03*
G01X17357301Y13472305D03*
G01X17357301Y14208905D03*
G01X17948699Y13840605D03*
G01X17974099Y14577205D03*
G01X18170101Y13840605D03*
G01X18177299Y13472305D03*
G01X18177299Y14208905D03*
G01X18195501Y14577205D03*
G01X18398701Y13472305D03*
G01X18411401Y14208905D03*
G01X18990099Y13840605D03*
G01X19015499Y14577205D03*
G01X19211501Y13840605D03*
G01X19218699Y13472305D03*
G01X19231399Y14208905D03*
G01X19236901Y14577205D03*
G01X19440101Y13472305D03*
G01X19452801Y14208905D03*
G01X20031499Y13840605D03*
G01X20056899Y14577205D03*
G01X20252901Y13840605D03*
G01X20260099Y13472305D03*
G01X20272799Y14208905D03*
G01X20278301Y14577205D03*
G01X20481501Y13472305D03*
G01X20494201Y14208905D03*
G01X21072899Y13840605D03*
G01X21098299Y14577205D03*
G01X21294301Y13840605D03*
G01X21301499Y13472305D03*
G01X21314199Y14208905D03*
G01X21319701Y14577205D03*
G01X21522901Y13472305D03*
G01X21535601Y14208905D03*
G01X22114299Y13840605D03*
G01X22139699Y14577205D03*
G01X22335701Y13840605D03*
G01X22342899Y13472305D03*
G01X22355599Y14208905D03*
G01X22361101Y14577205D03*
G01X22564301Y13472305D03*
G01X22577001Y14208905D03*
G01X23155699Y13840605D03*
G01X23181099Y14577205D03*
G01X23377101Y13840605D03*
G01X23384299Y13472305D03*
G01X23396999Y14208905D03*
G01X23402501Y14577205D03*
G01X23605701Y13472305D03*
G01X23618401Y14208905D03*
G01X24197099Y13840605D03*
G01X24222499Y14577205D03*
G01X24418501Y13840605D03*
G01X24425699Y13472305D03*
G01X24438399Y14208905D03*
G01X24443901Y14577205D03*
G01X24647101Y13472305D03*
G01X24659801Y14208905D03*
G01X25238499Y13840605D03*
G01X25263899Y14577205D03*
G01X25459901Y13840605D03*
G01X25467099Y13472305D03*
G01X25479799Y14208905D03*
G01X25485301Y14577205D03*
G01X25688501Y13472305D03*
G01X25701201Y14208905D03*
G01X26279899Y13840605D03*
G01X26305299Y14577205D03*
G01X26501303Y13840605D03*
G01X26508499Y13472305D03*
G01X26521199Y14208905D03*
G01X26526701Y14577205D03*
G01X26729901Y13472305D03*
G01X26742601Y14208905D03*
G01X27321302Y13840605D03*
G01X27346699Y14577205D03*
G01X27549899Y13472305D03*
G01X27562599Y14208905D03*
G54D20*
G01X241503Y7651974D03*
G01X254000Y11671300D03*
G01X495300Y7404100D03*
G01X673100Y4483100D03*
G01X698500Y1143000D03*
G01X749300Y13815200D03*
G01X787400Y10682732D03*
G01X825500Y5016500D03*
G01X825500Y12001500D03*
G01X952500Y13980300D03*
G01X952500Y14234300D03*
G01X965200Y11760200D03*
G01X1016000Y11074400D03*
G01X1117600Y13802500D03*
G01X1117600Y14412100D03*
G01X1231900Y8711995D03*
G01X1473200Y711200D03*
G01X1473200Y1054100D03*
G01X1473200Y13904100D03*
G01X1536700Y13662800D03*
G01X1663700Y14005700D03*
G01X1714500Y6396982D03*
G01X1714500Y8890000D03*
G01X1714500Y13256400D03*
G01X1816100Y8013700D03*
G01X1816100Y8978900D03*
G01X1828800Y9779000D03*
G01X1841670Y2603670D03*
G01X1917700Y8102600D03*
G01X1917700Y9677400D03*
G01X1955800Y4911429D03*
G01X1967207Y14094600D03*
G01X2146300Y9296400D03*
G01X2229736Y14069200D03*
G01X2298700Y13370700D03*
G01X2463800Y11074400D03*
G01X2514600Y8026400D03*
G01X2578100Y11074400D03*
G01X2806700Y13866000D03*
G01X2818690Y6396982D03*
G01X2908300Y10610471D03*
G01X3009900Y12938900D03*
G01X3035300Y13573900D03*
G01X3098800Y7404100D03*
G01X3327400Y13878700D03*
G01X3492500Y13116700D03*
G01X3492500Y14335900D03*
G01X3657600Y12938900D03*
G01X3784600Y736600D03*
G01X3937000Y13904100D03*
G01X4051300Y9309100D03*
G01X4052550Y11684000D03*
G01X4127500Y14462900D03*
G01X4267200Y14374000D03*
G01X4368800Y14399400D03*
G01X4394200Y13700900D03*
G01X4403224Y8004676D03*
G01X4406900Y13548500D03*
G01X4508500Y13789800D03*
G01X4635500Y13142100D03*
G01X4724400Y9842500D03*
G01X4724400Y14399400D03*
G01X4914900Y13104000D03*
G01X5003800Y7404100D03*
G01X5067300Y13040500D03*
G01X5105400Y13677900D03*
G01X5109693Y13470903D03*
G01X5248899Y14475601D03*
G01X5248899Y14615301D03*
G01X5308600Y5130800D03*
G01X5329707Y13295897D03*
G01X5359400Y11569700D03*
G01X5715000Y13258800D03*
G01X5956300Y9309100D03*
G01X5956300Y11684000D03*
G01X6210300Y723900D03*
G01X6819900Y6870700D03*
G01X7289800Y5156200D03*
G01X7360606Y10713406D03*
G01X7861300Y11684000D03*
G01X8877300Y762000D03*
G01X9766300Y9309100D03*
G01X9766300Y11684000D03*
G01X10795000Y330200D03*
G01X10972800Y749300D03*
G01X11163300Y10706100D03*
G01X11252200Y11404600D03*
G01X12103100Y330200D03*
G01X12407900Y12103100D03*
G01X12623800Y11684000D03*
G01X13284200Y762000D03*
G01X13309600Y330200D03*
G01X14439900Y11925300D03*
G01X14528800Y11684000D03*
G01X15582900Y736600D03*
G01X16319500Y12001500D03*
G01X16433800Y11684000D03*
G01X16433800Y13015100D03*
G01X17386503Y9309100D03*
G01X17995900Y12469000D03*
G01X18338800Y11684000D03*
G01X18351500Y9982200D03*
G01X18478500Y8788400D03*
G01X18776317Y762000D03*
G01X18923000Y12977000D03*
G01X19291300Y9309100D03*
G01X20218400Y762000D03*
G01X20434300Y8864600D03*
G01X20590494Y5156200D03*
G01X20599400Y12621400D03*
G01X21196300Y11684000D03*
G01X21374100Y330200D03*
G01X22072600Y723900D03*
G01X22313900Y330200D03*
G01X22618700Y12634100D03*
G01X23101300Y9309100D03*
G01X23101300Y11684000D03*
G01X23393400Y330200D03*
G01X23393400Y12977000D03*
G01X23914100Y6540500D03*
G01X23926800Y3581400D03*
G01X24003000Y7950200D03*
G01X24053800Y7404100D03*
G01X24155400Y736600D03*
G01X24307800Y3581400D03*
G01X24498300Y2933700D03*
G01X24507103Y6553200D03*
G01X24549100Y825500D03*
G01X25006300Y11684000D03*
G01X25095200Y5486400D03*
G01X25501600Y9321800D03*
G01X25730200Y5486400D03*
G01X25958800Y8039916D03*
G01X25958800Y9309100D03*
G01X26327100Y3594100D03*
G01X26327100Y3771900D03*
G01X26428700Y7404100D03*
G01X26441400Y10031296D03*
G01X26441400Y11622587D03*
G01X26568400Y9664700D03*
G01X26911300Y10384240D03*
G01X26911300Y11087086D03*
G01X26911300Y11671300D03*
G01X27038300Y14056500D03*
G01X28143200Y647700D03*
G01X28752800Y6146800D03*
G01X28905200Y9105900D03*
G01X28905200Y10439400D03*
G01X29298900Y1206500D03*
G01X29425900Y6396982D03*
G01X29540200Y11887200D03*
G01X29616400Y4521200D03*
G01X29756100Y9309100D03*
G01X29756100Y10134600D03*
G01X29768800Y5499100D03*
G01X29768800Y11671300D03*
G01X29769003Y2149713D03*
G01X29769003Y7404100D03*
G01X30314900Y8115300D03*
G01X30314900Y8229600D03*
G01X30336482Y6396982D03*
G01X30365700Y10680700D03*
G01X30416500Y12342000D03*
G01X30416500Y14160500D03*
G01X30441900Y647700D03*
G01X30445371Y4911429D03*
G01X30784800Y11582400D03*
G01X30797500Y8115300D03*
G01X30797500Y8229600D03*
G01X30835600Y4445000D03*
G01X30924500Y13916800D03*
G01X31305500Y13243700D03*
G54D21*
G01X1000000Y3000000D03*
G01X1000000Y6000000D03*
G01X1000000Y7000000D03*
G01X1000000Y8000000D03*
G01X1000000Y10000000D03*
G01X2000000Y2000000D03*
G01X2000000Y3000000D03*
G01X2000000Y6000000D03*
G01X2000000Y7000000D03*
G01X2463800Y12748400D03*
G01X2578100Y12811900D03*
G01X3000000Y2000000D03*
G01X3000000Y3000000D03*
G01X3000000Y4000000D03*
G01X3000000Y5000000D03*
G01X3000000Y6000000D03*
G01X3000000Y7000000D03*
G01X3000000Y8000000D03*
G01X3000000Y10000000D03*
G01X3000000Y12000000D03*
G01X3000000Y14365900D03*
G01X4000000Y3000000D03*
G01X4000000Y4000000D03*
G01X4000000Y5000000D03*
G01X4000000Y6000000D03*
G01X4000000Y8000000D03*
G01X4000000Y9000000D03*
G01X4000000Y10000000D03*
G01X4000000Y12000000D03*
G01X4000000Y13365900D03*
G01X5000000Y2000000D03*
G01X5000000Y3000000D03*
G01X5000000Y4000000D03*
G01X5000000Y5000000D03*
G01X5000000Y8000000D03*
G01X5000000Y10000000D03*
G01X5092700Y13916800D03*
G01X5435600Y13866000D03*
G01X5524500Y14120000D03*
G01X5597370Y14265661D03*
G01X6000000Y2000000D03*
G01X6000000Y3000000D03*
G01X6000000Y5000000D03*
G01X6000000Y6000000D03*
G01X6000000Y7000000D03*
G01X6000000Y8000000D03*
G01X7000000Y2000000D03*
G01X7000000Y3000000D03*
G01X7000000Y4000000D03*
G01X7000000Y5000000D03*
G01X7000000Y6000000D03*
G01X7000000Y7000000D03*
G01X7000000Y8000000D03*
G01X7000000Y9000000D03*
G01X7000000Y10000000D03*
G01X7315200Y13993000D03*
G01X7315200Y14208900D03*
G01X7518400Y13485000D03*
G01X7518400Y13586600D03*
G01X7531100Y13993000D03*
G01X8000000Y3000000D03*
G01X8000000Y4000000D03*
G01X8000000Y5000000D03*
G01X8000000Y6000000D03*
G01X8000000Y7000000D03*
G01X8000000Y8000000D03*
G01X8000000Y10000000D03*
G01X8064500Y13586600D03*
G01X8559800Y14120000D03*
G01X8915400Y14310500D03*
G01X9000000Y2000000D03*
G01X9000000Y3000000D03*
G01X9000000Y4000000D03*
G01X9000000Y7000000D03*
G01X9000000Y8000000D03*
G01X9000000Y10000000D03*
G01X9359900Y13891400D03*
G01X9410700Y13612000D03*
G01X10000000Y2000000D03*
G01X10000000Y3000000D03*
G01X10000000Y4000000D03*
G01X10000000Y6000000D03*
G01X10000000Y7000000D03*
G01X10000000Y10000000D03*
G01X10000000Y12000000D03*
G01X10058400Y13954900D03*
G01X10452100Y13700900D03*
G01X10553700Y13294500D03*
G01X10591800Y13472300D03*
G01X10680700Y14132700D03*
G01X10845800Y13688200D03*
G01X11000000Y2000000D03*
G01X11000000Y3000000D03*
G01X11000000Y4000000D03*
G01X11000000Y7000000D03*
G01X11000000Y8000000D03*
G01X11112500Y13954900D03*
G01X11150600Y13675500D03*
G01X11341100Y14081900D03*
G01X11417300Y14158100D03*
G01X11709400Y14145400D03*
G01X12000000Y2000000D03*
G01X12000000Y3000000D03*
G01X12000000Y4000000D03*
G01X12000000Y6000000D03*
G01X12000000Y7000000D03*
G01X12000000Y10000000D03*
G01X12153900Y13853300D03*
G01X13000000Y2000000D03*
G01X13000000Y3000000D03*
G01X13000000Y5000000D03*
G01X13000000Y6000000D03*
G01X13000000Y7000000D03*
G01X13000000Y8000000D03*
G01X13000000Y12000000D03*
G01X13081000Y13383400D03*
G01X14000000Y2000000D03*
G01X14000000Y3000000D03*
G01X14000000Y4000000D03*
G01X14000000Y5000000D03*
G01X14000000Y6000000D03*
G01X14000000Y7000000D03*
G01X14000000Y9000000D03*
G01X14000000Y10000000D03*
G01X14516100Y13472300D03*
G01X14782800Y13548500D03*
G01X14935200Y14120000D03*
G01X15000000Y2000000D03*
G01X15000000Y3000000D03*
G01X15000000Y5000000D03*
G01X15000000Y6000000D03*
G01X15000000Y7000000D03*
G01X15000000Y8000000D03*
G01X15000000Y9000000D03*
G01X15000000Y12000000D03*
G01X15709900Y13739000D03*
G01X16000001Y2000000D03*
G01X16000001Y3000000D03*
G01X16000001Y4000000D03*
G01X16000001Y5000000D03*
G01X16000001Y6000000D03*
G01X16000001Y10000000D03*
G01X16421100Y13586600D03*
G01X16624300Y13523100D03*
G01X16675100Y14031100D03*
G01X16789400Y14374000D03*
G01X17000001Y2000000D03*
G01X17000001Y3000000D03*
G01X17000001Y5000000D03*
G01X17000001Y6000000D03*
G01X17000001Y8000000D03*
G01X17000001Y9000000D03*
G01X17000001Y10000000D03*
G01X17000001Y12000000D03*
G01X17386300Y14031100D03*
G01X17640300Y13573900D03*
G01X18000001Y3000000D03*
G01X18000001Y4000000D03*
G01X18000001Y5000000D03*
G01X18000001Y6000000D03*
G01X18000001Y7000000D03*
G01X18000001Y8000000D03*
G01X18000001Y10000000D03*
G01X18694400Y13954900D03*
G01X18694400Y14285100D03*
G01X19000001Y2000000D03*
G01X19000001Y3000000D03*
G01X19000001Y4000000D03*
G01X19000001Y5000000D03*
G01X19000001Y6000000D03*
G01X19000001Y8000000D03*
G01X19000001Y9000000D03*
G01X19000001Y10000000D03*
G01X19000001Y12000000D03*
G01X19024600Y13497700D03*
G01X19329400Y13688200D03*
G01X19735800Y13853300D03*
G01X20000001Y2000000D03*
G01X20000001Y4000000D03*
G01X20000001Y5000000D03*
G01X20000001Y6000000D03*
G01X20000001Y7000000D03*
G01X20000001Y8000000D03*
G01X20000001Y10000000D03*
G01X20000001Y12000000D03*
G01X20078700Y14018400D03*
G01X20840700Y13967600D03*
G01X20993100Y14335900D03*
G01X21000001Y3000000D03*
G01X21000001Y5000000D03*
G01X21000001Y6000000D03*
G01X21000001Y8000000D03*
G01X21056600Y14424800D03*
G01X21602700Y14348600D03*
G01X21717000Y14437500D03*
G01X22000001Y3000000D03*
G01X22000001Y4000000D03*
G01X22000001Y5000000D03*
G01X22000001Y7000000D03*
G01X22000001Y8000000D03*
G01X22000001Y10000000D03*
G01X22000001Y11000000D03*
G01X22034500Y13967600D03*
G01X22377400Y13967600D03*
G01X23000001Y2000000D03*
G01X23000001Y3000000D03*
G01X23000001Y5000000D03*
G01X23000001Y6000000D03*
G01X23000001Y8000000D03*
G01X23000001Y10000000D03*
G01X23317200Y13675500D03*
G01X24000001Y3000000D03*
G01X24000001Y4000000D03*
G01X24000001Y5000000D03*
G01X24000001Y6000000D03*
G01X24000001Y7000000D03*
G01X24000001Y11000000D03*
G01X24333200Y14374000D03*
G01X25000001Y2000000D03*
G01X25000001Y3000000D03*
G01X25000001Y4000000D03*
G01X25000001Y5000000D03*
G01X25000001Y6000000D03*
G01X25000001Y7000000D03*
G01X25000001Y9000000D03*
G01X25000001Y10000000D03*
G01X25000001Y12000000D03*
G01X25057100Y14081900D03*
G01X26000001Y2000000D03*
G01X26000001Y3000000D03*
G01X26000001Y4000000D03*
G01X26000001Y5000000D03*
G01X26000001Y6000000D03*
G01X26000001Y7000000D03*
G01X26000001Y10000000D03*
G01X27000001Y1000000D03*
G01X27000001Y2000000D03*
G01X27000001Y3000000D03*
G01X27000001Y4000000D03*
G01X27000001Y5000000D03*
G01X27000001Y6000000D03*
G01X27000001Y9000000D03*
G01X27000001Y10000000D03*
G01X27000001Y12000000D03*
G01X27038300Y13764400D03*
G01X28000001Y2000000D03*
G01X28000001Y4000000D03*
G01X28000001Y5000000D03*
G01X28000001Y6000000D03*
G01X28000001Y7000000D03*
G01X28000001Y8000000D03*
G01X28000001Y9000000D03*
G01X28000001Y10000000D03*
G01X28321000Y12255500D03*
G01X28536900Y12039600D03*
G01X29000001Y1000000D03*
G01X29000001Y2000000D03*
G01X29000001Y3000000D03*
G01X29000001Y4000000D03*
G01X29000001Y5000000D03*
G01X29000001Y6000000D03*
G01X29000001Y7000000D03*
G01X29000001Y8000000D03*
G01X29000001Y10000000D03*
G01X30000001Y2000000D03*
G01X30000001Y3000000D03*
G01X30000001Y4000000D03*
G01X30000001Y5000000D03*
G01X30000001Y6000000D03*
G01X30000001Y7000000D03*
G01X30000001Y10000000D03*
G01X31000001Y1000000D03*
G01X31000001Y2000000D03*
G01X31000001Y3000000D03*
G01X31000001Y5000000D03*
G01X31000001Y6000000D03*
G01X31000001Y7000000D03*
G01X31000001Y8000000D03*
G01X31000001Y10000000D03*
G01X31000001Y11000000D03*
G04 Drill Drawing End*

M02*

