G04 Layer: BottomSolderMaskLayer*
G04 EasyEDA Pro v2.2.36.7, 2025-02-27 19:51:26*
G04 Gerber Generator version 0.3*
G04 Scale: 100 percent, Rotated: No, Reflected: No*
G04 Dimensions in millimeters*
G04 Leading zeros omitted, absolute positions, 4 integers and 5 decimals*
G04 Panelize: V-CUT, Column: 1, Row: 1, Board Size: 327.343mm x 158.09mm, Panelized Board Size: 327.343mm x 170.091mm, Panelized Method: Only Board Outline*
%FSLAX45Y45*%
%MOMM*%
%AMRoundRect*1,1,$1,$2,$3*1,1,$1,$4,$5*1,1,$1,0-$2,0-$3*1,1,$1,0-$4,0-$5*20,1,$1,$2,$3,$4,$5,0*20,1,$1,$4,$5,0-$2,0-$3,0*20,1,$1,0-$2,0-$3,0-$4,0-$5,0*20,1,$1,0-$4,0-$5,$2,$3,0*4,1,4,$2,$3,$4,$5,0-$2,0-$3,0-$4,0-$5,$2,$3,0*%
%ADD10C,2.0*%
%ADD11C,1.7016*%
%ADD12RoundRect,0.09618X-0.85271X-0.85271X-0.85271X0.85271*%
%ADD13C,1.8016*%
%ADD14RoundRect,0.09618X0.85271X0.85271X0.85271X-0.85271*%
%ADD15O,1.10002X2.20002*%
%ADD16O,1.1029X1.90002*%
%ADD17O,1.10002X1.90002*%
%ADD18RoundRect,0.09535X-0.97733X1.20232X0.97733X1.20232*%
%ADD19RoundRect,0.0858X-0.23291X-0.23291X-0.23291X0.23291*%
%ADD20RoundRect,0.0858X0.23291X-0.23291X-0.23291X-0.23291*%
%ADD21RoundRect,0.0858X0.23291X0.23291X0.23291X-0.23291*%
G75*


G04 Panelize Start*
G54D10*
G01X360781Y15528341D03*
G01X31094945Y15528341D03*
G01X860781Y-880729D03*
G01X30594945Y-880729D03*
G04 Panelize End*

G04 Pad Start*
G54D11*
G01X6493304Y14577202D03*
G01X5673291Y14577202D03*
G01X7534704Y13840602D03*
G01X6714691Y13840602D03*
G01X9617504Y14577202D03*
G01X8797491Y14577202D03*
G01X10658904Y13840602D03*
G01X9838891Y13840602D03*
G01X12741704Y14577202D03*
G01X11921691Y14577202D03*
G01X13783104Y13840602D03*
G01X12963091Y13840602D03*
G01X15865904Y14577202D03*
G01X15045891Y14577202D03*
G01X16907304Y13840602D03*
G01X16087291Y13840602D03*
G01X19015504Y14577202D03*
G01X18195491Y14577202D03*
G01X20031504Y13840602D03*
G01X19211491Y13840602D03*
G01X21301504Y13472302D03*
G01X20481491Y13472302D03*
G01X23397004Y14208902D03*
G01X22576991Y14208902D03*
G01X24425704Y13472302D03*
G01X23605691Y13472302D03*
G01X6721904Y14208902D03*
G01X5901891Y14208902D03*
G01X7763304Y13472302D03*
G01X6943291Y13472302D03*
G01X9846104Y14208902D03*
G01X9026091Y14208902D03*
G01X10887504Y13472302D03*
G01X10067491Y13472302D03*
G01X12970304Y14208902D03*
G01X12150291Y14208902D03*
G01X14011704Y13472302D03*
G01X13191691Y13472302D03*
G01X16094504Y14208902D03*
G01X15274491Y14208902D03*
G01X17135904Y13472302D03*
G01X16315891Y13472302D03*
G01X19231404Y14208902D03*
G01X18411391Y14208902D03*
G01X20260104Y13472302D03*
G01X19440091Y13472302D03*
G01X22139704Y14577202D03*
G01X21319691Y14577202D03*
G01X23155704Y13840602D03*
G01X22335691Y13840602D03*
G01X25263904Y14577202D03*
G01X24443891Y14577202D03*
G01X26521204Y14208902D03*
G01X25701191Y14208902D03*
G01X6493304Y13840602D03*
G01X5673291Y13840602D03*
G01X8576104Y14577202D03*
G01X7756091Y14577202D03*
G01X9617504Y13840602D03*
G01X8797491Y13840602D03*
G01X11700304Y14577202D03*
G01X10880291Y14577202D03*
G01X12741704Y13840602D03*
G01X11921691Y13840602D03*
G01X14824504Y14577202D03*
G01X14004491Y14577202D03*
G01X15865904Y13840602D03*
G01X15045891Y13840602D03*
G01X17974104Y14577202D03*
G01X17154091Y14577202D03*
G01X18990104Y13840602D03*
G01X18170091Y13840602D03*
G01X21098304Y14577202D03*
G01X20278291Y14577202D03*
G01X22355604Y14208902D03*
G01X21535591Y14208902D03*
G01X23384304Y13472302D03*
G01X22564291Y13472302D03*
G01X25479804Y14208902D03*
G01X24659791Y14208902D03*
G01X26279904Y13840602D03*
G01X25459891Y13840602D03*
G01X6721904Y13472302D03*
G01X5901891Y13472302D03*
G01X8804704Y14208902D03*
G01X7984691Y14208902D03*
G01X9846104Y13472302D03*
G01X9026091Y13472302D03*
G01X11928904Y14208902D03*
G01X11108891Y14208902D03*
G01X12970304Y13472302D03*
G01X12150291Y13472302D03*
G01X15053104Y14208902D03*
G01X14233091Y14208902D03*
G01X16094504Y13472302D03*
G01X15274491Y13472302D03*
G01X18177304Y14208902D03*
G01X17357291Y14208902D03*
G01X19218704Y13472302D03*
G01X18398691Y13472302D03*
G01X21314204Y14208902D03*
G01X20494191Y14208902D03*
G01X22114304Y13840602D03*
G01X21294291Y13840602D03*
G01X24222504Y14577202D03*
G01X23402491Y14577202D03*
G01X25238504Y13840602D03*
G01X24418491Y13840602D03*
G01X26508504Y13472302D03*
G01X25688491Y13472302D03*
G01X7534704Y14577202D03*
G01X6714691Y14577202D03*
G01X8576104Y13840602D03*
G01X7756091Y13840602D03*
G01X10658904Y14577202D03*
G01X9838891Y14577202D03*
G01X11700304Y13840602D03*
G01X10880291Y13840602D03*
G01X13783104Y14577202D03*
G01X12963091Y14577202D03*
G01X14824504Y13840602D03*
G01X14004491Y13840602D03*
G01X16907304Y14577202D03*
G01X16087291Y14577202D03*
G01X17948704Y13840602D03*
G01X17128691Y13840602D03*
G01X20056904Y14577202D03*
G01X19236891Y14577202D03*
G01X21072904Y13840602D03*
G01X20252891Y13840602D03*
G01X22342904Y13472302D03*
G01X21522891Y13472302D03*
G01X24438404Y14208902D03*
G01X23618391Y14208902D03*
G01X25467104Y13472302D03*
G01X24647091Y13472302D03*
G01X27346704Y14577202D03*
G01X26526691Y14577202D03*
G01X7763304Y14208902D03*
G01X6943291Y14208902D03*
G01X8804704Y13472302D03*
G01X7984691Y13472302D03*
G01X10887504Y14208902D03*
G01X10067491Y14208902D03*
G01X11928904Y13472302D03*
G01X11108891Y13472302D03*
G01X14011704Y14208902D03*
G01X13191691Y14208902D03*
G01X15053104Y13472302D03*
G01X14233091Y13472302D03*
G01X17135904Y14208902D03*
G01X16315891Y14208902D03*
G01X23181104Y14577202D03*
G01X22361091Y14577202D03*
G01X24197104Y13840602D03*
G01X23377091Y13840602D03*
G01X26305304Y14577202D03*
G01X25485291Y14577202D03*
G01X27562604Y14208902D03*
G01X26742591Y14208902D03*
G01X18177304Y13472302D03*
G01X17357291Y13472302D03*
G01X20272804Y14208902D03*
G01X19452791Y14208902D03*
G54D12*
G01X2590800Y6870700D03*
G54D13*
G01X2590800Y7124700D03*
G01X2590800Y7378700D03*
G01X2590800Y7632700D03*
G54D14*
G01X31203900Y14412100D03*
G54D13*
G01X31203900Y14158100D03*
G01X31203900Y13904100D03*
G01X31203900Y13650100D03*
G54D14*
G01X29146500Y7632700D03*
G54D13*
G01X29146500Y7378700D03*
G01X29146500Y7124700D03*
G01X29146500Y6870700D03*
G54D15*
G01X2159206Y14642899D03*
G54D17*
G01X2159206Y15060907D03*
G01X1295199Y15060907D03*
G54D15*
G01X1295199Y14642899D03*
G54D18*
G01X5346497Y11938000D03*
G01X4051503Y11684000D03*
G01X1536497Y11938000D03*
G01X241503Y11684000D03*
G01X7251497Y11938000D03*
G01X5956503Y11684000D03*
G01X9156497Y11938000D03*
G01X7861503Y11684000D03*
G01X11061497Y11938000D03*
G01X9766503Y11684000D03*
G01X13918997Y11938000D03*
G01X12624003Y11684000D03*
G01X15823997Y11938000D03*
G01X14529003Y11684000D03*
G01X17728997Y11938000D03*
G01X16434003Y11684000D03*
G01X19633997Y11938000D03*
G01X18339003Y11684000D03*
G01X22491497Y11938000D03*
G01X21196503Y11684000D03*
G01X24396497Y11938000D03*
G01X23101503Y11684000D03*
G01X26301497Y11938000D03*
G01X25006503Y11684000D03*
G01X28206497Y11938000D03*
G01X26911503Y11684000D03*
G01X1536497Y9563100D03*
G01X241503Y9309100D03*
G01X3441497Y9563100D03*
G01X2146503Y9309100D03*
G01X5346497Y9563100D03*
G01X4051503Y9309100D03*
G01X7251497Y9563100D03*
G01X5956503Y9309100D03*
G01X9156497Y9563100D03*
G01X7861503Y9309100D03*
G01X11061497Y9563100D03*
G01X9766503Y9309100D03*
G01X12966497Y9563100D03*
G01X11671503Y9309100D03*
G01X14871497Y9563100D03*
G01X13576503Y9309100D03*
G01X16776497Y9563100D03*
G01X15481503Y9309100D03*
G01X18681497Y9563100D03*
G01X17386503Y9309100D03*
G01X20586497Y9563100D03*
G01X19291503Y9309100D03*
G01X22491497Y9563100D03*
G01X21196503Y9309100D03*
G01X24396497Y9563100D03*
G01X23101503Y9309100D03*
G01X27253997Y9563100D03*
G01X25959003Y9309100D03*
G01X2012497Y7658100D03*
G01X717503Y7404100D03*
G01X4393997Y7658100D03*
G01X3099003Y7404100D03*
G01X6298997Y7658100D03*
G01X5004003Y7404100D03*
G01X8203997Y7658100D03*
G01X6909003Y7404100D03*
G01X10108997Y7658100D03*
G01X8814003Y7404100D03*
G01X12013997Y7658100D03*
G01X10719003Y7404100D03*
G01X13918997Y7658100D03*
G01X12624003Y7404100D03*
G01X15823997Y7658100D03*
G01X14529003Y7404100D03*
G01X17728997Y7658100D03*
G01X16434003Y7404100D03*
G01X19633997Y7658100D03*
G01X18339003Y7404100D03*
G01X21538997Y7658100D03*
G01X20244003Y7404100D03*
G01X23443997Y7658100D03*
G01X22149003Y7404100D03*
G01X25348997Y7658100D03*
G01X24054003Y7404100D03*
G01X27729497Y7657000D03*
G01X26434503Y7403000D03*
G01X2251497Y5753100D03*
G01X956503Y5499100D03*
G01X4876597Y5753100D03*
G01X3581603Y5499100D03*
G01X6781597Y5753100D03*
G01X5486603Y5499100D03*
G01X8686597Y5753100D03*
G01X7391603Y5499100D03*
G01X10591597Y5753100D03*
G01X9296603Y5499100D03*
G01X12496597Y5753100D03*
G01X11201603Y5499100D03*
G01X14401597Y5753100D03*
G01X13106603Y5499100D03*
G01X16306597Y5753100D03*
G01X15011603Y5499100D03*
G01X18211597Y5753100D03*
G01X16916603Y5499100D03*
G01X20116597Y5753100D03*
G01X18821603Y5499100D03*
G01X22021597Y5753100D03*
G01X20726603Y5499100D03*
G01X23926597Y5753100D03*
G01X22631603Y5499100D03*
G01X27021662Y5751233D03*
G01X25726669Y5497233D03*
G01X31063997Y5753100D03*
G01X29769003Y5499100D03*
G01X2726905Y3848100D03*
G01X1431912Y3594100D03*
G01X5829097Y3848100D03*
G01X4534103Y3594100D03*
G01X7734097Y3848100D03*
G01X6439103Y3594100D03*
G01X9639097Y3848100D03*
G01X8344103Y3594100D03*
G01X11544097Y3848100D03*
G01X10249103Y3594100D03*
G01X13449097Y3848100D03*
G01X12154103Y3594100D03*
G01X15354097Y3848100D03*
G01X14059103Y3594100D03*
G01X17259097Y3848100D03*
G01X15964103Y3594100D03*
G01X19164097Y3848100D03*
G01X17869103Y3594100D03*
G01X21069097Y3848100D03*
G01X19774103Y3594100D03*
G01X22974097Y3848100D03*
G01X21679103Y3594100D03*
G01X25602997Y3848100D03*
G01X24308003Y3594100D03*
G01X28682907Y3365500D03*
G01X27387913Y3111500D03*
G01X31063997Y3848100D03*
G01X29769003Y3594100D03*
G01X1777797Y1943100D03*
G01X482803Y1689100D03*
G01X4152697Y1943100D03*
G01X2857703Y1689100D03*
G01X6540297Y1943100D03*
G01X5245303Y1689100D03*
G01X13680735Y1943100D03*
G01X12385741Y1689100D03*
G01X20586497Y1943100D03*
G01X19291503Y1689100D03*
G01X22491497Y1943100D03*
G01X21196503Y1689100D03*
G01X24396497Y1943100D03*
G01X23101503Y1689100D03*
G01X31063997Y7658100D03*
G01X29769003Y7404100D03*
G01X31063997Y9563100D03*
G01X29769003Y9309100D03*
G01X31063997Y11938000D03*
G01X29769003Y11684000D03*
G01X26777256Y1460500D03*
G01X25482262Y1206500D03*
G01X28682472Y1460500D03*
G01X27387479Y1206500D03*
G01X30587256Y1460500D03*
G01X29292262Y1206500D03*
G54D19*
G01X567106Y14572806D03*
G01X567106Y14657794D03*
G01X652069Y14572806D03*
G01X652094Y14657794D03*
G01X554406Y12276506D03*
G01X554406Y12361494D03*
G01X639369Y12276506D03*
G01X639394Y12361494D03*
G01X554406Y9850806D03*
G01X554406Y9935794D03*
G01X639369Y9850806D03*
G01X639394Y9935794D03*
G01X554406Y7641006D03*
G01X554406Y7725994D03*
G01X639369Y7641006D03*
G01X639394Y7725994D03*
G01X554406Y5228006D03*
G01X554406Y5312994D03*
G01X639369Y5228006D03*
G01X639394Y5312994D03*
G01X554406Y2891206D03*
G01X554406Y2976194D03*
G01X639369Y2891206D03*
G01X639394Y2976194D03*
G01X554406Y579806D03*
G01X554406Y664794D03*
G01X639369Y579806D03*
G01X639394Y664794D03*
G54D20*
G01X2963494Y567106D03*
G01X2878506Y567106D03*
G01X2963494Y652069D03*
G01X2878506Y652094D03*
G01X5262194Y567106D03*
G01X5177206Y567106D03*
G01X5262194Y652069D03*
G01X5177206Y652094D03*
G01X7573594Y567106D03*
G01X7488606Y567106D03*
G01X7573594Y652069D03*
G01X7488606Y652094D03*
G01X9897694Y567106D03*
G01X9812706Y567106D03*
G01X9897694Y652069D03*
G01X9812706Y652094D03*
G01X12209094Y567106D03*
G01X12124106Y567106D03*
G01X12209094Y652069D03*
G01X12124106Y652094D03*
G01X14507794Y567106D03*
G01X14422806Y567106D03*
G01X14507794Y652069D03*
G01X14422806Y652094D03*
G01X16844594Y567106D03*
G01X16759606Y567106D03*
G01X16844594Y652069D03*
G01X16759606Y652094D03*
G01X19143294Y567106D03*
G01X19058306Y567106D03*
G01X19143294Y652069D03*
G01X19058306Y652094D03*
G01X21467394Y567106D03*
G01X21382406Y567106D03*
G01X21467394Y652069D03*
G01X21382406Y652094D03*
G01X23821942Y567098D03*
G01X23736954Y567098D03*
G01X23821942Y652061D03*
G01X23736954Y652087D03*
G01X26120642Y579798D03*
G01X26035654Y579798D03*
G01X26120642Y664761D03*
G01X26035654Y664787D03*
G01X28383846Y567113D03*
G01X28298858Y567113D03*
G01X28383846Y652076D03*
G01X28298858Y652102D03*
G01X30725694Y567106D03*
G01X30640706Y567106D03*
G01X30725694Y652069D03*
G01X30640706Y652094D03*
G54D21*
G01X30839994Y2645994D03*
G01X30839994Y2561006D03*
G01X30755031Y2645994D03*
G01X30755006Y2561006D03*
G01X30839994Y4982794D03*
G01X30839994Y4897806D03*
G01X30755031Y4982794D03*
G01X30755006Y4897806D03*
G01X30839994Y7014794D03*
G01X30839994Y6929806D03*
G01X30755031Y7014794D03*
G01X30755006Y6929806D03*
G01X30839994Y9923094D03*
G01X30839994Y9838106D03*
G01X30755031Y9923094D03*
G01X30755006Y9838106D03*
G01X30839994Y12272594D03*
G01X30839994Y12187606D03*
G01X30755031Y12272594D03*
G01X30755006Y12187606D03*
G01X30839994Y14279194D03*
G01X30839994Y14194206D03*
G01X30755031Y14279194D03*
G01X30755006Y14194206D03*
G54D11*
G01X27321307Y13840602D03*
G01X26501293Y13840602D03*
G01X27549904Y13472302D03*
G01X26729891Y13472302D03*
G04 Pad End*

M02*

