G04 Layer: TopSolderMaskLayer*
G04 EasyEDA Pro v2.2.36.7, 2025-02-27 19:51:26*
G04 Gerber Generator version 0.3*
G04 Scale: 100 percent, Rotated: No, Reflected: No*
G04 Dimensions in millimeters*
G04 Leading zeros omitted, absolute positions, 4 integers and 5 decimals*
G04 Panelize: V-CUT, Column: 1, Row: 1, Board Size: 327.343mm x 158.09mm, Panelized Board Size: 327.343mm x 170.091mm, Panelized Method: Only Board Outline*
%FSLAX45Y45*%
%MOMM*%
%AMRoundRect*1,1,$1,$2,$3*1,1,$1,$4,$5*1,1,$1,0-$2,0-$3*1,1,$1,0-$4,0-$5*20,1,$1,$2,$3,$4,$5,0*20,1,$1,$4,$5,0-$2,0-$3,0*20,1,$1,0-$2,0-$3,0-$4,0-$5,0*20,1,$1,0-$4,0-$5,$2,$3,0*4,1,4,$2,$3,$4,$5,0-$2,0-$3,0-$4,0-$5,$2,$3,0*%
%ADD10C,2.0*%
%ADD11RoundRect,0.07502X-0.4773X-0.3182X0.3182X0.4773*%
%ADD12RoundRect,0.07502X0.3182X-0.4773X-0.4773X0.3182*%
%ADD13RoundRect,0.07502X0.4773X0.3182X-0.3182X-0.4773*%
%ADD14RoundRect,0.07502X-0.3182X0.4773X0.4773X-0.3182*%
%ADD15RoundRect,0.1080X-2.19417X0.0X0.0X2.19417*%
%ADD16RoundRect,0.09699X-2.19417X0.0X0.0X2.19417*%
%ADD17RoundRect,0.09368X-1.25396X0.55396X1.25396X0.55396*%
%ADD18RoundRect,0.09754X-1.17203X1.80203X1.17203X1.80203*%
%ADD19O,2.35161X0.7316*%
%ADD20RoundRect,0.0944X-0.6186X0.6836X0.6186X0.6836*%
%ADD21C,1.7016*%
%ADD22RoundRect,0.09138X0.40835X-0.43712X-0.40835X-0.43712*%
%ADD23RoundRect,0.08771X-0.48008X-0.08842X0.08842X0.48008*%
%ADD24RoundRect,0.08771X-0.08842X0.48008X0.48008X-0.08842*%
%ADD25RoundRect,0.08771X0.08842X-0.48008X-0.48008X0.08842*%
%ADD26RoundRect,0.08771X0.28977X-0.27695X-0.28977X-0.27695*%
%ADD27RoundRect,0.08771X-0.28977X0.27695X0.28977X0.27695*%
%ADD28RoundRect,0.08771X-0.27695X-0.40199X-0.27695X0.40199*%
%ADD29RoundRect,0.09424X0.70368X-0.60368X-0.70368X-0.60368*%
%ADD30RoundRect,0.08771X0.27695X0.28977X0.27695X-0.28977*%
%ADD31RoundRect,0.08771X0.40199X-0.27695X-0.40199X-0.27695*%
%ADD32RoundRect,0.09618X-0.85271X-0.85271X-0.85271X0.85271*%
%ADD33C,1.8016*%
%ADD34RoundRect,0.09618X0.85271X0.85271X0.85271X-0.85271*%
%ADD35RoundRect,0.08771X-0.27695X-0.28977X-0.27695X0.28977*%
%ADD36RoundRect,0.08752X0.30625X-0.62625X-0.30625X-0.62625*%
%ADD37RoundRect,0.08002X0.16X-0.63001X-0.16X-0.63001*%
%ADD38O,1.10002X2.20002*%
%ADD39O,1.10002X1.90002*%
%ADD40RoundRect,0.0858X-0.23291X0.23291X0.23291X0.23291*%
%ADD41RoundRect,0.0858X0.23291X-0.23291X-0.23291X-0.23291*%
G75*


G04 Panelize Start*
G54D10*
G01X360781Y15528341D03*
G01X31094945Y15528341D03*
G01X860781Y-880729D03*
G01X30594945Y-880729D03*
G04 Panelize End*

G04 Pad Start*
G54D11*
G01X3502122Y13836910D03*
G01X3530410Y13808622D03*
G01X3558698Y13780334D03*
G01X3586985Y13752046D03*
G01X3615255Y13723776D03*
G01X3643543Y13695489D03*
G01X3671831Y13667201D03*
G01X3700119Y13638913D03*
G01X3728407Y13610625D03*
G01X3756676Y13582355D03*
G01X3784964Y13554068D03*
G01X3813252Y13525780D03*
G01X3841540Y13497492D03*
G01X3869828Y13469204D03*
G54D12*
G01X4004190Y13469222D03*
G01X4032460Y13497492D03*
G01X4060748Y13525780D03*
G01X4089036Y13554068D03*
G01X4117323Y13582355D03*
G01X4145611Y13610643D03*
G01X4173881Y13638913D03*
G01X4202169Y13667201D03*
G01X4230457Y13695489D03*
G01X4258745Y13723776D03*
G01X4287032Y13752064D03*
G01X4315302Y13780334D03*
G01X4343590Y13808622D03*
G01X4371878Y13836910D03*
G54D13*
G01X4371896Y13971272D03*
G01X4343608Y13999560D03*
G01X4315320Y14027848D03*
G01X4287032Y14056136D03*
G01X4258745Y14084424D03*
G01X4230475Y14112693D03*
G01X4202187Y14140981D03*
G01X4173899Y14169269D03*
G01X4145611Y14197557D03*
G01X4117323Y14225845D03*
G01X4089054Y14254114D03*
G01X4060766Y14282402D03*
G01X4032478Y14310690D03*
G01X4004190Y14338978D03*
G54D14*
G01X3869828Y14338960D03*
G01X3841540Y14310672D03*
G01X3813252Y14282384D03*
G01X3784982Y14254114D03*
G01X3756694Y14225827D03*
G01X3728407Y14197539D03*
G01X3700119Y14169251D03*
G01X3671831Y14140963D03*
G01X3643561Y14112693D03*
G01X3615273Y14084406D03*
G01X3586985Y14056118D03*
G01X3558698Y14027830D03*
G01X3530410Y13999542D03*
G01X3502140Y13971272D03*
G54D16*
G01X3937000Y13904100D03*
G54D17*
G01X1122495Y13343903D03*
G01X1122495Y13573900D03*
G01X1122495Y13803897D03*
G54D18*
G01X528503Y13573900D03*
G54D19*
G01X2626309Y13370700D03*
G01X2626309Y13497700D03*
G01X2626309Y13624700D03*
G01X2626309Y13751700D03*
G01X1920291Y13370700D03*
G01X1920291Y13497700D03*
G01X1920291Y13624700D03*
G01X1920291Y13751700D03*
G54D20*
G01X124409Y14056500D03*
G01X561391Y14056500D03*
G01X124409Y14589900D03*
G01X561391Y14589900D03*
G54D21*
G01X6493304Y14577202D03*
G01X5673291Y14577202D03*
G01X7534704Y13840602D03*
G01X6714691Y13840602D03*
G01X9617504Y14577202D03*
G01X8797491Y14577202D03*
G01X10658904Y13840602D03*
G01X9838891Y13840602D03*
G01X12741704Y14577202D03*
G01X11921691Y14577202D03*
G01X13783104Y13840602D03*
G01X12963091Y13840602D03*
G01X15865904Y14577202D03*
G01X15045891Y14577202D03*
G01X16907304Y13840602D03*
G01X16087291Y13840602D03*
G01X19015504Y14577202D03*
G01X18195491Y14577202D03*
G01X20031504Y13840602D03*
G01X19211491Y13840602D03*
G01X21301504Y13472302D03*
G01X20481491Y13472302D03*
G01X23397004Y14208902D03*
G01X22576991Y14208902D03*
G01X24425704Y13472302D03*
G01X23605691Y13472302D03*
G01X6721904Y14208902D03*
G01X5901891Y14208902D03*
G01X7763304Y13472302D03*
G01X6943291Y13472302D03*
G01X9846104Y14208902D03*
G01X9026091Y14208902D03*
G01X10887504Y13472302D03*
G01X10067491Y13472302D03*
G01X12970304Y14208902D03*
G01X12150291Y14208902D03*
G01X14011704Y13472302D03*
G01X13191691Y13472302D03*
G01X16094504Y14208902D03*
G01X15274491Y14208902D03*
G01X17135904Y13472302D03*
G01X16315891Y13472302D03*
G01X19231404Y14208902D03*
G01X18411391Y14208902D03*
G01X20260104Y13472302D03*
G01X19440091Y13472302D03*
G01X22139704Y14577202D03*
G01X21319691Y14577202D03*
G01X23155704Y13840602D03*
G01X22335691Y13840602D03*
G01X25263904Y14577202D03*
G01X24443891Y14577202D03*
G01X26521204Y14208902D03*
G01X25701191Y14208902D03*
G01X6493304Y13840602D03*
G01X5673291Y13840602D03*
G01X8576104Y14577202D03*
G01X7756091Y14577202D03*
G01X9617504Y13840602D03*
G01X8797491Y13840602D03*
G01X11700304Y14577202D03*
G01X10880291Y14577202D03*
G01X12741704Y13840602D03*
G01X11921691Y13840602D03*
G01X14824504Y14577202D03*
G01X14004491Y14577202D03*
G01X15865904Y13840602D03*
G01X15045891Y13840602D03*
G01X17974104Y14577202D03*
G01X17154091Y14577202D03*
G01X18990104Y13840602D03*
G01X18170091Y13840602D03*
G01X21098304Y14577202D03*
G01X20278291Y14577202D03*
G01X22355604Y14208902D03*
G01X21535591Y14208902D03*
G01X23384304Y13472302D03*
G01X22564291Y13472302D03*
G01X25479804Y14208902D03*
G01X24659791Y14208902D03*
G01X26279904Y13840602D03*
G01X25459891Y13840602D03*
G01X6721904Y13472302D03*
G01X5901891Y13472302D03*
G01X8804704Y14208902D03*
G01X7984691Y14208902D03*
G01X9846104Y13472302D03*
G01X9026091Y13472302D03*
G01X11928904Y14208902D03*
G01X11108891Y14208902D03*
G01X12970304Y13472302D03*
G01X12150291Y13472302D03*
G01X15053104Y14208902D03*
G01X14233091Y14208902D03*
G01X16094504Y13472302D03*
G01X15274491Y13472302D03*
G01X18177304Y14208902D03*
G01X17357291Y14208902D03*
G01X19218704Y13472302D03*
G01X18398691Y13472302D03*
G01X21314204Y14208902D03*
G01X20494191Y14208902D03*
G01X22114304Y13840602D03*
G01X21294291Y13840602D03*
G01X24222504Y14577202D03*
G01X23402491Y14577202D03*
G01X25238504Y13840602D03*
G01X24418491Y13840602D03*
G01X26508504Y13472302D03*
G01X25688491Y13472302D03*
G01X7534704Y14577202D03*
G01X6714691Y14577202D03*
G01X8576104Y13840602D03*
G01X7756091Y13840602D03*
G01X10658904Y14577202D03*
G01X9838891Y14577202D03*
G01X11700304Y13840602D03*
G01X10880291Y13840602D03*
G01X13783104Y14577202D03*
G01X12963091Y14577202D03*
G01X14824504Y13840602D03*
G01X14004491Y13840602D03*
G01X16907304Y14577202D03*
G01X16087291Y14577202D03*
G01X17948704Y13840602D03*
G01X17128691Y13840602D03*
G01X20056904Y14577202D03*
G01X19236891Y14577202D03*
G01X21072904Y13840602D03*
G01X20252891Y13840602D03*
G01X22342904Y13472302D03*
G01X21522891Y13472302D03*
G01X24438404Y14208902D03*
G01X23618391Y14208902D03*
G01X25467104Y13472302D03*
G01X24647091Y13472302D03*
G01X27346704Y14577202D03*
G01X26526691Y14577202D03*
G01X7763304Y14208902D03*
G01X6943291Y14208902D03*
G01X8804704Y13472302D03*
G01X7984691Y13472302D03*
G01X10887504Y14208902D03*
G01X10067491Y14208902D03*
G01X11928904Y13472302D03*
G01X11108891Y13472302D03*
G01X14011704Y14208902D03*
G01X13191691Y14208902D03*
G01X15053104Y13472302D03*
G01X14233091Y13472302D03*
G01X17135904Y14208902D03*
G01X16315891Y14208902D03*
G01X23181104Y14577202D03*
G01X22361091Y14577202D03*
G01X24197104Y13840602D03*
G01X23377091Y13840602D03*
G01X26305304Y14577202D03*
G01X25485291Y14577202D03*
G01X27562604Y14208902D03*
G01X26742591Y14208902D03*
G01X18177304Y13472302D03*
G01X17357291Y13472302D03*
G01X20272804Y14208902D03*
G01X19452791Y14208902D03*
G54D22*
G01X5093564Y13916800D03*
G01X5244236Y13916800D03*
G01X5093564Y14056500D03*
G01X5244236Y14056500D03*
G01X5093564Y14196200D03*
G01X5244236Y14196200D03*
G01X5093564Y14335900D03*
G01X5244236Y14335900D03*
G01X5093564Y14475600D03*
G01X5244236Y14475600D03*
G01X5093564Y14615300D03*
G01X5244236Y14615300D03*
G54D23*
G01X4204586Y14539986D03*
G01X4127500Y14462900D03*
G54D24*
G01X3416743Y14259257D03*
G01X3339657Y14336343D03*
G54D25*
G01X4482657Y13625143D03*
G01X4559743Y13548057D03*
G54D26*
G01X2801518Y14602600D03*
G01X2888082Y14602600D03*
G01X2801518Y14716900D03*
G01X2888082Y14716900D03*
G54D25*
G01X3606357Y14603043D03*
G01X3683443Y14525957D03*
G54D24*
G01X3607243Y14449757D03*
G01X3530157Y14526843D03*
G54D26*
G01X769518Y14450200D03*
G01X856082Y14450200D03*
G54D27*
G01X856082Y14335900D03*
G01X769518Y14335900D03*
G54D26*
G01X769518Y14234300D03*
G01X856082Y14234300D03*
G54D28*
G01X4940300Y13437908D03*
G01X4940300Y13328892D03*
G01X5499100Y13437908D03*
G01X5499100Y13328892D03*
G54D29*
G01X5329707Y13470903D03*
G01X5109693Y13470903D03*
G01X5109693Y13295897D03*
G01X5329707Y13295897D03*
G54D30*
G01X4826000Y13340118D03*
G01X4826000Y13426682D03*
G54D31*
G01X1367892Y13573900D03*
G01X1476908Y13573900D03*
G01X1367892Y13802500D03*
G01X1476908Y13802500D03*
G54D24*
G01X3492943Y14335457D03*
G01X3415857Y14412543D03*
G01X3759643Y14602157D03*
G01X3682557Y14679243D03*
G54D23*
G01X3315143Y13663243D03*
G01X3238057Y13586157D03*
G01X3594543Y13396543D03*
G01X3517457Y13319457D03*
G54D25*
G01X4406457Y13548943D03*
G01X4483543Y13471857D03*
G54D32*
G01X2590800Y6870700D03*
G54D33*
G01X2590800Y7124700D03*
G01X2590800Y7378700D03*
G01X2590800Y7632700D03*
G54D34*
G01X31203900Y14412100D03*
G54D33*
G01X31203900Y14158100D03*
G01X31203900Y13904100D03*
G01X31203900Y13650100D03*
G54D34*
G01X29146500Y7632700D03*
G54D33*
G01X29146500Y7378700D03*
G01X29146500Y7124700D03*
G01X29146500Y6870700D03*
G54D35*
G01X1549400Y14112482D03*
G01X1549400Y14025918D03*
G01X1854200Y14112482D03*
G01X1854200Y14025918D03*
G54D36*
G01X1407213Y14580898D03*
G01X1487198Y14580898D03*
G54D37*
G01X1552197Y14580898D03*
G01X1602209Y14580898D03*
G01X1652196Y14580898D03*
G01X1702209Y14580898D03*
G01X1752196Y14580898D03*
G01X1802209Y14580898D03*
G01X1852196Y14580898D03*
G01X1902209Y14580898D03*
G54D36*
G01X1967207Y14580898D03*
G01X2047192Y14580898D03*
G54D38*
G01X2159206Y14642899D03*
G54D39*
G01X2159206Y15060907D03*
G01X1295199Y15060907D03*
G54D38*
G01X1295199Y14642899D03*
G54D40*
G01X1151306Y871906D03*
G01X1236294Y871906D03*
G01X1151306Y956869D03*
G01X1236294Y956894D03*
G54D41*
G01X994994Y10951794D03*
G01X910006Y10951794D03*
G01X994994Y10866831D03*
G01X910006Y10866806D03*
G01X4804994Y10951794D03*
G01X4720006Y10951794D03*
G01X4804994Y10866831D03*
G01X4720006Y10866806D03*
G01X6709994Y10951794D03*
G01X6625006Y10951794D03*
G01X6709994Y10866831D03*
G01X6625006Y10866806D03*
G01X8614994Y10951794D03*
G01X8530006Y10951794D03*
G01X8614994Y10866831D03*
G01X8530006Y10866806D03*
G01X10507294Y10951794D03*
G01X10422306Y10951794D03*
G01X10507294Y10866831D03*
G01X10422306Y10866806D03*
G01X13377494Y10951794D03*
G01X13292506Y10951794D03*
G01X13377494Y10866831D03*
G01X13292506Y10866806D03*
G01X15282494Y10951794D03*
G01X15197506Y10951794D03*
G01X15282494Y10866831D03*
G01X15197506Y10866806D03*
G01X17187494Y10951794D03*
G01X17102506Y10951794D03*
G01X17187494Y10866831D03*
G01X17102506Y10866806D03*
G01X19092494Y10951794D03*
G01X19007506Y10951794D03*
G01X19092494Y10866831D03*
G01X19007506Y10866806D03*
G01X21949994Y10951794D03*
G01X21865006Y10951794D03*
G01X21949994Y10866831D03*
G01X21865006Y10866806D03*
G01X23854994Y10951794D03*
G01X23770006Y10951794D03*
G01X23854994Y10866831D03*
G01X23770006Y10866806D03*
G01X25759994Y10951794D03*
G01X25675006Y10951794D03*
G01X25759994Y10866831D03*
G01X25675006Y10866806D03*
G01X27664994Y10951794D03*
G01X27580006Y10951794D03*
G01X27664994Y10866831D03*
G01X27580006Y10866806D03*
G01X30522494Y10951794D03*
G01X30437506Y10951794D03*
G01X30522494Y10866831D03*
G01X30437506Y10866806D03*
G54D40*
G01X30437506Y8479206D03*
G01X30522494Y8479206D03*
G01X30437506Y8564169D03*
G01X30522494Y8564194D03*
G01X26627506Y8491906D03*
G01X26712494Y8491906D03*
G01X26627506Y8576869D03*
G01X26712494Y8576894D03*
G01X23770006Y8491906D03*
G01X23854994Y8491906D03*
G01X23770006Y8576869D03*
G01X23854994Y8576894D03*
G01X21865006Y8491906D03*
G01X21949994Y8491906D03*
G01X21865006Y8576869D03*
G01X21949994Y8576894D03*
G01X19960006Y8491906D03*
G01X20044994Y8491906D03*
G01X19960006Y8576869D03*
G01X20044994Y8576894D03*
G01X18055006Y8491906D03*
G01X18139994Y8491906D03*
G01X18055006Y8576869D03*
G01X18139994Y8576894D03*
G01X16150006Y8491906D03*
G01X16234994Y8491906D03*
G01X16150006Y8576869D03*
G01X16234994Y8576894D03*
G01X14245006Y8491906D03*
G01X14329994Y8491906D03*
G01X14245006Y8576869D03*
G01X14329994Y8576894D03*
G01X12340006Y8491906D03*
G01X12424994Y8491906D03*
G01X12340006Y8576869D03*
G01X12424994Y8576894D03*
G01X10435006Y8491906D03*
G01X10519994Y8491906D03*
G01X10435006Y8576869D03*
G01X10519994Y8576894D03*
G01X8530006Y8491906D03*
G01X8614994Y8491906D03*
G01X8530006Y8576869D03*
G01X8614994Y8576894D03*
G01X6625006Y8491906D03*
G01X6709994Y8491906D03*
G01X6625006Y8576869D03*
G01X6709994Y8576894D03*
G01X4720006Y8491906D03*
G01X4804994Y8491906D03*
G01X4720006Y8576869D03*
G01X4804994Y8576894D03*
G01X2815006Y8491906D03*
G01X2899994Y8491906D03*
G01X2815006Y8576869D03*
G01X2899994Y8576894D03*
G01X910006Y8491906D03*
G01X994994Y8491906D03*
G01X910006Y8576869D03*
G01X994994Y8576894D03*
G54D41*
G01X1471738Y6671894D03*
G01X1386750Y6671894D03*
G01X1471738Y6586931D03*
G01X1386750Y6586906D03*
G01X3852494Y6671894D03*
G01X3767506Y6671894D03*
G01X3852494Y6586931D03*
G01X3767506Y6586906D03*
G01X5757494Y6671894D03*
G01X5672506Y6671894D03*
G01X5757494Y6586931D03*
G01X5672506Y6586906D03*
G01X7662494Y6671894D03*
G01X7577506Y6671894D03*
G01X7662494Y6586931D03*
G01X7577506Y6586906D03*
G01X9567494Y6671894D03*
G01X9482506Y6671894D03*
G01X9567494Y6586931D03*
G01X9482506Y6586906D03*
G01X11472494Y6671894D03*
G01X11387506Y6671894D03*
G01X11472494Y6586931D03*
G01X11387506Y6586906D03*
G01X13377494Y6671894D03*
G01X13292506Y6671894D03*
G01X13377494Y6586931D03*
G01X13292506Y6586906D03*
G01X15282494Y6671894D03*
G01X15197506Y6671894D03*
G01X15282494Y6586931D03*
G01X15197506Y6586906D03*
G01X17187494Y6671894D03*
G01X17102506Y6671894D03*
G01X17187494Y6586931D03*
G01X17102506Y6586906D03*
G01X19092494Y6671894D03*
G01X19007506Y6671894D03*
G01X19092494Y6586931D03*
G01X19007506Y6586906D03*
G01X20997494Y6671894D03*
G01X20912506Y6671894D03*
G01X20997494Y6586931D03*
G01X20912506Y6586906D03*
G01X22902494Y6671894D03*
G01X22817506Y6671894D03*
G01X22902494Y6586931D03*
G01X22817506Y6586906D03*
G01X24807494Y6671894D03*
G01X24722506Y6671894D03*
G01X24807494Y6586931D03*
G01X24722506Y6586906D03*
G01X27187325Y6671894D03*
G01X27102337Y6671894D03*
G01X27187325Y6586931D03*
G01X27102337Y6586906D03*
G01X30522494Y6671894D03*
G01X30437506Y6671894D03*
G01X30522494Y6586931D03*
G01X30437506Y6586906D03*
G54D40*
G01X30437506Y4681906D03*
G01X30522494Y4681906D03*
G01X30437506Y4766869D03*
G01X30522494Y4766894D03*
G01X26395560Y4681906D03*
G01X26480548Y4681906D03*
G01X26395560Y4766869D03*
G01X26480548Y4766894D03*
G01X23300106Y4681906D03*
G01X23385094Y4681906D03*
G01X23300106Y4766869D03*
G01X23385094Y4766894D03*
G01X21395106Y4681906D03*
G01X21480094Y4681906D03*
G01X21395106Y4766869D03*
G01X21480094Y4766894D03*
G01X19490106Y4681906D03*
G01X19575094Y4681906D03*
G01X19490106Y4766869D03*
G01X19575094Y4766894D03*
G01X17585106Y4681906D03*
G01X17670094Y4681906D03*
G01X17585106Y4766869D03*
G01X17670094Y4766894D03*
G01X15680106Y4681906D03*
G01X15765094Y4681906D03*
G01X15680106Y4766869D03*
G01X15765094Y4766894D03*
G01X13775106Y4681906D03*
G01X13860094Y4681906D03*
G01X13775106Y4766869D03*
G01X13860094Y4766894D03*
G01X11870106Y4681906D03*
G01X11955094Y4681906D03*
G01X11870106Y4766869D03*
G01X11955094Y4766894D03*
G01X9965106Y4681906D03*
G01X10050094Y4681906D03*
G01X9965106Y4766869D03*
G01X10050094Y4766894D03*
G01X8060106Y4681906D03*
G01X8145094Y4681906D03*
G01X8060106Y4766869D03*
G01X8145094Y4766894D03*
G01X6155106Y4681906D03*
G01X6240094Y4681906D03*
G01X6155106Y4766869D03*
G01X6240094Y4766894D03*
G01X4250106Y4681906D03*
G01X4335094Y4681906D03*
G01X4250106Y4766869D03*
G01X4335094Y4766894D03*
G01X1621206Y4681906D03*
G01X1706194Y4681906D03*
G01X1621206Y4766869D03*
G01X1706194Y4766894D03*
G54D41*
G01X2185448Y2861894D03*
G01X2100460Y2861894D03*
G01X2185448Y2776931D03*
G01X2100460Y2776906D03*
G01X5287594Y2861894D03*
G01X5202606Y2861894D03*
G01X5287594Y2776931D03*
G01X5202606Y2776906D03*
G01X7192594Y2861894D03*
G01X7107606Y2861894D03*
G01X7192594Y2776931D03*
G01X7107606Y2776906D03*
G01X9097594Y2861894D03*
G01X9012606Y2861894D03*
G01X9097594Y2776931D03*
G01X9012606Y2776906D03*
G01X11002594Y2861894D03*
G01X10917606Y2861894D03*
G01X11002594Y2776931D03*
G01X10917606Y2776906D03*
G01X12907594Y2861894D03*
G01X12822606Y2861894D03*
G01X12907594Y2776931D03*
G01X12822606Y2776906D03*
G01X14812594Y2861894D03*
G01X14727606Y2861894D03*
G01X14812594Y2776931D03*
G01X14727606Y2776906D03*
G01X16717594Y2861894D03*
G01X16632606Y2861894D03*
G01X16717594Y2776931D03*
G01X16632606Y2776906D03*
G01X18622594Y2861894D03*
G01X18537606Y2861894D03*
G01X18622594Y2776931D03*
G01X18537606Y2776906D03*
G01X20527594Y2861894D03*
G01X20442606Y2861894D03*
G01X20527594Y2776931D03*
G01X20442606Y2776906D03*
G01X22432594Y2861894D03*
G01X22347606Y2861894D03*
G01X22432594Y2776931D03*
G01X22347606Y2776906D03*
G01X25061494Y2861894D03*
G01X24976506Y2861894D03*
G01X25061494Y2776931D03*
G01X24976506Y2776906D03*
G01X28147594Y2379294D03*
G01X28062606Y2379294D03*
G01X28147594Y2294331D03*
G01X28062606Y2294306D03*
G01X30522494Y2861894D03*
G01X30437506Y2861894D03*
G01X30522494Y2776931D03*
G01X30437506Y2776906D03*
G54D40*
G01X29954906Y389306D03*
G01X30039894Y389306D03*
G01X29954906Y474269D03*
G01X30039894Y474294D03*
G01X28056363Y389306D03*
G01X28141351Y389306D03*
G01X28056363Y474269D03*
G01X28141351Y474294D03*
G01X26151795Y389306D03*
G01X26236783Y389306D03*
G01X26151795Y474269D03*
G01X26236783Y474294D03*
G01X23770006Y871906D03*
G01X23854994Y871906D03*
G01X23770006Y956869D03*
G01X23854994Y956894D03*
G01X21865006Y871906D03*
G01X21949994Y871906D03*
G01X21865006Y956869D03*
G01X21949994Y956894D03*
G01X19960006Y871906D03*
G01X20044994Y871906D03*
G01X19960006Y956869D03*
G01X20044994Y956894D03*
G01X13054376Y871906D03*
G01X13139364Y871906D03*
G01X13054376Y956869D03*
G01X13139364Y956894D03*
G01X5913806Y871906D03*
G01X5998794Y871906D03*
G01X5913806Y956869D03*
G01X5998794Y956894D03*
G01X3526206Y871906D03*
G01X3611194Y871906D03*
G01X3526206Y956869D03*
G01X3611194Y956894D03*
G54D21*
G01X27321307Y13840602D03*
G01X26501293Y13840602D03*
G01X27549904Y13472302D03*
G01X26729891Y13472302D03*
G04 Pad End*

M02*

