                                                                        S      1
,,14HAcrylic window,14HAcrylic window,7Hunknown,7Hunknown,32,38,7,99,15,G      1
,1.,2,2HMM,1,0.08,15H20240319.085652,0.01,10000.,7Hunknown,7Hunknown,11,G      2
0,;                                                                     G      3
     186       1                                                00000000D      1
     186            -183       1       0                               0D      2
     514       2                                                00010000D      3
     514                       2       1                               0D      4
     510       4                                                00010000D      5
     510            -183       1       1                               0D      6
     510       5                                                00010000D      7
     510            -183       1       1                               0D      8
     510       6                                                00010000D      9
     510            -183       1       1                               0D     10
     510       7                                                00010000D     11
     510            -183       1       1                               0D     12
     510       8                                                00010000D     13
     510            -183       1       1                               0D     14
     510       9                                                00010000D     15
     510            -183       1       1                               0D     16
     510      10                                                00010000D     17
     510            -183       1       1                               0D     18
     510      11                                                00010000D     19
     510            -183       1       1                               0D     20
     510      12                                                00010000D     21
     510            -183       1       1                               0D     22
     510      13                                                00010000D     23
     510            -183       1       1                               0D     24
     510      14                                                00010000D     25
     510            -183       1       1                               0D     26
     510      15                                                00010000D     27
     510            -183       1       1                               0D     28
     510      16                                                00010000D     29
     510            -183       1       1                               0D     30
     510      17                                                00010000D     31
     510            -183       1       1                               0D     32
     508      18                                                00010000D     33
     508                       1       1                               0D     34
     508      19                                                00010000D     35
     508                       1       1                               0D     36
     508      20                                                00010000D     37
     508                       1       1                               0D     38
     508      21                                                00010000D     39
     508                       1       1                               0D     40
     508      22                                                00010000D     41
     508                       1       1                               0D     42
     508      23                                                00010000D     43
     508                       1       1                               0D     44
     508      24                                                00010000D     45
     508                       2       1                               0D     46
     508      26                                                00010000D     47
     508                       1       1                               0D     48
     508      27                                                00010000D     49
     508                       1       1                               0D     50
     508      28                                                00010000D     51
     508                       1       1                               0D     52
     508      29                                                00010000D     53
     508                       1       1                               0D     54
     508      30                                                00010000D     55
     508                       1       1                               0D     56
     508      31                                                00010000D     57
     508                       1       1                               0D     58
     508      32                                                00010000D     59
     508                       2       1                               0D     60
     508      34                                                00010000D     61
     508                       1       1                               0D     62
     508      35                                                00010000D     63
     508                       1       1                               0D     64
     508      36                                                00010000D     65
     508                       1       1                               0D     66
     508      37                                                00010000D     67
     508                       1       1                               0D     68
     508      38                                                00010000D     69
     508                       1       1                               0D     70
     508      39                                                00010000D     71
     508                       1       1                               0D     72
     508      40                                                00010000D     73
     508                       1       1                               0D     74
     508      41                                                00010000D     75
     508                       1       1                               0D     76
     126      42                                                00010000D     77
     126       0              12       0                               0D     78
     126      54                                                00010000D     79
     126       0               3       0                               0D     80
     126      57                                                00010000D     81
     126       0              12       0                               0D     82
     126      69                                                00010000D     83
     126       0              13       0                               0D     84
     126      82                                                00010000D     85
     126       0               3       0                               0D     86
     126      85                                                00010000D     87
     126       0              12       0                               0D     88
     126      97                                                00010000D     89
     126       0              12       0                               0D     90
     126     109                                                00010000D     91
     126       0               3       0                               0D     92
     126     112                                                00010000D     93
     126       0              12       0                               0D     94
     126     124                                                00010000D     95
     126       0              12       0                               0D     96
     126     136                                                00010000D     97
     126       0               3       0                               0D     98
     126     139                                                00010000D     99
     126       0              12       0                               0D    100
     126     151                                                00010000D    101
     126       0               6       0                               0D    102
     126     157                                                00010000D    103
     126       0               4       0                               0D    104
     126     161                                                00010000D    105
     126       0               6       0                               0D    106
     126     167                                                00010000D    107
     126       0               4       0                               0D    108
     126     171                                                00010000D    109
     126       0               4       0                               0D    110
     126     175                                                00010000D    111
     126       0               4       0                               0D    112
     126     179                                                00010000D    113
     126       0               4       0                               0D    114
     126     183                                                00010000D    115
     126       0               3       0                               0D    116
     126     186                                                00010000D    117
     126       0               6       0                               0D    118
     126     192                                                00010000D    119
     126       0               3       0                               0D    120
     126     195                                                00010000D    121
     126       0               5       0                               0D    122
     126     200                                                00010000D    123
     126       0               4       0                               0D    124
     126     204                                                00010000D    125
     126       0               6       0                               0D    126
     126     210                                                00010000D    127
     126       0               4       0                               0D    128
     126     214                                                00010000D    129
     126       0               6       0                               0D    130
     126     220                                                00010000D    131
     126       0               3       0                               0D    132
     126     223                                                00010000D    133
     126       0               2       0                               0D    134
     126     225                                                00010000D    135
     126       0               4       0                               0D    136
     126     229                                                00010000D    137
     126       0               5       0                               0D    138
     126     234                                                00010000D    139
     126       0               4       0                               0D    140
     126     238                                                00010000D    141
     126       0               5       0                               0D    142
     126     243                                                00010000D    143
     126       0               2       0                               0D    144
     126     245                                                00010000D    145
     126       0               2       0                               0D    146
     126     247                                                00010000D    147
     126       0               2       0                               0D    148
     128     249                                                00010000D    149
     128       0    -183      20       0                               0D    150
     128     269                                                00010000D    151
     128       0    -183      20       0                               0D    152
     128     289                                                00010000D    153
     128       0    -183      20       0                               0D    154
     128     309                                                00010000D    155
     128       0    -183      20       0                               0D    156
     128     329                                                00010000D    157
     128       0    -183      10       0                               0D    158
     128     339                                                00010000D    159
     128       0    -183       7       0                               0D    160
     128     346                                                00010000D    161
     128       0    -183       6       0                               0D    162
     128     352                                                00010000D    163
     128       0    -183      10       0                               0D    164
     128     362                                                00010000D    165
     128       0    -183       5       0                               0D    166
     128     367                                                00010000D    167
     128       0    -183       6       0                               0D    168
     128     373                                                00010000D    169
     128       0    -183       9       0                               0D    170
     128     382                                                00010000D    171
     128       0    -183       6       0                               0D    172
     128     388                                                00010000D    173
     128       0    -183       9       0                               0D    174
     128     397                                                00010000D    175
     128       0    -183       5       0                               0D    176
     502     402                                                00010000D    177
     502                      14       1                               0D    178
     504     416                                                00010001D    179
     504                      10       1                               0D    180
     406     426                                                00000000D    181
     406                       1      15                               0D    182
     314     427                                                00000200D    183
     314                       2       0                               0D    184
     314     429                                                00000200D    185
     314                       2       0                               0D    186
186,3,1,0,0,1,181;                                                     1P      1
514,14,5,1,7,1,9,1,11,1,13,1,15,1,17,1,19,1,21,1,23,1,25,1,27,1,       3P      2
29,1,31,1;                                                             3P      3
510,149,1,1,33;                                                        5P      4
510,151,1,1,35;                                                        7P      5
510,153,1,1,37;                                                        9P      6
510,155,1,1,39;                                                       11P      7
510,157,1,1,41;                                                       13P      8
510,159,1,1,43;                                                       15P      9
510,161,5,1,45,47,49,51,53;                                           17P     10
510,163,1,1,55;                                                       19P     11
510,165,1,1,57;                                                       21P     12
510,167,5,1,59,61,63,65,67;                                           23P     13
510,169,1,1,69;                                                       25P     14
510,171,1,1,71;                                                       27P     15
510,173,1,1,73;                                                       29P     16
510,175,1,1,75;                                                       31P     17
508,4,0,179,1,0,0,0,179,2,1,0,0,179,3,0,0,0,179,2,0,0;                33P     18
508,4,0,179,4,0,0,0,179,5,1,0,0,179,6,0,0,0,179,5,0,0;                35P     19
508,4,0,179,7,0,0,0,179,8,1,0,0,179,9,0,0,0,179,8,0,0;                37P     20
508,4,0,179,10,0,0,0,179,11,1,0,0,179,12,0,0,0,179,11,0,0;            39P     21
508,4,0,179,13,1,0,0,179,14,1,0,0,179,15,1,0,0,179,16,1,0;            41P     22
508,4,0,179,16,0,0,0,179,17,0,0,0,179,18,0,0,0,179,19,0,0;            43P     23
508,8,0,179,15,0,0,0,179,20,1,0,0,179,21,0,0,0,179,22,1,0,0,179,      45P     24
23,0,0,0,179,24,1,0,0,179,25,0,0,0,179,17,1,0;                        45P     25
508,1,0,179,1,1,0;                                                    47P     26
508,1,0,179,4,1,0;                                                    49P     27
508,1,0,179,7,1,0;                                                    51P     28
508,1,0,179,10,1,0;                                                   53P     29
508,4,0,179,25,1,0,0,179,26,1,0,0,179,27,1,0,0,179,18,1,0;            55P     30
508,4,0,179,14,0,0,0,179,28,1,0,0,179,29,0,0,0,179,20,0,0;            57P     31
508,8,0,179,13,0,0,0,179,19,1,0,0,179,27,0,0,0,179,30,0,0,0,179,      59P     32
31,0,0,0,179,32,1,0,0,179,33,0,0,0,179,28,0,0;                        59P     33
508,1,0,179,3,1,0;                                                    61P     34
508,1,0,179,6,1,0;                                                    63P     35
508,1,0,179,9,1,0;                                                    65P     36
508,1,0,179,12,1,0;                                                   67P     37
508,4,0,179,23,1,0,0,179,34,1,0,0,179,31,1,0,0,179,35,1,0;            69P     38
508,4,0,179,26,0,0,0,179,24,0,0,0,179,35,0,0,0,179,30,1,0;            71P     39
508,4,0,179,21,1,0,0,179,29,1,0,0,179,33,1,0,0,179,36,1,0;            73P     40
508,4,0,179,34,0,0,0,179,22,0,0,0,179,36,0,0,0,179,32,0,0;            75P     41
126,8,2,0,1,0,0,-3.14159265358979,-3.14159265358979,                  77P     42
-3.14159265358979,-1.5707963267949,-1.5707963267949,0.,0.,            77P     43
1.5707963267949,1.5707963267949,3.14159265358979,                     77P     44
3.14159265358979,3.14159265358979,1.,0.707106781186515,1.,            77P     45
0.707106781186515,1.,0.707106781186515,1.,0.707106781186515,1.,       77P     46
318.847367180635,-1.99999999858785,10.5,318.847367180635,             77P     47
-2.99999999858786,10.5,317.847367180635,-2.99999999858786,10.5,       77P     48
316.847367180635,-2.99999999858786,10.5,316.847367180635,             77P     49
-1.99999999858785,10.5,316.847367180635,-0.999999998587833,10.5,      77P     50
317.847367180635,-0.999999998587833,10.5,318.847367180635,            77P     51
-0.999999998587833,10.5,318.847367180635,-1.99999999858785,10.5,      77P     52
-3.14159265358979,3.14159265358979,0.,0.,0.;                          77P     53
126,1,1,0,0,1,0,0.,0.,1.99999999999997,1.99999999999997,1.,1.,        79P     54
318.847367180635,-1.99999999858785,10.5,318.847367180635,             79P     55
-1.99999999858785,8.5,0.,1.99999999999997,0.,0.,0.;                   79P     56
126,8,2,0,1,0,0,-3.14159265358979,-3.14159265358979,                  81P     57
-3.14159265358979,-1.5707963267949,-1.5707963267949,0.,0.,            81P     58
1.5707963267949,1.5707963267949,3.14159265358979,                     81P     59
3.14159265358979,3.14159265358979,1.,0.707106781186515,1.,            81P     60
0.707106781186515,1.,0.707106781186515,1.,0.707106781186515,1.,       81P     61
318.847367180635,-1.99999999858785,8.5,318.847367180635,              81P     62
-0.999999998587833,8.5,317.847367180635,-0.999999998587833,8.5,       81P     63
316.847367180635,-0.999999998587833,8.5,316.847367180635,             81P     64
-1.99999999858785,8.5,316.847367180635,-2.99999999858786,8.5,         81P     65
317.847367180635,-2.99999999858786,8.5,318.847367180635,              81P     66
-2.99999999858786,8.5,318.847367180635,-1.99999999858785,8.5,         81P     67
-3.14159265358979,3.14159265358979,0.,0.,0.;                          81P     68
126,8,2,0,1,0,0,-3.14159265358979,-3.14159265358979,                  83P     69
-3.14159265358979,-1.5707963267949,-1.5707963267949,0.,0.,            83P     70
1.5707963267949,1.5707963267949,3.14159265358979,                     83P     71
3.14159265358979,3.14159265358979,1.,0.707106781186548,1.,            83P     72
0.707106781186548,1.,0.707106781186548,1.,0.707106781186548,1.,       83P     73
-2.49999999999998,-1.97938930346644,10.5,-2.49999999999998,           83P     74
-2.97938930346644,10.5,-3.49999999999998,-2.97938930346644,10.5,      83P     75
-4.49999999999998,-2.97938930346644,10.5,-4.49999999999998,           83P     76
-1.97938930346644,10.5,-4.49999999999998,-0.979389303466442,          83P     77
10.5,-3.49999999999998,-0.979389303466442,10.5,                       83P     78
-2.49999999999998,-0.979389303466442,10.5,-2.49999999999998,          83P     79
-1.97938930346644,10.5,-3.14159265358979,3.14159265358979,0.,0.,      83P     80
0.;                                                                   83P     81
126,1,1,0,0,1,0,0.,0.,2.,2.,1.,1.,-2.49999999999998,                  85P     82
-1.97938930346644,10.5,-2.49999999999998,-1.97938930346644,8.5,       85P     83
0.,2.,0.,0.,0.;                                                       85P     84
126,8,2,0,1,0,0,-3.14159265358979,-3.14159265358979,                  87P     85
-3.14159265358979,-1.5707963267949,-1.5707963267949,0.,0.,            87P     86
1.5707963267949,1.5707963267949,3.14159265358979,                     87P     87
3.14159265358979,3.14159265358979,1.,0.707106781186548,1.,            87P     88
0.707106781186548,1.,0.707106781186548,1.,0.707106781186548,1.,       87P     89
-2.49999999999998,-1.97938930346644,8.5,-2.49999999999998,            87P     90
-0.979389303466442,8.5,-3.49999999999998,-0.979389303466442,8.5,      87P     91
-4.49999999999998,-0.979389303466442,8.5,-4.49999999999998,           87P     92
-1.97938930346644,8.5,-4.49999999999998,-2.97938930346644,8.5,        87P     93
-3.49999999999998,-2.97938930346644,8.5,-2.49999999999998,            87P     94
-2.97938930346644,8.5,-2.49999999999998,-1.97938930346644,8.5,        87P     95
-3.14159265358979,3.14159265358979,0.,0.,0.;                          87P     96
126,8,2,0,1,0,0,-3.14159265358979,-3.14159265358979,                  89P     97
-3.14159265358979,-1.5707963267949,-1.5707963267949,0.,0.,            89P     98
1.5707963267949,1.5707963267949,3.14159265358979,                     89P     99
3.14159265358979,3.14159265358979,1.,0.707106781186513,1.,            89P    100
0.707106781186513,1.,0.707106781186513,1.,0.707106781186513,1.,       89P    101
318.847367179222,-15.9999999988687,10.5,318.847367179222,             89P    102
-16.9999999988687,10.5,317.847367179222,-16.9999999988687,10.5,       89P    103
316.847367179222,-16.9999999988687,10.5,316.847367179222,             89P    104
-15.9999999988687,10.5,316.847367179222,-14.9999999988687,10.5,       89P    105
317.847367179222,-14.9999999988687,10.5,318.847367179222,             89P    106
-14.9999999988687,10.5,318.847367179222,-15.9999999988687,10.5,       89P    107
-3.14159265358979,3.14159265358979,0.,0.,0.;                          89P    108
126,1,1,0,0,1,0,0.,0.,1.99999999999997,1.99999999999997,1.,1.,        91P    109
318.847367179222,-15.9999999988687,10.5,318.847367179222,             91P    110
-15.9999999988687,8.5,0.,1.99999999999997,0.,0.,0.;                   91P    111
126,8,2,0,1,0,0,-3.14159265358979,-3.14159265358979,                  93P    112
-3.14159265358979,-1.5707963267949,-1.5707963267949,0.,0.,            93P    113
1.5707963267949,1.5707963267949,3.14159265358979,                     93P    114
3.14159265358979,3.14159265358979,1.,0.707106781186513,1.,            93P    115
0.707106781186513,1.,0.707106781186513,1.,0.707106781186513,1.,       93P    116
318.847367179222,-15.9999999988687,8.5,318.847367179222,              93P    117
-14.9999999988687,8.5,317.847367179222,-14.9999999988687,8.5,         93P    118
316.847367179222,-14.9999999988687,8.5,316.847367179222,              93P    119
-15.9999999988687,8.5,316.847367179222,-16.9999999988687,8.5,         93P    120
317.847367179222,-16.9999999988687,8.5,318.847367179222,              93P    121
-16.9999999988687,8.5,318.847367179222,-15.9999999988687,8.5,         93P    122
-3.14159265358979,3.14159265358979,0.,0.,0.;                          93P    123
126,8,2,0,1,0,0,-3.14159265358979,-3.14159265358979,                  95P    124
-3.14159265358979,-1.5707963267949,-1.5707963267949,0.,0.,            95P    125
1.5707963267949,1.5707963267949,3.14159265358979,                     95P    126
3.14159265358979,3.14159265358979,1.,0.707106781186548,1.,            95P    127
0.707106781186548,1.,0.707106781186548,1.,0.707106781186548,1.,       95P    128
-2.49999999999998,-15.9999999988688,10.5,-2.49999999999998,           95P    129
-16.9999999988688,10.5,-3.49999999999998,-16.9999999988688,10.5,      95P    130
-4.49999999999998,-16.9999999988688,10.5,-4.49999999999998,           95P    131
-15.9999999988688,10.5,-4.49999999999998,-14.9999999988688,10.5,      95P    132
-3.49999999999998,-14.9999999988688,10.5,-2.49999999999998,           95P    133
-14.9999999988688,10.5,-2.49999999999998,-15.9999999988688,10.5,      95P    134
-3.14159265358979,3.14159265358979,0.,0.,0.;                          95P    135
126,1,1,0,0,1,0,0.,0.,2.,2.,1.,1.,-2.49999999999998,                  97P    136
-15.9999999988688,10.5,-2.49999999999998,-15.9999999988688,8.5,       97P    137
0.,2.,0.,0.,0.;                                                       97P    138
126,8,2,0,1,0,0,-3.14159265358979,-3.14159265358979,                  99P    139
-3.14159265358979,-1.5707963267949,-1.5707963267949,0.,0.,            99P    140
1.5707963267949,1.5707963267949,3.14159265358979,                     99P    141
3.14159265358979,3.14159265358979,1.,0.707106781186548,1.,            99P    142
0.707106781186548,1.,0.707106781186548,1.,0.707106781186548,1.,       99P    143
-2.49999999999998,-15.9999999988688,8.5,-2.49999999999998,            99P    144
-14.9999999988688,8.5,-3.49999999999998,-14.9999999988688,8.5,        99P    145
-4.49999999999998,-14.9999999988688,8.5,-4.49999999999998,            99P    146
-15.9999999988688,8.5,-4.49999999999998,-16.9999999988688,8.5,        99P    147
-3.49999999999998,-16.9999999988688,8.5,-2.49999999999998,            99P    148
-16.9999999988688,8.5,-2.49999999999998,-15.9999999988688,8.5,        99P    149
-3.14159265358979,3.14159265358979,0.,0.,0.;                          99P    150
126,2,2,0,0,0,0,-0.78539816339744,-0.78539816339744,                 101P    151
-0.78539816339744,0.785398163397457,0.785398163397457,               101P    152
0.785398163397457,1.,0.70710678118662,1.,319.097367179222,           101P    153
-18.9999999988687,8.5,320.847367179222,-18.9999999988687,8.5,        101P    154
320.847367179222,-17.2499999988687,8.5,-0.78539816339744,            101P    155
0.785398163397457,0.,0.,0.;                                          101P    156
126,1,1,0,0,1,0,-0.113028436743734,-0.113028436743734,               103P    157
0.0869715632562664,0.0869715632562664,1.,1.,320.847367179222,        103P    158
-17.2499999988687,8.5,320.847367179222,-17.2499999988687,10.5,       103P    159
-0.113028436743734,0.0869715632562664,0.,0.,0.;                      103P    160
126,2,2,0,0,0,0,-0.785398163397457,-0.785398163397457,               105P    161
-0.785398163397457,0.78539816339744,0.78539816339744,                105P    162
0.78539816339744,1.,0.70710678118662,1.,320.847367179222,            105P    163
-17.2499999988687,10.5,320.847367179222,-18.9999999988687,10.5,      105P    164
319.097367179222,-18.9999999988687,10.5,-0.785398163397457,          105P    165
0.78539816339744,0.,0.,0.;                                           105P    166
126,1,1,0,0,1,0,-0.0869715632562664,-0.0869715632562664,             107P    167
0.113028436743734,0.113028436743734,1.,1.,319.097367179222,          107P    168
-18.9999999988687,10.5,319.097367179222,-18.9999999988687,8.5,       107P    169
-0.0869715632562664,0.113028436743734,0.,0.,0.;                      107P    170
126,1,1,0,0,1,0,-16.2107946697282,-16.2107946697282,                 109P    171
16.1739420481941,16.1739420481941,1.,1.,-4.74999999999998,           109P    172
-18.9999999988687,10.5,319.097367179222,-18.9999999988687,10.5,      109P    173
-16.2107946697282,16.1739420481941,0.,0.,0.;                         109P    174
126,1,1,0,0,1,0,-0.113028436743734,-0.113028436743734,               111P    175
0.0869715632562664,0.0869715632562664,1.,1.,-4.74999999999998,       111P    176
-18.9999999988687,8.5,-4.74999999999998,-18.9999999988687,10.5,      111P    177
-0.113028436743734,0.0869715632562664,0.,0.,0.;                      111P    178
126,1,1,0,0,1,0,-16.1739420481941,-16.1739420481941,                 113P    179
16.2107946697282,16.2107946697282,1.,1.,319.097367179222,            113P    180
-18.9999999988687,8.5,-4.74999999999998,-18.9999999988687,8.5,       113P    181
-16.1739420481941,16.2107946697282,0.,0.,0.;                         113P    182
126,1,1,0,0,1,0,1.47500000011312,1.47500000011312,3.15,3.15,1.,      115P    183
1.,320.847367179222,-17.2499999988687,10.5,320.847367179222,         115P    184
-0.499999999999998,10.5,1.47500000011312,3.15,0.,0.,0.;              115P    185
126,2,2,0,0,0,0,-0.785398163397443,-0.785398163397443,               117P    186
-0.785398163397443,0.785398163397452,0.785398163397452,              117P    187
0.785398163397452,1.,0.707106781186549,1.,319.347367179223,1.,       117P    188
10.5,320.847367179223,1.,10.5,320.847367179223,                      117P    189
-0.499999999999998,10.5,-0.785398163397443,0.785398163397452,0.,     117P    190
0.,0.;                                                               117P    191
126,1,1,0,0,1,0,-0.450000000000006,-0.450000000000006,               119P    192
31.9847367179222,31.9847367179222,1.,1.,319.347367179223,1.,         119P    193
10.5,-5.,1.,10.5,-0.450000000000006,31.9847367179222,0.,0.,0.;       119P    194
126,2,2,0,0,0,0,-0.785398163397451,-0.785398163397451,               121P    195
-0.785398163397451,0.785398163397433,0.785398163397433,              121P    196
0.785398163397433,1.,0.707106781186551,1.,-6.49999999999998,         121P    197
-0.5,10.5,-6.49999999999998,0.999999999999982,10.5,-5.,1.,10.5,      121P    198
-0.785398163397451,0.785398163397433,0.,0.,0.;                       121P    199
126,1,1,0,0,1,0,-0.450000007450581,-0.450000007450581,               123P    200
1.22499999243629,1.22499999243629,1.,1.,-6.49999999999997,-0.5,      123P    201
10.5,-6.49999999999998,-17.2499999988687,10.5,                       123P    202
-0.450000007450581,1.22499999243629,0.,0.,0.;                        123P    203
126,2,2,0,0,0,0,-0.785398163397449,-0.785398163397449,               125P    204
-0.785398163397449,0.78539816339745,0.78539816339745,                125P    205
0.78539816339745,1.,0.707106781186546,1.,-4.74999999999998,          125P    206
-18.9999999988687,10.5,-6.49999999999998,-18.9999999988687,10.5,     125P    207
-6.49999999999998,-17.2499999988687,10.5,-0.785398163397449,         125P    208
0.78539816339745,0.,0.,0.;                                           125P    209
126,1,1,0,0,1,0,-0.0869715632562664,-0.0869715632562664,             127P    210
0.113028436743734,0.113028436743734,1.,1.,-6.49999999999998,         127P    211
-17.2499999988687,10.5,-6.49999999999998,-17.2499999988687,8.5,      127P    212
-0.0869715632562664,0.113028436743734,0.,0.,0.;                      127P    213
126,2,2,0,0,0,0,-0.78539816339745,-0.78539816339745,                 129P    214
-0.78539816339745,0.785398163397449,0.785398163397449,               129P    215
0.785398163397449,1.,0.707106781186546,1.,-6.49999999999998,         129P    216
-17.2499999988687,8.5,-6.49999999999998,-18.9999999988687,8.5,       129P    217
-4.74999999999998,-18.9999999988687,8.5,-0.78539816339745,           129P    218
0.785398163397449,0.,0.,0.;                                          129P    219
126,1,1,0,0,1,0,1.47500000011312,1.47500000011312,3.15,3.15,1.,      131P    220
1.,320.847367179222,-17.2499999988687,8.5,320.847367179222,          131P    221
-0.499999999999998,8.5,1.47500000011312,3.15,0.,0.,0.;               131P    222
126,1,1,0,0,1,0,-0.2,-0.2,0.,0.,1.,1.,320.847367179222,-0.5,         133P    223
10.5,320.847367179222,-0.5,8.5,-0.2,0.,0.,0.,0.;                     133P    224
126,1,1,0,0,1,0,-0.450000007450581,-0.450000007450581,               135P    225
1.22499999243629,1.22499999243629,1.,1.,-6.49999999999997,-0.5,      135P    226
8.5,-6.49999999999998,-17.2499999988687,8.5,-0.450000007450581,      135P    227
1.22499999243629,0.,0.,0.;                                           135P    228
126,2,2,0,0,0,0,-0.785398163397433,-0.785398163397433,               137P    229
-0.785398163397433,0.785398163397451,0.785398163397451,              137P    230
0.785398163397451,1.,0.707106781186551,1.,-5.,1.,8.5,                137P    231
-6.49999999999998,0.999999999999982,8.5,-6.49999999999998,-0.5,      137P    232
8.5,-0.785398163397433,0.785398163397451,0.,0.,0.;                   137P    233
126,1,1,0,0,1,0,-31.9847367179222,-31.9847367179222,                 139P    234
0.450000000000003,0.450000000000003,1.,1.,-5.,1.,8.5,                139P    235
319.347367179223,1.,8.5,-31.9847367179222,0.450000000000003,0.,      139P    236
0.,0.;                                                               139P    237
126,2,2,0,0,0,0,-0.785398163397452,-0.785398163397452,               141P    238
-0.785398163397452,0.785398163397443,0.785398163397443,              141P    239
0.785398163397443,1.,0.707106781186549,1.,320.847367179223,          141P    240
-0.499999999999998,8.5,320.847367179223,1.,8.5,319.347367179223,     141P    241
1.,8.5,-0.785398163397452,0.785398163397443,0.,0.,0.;                141P    242
126,1,1,0,0,1,0,-0.2,-0.2,0.,0.,1.,1.,-4.99999999999998,1.,10.5,     143P    243
-4.99999999999998,1.,8.5,-0.2,0.,0.,0.,0.;                           143P    244
126,1,1,0,0,1,0,0.,0.,0.2,0.2,1.,1.,-6.49999999999997,-0.5,8.5,      145P    245
-6.49999999999997,-0.5,10.5,0.,0.2,0.,0.,0.;                         145P    246
126,1,1,0,0,1,0,0.,0.,0.2,0.2,1.,1.,319.347367179223,1.,8.5,         147P    247
319.347367179223,1.,10.5,0.,0.2,0.,0.,0.;                            147P    248
128,1,8,1,2,0,1,0,0,1,0.,0.,1.99999999999997,1.99999999999997,       149P    249
-3.14159265358979,-3.14159265358979,-3.14159265358979,               149P    250
-1.5707963267949,-1.5707963267949,0.,0.,1.5707963267949,             149P    251
1.5707963267949,3.14159265358979,3.14159265358979,                   149P    252
3.14159265358979,1.,1.,0.707106781186548,0.707106781186548,1.,       149P    253
1.,0.707106781186548,0.707106781186548,1.,1.,0.707106781186548,      149P    254
0.707106781186548,1.,1.,0.707106781186548,0.707106781186548,1.,      149P    255
1.,318.847367180635,-1.99999999858785,10.5,318.847367180635,         149P    256
-1.99999999858785,8.5,318.847367180635,-2.99999999858786,10.5,       149P    257
318.847367180635,-2.99999999858786,8.5,317.847367180635,             149P    258
-2.99999999858786,10.5,317.847367180635,-2.99999999858786,8.5,       149P    259
316.847367180635,-2.99999999858786,10.5,316.847367180635,            149P    260
-2.99999999858786,8.5,316.847367180635,-1.99999999858785,10.5,       149P    261
316.847367180635,-1.99999999858785,8.5,316.847367180635,             149P    262
-0.999999998587833,10.5,316.847367180635,-0.999999998587833,8.5,     149P    263
317.847367180635,-0.999999998587833,10.5,317.847367180635,           149P    264
-0.999999998587833,8.5,318.847367180635,-0.999999998587833,10.5,     149P    265
318.847367180635,-0.999999998587833,8.5,318.847367180635,            149P    266
-1.99999999858785,10.5,318.847367180635,-1.99999999858785,8.5,       149P    267
0.,1.99999999999997,-3.14159265358979,3.14159265358979;              149P    268
128,1,8,1,2,0,1,0,0,1,0.,0.,2.,2.,-3.14159265358979,                 151P    269
-3.14159265358979,-3.14159265358979,-1.5707963267949,                151P    270
-1.5707963267949,0.,0.,1.5707963267949,1.5707963267949,              151P    271
3.14159265358979,3.14159265358979,3.14159265358979,1.,1.,            151P    272
0.707106781186548,0.707106781186548,1.,1.,0.707106781186548,         151P    273
0.707106781186548,1.,1.,0.707106781186548,0.707106781186548,1.,      151P    274
1.,0.707106781186548,0.707106781186548,1.,1.,-2.49999999999998,      151P    275
-1.97938930346644,10.5,-2.49999999999998,-1.97938930346644,8.5,      151P    276
-2.49999999999998,-2.97938930346644,10.5,-2.49999999999998,          151P    277
-2.97938930346644,8.5,-3.49999999999998,-2.97938930346644,10.5,      151P    278
-3.49999999999998,-2.97938930346644,8.5,-4.49999999999998,           151P    279
-2.97938930346644,10.5,-4.49999999999998,-2.97938930346644,8.5,      151P    280
-4.49999999999998,-1.97938930346644,10.5,-4.49999999999998,          151P    281
-1.97938930346644,8.5,-4.49999999999998,-0.979389303466442,10.5,     151P    282
-4.49999999999998,-0.979389303466442,8.5,-3.49999999999998,          151P    283
-0.979389303466442,10.5,-3.49999999999998,-0.979389303466442,        151P    284
8.5,-2.49999999999998,-0.979389303466442,10.5,-2.49999999999998,     151P    285
-0.979389303466442,8.5,-2.49999999999998,-1.97938930346644,10.5,     151P    286
-2.49999999999998,-1.97938930346644,8.5,0.,2.,-3.14159265358979,     151P    287
3.14159265358979;                                                    151P    288
128,1,8,1,2,0,1,0,0,1,0.,0.,1.99999999999997,1.99999999999997,       153P    289
-3.14159265358979,-3.14159265358979,-3.14159265358979,               153P    290
-1.5707963267949,-1.5707963267949,0.,0.,1.5707963267949,             153P    291
1.5707963267949,3.14159265358979,3.14159265358979,                   153P    292
3.14159265358979,1.,1.,0.707106781186548,0.707106781186548,1.,       153P    293
1.,0.707106781186548,0.707106781186548,1.,1.,0.707106781186548,      153P    294
0.707106781186548,1.,1.,0.707106781186548,0.707106781186548,1.,      153P    295
1.,318.847367179222,-15.9999999988687,10.5,318.847367179222,         153P    296
-15.9999999988687,8.5,318.847367179222,-16.9999999988687,10.5,       153P    297
318.847367179222,-16.9999999988687,8.5,317.847367179222,             153P    298
-16.9999999988687,10.5,317.847367179222,-16.9999999988687,8.5,       153P    299
316.847367179222,-16.9999999988687,10.5,316.847367179222,            153P    300
-16.9999999988687,8.5,316.847367179222,-15.9999999988687,10.5,       153P    301
316.847367179222,-15.9999999988687,8.5,316.847367179222,             153P    302
-14.9999999988687,10.5,316.847367179222,-14.9999999988687,8.5,       153P    303
317.847367179222,-14.9999999988687,10.5,317.847367179222,            153P    304
-14.9999999988687,8.5,318.847367179222,-14.9999999988687,10.5,       153P    305
318.847367179222,-14.9999999988687,8.5,318.847367179222,             153P    306
-15.9999999988687,10.5,318.847367179222,-15.9999999988687,8.5,       153P    307
0.,1.99999999999997,-3.14159265358979,3.14159265358979;              153P    308
128,1,8,1,2,0,1,0,0,1,0.,0.,2.,2.,-3.14159265358979,                 155P    309
-3.14159265358979,-3.14159265358979,-1.5707963267949,                155P    310
-1.5707963267949,0.,0.,1.5707963267949,1.5707963267949,              155P    311
3.14159265358979,3.14159265358979,3.14159265358979,1.,1.,            155P    312
0.707106781186548,0.707106781186548,1.,1.,0.707106781186548,         155P    313
0.707106781186548,1.,1.,0.707106781186548,0.707106781186548,1.,      155P    314
1.,0.707106781186548,0.707106781186548,1.,1.,-2.49999999999998,      155P    315
-15.9999999988688,10.5,-2.49999999999998,-15.9999999988688,8.5,      155P    316
-2.49999999999998,-16.9999999988688,10.5,-2.49999999999998,          155P    317
-16.9999999988688,8.5,-3.49999999999998,-16.9999999988688,10.5,      155P    318
-3.49999999999998,-16.9999999988688,8.5,-4.49999999999998,           155P    319
-16.9999999988688,10.5,-4.49999999999998,-16.9999999988688,8.5,      155P    320
-4.49999999999998,-15.9999999988688,10.5,-4.49999999999998,          155P    321
-15.9999999988688,8.5,-4.49999999999998,-14.9999999988688,10.5,      155P    322
-4.49999999999998,-14.9999999988688,8.5,-3.49999999999998,           155P    323
-14.9999999988688,10.5,-3.49999999999998,-14.9999999988688,8.5,      155P    324
-2.49999999999998,-14.9999999988688,10.5,-2.49999999999998,          155P    325
-14.9999999988688,8.5,-2.49999999999998,-15.9999999988688,10.5,      155P    326
-2.49999999999998,-15.9999999988688,8.5,0.,2.,-3.14159265358979,     155P    327
3.14159265358979;                                                    155P    328
128,1,2,1,2,0,0,0,0,0,-0.49698036146438,-0.49698036146438,           157P    329
0.645876781392763,0.645876781392763,-0.785398163397457,              157P    330
-0.785398163397457,-0.785398163397457,0.785398163397439,             157P    331
0.785398163397439,0.785398163397439,1.,1.,0.707106781186548,         157P    332
0.707106781186548,1.,1.,320.847367179223,-17.2499999988687,8.5,      157P    333
320.847367179223,-17.2499999988687,10.5,320.847367179223,            157P    334
-18.9999999988688,8.5,320.847367179223,-18.9999999988688,10.5,       157P    335
319.097367179223,-18.9999999988688,8.5,319.097367179223,             157P    336
-18.9999999988688,10.5,-0.49698036146438,0.645876781392763,          157P    337
-0.785398163397457,0.785398163397439;                                157P    338
128,1,1,1,1,0,0,1,0,0,0.0250568734874669,0.0250568734874669,         159P    339
0.227056873487467,0.227056873487467,-16.2302209804953,               159P    340
-16.2302209804953,16.156515737427,16.156515737427,1.,1.,1.,1.,       159P    341
-4.76000000000003,-18.9999999988687,10.51,-4.76000000000003,         159P    342
-18.9999999988687,8.49,319.107367179223,-18.9999999988687,10.51,     159P    343
319.107367179223,-18.9999999988687,8.49,0.0250568734874669,          159P    344
0.227056873487467,-16.2302209804953,16.156515737427;                 159P    345
128,1,1,1,1,0,0,1,0,0,-16.3683683589611,-16.3683683589611,           161P    346
16.3683683589611,16.3683683589611,-0.350999999886876,                161P    347
-0.350999999886876,1.651,1.651,1.,1.,1.,1.,-6.51,                    161P    348
-19.0099999988687,10.5,320.857367179223,-19.0099999988687,10.5,      161P    349
-6.51,1.01,10.5,320.857367179223,1.01,10.5,-16.3683683589611,        161P    350
16.3683683589611,-0.350999999886876,1.651;                           161P    351
128,1,2,1,2,0,0,0,0,0,-0.645876781392763,-0.645876781392763,         163P    352
0.496980361464379,0.496980361464379,-0.78539816339745,               163P    353
-0.78539816339745,-0.78539816339745,0.785398163397449,               163P    354
0.785398163397449,0.785398163397449,1.,1.,0.707106781186547,         163P    355
0.707106781186547,1.,1.,-6.49999999999998,-17.2499999988687,         163P    356
10.5,-6.49999999999998,-17.2499999988687,8.5,-6.49999999999998,      163P    357
-18.9999999988687,10.5,-6.49999999999998,-18.9999999988687,8.5,      163P    358
-4.74999999999998,-18.9999999988687,10.5,-4.74999999999998,          163P    359
-18.9999999988687,8.5,-0.645876781392763,0.496980361464379,          163P    360
-0.78539816339745,0.785398163397449;                                 163P    361
128,1,1,1,1,0,0,1,0,0,1.47400000011312,1.47400000011312,3.151,       165P    362
3.151,-0.001,-0.001,0.201,0.201,1.,1.,1.,1.,320.847367179222,        165P    363
-17.2599999988687,8.49,320.847367179222,-0.489999999999999,8.49,     165P    364
320.847367179222,-17.2599999988687,10.51,320.847367179222,           165P    365
-0.489999999999999,10.51,1.47400000011312,3.151,-0.001,0.201;        165P    366
128,1,1,1,1,0,0,1,0,0,-16.3683683589611,-16.3683683589611,           167P    367
16.3683683589611,16.3683683589611,-0.350999999886876,                167P    368
-0.350999999886876,1.651,1.651,1.,1.,1.,1.,320.857367179223,         167P    369
-19.0099999988687,8.5,-6.50999999999998,-19.0099999988687,8.5,       167P    370
320.857367179223,1.01,8.5,-6.50999999999998,1.01,8.5,                167P    371
-16.3683683589611,16.3683683589611,-0.350999999886876,1.651;         167P    372
128,1,2,1,2,0,0,0,0,0,0.,0.,1.33333333333333,1.33333333333333,       169P    373
-0.785398163397445,-0.785398163397445,-0.785398163397445,            169P    374
0.785398163397451,0.785398163397451,0.785398163397451,1.,1.,         169P    375
0.707106781186548,0.707106781186548,1.,1.,-4.99999999999998,         169P    376
0.999999999999999,10.5,-4.99999999999998,0.999999999999999,8.5,      169P    377
-6.49999999999998,1.,10.5,-6.49999999999998,1.,8.5,                  169P    378
-6.49999999999998,-0.499999999999999,10.5,-6.49999999999998,         169P    379
-0.499999999999999,8.5,0.,1.33333333333333,-0.785398163397445,       169P    380
0.785398163397451;                                                   169P    381
128,1,1,1,1,0,0,1,0,0,0.148999992549419,0.148999992549419,           171P    382
1.82599999243629,1.82599999243629,-0.001,-0.001,0.201,0.201,1.,      171P    383
1.,1.,1.,-6.49999999999997,-0.49,8.49,-6.49999999999998,             171P    384
-17.2599999988687,8.49,-6.49999999999997,-0.49,10.51,                171P    385
-6.49999999999998,-17.2599999988687,10.51,0.148999992549419,         171P    386
1.82599999243629,-0.001,0.201;                                       171P    387
128,1,2,1,2,0,0,0,0,0,0.,0.,1.33333333333333,1.33333333333333,       173P    388
-0.785398163397453,-0.785398163397453,-0.785398163397453,            173P    389
0.785398163397444,0.785398163397444,0.785398163397444,1.,1.,         173P    390
0.707106781186548,0.707106781186548,1.,1.,320.847367179223,          173P    391
-0.500000000000015,10.5,320.847367179223,-0.500000000000015,8.5,     173P    392
320.847367179223,1.00000000000001,10.5,320.847367179223,             173P    393
1.00000000000001,8.5,319.347367179223,1.00000000000001,10.5,         173P    394
319.347367179223,1.00000000000001,8.5,0.,1.33333333333333,           173P    395
-0.785398163397453,0.785398163397444;                                173P    396
128,1,1,1,1,0,0,1,0,0,0.148999999999995,0.148999999999995,           175P    397
32.5857367179222,32.5857367179222,-0.001,-0.001,0.201,0.201,1.,      175P    398
1.,1.,1.,319.357367179223,1.,8.49,-5.00999999999998,1.,8.49,         175P    399
319.357367179223,1.,10.51,-5.00999999999998,1.,10.51,                175P    400
0.148999999999995,32.5857367179222,-0.001,0.201;                     175P    401
502,24,318.847367180635,-1.99999999858785,10.5,318.847367180635,     177P    402
-1.99999999858785,8.5,-2.49999999999998,-1.97938930346644,10.5,      177P    403
-2.49999999999998,-1.97938930346644,8.5,318.847367179222,            177P    404
-15.9999999988687,10.5,318.847367179222,-15.9999999988687,8.5,       177P    405
-2.49999999999998,-15.9999999988688,10.5,-2.49999999999998,          177P    406
-15.9999999988688,8.5,319.097367179222,-18.9999999988687,8.5,        177P    407
320.847367179222,-17.2499999988687,8.5,320.847367179222,             177P    408
-17.2499999988687,10.5,319.097367179222,-18.9999999988687,10.5,      177P    409
-4.74999999999998,-18.9999999988687,10.5,-4.74999999999998,          177P    410
-18.9999999988687,8.5,320.847367179222,-0.499999999999998,10.5,      177P    411
319.347367179223,1.,10.5,-5.,1.,10.5,-6.49999999999997,-0.5,         177P    412
10.5,-6.49999999999998,-17.2499999988687,10.5,-6.49999999999998,     177P    413
-17.2499999988687,8.5,320.847367179222,-0.499999999999998,8.5,       177P    414
-6.49999999999997,-0.5,8.5,-5.,1.,8.5,319.347367179223,1.,8.5;       177P    415
504,36,77,177,1,177,1,79,177,1,177,2,81,177,2,177,2,83,177,3,        179P    416
177,3,85,177,3,177,4,87,177,4,177,4,89,177,5,177,5,91,177,5,177,     179P    417
6,93,177,6,177,6,95,177,7,177,7,97,177,7,177,8,99,177,8,177,8,       179P    418
101,177,9,177,10,103,177,10,177,11,105,177,11,177,12,107,177,12,     179P    419
177,9,109,177,13,177,12,111,177,14,177,13,113,177,9,177,14,115,      179P    420
177,11,177,15,117,177,16,177,15,119,177,16,177,17,121,177,18,        179P    421
177,17,123,177,18,177,19,125,177,13,177,19,127,177,19,177,20,        179P    422
129,177,20,177,14,131,177,10,177,21,133,177,15,177,21,135,177,       179P    423
22,177,20,137,177,23,177,22,139,177,23,177,24,141,177,21,177,24,     179P    424
143,177,17,177,23,145,177,22,177,18,147,177,24,177,16;               179P    425
406,1,14HAcrylic window;                                             181P    426
314,96.4705882352941,96.4705882352941,95.2941176470588,15HAcryli     183P    427
c (Clear);                                                           183P    428
314,62.7450980392157,62.7450980392157,62.7450980392157,13HSteel      185P    429
- Satin;                                                             185P    430
S      1G      3D    186P    430                                        T      1
